<svg width="16" height="17" viewBox="0 0 16 17" fill="none" xmlns="http://www.w3.org/2000/svg">
<path d="M14.4003 8.98703L10.0699 13.3349C9.93073 13.474 9.75682 13.5436 9.58291 13.5436C9.40899 13.5436 9.23508 13.474 9.09595 13.3349C8.81769 13.0566 8.81769 12.6218 9.09595 12.3436L12.2438 9.19573H2.08725C1.70465 9.19573 1.3916 8.88269 1.3916 8.50008C1.3916 8.11747 1.70465 7.80443 2.08725 7.80443H12.2438L9.07856 4.63921C8.8003 4.36095 8.8003 3.92617 9.07856 3.6479C9.35682 3.36964 9.7916 3.36964 10.0699 3.6479L14.4003 7.99573C14.6786 8.27399 14.6786 8.72617 14.4003 8.98703Z" fill="#3A89FF"/>
</svg>
