<svg width="20" height="20" viewBox="0 0 20 20" fill="none" xmlns="http://www.w3.org/2000/svg">
<path d="M11.666 6.69299H12.4993C12.7204 6.69299 12.9323 6.6052 13.0886 6.44892C13.2449 6.29263 13.3327 6.08067 13.3327 5.85966C13.3327 5.63865 13.2449 5.42668 13.0886 5.2704C12.9323 5.11412 12.7204 5.02633 12.4993 5.02633H11.666C11.445 5.02633 11.233 5.11412 11.0768 5.2704C10.9205 5.42668 10.8327 5.63865 10.8327 5.85966C10.8327 6.08067 10.9205 6.29263 11.0768 6.44892C11.233 6.6052 11.445 6.69299 11.666 6.69299ZM11.666 10.0263H12.4993C12.7204 10.0263 12.9323 9.93853 13.0886 9.78225C13.2449 9.62597 13.3327 9.41401 13.3327 9.19299C13.3327 8.97198 13.2449 8.76002 13.0886 8.60374C12.9323 8.44746 12.7204 8.35966 12.4993 8.35966H11.666C11.445 8.35966 11.233 8.44746 11.0768 8.60374C10.9205 8.76002 10.8327 8.97198 10.8327 9.19299C10.8327 9.41401 10.9205 9.62597 11.0768 9.78225C11.233 9.93853 11.445 10.0263 11.666 10.0263ZM7.49935 6.69299H8.33268C8.5537 6.69299 8.76566 6.6052 8.92194 6.44892C9.07822 6.29263 9.16602 6.08067 9.16602 5.85966C9.16602 5.63865 9.07822 5.42668 8.92194 5.2704C8.76566 5.11412 8.5537 5.02633 8.33268 5.02633H7.49935C7.27834 5.02633 7.06637 5.11412 6.91009 5.2704C6.75381 5.42668 6.66602 5.63865 6.66602 5.85966C6.66602 6.08067 6.75381 6.29263 6.91009 6.44892C7.06637 6.6052 7.27834 6.69299 7.49935 6.69299ZM7.49935 10.0263H8.33268C8.5537 10.0263 8.76566 9.93853 8.92194 9.78225C9.07822 9.62597 9.16602 9.41401 9.16602 9.19299C9.16602 8.97198 9.07822 8.76002 8.92194 8.60374C8.76566 8.44746 8.5537 8.35966 8.33268 8.35966H7.49935C7.27834 8.35966 7.06637 8.44746 6.91009 8.60374C6.75381 8.76002 6.66602 8.97198 6.66602 9.19299C6.66602 9.41401 6.75381 9.62597 6.91009 9.78225C7.06637 9.93853 7.27834 10.0263 7.49935 10.0263ZM17.4993 16.693H16.666V2.52633C16.666 2.30531 16.5782 2.09335 16.4219 1.93707C16.2657 1.78079 16.0537 1.69299 15.8327 1.69299H4.16602C3.945 1.69299 3.73304 1.78079 3.57676 1.93707C3.42048 2.09335 3.33268 2.30531 3.33268 2.52633V16.693H2.49935C2.27834 16.693 2.06637 16.7808 1.91009 16.9371C1.75381 17.0934 1.66602 17.3053 1.66602 17.5263C1.66602 17.7473 1.75381 17.9593 1.91009 18.1156C2.06637 18.2719 2.27834 18.3597 2.49935 18.3597H17.4993C17.7204 18.3597 17.9323 18.2719 18.0886 18.1156C18.2449 17.9593 18.3327 17.7473 18.3327 17.5263C18.3327 17.3053 18.2449 17.0934 18.0886 16.9371C17.9323 16.7808 17.7204 16.693 17.4993 16.693ZM10.8327 16.693H9.16602V13.3597H10.8327V16.693ZM14.9993 16.693H12.4993V12.5263C12.4993 12.3053 12.4116 12.0934 12.2553 11.9371C12.099 11.7808 11.887 11.693 11.666 11.693H8.33268C8.11167 11.693 7.89971 11.7808 7.74343 11.9371C7.58715 12.0934 7.49935 12.3053 7.49935 12.5263V16.693H4.99935V3.35966H14.9993V16.693Z" fill="#9DABB9"/>
</svg>
