<svg width="24" height="24" viewBox="0 0 24 24" fill="none" xmlns="http://www.w3.org/2000/svg">
<path fill-rule="evenodd" clip-rule="evenodd" d="M10.9754 6.25443C11.5614 6.90396 11.3756 7.63981 10.8575 8.33802C10.7347 8.50356 10.5931 8.66666 10.4221 8.84639C10.34 8.93266 10.276 8.99754 10.1421 9.13155C9.83805 9.43589 9.58247 9.69161 9.37532 9.89874C9.27487 9.99918 9.96069 11.3697 11.2917 12.702C12.622 14.0335 13.9924 14.7198 14.0933 14.6188L14.8595 13.8522C15.2815 13.4298 15.5049 13.226 15.812 13.0246C16.4504 12.6058 17.1467 12.492 17.7339 13.0171C19.6513 14.3886 20.7363 15.2302 21.2679 15.7825C22.3047 16.8598 22.1688 18.5181 21.2738 19.4641C20.9634 19.7921 20.5699 20.1859 20.1051 20.634C17.2935 23.4471 11.3599 21.7351 6.81237 17.1831C2.26382 12.6301 0.552792 6.69589 3.35844 3.88873C3.86214 3.37712 4.02821 3.21113 4.51877 2.72777C5.43209 1.82784 7.16686 1.68693 8.22142 2.72866C8.77612 3.27662 9.66046 4.41445 10.9754 6.25443ZM16.2731 15.2662L15.5067 16.0331C14.204 17.3365 11.9855 16.2254 9.87795 14.1159C7.769 12.0048 6.65919 9.78712 7.96234 8.48408C8.1692 8.27723 8.42455 8.02174 8.72836 7.71764C8.85094 7.59494 8.90701 7.5381 8.97431 7.46737C9.06601 7.37099 9.14136 7.28635 9.20168 7.21145C8.03632 5.58811 7.24412 4.57376 6.81705 4.15189C6.5965 3.93401 6.10264 3.97413 5.92133 4.15278C5.43778 4.62924 5.27884 4.7881 4.77717 5.29761C2.97286 7.10291 4.35412 11.8934 8.22611 15.7692C12.0969 19.6438 16.8867 21.0257 18.7047 19.2069C19.1623 18.7656 19.5352 18.3925 19.8221 18.0892C20.0295 17.87 20.0666 17.4177 19.828 17.1698C19.4307 16.757 18.4579 15.9985 16.7783 14.7923C16.6558 14.8909 16.5053 15.0338 16.2731 15.2662Z" fill="#9DABB9"/>
</svg>
