<svg width="64" height="64" viewBox="0 0 64 64" fill="none" xmlns="http://www.w3.org/2000/svg">
<rect width="64" height="64" rx="4" fill="#DC1C4D"/>
<path d="M31.5119 36.5793C31.2352 36.5793 30.9816 36.4871 30.7741 36.2796L26.1862 31.6917C25.7713 31.2767 25.7713 30.6312 26.1862 30.2162C26.6012 29.8012 27.2468 29.8012 27.6617 30.2162L31.5349 34.0663L40.7338 24.8905C41.1488 24.4755 41.7943 24.4755 42.2093 24.8905C42.6243 25.3055 42.6243 25.951 42.2093 26.366L32.2727 36.2796C32.0421 36.4871 31.7885 36.5793 31.5119 36.5793Z" fill="white"/>
<path d="M15.5149 46.6595C15.5149 47.017 15.6234 47.3297 15.8404 47.5978C16.0575 47.8659 16.3575 48 16.7405 48C17.0724 48 17.3597 47.8787 17.6022 47.6361L25.9007 39.842C27.1263 40.8506 28.47 41.623 29.9318 42.1592C31.3936 42.6954 32.9224 42.9635 34.5183 42.9635C35.7566 42.9635 36.9503 42.8039 38.0993 42.4847C39.2484 42.1656 40.3208 41.7123 41.3166 41.1251C42.3124 40.5378 43.222 39.8324 44.0455 39.009C44.8689 38.1855 45.5743 37.2759 46.1616 36.2801C46.7489 35.2843 47.2021 34.2118 47.5212 33.0628C47.8404 31.9138 48 30.7201 48 29.4817C48 28.2434 47.8404 27.0497 47.5212 25.9007C47.2021 24.7516 46.7489 23.6792 46.1616 22.6834C45.5743 21.6876 44.8689 20.778 44.0455 19.9545C43.222 19.1311 42.3124 18.4257 41.3166 17.8384C40.3208 17.2511 39.2484 16.7979 38.0993 16.4788C36.9503 16.1596 35.7566 16 34.5183 16C33.2799 16 32.0862 16.1596 30.9372 16.4788C29.7882 16.7979 28.7157 17.2511 27.7199 17.8384C26.7241 18.4257 25.8145 19.1311 24.991 19.9545C24.1676 20.778 23.4622 21.6876 22.8749 22.6834C22.2877 23.6792 21.8344 24.7516 21.5153 25.9007C21.1961 27.0497 21.0365 28.2434 21.0365 29.4817C21.0365 31.0776 21.3046 32.6064 21.8408 34.0682C22.377 35.53 23.1494 36.8737 24.158 38.0993C23.9665 38.2908 23.5994 38.6547 23.0569 39.1909C22.5143 39.7271 21.8632 40.3654 21.1035 41.1059C20.3439 41.8464 19.5141 42.6603 18.614 43.5476C17.7139 44.4349 16.8075 45.3349 15.8947 46.2478C14.9818 47.1606 21.9589 40.2378 21.1035 41.1059C20.2482 41.9741 18.4849 43.6415 17.821 44.3437C17.1571 45.0459 16.2904 45.7818 15.8947 46.2478C15.4989 46.7137 15.5149 46.5574 15.5149 46.6595ZM34.5183 40.5123C32.999 40.5123 31.5691 40.2218 30.2286 39.6409C28.8881 39.06 27.7199 38.2717 26.7241 37.2759C25.7283 36.2801 24.94 35.1119 24.3591 33.7714C23.7782 32.4309 23.4877 31.001 23.4877 29.4817C23.4877 27.9625 23.7782 26.5326 24.3591 25.1921C24.94 23.8516 25.7283 22.6834 26.7241 21.6876C27.7199 20.6918 28.8881 19.9035 30.2286 19.3226C31.5691 18.7417 32.999 18.4512 34.5183 18.4512C36.0375 18.4512 37.4674 18.7417 38.8079 19.3226C40.1484 19.9035 41.3166 20.6918 42.3124 21.6876C43.3082 22.6834 44.0965 23.8516 44.6774 25.1921C45.2583 26.5326 45.5488 27.9625 45.5488 29.4817C45.5488 31.001 45.2583 32.4309 44.6774 33.7714C44.0965 35.1119 43.3082 36.2801 42.3124 37.2759C41.3166 38.2717 40.1484 39.06 38.8079 39.6409C37.4674 40.2218 36.0375 40.5123 34.5183 40.5123Z" fill="white"/>
</svg>
