<svg width="36" height="36" viewBox="0 0 36 36" fill="none" xmlns="http://www.w3.org/2000/svg">
<path d="M17.992 9.66675C13.392 9.66675 9.66699 13.4001 9.66699 18.0001C9.66699 22.6001 13.392 26.3334 17.992 26.3334C22.6003 26.3334 26.3337 22.6001 26.3337 18.0001C26.3337 13.4001 22.6003 9.66675 17.992 9.66675ZM18.0003 24.6667C14.317 24.6667 11.3337 21.6834 11.3337 18.0001C11.3337 14.3167 14.317 11.3334 18.0003 11.3334C21.6837 11.3334 24.667 14.3167 24.667 18.0001C24.667 21.6834 21.6837 24.6667 18.0003 24.6667Z" fill="#8A6D3B"/>
<path d="M18.417 13.8333H17.167V18.8333L21.542 21.4583L22.167 20.4333L18.417 18.2083V13.8333Z" fill="#8A6D3B"/>
</svg>
