<svg width="24" height="24" viewBox="0 0 24 24" fill="none" xmlns="http://www.w3.org/2000/svg">
<g clip-path="url(#clip0)">
<path fill-rule="evenodd" clip-rule="evenodd" d="M12 0C9.62663 0 7.30656 0.703773 5.33317 2.02235C3.35978 3.34093 1.8217 5.21507 0.913449 7.40778C0.00519789 9.6005 -0.23244 12.0133 0.230583 14.3411C0.693605 16.6689 1.8365 18.8071 3.51473 20.4853C5.19296 22.1635 7.33114 23.3064 9.65892 23.7694C11.9867 24.2324 14.3995 23.9948 16.5922 23.0865C18.7849 22.1783 20.6591 20.6402 21.9776 18.6668C23.2962 16.6934 24 14.3734 24 12C23.9964 8.81851 22.731 5.76834 20.4813 3.51869C18.2316 1.26903 15.1815 0.00360918 12 0ZM12 22.3636C9.95027 22.3636 7.94656 21.7558 6.24227 20.6171C4.53798 19.4783 3.20965 17.8597 2.42525 15.966C1.64085 14.0723 1.43562 11.9885 1.8355 9.97818C2.23539 7.96783 3.22242 6.12117 4.67181 4.67179C6.12119 3.22241 7.9678 2.2354 9.97815 1.83552C11.9885 1.43563 14.0723 1.64085 15.966 2.42525C17.8597 3.20965 19.4783 4.53801 20.617 6.2423C21.7558 7.94659 22.3636 9.95027 22.3636 12C22.3636 14.7486 21.2718 17.3847 19.3282 19.3282C17.3846 21.2718 14.7486 22.3636 12 22.3636ZM17.4545 11.4545H12.5455V5.45455C12.5455 5.23755 12.4593 5.02944 12.3058 4.876C12.1524 4.72256 11.9443 4.63636 11.7273 4.63636C11.5103 4.63636 11.3022 4.72256 11.1487 4.876C10.9953 5.02944 10.9091 5.23755 10.9091 5.45455V13.0909H17.4545C17.6715 13.0909 17.8797 13.0047 18.0331 12.8513C18.1865 12.6978 18.2727 12.4897 18.2727 12.2727C18.2727 12.0557 18.1865 11.8476 18.0331 11.6942C17.8797 11.5407 17.6715 11.4545 17.4545 11.4545Z" fill="#9DABB9"/>
</g>
<defs>
<clipPath id="clip0">
<rect width="24" height="24" fill="white"/>
</clipPath>
</defs>
</svg>
