<svg width="21" height="20" viewBox="0 0 21 20" fill="none" xmlns="http://www.w3.org/2000/svg">
<path d="M11.9969 10L16.1868 5.81011C16.3856 5.61161 16.4975 5.34224 16.4977 5.06127C16.498 4.7803 16.3866 4.51074 16.1881 4.31189C15.9896 4.11304 15.7202 4.00118 15.4393 4.00094C15.1583 4.00069 14.8887 4.11206 14.6899 4.31057L10.5 8.50046L6.31011 4.31057C6.11125 4.11171 5.84155 4 5.56034 4C5.27912 4 5.00942 4.11171 4.81057 4.31057C4.61171 4.50942 4.5 4.77912 4.5 5.06034C4.5 5.34155 4.61171 5.61125 4.81057 5.81011L9.00046 10L4.81057 14.1899C4.61171 14.3887 4.5 14.6584 4.5 14.9397C4.5 15.2209 4.61171 15.4906 4.81057 15.6894C5.00942 15.8883 5.27912 16 5.56034 16C5.84155 16 6.11125 15.8883 6.31011 15.6894L10.5 11.4995L14.6899 15.6894C14.8887 15.8883 15.1584 16 15.4397 16C15.7209 16 15.9906 15.8883 16.1894 15.6894C16.3883 15.4906 16.5 15.2209 16.5 14.9397C16.5 14.6584 16.3883 14.3887 16.1894 14.1899L11.9969 10Z" fill="#DC1C4D"/>
</svg>
