<svg width="65" height="64" viewBox="0 0 65 64" fill="none" xmlns="http://www.w3.org/2000/svg">
<circle cx="40" cy="28" r="18" fill="#FFD3DF"/>
<path d="M47.0413 38.5668V25.4301C47.0408 25.0002 46.9277 24.5778 46.7132 24.2052C46.4987 23.8325 46.1904 23.5225 45.8189 23.3061L34.1255 16.5008C33.5621 16.1728 32.9218 16 32.2699 16C31.618 16 30.9777 16.1728 30.4143 16.5008L18.7224 23.3061C18.3509 23.5225 18.0426 23.8325 17.8281 24.2052C17.6137 24.5778 17.5005 25.0002 17.5 25.4301V38.5668C17.5003 38.997 17.6133 39.4196 17.8277 39.7926C18.0422 40.1655 18.3507 40.4758 18.7224 40.6924L30.4159 47.4976C30.9794 47.8252 31.6196 47.9977 32.2714 47.9977C32.9232 47.9977 33.5635 47.8252 34.127 47.4976L45.8204 40.6924C46.1919 40.4756 46.5 40.1653 46.7143 39.7923C46.9285 39.4194 47.0412 38.9969 47.0413 38.5668Z" stroke="#DC1C4D" stroke-width="3" stroke-linecap="round" stroke-linejoin="round"/>
<path d="M17.8848 24.1515L32.2708 32.6138L46.6568 24.1515" stroke="#DC1C4D" stroke-width="3" stroke-linecap="round" stroke-linejoin="round"/>
<path d="M32.2705 48V32.6139" stroke="#DC1C4D" stroke-width="3" stroke-linecap="round" stroke-linejoin="round"/>
</svg>
