<svg width="121" height="125" viewBox="0 0 121 125" fill="none" xmlns="http://www.w3.org/2000/svg">
<circle cx="74.5" cy="46.5" r="46.5" fill="#FFD3DF"/>
<circle cx="35.5" cy="105.5" r="19.5" fill="#FFD3DF"/>
<circle cx="12.5" cy="71.5" r="12.5" fill="#FFD3DF"/>
<path d="M90 72.5883V74.353H68.2306V70.8236H86.4141C86.0188 64.8518 83.6294 59.42 79.9129 55.1741L77.0682 58.0188L74.5729 55.5236L77.4035 52.693C73.1612 48.9765 67.7329 46.6012 61.7647 46.2024V56.7059H58.2353V46.2024C52.2671 46.6012 46.8388 48.9765 42.6 52.693L45.4094 55.5024L42.9141 57.9977L40.0906 55.1741C36.3741 59.42 33.9812 64.8518 33.5894 70.8236H51.84V74.353H30V72.5883C30 56.0459 43.4576 42.5883 60 42.5883C76.5424 42.5883 90 56.0459 90 72.5883ZM67.0588 72.5883C67.0588 76.4812 63.8929 79.6471 60 79.6471C56.1071 79.6471 52.9412 76.4812 52.9412 72.5883C52.9412 70.3153 54.0388 68.3177 55.7082 67.0224L48.36 54.2106L51.42 52.4565L58.9765 65.6318C59.3118 65.5824 59.6471 65.5294 60 65.5294C63.8929 65.5294 67.0588 68.6953 67.0588 72.5883ZM63.5294 72.5883C63.5294 70.6436 61.9447 69.0588 60 69.0588C58.0553 69.0588 56.4706 70.6436 56.4706 72.5883C56.4706 74.533 58.0553 76.1177 60 76.1177C61.9447 76.1177 63.5294 74.533 63.5294 72.5883Z" fill="#DC1C4D"/>
</svg>
