<svg width="142" height="152" viewBox="0 0 142 152" fill="none" xmlns="http://www.w3.org/2000/svg">
<circle cx="46.5" cy="92.5" r="46.5" fill="#DC1C4D"/>
<circle cx="114.5" cy="45.5" r="19.5" fill="#DC1C4D"/>
<circle cx="72.5" cy="26.5" r="12.5" fill="#DC1C4D"/>
<path d="M93.4452 53.6893C93.422 53.6645 93.4151 53.6317 93.3909 53.6075C93.3668 53.5833 93.3333 53.576 93.3084 53.5526C87.3853 47.6485 79.3632 44.3333 71.0001 44.3333C62.6369 44.3333 54.6149 47.6485 48.6917 53.5526C48.6668 53.576 48.6335 53.5831 48.6092 53.6075C48.5848 53.6318 48.5781 53.6645 48.5549 53.6893C44.1414 58.1239 41.1404 63.7666 39.9308 69.9052C38.7212 76.0438 39.3572 82.4031 41.7584 88.1807C44.1596 93.9582 48.2185 98.8949 53.4227 102.368C58.627 105.841 64.7434 107.694 71.0001 107.694C77.2567 107.694 83.3731 105.841 88.5774 102.368C93.7816 98.8949 97.8405 93.9582 100.242 88.1807C102.643 82.4031 103.279 76.0438 102.069 69.9052C100.86 63.7666 97.8587 58.1239 93.4452 53.6893V53.6893ZM70.9999 101.333C67.2071 101.332 63.4631 100.477 60.0453 98.833C56.6276 97.1885 53.6235 94.7962 51.2557 91.8332H63.9707C64.8514 92.8287 65.9334 93.6258 67.1451 94.1717C68.3569 94.7176 69.6708 94.9999 70.9999 94.9999C72.329 94.9999 73.6429 94.7176 74.8547 94.1717C76.0664 93.6258 77.1484 92.8287 78.029 91.8332H90.7442C88.3764 94.7962 85.3723 97.1886 81.9545 98.833C78.5367 100.478 74.7927 101.332 70.9999 101.333V101.333ZM67.8332 85.4999C67.8332 84.8736 68.0189 84.2614 68.3669 83.7406C68.7149 83.2199 69.2094 82.814 69.7881 82.5743C70.3667 82.3346 71.0034 82.2719 71.6177 82.3941C72.232 82.5163 72.7962 82.8179 73.2391 83.2607C73.6819 83.7036 73.9835 84.2679 74.1057 84.8821C74.2279 85.4964 74.1652 86.1331 73.9255 86.7117C73.6858 87.2904 73.28 87.7849 72.7592 88.1329C72.2384 88.4809 71.6262 88.6666 70.9999 88.6666C70.1603 88.6657 69.3553 88.3318 68.7616 87.7382C68.168 87.1445 67.8341 86.3395 67.8332 85.4999V85.4999ZM94.4656 85.5065L94.4329 85.4999H80.4999C80.4939 83.5417 79.8819 81.6333 78.7479 80.0369C77.6139 78.4404 76.0136 77.234 74.1666 76.5834V66.4999C74.1666 65.6601 73.8329 64.8546 73.2391 64.2607C72.6452 63.6669 71.8397 63.3332 70.9999 63.3332C70.16 63.3332 69.3546 63.6669 68.7607 64.2607C68.1669 64.8546 67.8332 65.6601 67.8332 66.4999V76.5834C65.9862 77.234 64.3859 78.4404 63.2519 80.0369C62.1179 81.6333 61.5059 83.5417 61.4999 85.4999H47.5669L47.5342 85.5065C46.7105 83.4742 46.1566 81.3428 45.8865 79.1666H48.8332C49.6731 79.1666 50.4785 78.8329 51.0724 78.2391C51.6663 77.6452 51.9999 76.8398 51.9999 75.9999C51.9999 75.1601 51.6663 74.3546 51.0724 73.7607C50.4785 73.1669 49.6731 72.8332 48.8332 72.8332H45.8865C46.4524 68.3321 48.2238 64.0674 51.0136 60.4899L53.0869 62.5632C53.3809 62.8573 53.73 63.0905 54.1141 63.2496C54.4983 63.4087 54.91 63.4906 55.3258 63.4906C55.7416 63.4906 56.1534 63.4087 56.5375 63.2496C56.9217 63.0905 57.2707 62.8572 57.5648 62.5632C57.8588 62.2692 58.092 61.9202 58.2511 61.536C58.4103 61.1518 58.4922 60.7401 58.4921 60.3243C58.4921 59.9085 58.4102 59.4967 58.2511 59.1126C58.092 58.7284 57.8588 58.3794 57.5647 58.0854L55.4917 56.0123C59.0688 53.2234 63.3328 51.4524 67.8332 50.8865V53.8332C67.8332 54.6731 68.1669 55.4786 68.7607 56.0724C69.3546 56.6663 70.16 56.9999 70.9999 56.9999C71.8397 56.9999 72.6452 56.6663 73.2391 56.0724C73.8329 55.4786 74.1666 54.6731 74.1666 53.8332V50.8865C78.667 51.4524 82.931 53.2234 86.5081 56.0123L84.435 58.0854C83.8412 58.6792 83.5076 59.4845 83.5076 60.3243C83.5076 61.1641 83.8412 61.9694 84.435 62.5632C85.0288 63.157 85.8342 63.4906 86.674 63.4906C87.5137 63.4906 88.3191 63.157 88.9129 62.5632L90.9862 60.4899C93.776 64.0674 95.5474 68.3321 96.1133 72.8332H93.1666C92.3267 72.8332 91.5213 73.1669 90.9274 73.7607C90.3335 74.3546 89.9999 75.1601 89.9999 75.9999C89.9999 76.8398 90.3335 77.6452 90.9274 78.2391C91.5213 78.8329 92.3267 79.1666 93.1666 79.1666H96.1133C95.8432 81.3428 95.2892 83.4742 94.4656 85.5065V85.5065Z" fill="white"/>
</svg>
