<svg width="48" height="48" viewBox="0 0 48 48" fill="none" xmlns="http://www.w3.org/2000/svg">
<rect width="48" height="48" rx="4" fill="white"/>
<path d="M14 24.3333C13.4477 24.3333 13 23.8856 13 23.3333V14C13 13.4477 13.4477 13 14 13H20.6667C21.219 13 21.6667 13.4477 21.6667 14V23.3333C21.6667 23.8856 21.219 24.3333 20.6667 24.3333H14ZM14 35C13.4477 35 13 34.5523 13 34V30C13 29.4477 13.4477 29 14 29H20.6667C21.219 29 21.6667 29.4477 21.6667 30V34C21.6667 34.5523 21.219 35 20.6667 35H14ZM27.3333 35C26.781 35 26.3333 34.5523 26.3333 34V24.6667C26.3333 24.1144 26.781 23.6667 27.3333 23.6667H34C34.5523 23.6667 35 24.1144 35 24.6667V34C35 34.5523 34.5523 35 34 35H27.3333ZM26.3333 14C26.3333 13.4477 26.781 13 27.3333 13H34C34.5523 13 35 13.4477 35 14V18C35 18.5523 34.5523 19 34 19H27.3333C26.781 19 26.3333 18.5523 26.3333 18V14Z" stroke="#DC1C4D" stroke-width="2"/>
</svg>
