<svg width="64" height="64" viewBox="0 0 64 64" fill="none" xmlns="http://www.w3.org/2000/svg">
<rect width="64" height="64" rx="4" fill="#DC1C4D"/>
<path d="M13 16V42.1818C13 45.3977 15.6023 48 18.8182 48H45C48.2159 48 50.8182 45.3977 50.8182 42.1818V26.1818H42.0909V16H13ZM15.9091 18.9091H39.1818V42.1818C39.1818 43.2443 39.5057 44.233 40 45.0909H18.8182C17.0852 45.0909 15.9091 43.9148 15.9091 42.1818V18.9091ZM18.8182 21.8182V29.0909H36.2727V21.8182H18.8182ZM21.7273 24.7273H33.3636V26.1818H21.7273V24.7273ZM42.0909 29.0909H47.9091V42.1818C47.9091 43.9148 46.733 45.0909 45 45.0909C43.267 45.0909 42.0909 43.9148 42.0909 42.1818V29.0909ZM18.8182 30.5455V33.4545H26.0909V30.5455H18.8182ZM29 30.5455V33.4545H36.2727V30.5455H29ZM18.8182 34.9091V37.8182H26.0909V34.9091H18.8182ZM29 34.9091V37.8182H36.2727V34.9091H29ZM18.8182 39.2727V42.1818H26.0909V39.2727H18.8182ZM29 39.2727V42.1818H36.2727V39.2727H29Z" fill="white"/>
</svg>
