<svg width="48" height="48" viewBox="0 0 48 48" fill="none" xmlns="http://www.w3.org/2000/svg">
<rect width="47.2889" height="48" rx="4" fill="white"/>
<g clip-path="url(#clip0)">
<path d="M38.6325 24.076L24.0774 30.7303L24.0772 30.7304C23.8029 30.8559 23.4869 30.8559 23.2127 30.7304L23.2125 30.7303L8.65632 24.076L11.5776 22.7202L11.5778 22.7201C11.853 22.5922 12.1717 22.5914 12.4485 22.7176C12.4485 22.7177 12.4486 22.7177 12.4487 22.7177L22.7134 27.4096L38.6325 24.076ZM38.6325 24.076L35.7112 22.7202L35.711 22.7201C35.4358 22.5922 35.117 22.5914 34.8402 22.7177L24.5764 27.4096C23.9852 27.6801 23.3049 27.6801 22.7136 27.4097L38.6325 24.076ZM38.6325 32.6515L24.0774 39.3058L24.0772 39.3059C23.8029 39.4314 23.4869 39.4314 23.2127 39.3059L23.2125 39.3058L8.65632 32.6515L11.5776 31.2957L11.5778 31.2956C11.8531 31.1677 12.1719 31.1668 12.4487 31.2932L22.7134 35.9851C22.7135 35.9851 22.7136 35.9851 22.7136 35.9852C23.3049 36.2556 23.9852 36.2556 24.5764 35.9851L34.8402 31.2932C35.117 31.1668 35.4358 31.1677 35.711 31.2956L35.7112 31.2957L38.6325 32.6515ZM8.5782 32.6157C8.5782 32.6157 8.5782 32.6158 8.57821 32.6158L8.5782 32.6157ZM8.65671 15.4246L23.0999 8.71995C23.0999 8.7199 23.1 8.71986 23.1001 8.71981C23.4454 8.56002 23.8446 8.56006 24.1898 8.71995L38.633 15.4246L24.0768 22.0789L24.0766 22.079C23.8023 22.2045 23.4863 22.2045 23.2121 22.079L23.2119 22.079L8.65671 15.4246Z" stroke="#DC1C4D" stroke-width="1.2"/>
</g>
<defs>
<clipPath id="clip0">
<rect width="31.2889" height="32" fill="white" transform="translate(8 8)"/>
</clipPath>
</defs>
</svg>
