<svg width="64" height="64" viewBox="0 0 64 64" fill="none" xmlns="http://www.w3.org/2000/svg">
<rect width="64" height="64" rx="4" fill="#DC1C4D"/>
<g clip-path="url(#clip0)">
<path d="M21.844 30.0522C21.844 30.4348 21.9831 30.7826 22.2613 31.0261L35.2353 43.8261C35.4787 44.0696 35.7918 44.2087 36.1396 44.2087L46.5048 44.8696C46.9222 44.9043 47.3048 44.7304 47.5831 44.4522C47.8613 44.1739 48.0353 43.7913 48.0005 43.3739L47.3396 33.1826C47.3048 32.8348 47.1657 32.5217 46.9222 32.2782L33.9135 19.513C33.6353 19.2348 33.2874 19.0956 32.9396 19.0956C32.5918 19.0956 32.244 19.2348 31.9657 19.513L22.2613 29.0782C21.9831 29.3217 21.844 29.6696 21.844 30.0522ZM32.9396 22.4696L44.557 33.913L45.1135 41.9826L36.8353 41.4609L25.2179 30.0522L32.9396 22.4696ZM38.957 38.8869C38.5744 38.5043 38.3309 37.9478 38.3309 37.4261C38.3309 36.8696 38.5396 36.3478 38.957 35.9652C39.3396 35.5826 39.8961 35.3391 40.4526 35.3391C41.0092 35.3391 41.5309 35.5478 41.9483 35.9652C42.3309 36.3478 42.5744 36.9043 42.5744 37.4261C42.5744 37.9826 42.3657 38.5043 41.9483 38.8869C41.5657 39.2696 41.0092 39.513 40.4526 39.513C39.8961 39.513 39.3396 39.2696 38.957 38.8869ZM16.0005 30.0522C16.0005 29.7391 16.1396 29.4261 16.3483 29.1826L26.0526 19.6522C26.2961 19.4087 26.6092 19.3043 26.9222 19.3043C27.2353 19.3043 27.5483 19.4087 27.7918 19.6522C28.2787 20.1391 28.2787 20.9043 27.7918 21.3565L18.957 30.0174L31.0961 41.9478C31.5831 42.4348 31.5831 43.2 31.0961 43.6522C30.6092 44.1391 29.844 44.1391 29.357 43.6522L16.3483 30.9217C16.1396 30.6782 16.0005 30.3652 16.0005 30.0522Z" fill="white"/>
</g>
<defs>
<clipPath id="clip0">
<rect width="32" height="32" fill="white" transform="translate(48 48) rotate(-180)"/>
</clipPath>
</defs>
</svg>
