<svg width="24" height="24" viewBox="0 0 24 24" fill="none" xmlns="http://www.w3.org/2000/svg">
<path d="M12.0002 6.70441C11.4263 6.70441 10.9567 6.23484 10.9567 5.66093V1.17397C10.9567 0.600058 11.4263 0.130493 12.0002 0.130493C12.5741 0.130493 13.0437 0.600058 13.0437 1.17397V5.66093C13.0437 6.23484 12.5741 6.70441 12.0002 6.70441ZM8.89587 7.7218C9.36543 7.38267 9.46978 6.73049 9.13065 6.26093L6.46978 2.63484C6.13065 2.16528 5.47848 2.06093 5.00891 2.40006C4.53935 2.73919 4.435 3.39136 4.77413 3.86093L7.40891 7.48702C7.61761 7.77397 7.93065 7.90441 8.24369 7.90441C8.47848 7.93049 8.71326 7.85223 8.89587 7.7218ZM6.96543 10.3566C7.14804 9.80875 6.835 9.20875 6.28717 9.05223L2.00891 7.66962C1.46109 7.48701 0.861085 7.80006 0.704564 8.34788C0.521955 8.86962 0.834998 9.46962 1.38282 9.65223L5.66109 11.0348C5.76543 11.0609 5.86978 11.087 5.97413 11.087C6.41761 11.087 6.80891 10.8001 6.96543 10.3566ZM2.00891 16.3305L6.28717 14.9479C6.835 14.7653 7.14804 14.1914 6.96543 13.6435C6.78282 13.0957 6.20891 12.8088 5.66109 12.9653L1.38282 14.3479C0.834998 14.5305 0.521955 15.1044 0.704564 15.6522C0.834998 16.0957 1.25239 16.3827 1.69587 16.3827C1.80022 16.3827 1.90456 16.3827 2.00891 16.3305ZM6.46978 21.3653L9.13065 17.7392C9.46978 17.2696 9.36543 16.6175 8.89587 16.2783C8.4263 15.9392 7.77413 16.0435 7.435 16.5131L4.80022 20.1392C4.46109 20.6088 4.56543 21.2609 5.035 21.6001C5.21761 21.7305 5.4263 21.8088 5.635 21.8088C5.94804 21.8088 6.26108 21.6522 6.46978 21.3653ZM13.0437 22.8261V18.3392C13.0437 17.7653 12.5741 17.2957 12.0002 17.2957C11.4263 17.2957 10.9567 17.7653 10.9567 18.3392V22.8261C10.9567 23.4001 11.4263 23.8696 12.0002 23.8696C12.5741 23.8696 13.0437 23.4001 13.0437 22.8261ZM18.9915 21.6001C19.4611 21.2609 19.5654 20.6088 19.2263 20.1392L16.5654 16.5131C16.2263 16.0435 15.5741 15.9392 15.1046 16.2783C14.635 16.6175 14.5307 17.2696 14.8698 17.7392L17.5046 21.3653C17.7133 21.6522 18.0263 21.7827 18.3393 21.7827C18.5741 21.8088 18.8089 21.7305 18.9915 21.6001ZM23.2959 15.6783C23.4785 15.1305 23.1654 14.5305 22.6176 14.374L18.3393 12.9914C17.7915 12.8088 17.1915 13.1218 17.035 13.6696C16.8524 14.2175 17.1654 14.8174 17.7133 14.974L21.9915 16.3566C22.0959 16.3827 22.2002 16.4088 22.3046 16.4088C22.748 16.3827 23.1654 16.0957 23.2959 15.6783ZM18.3393 11.0348L22.6176 9.65223C23.1654 9.46962 23.4785 8.89571 23.2959 8.34788C23.1133 7.80006 22.5393 7.5131 21.9915 7.66962L17.7133 9.05223C17.1654 9.23484 16.8524 9.80875 17.035 10.3566C17.1654 10.8001 17.5828 11.087 18.0263 11.087C18.1306 11.087 18.235 11.0609 18.3393 11.0348ZM16.5654 7.48702L19.2002 3.86093C19.5393 3.39136 19.435 2.73919 18.9654 2.40006C18.4959 2.06093 17.8437 2.16528 17.5046 2.63484L14.8698 6.26093C14.5307 6.73049 14.635 7.38267 15.1046 7.7218C15.2872 7.85223 15.4959 7.93049 15.7046 7.93049C16.0437 7.93049 16.3567 7.77397 16.5654 7.48702Z" fill="#8A6D3B"/>
</svg>
