<svg width="20" height="21" viewBox="0 0 20 21" fill="none" xmlns="http://www.w3.org/2000/svg">
<g clip-path="url(#clip0)">
<path d="M9.99953 6.08764C9.52127 6.08764 9.12996 5.69633 9.12996 5.21807V1.47894C9.12996 1.00068 9.52127 0.609375 9.99953 0.609375C10.4778 0.609375 10.8691 1.00068 10.8691 1.47894V5.21807C10.8691 5.69633 10.4778 6.08764 9.99953 6.08764ZM7.41257 6.93546C7.80388 6.65285 7.89083 6.10937 7.60822 5.71807L5.39083 2.69633C5.10822 2.30503 4.56475 2.21807 4.17344 2.50068C3.78214 2.78329 3.69518 3.32677 3.97779 3.71807L6.17344 6.73981C6.34735 6.97894 6.60822 7.08764 6.86909 7.08764C7.06475 7.10937 7.2604 7.04416 7.41257 6.93546ZM5.80388 9.13111C5.95605 8.67459 5.69518 8.17459 5.23866 8.04416L1.67344 6.89198C1.21692 6.73981 0.71692 7.00068 0.586485 7.4572C0.434311 7.89198 0.695181 8.39198 1.1517 8.54416L4.71692 9.69633C4.80388 9.71807 4.89083 9.73981 4.97779 9.73981C5.34735 9.73981 5.67344 9.50068 5.80388 9.13111ZM1.67344 14.1094L5.23866 12.9572C5.69518 12.805 5.95605 12.3268 5.80388 11.8702C5.6517 11.4137 5.17344 11.1746 4.71692 11.305L1.1517 12.4572C0.695181 12.6094 0.434311 13.0876 0.586485 13.5442C0.695181 13.9137 1.04301 14.1529 1.41257 14.1529C1.49953 14.1529 1.58649 14.1529 1.67344 14.1094ZM5.39083 18.305L7.60822 15.2833C7.89083 14.892 7.80388 14.3485 7.41257 14.0659C7.02127 13.7833 6.47779 13.8702 6.19518 14.2615L3.99953 17.2833C3.71692 17.6746 3.80388 18.2181 4.19518 18.5007C4.34735 18.6094 4.52127 18.6746 4.69518 18.6746C4.95605 18.6746 5.21692 18.5442 5.39083 18.305ZM10.8691 19.5224V15.7833C10.8691 15.305 10.4778 14.9137 9.99953 14.9137C9.52127 14.9137 9.12996 15.305 9.12996 15.7833V19.5224C9.12996 20.0007 9.52127 20.392 9.99953 20.392C10.4778 20.392 10.8691 20.0007 10.8691 19.5224ZM15.8256 18.5007C16.2169 18.2181 16.3039 17.6746 16.0213 17.2833L13.8039 14.2615C13.5213 13.8702 12.9778 13.7833 12.5865 14.0659C12.1952 14.3485 12.1082 14.892 12.3908 15.2833L14.5865 18.305C14.7604 18.5442 15.0213 18.6529 15.2821 18.6529C15.4778 18.6746 15.6734 18.6094 15.8256 18.5007ZM19.4126 13.5659C19.5647 13.1094 19.3039 12.6094 18.8474 12.4789L15.2821 11.3268C14.8256 11.1746 14.3256 11.4355 14.1952 11.892C14.043 12.3485 14.3039 12.8485 14.7604 12.9789L18.3256 14.1311C18.4126 14.1529 18.4995 14.1746 18.5865 14.1746C18.956 14.1529 19.3039 13.9137 19.4126 13.5659ZM15.2821 9.69633L18.8474 8.54416C19.3039 8.39198 19.5647 7.91372 19.4126 7.4572C19.2604 7.00068 18.7821 6.76155 18.3256 6.89198L14.7604 8.04416C14.3039 8.19633 14.043 8.67459 14.1952 9.13111C14.3039 9.50068 14.6517 9.73981 15.0213 9.73981C15.1082 9.73981 15.1952 9.71807 15.2821 9.69633ZM13.8039 6.73981L15.9995 3.71807C16.2821 3.32677 16.1952 2.78329 15.8039 2.50068C15.4126 2.21807 14.8691 2.30503 14.5865 2.69633L12.3908 5.71807C12.1082 6.10937 12.1952 6.65285 12.5865 6.93546C12.7387 7.04416 12.9126 7.10937 13.0865 7.10937C13.3691 7.10937 13.63 6.97894 13.8039 6.73981Z" fill="#9DABB9"/>
</g>
<defs>
<clipPath id="clip0">
<rect width="20" height="20" fill="white" transform="translate(0 0.5)"/>
</clipPath>
</defs>
</svg>
