<svg width="24" height="24" viewBox="0 0 24 24" fill="none" xmlns="http://www.w3.org/2000/svg">
<path fill-rule="evenodd" clip-rule="evenodd" d="M18.5947 16.2703C18.4432 16.1319 17.2219 14.959 17.2219 11.0544C17.2219 9.7759 16.4497 8.29348 15.5548 7.25176C15.1025 6.72421 14.5387 6.30371 13.904 6.02064C13.9102 5.98821 13.9135 5.9553 13.9139 5.92229C13.893 5.40543 13.6729 4.9167 13.2998 4.5584C12.9267 4.2001 12.4295 4 11.9122 4C11.3949 4 10.8977 4.2001 10.5246 4.5584C10.1515 4.9167 9.93148 5.40543 9.91056 5.92229C9.91095 5.9553 9.91423 5.98821 9.92039 6.02064C9.28593 6.30381 8.72225 6.7243 8.27003 7.25176C7.40532 8.32989 6.93725 9.67234 6.9442 11.0544C6.9442 14.9553 5.72658 16.1209 5.57396 16.2593C5.36643 16.3544 5.19841 16.5187 5.09872 16.724C4.99904 16.9293 4.97391 17.1629 5.02761 17.3848C5.08489 17.6189 5.2215 17.826 5.41421 17.9707C5.60691 18.1155 5.84381 18.189 6.08461 18.1789H9.36274C9.39029 18.5002 9.54213 18.7982 9.78598 19.0093C10.0785 19.3223 10.4322 19.5717 10.8252 19.7422C11.2182 19.9126 11.642 20.0003 12.0703 20C12.4987 19.9997 12.9224 19.9112 13.3151 19.7402C13.7078 19.5691 14.0612 19.3191 14.3531 19.0057C14.5679 18.7669 14.7292 18.485 14.8263 18.1789H18.1044C18.3436 18.1906 18.5794 18.1189 18.7716 17.9761C18.9638 17.8332 19.1004 17.6281 19.1582 17.3957C19.2081 17.1719 19.1793 16.9378 19.0767 16.7328C18.974 16.5277 18.8038 16.3644 18.5947 16.2703ZM11.9124 5.03722C12.0978 5.05143 12.2756 5.11681 12.426 5.22614C12.5765 5.33547 12.6936 5.48443 12.7643 5.6564C12.4846 5.60177 12.1987 5.79482 11.9124 5.79482C11.6261 5.79482 11.3398 5.60177 11.0601 5.6564C11.1309 5.48443 11.2481 5.33551 11.3986 5.22619C11.5491 5.11686 11.7269 5.05145 11.9124 5.03722ZM11.9124 6.52329C14.2016 6.52329 16.1204 9.02193 16.1204 11.0544C16.1242 12.2347 16.3017 13.408 16.6475 14.5365H7.54156C7.87794 13.4065 8.04775 12.2334 8.04565 11.0544C8.04565 9.02193 9.62317 6.52329 11.9124 6.52329ZM12.0687 18.8527C11.511 18.8527 11.212 18.5868 10.8197 18.1789H13.3693C13.2152 18.3797 13.0188 18.5442 12.794 18.6606C12.5692 18.7771 12.3216 18.8426 12.0687 18.8527ZM6.14544 17.0789C6.14544 17.0789 6.68706 16.7438 7.17732 15.6292H17.0117C17.502 16.7438 18.0436 17.0789 18.0436 17.0789H6.14544Z" fill="#9DABB9"/>
</svg>
