<svg width="48" height="48" viewBox="0 0 48 48" fill="none" xmlns="http://www.w3.org/2000/svg">
<rect width="48" height="48" rx="4" fill="white"/>
<path fill-rule="evenodd" clip-rule="evenodd" d="M32.7932 29.6937C32.5912 29.5091 30.9628 27.9453 30.9628 22.7392C30.9628 21.0345 29.9332 19.058 28.74 17.669C28.137 16.9656 27.3852 16.4049 26.5391 16.0275C26.5473 15.9843 26.5516 15.9404 26.5522 15.8964C26.5243 15.2072 26.2309 14.5556 25.7334 14.0779C25.236 13.6001 24.573 13.3333 23.8833 13.3333C23.1936 13.3333 22.5306 13.6001 22.0331 14.0779C21.5357 14.5556 21.2423 15.2072 21.2144 15.8964C21.2149 15.9404 21.2193 15.9843 21.2275 16.0275C20.3816 16.4051 19.63 16.9657 19.027 17.669C17.8741 19.1065 17.25 20.8964 17.2593 22.7392C17.2593 27.9405 15.6358 29.4945 15.4323 29.6791C15.1556 29.8058 14.9315 30.0249 14.7986 30.2987C14.6657 30.5725 14.6322 30.8839 14.7038 31.1797C14.7802 31.4919 14.9623 31.768 15.2193 31.961C15.4762 32.154 15.7921 32.2521 16.1131 32.2385H20.484C20.5207 32.667 20.7232 33.0643 21.0483 33.3458C21.4383 33.763 21.9099 34.0956 22.4339 34.3229C22.9579 34.5501 23.523 34.6671 24.0941 34.6667C24.6653 34.6662 25.2302 34.5483 25.7538 34.3202C26.2774 34.0921 26.7485 33.7588 27.1378 33.3409C27.4241 33.0225 27.6392 32.6466 27.7687 32.2385H32.1396C32.4584 32.2541 32.7729 32.1585 33.0291 31.9681C33.2853 31.7776 33.4675 31.5042 33.5445 31.1943C33.6111 30.8959 33.5728 30.5837 33.4359 30.3103C33.299 30.037 33.072 29.8191 32.7932 29.6937ZM23.8835 14.7163C24.1307 14.7352 24.3678 14.8224 24.5684 14.9682C24.769 15.114 24.9251 15.3126 25.0194 15.5419C24.6465 15.469 24.2652 15.7264 23.8835 15.7264C23.5018 15.7264 23.1201 15.469 22.7471 15.5419C22.8416 15.3126 22.9978 15.114 23.1984 14.9682C23.3991 14.8225 23.6363 14.7353 23.8835 14.7163ZM23.8835 16.6977C26.9358 16.6977 29.4942 20.0292 29.4942 22.7392C29.4992 24.3129 29.736 25.8773 30.197 27.382H18.0557C18.5042 25.8753 18.7307 24.3112 18.7279 22.7392C18.7279 20.0292 20.8312 16.6977 23.8835 16.6977ZM24.0919 33.1369C23.3483 33.1369 22.9496 32.7824 22.4266 32.2385H25.8261C25.6206 32.5062 25.3587 32.7255 25.059 32.8808C24.7593 33.0361 24.4291 33.1235 24.0919 33.1369ZM16.1942 30.7718C16.1942 30.7718 16.9164 30.325 17.5701 28.8389H30.6826C31.3363 30.325 32.0585 30.7718 32.0585 30.7718H16.1942Z" fill="#DC1C4D"/>
</svg>
