<svg width="65" height="64" viewBox="0 0 65 64" fill="none" xmlns="http://www.w3.org/2000/svg">
<circle cx="25" cy="42" r="18" fill="#FFD3DF"/>
<path d="M13.5 16V42.1818C13.5 45.3977 16.1023 48 19.3182 48H45.5C48.7159 48 51.3182 45.3977 51.3182 42.1818V26.1818H42.5909V16H13.5ZM16.4091 18.9091H39.6818V42.1818C39.6818 43.2443 40.0057 44.233 40.5 45.0909H19.3182C17.5852 45.0909 16.4091 43.9148 16.4091 42.1818V18.9091ZM19.3182 21.8182V29.0909H36.7727V21.8182H19.3182ZM22.2273 24.7273H33.8636V26.1818H22.2273V24.7273ZM42.5909 29.0909H48.4091V42.1818C48.4091 43.9148 47.233 45.0909 45.5 45.0909C43.767 45.0909 42.5909 43.9148 42.5909 42.1818V29.0909ZM19.3182 30.5455V33.4545H26.5909V30.5455H19.3182ZM29.5 30.5455V33.4545H36.7727V30.5455H29.5ZM19.3182 34.9091V37.8182H26.5909V34.9091H19.3182ZM29.5 34.9091V37.8182H36.7727V34.9091H29.5ZM19.3182 39.2727V42.1818H26.5909V39.2727H19.3182ZM29.5 39.2727V42.1818H36.7727V39.2727H29.5Z" fill="#DC1C4D"/>
</svg>
