<svg width="20" height="20" viewBox="0 0 20 20" fill="none" xmlns="http://www.w3.org/2000/svg">
<path d="M8.71634 4.99995L9.16634 4.50829V7.49995C9.16634 7.72097 9.25414 7.93293 9.41042 8.08921C9.5667 8.24549 9.77866 8.33329 9.99967 8.33329C10.2207 8.33329 10.4326 8.24549 10.5889 8.08921C10.7452 7.93293 10.833 7.72097 10.833 7.49995V4.50829L11.283 4.96662C11.3587 5.05206 11.451 5.12105 11.5544 5.16931C11.6578 5.21758 11.77 5.2441 11.8841 5.24723C11.9982 5.25035 12.1117 5.23002 12.2176 5.18748C12.3234 5.14495 12.4195 5.08112 12.4997 4.99995C12.5778 4.92249 12.6398 4.83032 12.6821 4.72877C12.7244 4.62722 12.7462 4.5183 12.7462 4.40829C12.7462 4.29828 12.7244 4.18936 12.6821 4.08781C12.6398 3.98626 12.5778 3.89409 12.4997 3.81662L10.5913 1.90829C10.5121 1.83242 10.4186 1.77295 10.3163 1.73329C10.1135 1.64994 9.88589 1.64994 9.68301 1.73329C9.58071 1.77295 9.48726 1.83242 9.40801 1.90829L7.49967 3.78329C7.33833 3.94463 7.24769 4.16345 7.24769 4.39162C7.24769 4.61979 7.33833 4.83861 7.49967 4.99995C7.66101 5.16129 7.87984 5.25193 8.10801 5.25193C8.33618 5.25193 8.555 5.16129 8.71634 4.99995ZM9.99967 9.99995C9.50522 9.99995 9.02187 10.1466 8.61075 10.4213C8.19963 10.696 7.87919 11.0864 7.68997 11.5432C7.50076 12.0001 7.45125 12.5027 7.54771 12.9877C7.64417 13.4726 7.88228 13.9181 8.23191 14.2677C8.58154 14.6174 9.027 14.8555 9.51195 14.9519C9.9969 15.0484 10.4996 14.9989 10.9564 14.8097C11.4132 14.6204 11.8036 14.3 12.0783 13.8889C12.3531 13.4778 12.4997 12.9944 12.4997 12.5C12.4997 11.8369 12.2363 11.201 11.7674 10.7322C11.2986 10.2633 10.6627 9.99995 9.99967 9.99995ZM9.99967 13.3333C9.83486 13.3333 9.67374 13.2844 9.5367 13.1928C9.39966 13.1013 9.29285 12.9711 9.22977 12.8189C9.1667 12.6666 9.1502 12.499 9.18235 12.3374C9.21451 12.1757 9.29387 12.0272 9.41042 11.9107C9.52696 11.7942 9.67545 11.7148 9.8371 11.6826C9.99875 11.6505 10.1663 11.667 10.3186 11.7301C10.4708 11.7931 10.601 11.8999 10.6926 12.037C10.7841 12.174 10.833 12.3351 10.833 12.5C10.833 12.721 10.7452 12.9329 10.5889 13.0892C10.4326 13.2455 10.2207 13.3333 9.99967 13.3333ZM4.16634 12.5C4.16634 12.6648 4.21521 12.8259 4.30678 12.9629C4.39835 13.1 4.5285 13.2068 4.68077 13.2699C4.83304 13.3329 5.0006 13.3494 5.16225 13.3173C5.3239 13.2851 5.47239 13.2058 5.58893 13.0892C5.70547 12.9727 5.78484 12.8242 5.817 12.6625C5.84915 12.5009 5.83265 12.3333 5.76957 12.1811C5.7065 12.0288 5.59969 11.8986 5.46265 11.8071C5.32561 11.7155 5.16449 11.6666 4.99967 11.6666C4.77866 11.6666 4.5667 11.7544 4.41042 11.9107C4.25414 12.067 4.16634 12.2789 4.16634 12.5ZM15.833 12.5C15.833 12.3351 15.7841 12.174 15.6926 12.037C15.601 11.8999 15.4708 11.7931 15.3186 11.7301C15.1663 11.667 14.9987 11.6505 14.8371 11.6826C14.6754 11.7148 14.527 11.7942 14.4104 11.9107C14.2939 12.0272 14.2145 12.1757 14.1824 12.3374C14.1502 12.499 14.1667 12.6666 14.2298 12.8189C14.2928 12.9711 14.3997 13.1013 14.5367 13.1928C14.6737 13.2844 14.8349 13.3333 14.9997 13.3333C15.2207 13.3333 15.4326 13.2455 15.5889 13.0892C15.7452 12.9329 15.833 12.721 15.833 12.5ZM16.6663 6.66662H13.333C13.112 6.66662 12.9 6.75442 12.7438 6.9107C12.5875 7.06698 12.4997 7.27894 12.4997 7.49995C12.4997 7.72097 12.5875 7.93293 12.7438 8.08921C12.9 8.24549 13.112 8.33329 13.333 8.33329H16.6663C16.8874 8.33329 17.0993 8.42108 17.2556 8.57736C17.4119 8.73365 17.4997 8.94561 17.4997 9.16662V15.8333C17.4997 16.0543 17.4119 16.2663 17.2556 16.4225C17.0993 16.5788 16.8874 16.6666 16.6663 16.6666H3.33301C3.11199 16.6666 2.90003 16.5788 2.74375 16.4225C2.58747 16.2663 2.49967 16.0543 2.49967 15.8333V9.16662C2.49967 8.94561 2.58747 8.73365 2.74375 8.57736C2.90003 8.42108 3.11199 8.33329 3.33301 8.33329H6.66634C6.88735 8.33329 7.09932 8.24549 7.2556 8.08921C7.41188 7.93293 7.49967 7.72097 7.49967 7.49995C7.49967 7.27894 7.41188 7.06698 7.2556 6.9107C7.09932 6.75442 6.88735 6.66662 6.66634 6.66662H3.33301C2.66997 6.66662 2.03408 6.93001 1.56524 7.39885C1.0964 7.86769 0.833008 8.50358 0.833008 9.16662V15.8333C0.833008 16.4963 1.0964 17.1322 1.56524 17.6011C2.03408 18.0699 2.66997 18.3333 3.33301 18.3333H16.6663C17.3294 18.3333 17.9653 18.0699 18.4341 17.6011C18.9029 17.1322 19.1663 16.4963 19.1663 15.8333V9.16662C19.1663 8.50358 18.9029 7.86769 18.4341 7.39885C17.9653 6.93001 17.3294 6.66662 16.6663 6.66662Z" fill="#8A6D3B"/>
</svg>
