<svg width="49" height="48" viewBox="0 0 49 48" fill="none" xmlns="http://www.w3.org/2000/svg">
<rect width="48.0993" height="48" rx="4" fill="white"/>
<path d="M8 8V34.1818C8 37.3977 10.2088 40 12.9384 40H35.161C37.8906 40 40.0993 37.3977 40.0993 34.1818V18.1818H32.6918V8H8ZM10.4692 10.9091H30.2226V34.1818C30.2226 35.2443 30.4975 36.233 30.9171 37.0909H12.9384C11.4675 37.0909 10.4692 35.9148 10.4692 34.1818V10.9091ZM12.9384 13.8182V21.0909H27.7534V13.8182H12.9384ZM15.4075 16.7273H25.2843V18.1818H15.4075V16.7273ZM32.6918 21.0909H37.6302V34.1818C37.6302 35.9148 36.6319 37.0909 35.161 37.0909C33.6901 37.0909 32.6918 35.9148 32.6918 34.1818V21.0909ZM12.9384 22.5455V25.4545H19.1113V22.5455H12.9384ZM21.5805 22.5455V25.4545H27.7534V22.5455H21.5805ZM12.9384 26.9091V29.8182H19.1113V26.9091H12.9384ZM21.5805 26.9091V29.8182H27.7534V26.9091H21.5805ZM12.9384 31.2727V34.1818H19.1113V31.2727H12.9384ZM21.5805 31.2727V34.1818H27.7534V31.2727H21.5805Z" fill="#DC1C4D"/>
</svg>
