<svg width="142" height="152" viewBox="0 0 142 152" fill="none" xmlns="http://www.w3.org/2000/svg">
<circle cx="46.5" cy="92.5" r="46.5" fill="#FFD3DF"/>
<circle cx="114.5" cy="45.5" r="19.5" fill="#FFD3DF"/>
<circle cx="72.5" cy="26.5" r="12.5" fill="#FFD3DF"/>
<path d="M46.3595 45.6501V95.3956C46.3595 101.506 50.5561 106.45 55.7424 106.45H97.9654C103.152 106.45 107.348 101.506 107.348 95.3956V64.9956H93.2739V45.6501H46.3595ZM51.0509 51.1774H88.5825V95.3956C88.5825 97.4144 89.1048 99.2928 89.9019 100.923H55.7424C52.9477 100.923 51.0509 98.6882 51.0509 95.3956V51.1774ZM55.7424 56.7047V70.5229H83.891V56.7047H55.7424ZM60.4338 62.232H79.1996V64.9956H60.4338V62.232ZM93.2739 70.5229H102.657V95.3956C102.657 98.6882 100.76 100.923 97.9654 100.923C95.1707 100.923 93.2739 98.6882 93.2739 95.3956V70.5229ZM55.7424 73.2865V78.8138H67.471V73.2865H55.7424ZM72.1624 73.2865V78.8138H83.891V73.2865H72.1624ZM55.7424 81.5774V87.1047H67.471V81.5774H55.7424ZM72.1624 81.5774V87.1047H83.891V81.5774H72.1624ZM55.7424 89.8683V95.3956H67.471V89.8683H55.7424ZM72.1624 89.8683V95.3956H83.891V89.8683H72.1624Z" fill="#DC1C4D"/>
</svg>
