<svg width="64" height="64" viewBox="0 0 64 64" fill="none" xmlns="http://www.w3.org/2000/svg">
<rect width="64" height="64" rx="4" fill="#DC1C4D"/>
<path d="M11 16V48H52.6V16H11ZM14.2 19.2H49.4V44.8H43.95C43.825 44.5812 43.8813 44.2812 43.7 44.1C43.0938 43.4938 42.2375 43.2 41.4 43.2C40.5625 43.2 39.7063 43.4938 39.1 44.1C38.9188 44.2812 38.975 44.5812 38.85 44.8H24.75C24.625 44.5812 24.6813 44.2812 24.5 44.1C23.8938 43.4938 23.0375 43.2 22.2 43.2C21.3625 43.2 20.5063 43.4938 19.9 44.1C19.7188 44.2812 19.775 44.5812 19.65 44.8H14.2V19.2ZM25.4 22.4C21.8813 22.4 19 25.2812 19 28.8C19 30.5813 19.7625 32.1875 20.95 33.35C18.8188 34.7938 17.4 37.2563 17.4 40H20.6C20.6 37.35 22.75 35.2 25.4 35.2C28.05 35.2 30.2 37.35 30.2 40H33.4C33.4 37.2563 31.9813 34.7938 29.85 33.35C31.0375 32.1875 31.8 30.5813 31.8 28.8C31.8 25.2812 28.9188 22.4 25.4 22.4ZM25.4 25.6C27.1875 25.6 28.6 27.0125 28.6 28.8C28.6 30.5875 27.1875 32 25.4 32C23.6125 32 22.2 30.5875 22.2 28.8C22.2 27.0125 23.6125 25.6 25.4 25.6ZM36.6 27.2V30.4H46.2V27.2H36.6ZM36.6 33.6V36.8H46.2V33.6H36.6Z" fill="white"/>
</svg>
