<svg width="32" height="32" viewBox="0 0 32 32" fill="none" xmlns="http://www.w3.org/2000/svg">
<path fill-rule="evenodd" clip-rule="evenodd" d="M9.25001 7.79383C9.34447 7.66251 9.44939 7.50174 9.58318 7.28496C9.65815 7.16348 9.93168 6.71102 9.97639 6.63788C11.0817 4.82985 11.8852 4 13.334 4H18.6673C20.1161 4 20.9196 4.82985 22.0249 6.63788C22.0696 6.71102 22.3432 7.16348 22.4181 7.28496C22.5519 7.50174 22.6568 7.66251 22.7513 7.79383C22.8136 7.88044 22.868 7.94925 22.9124 8H26.6673C28.8765 8 30.6673 9.79086 30.6673 12V24C30.6673 26.2091 28.8765 28 26.6673 28H5.33398C3.12485 28 1.33398 26.2091 1.33398 24V12C1.33398 9.79086 3.12485 8 5.33398 8H9.08891C9.1333 7.94925 9.18771 7.88044 9.25001 7.79383ZM5.33398 10.6667C4.5976 10.6667 4.00065 11.2636 4.00065 12V24C4.00065 24.7364 4.5976 25.3333 5.33398 25.3333H26.6673C27.4037 25.3333 28.0006 24.7364 28.0006 24V12C28.0006 11.2636 27.4037 10.6667 26.6673 10.6667H22.6673C21.7815 10.6667 21.1842 10.1819 20.5865 9.35101C20.449 9.15984 20.3128 8.95109 20.1488 8.68545C20.066 8.55131 19.7884 8.09211 19.7497 8.02878C19.1466 7.0423 18.783 6.66667 18.6673 6.66667H13.334C13.2183 6.66667 12.8547 7.0423 12.2516 8.02878C12.2129 8.09211 11.9353 8.55131 11.8525 8.68545C11.6885 8.95109 11.5523 9.15984 11.4148 9.35101C10.8171 10.1819 10.2198 10.6667 9.33398 10.6667H5.33398ZM25.334 14.6667C26.0704 14.6667 26.6673 14.0697 26.6673 13.3333C26.6673 12.597 26.0704 12 25.334 12C24.5976 12 24.0007 12.597 24.0007 13.3333C24.0007 14.0697 24.5976 14.6667 25.334 14.6667ZM16.0007 24C12.3188 24 9.33398 21.0152 9.33398 17.3333C9.33398 13.6514 12.3188 10.6667 16.0007 10.6667C19.6825 10.6667 22.6673 13.6514 22.6673 17.3333C22.6673 21.0152 19.6825 24 16.0007 24ZM16.0007 21.3333C18.2098 21.3333 20.0007 19.5425 20.0007 17.3333C20.0007 15.1242 18.2098 13.3333 16.0007 13.3333C13.7915 13.3333 12.0007 15.1242 12.0007 17.3333C12.0007 19.5425 13.7915 21.3333 16.0007 21.3333Z" fill="white"/>
</svg>
