<svg width="99" height="76" viewBox="0 0 99 76" fill="none" xmlns="http://www.w3.org/2000/svg">
<g clip-path="url(#clip0_341_67991)">
<rect width="99" height="76" rx="10" fill="#DEC5CB"/>
<g opacity="0.1">
<path d="M68.955 70.6667H10.2578C9.74747 70.6661 9.25821 70.4626 8.89737 70.1009C8.53652 69.7392 8.33356 69.2487 8.33301 68.7372V38.9293C8.3336 38.4178 8.53658 37.9274 8.89742 37.5657C9.25826 37.204 9.7475 37.0006 10.2578 37H68.955C69.4653 37.0006 69.9546 37.204 70.3154 37.5657C70.6763 37.9274 70.8792 38.4178 70.8798 38.9293V68.7372C70.8792 69.2487 70.6763 69.7392 70.3154 70.1009C69.9546 70.4626 69.4653 70.6661 68.955 70.6667Z" fill="#FFEAEF"/>
</g>
<path opacity="0.5" d="M16.334 43.7617H15.1913C15.0193 43.7617 14.8799 43.9014 14.8799 44.0738V65.9549C14.8799 66.1272 15.0193 66.267 15.1913 66.267H16.334C16.506 66.267 16.6454 66.1272 16.6454 65.9549V44.0738C16.6454 43.9014 16.506 43.7617 16.334 43.7617Z" fill="#FFEAEF"/>
<path d="M14.5684 50.8303H13.4256C13.2537 50.8303 13.1143 50.9701 13.1143 51.1424V65.9551C13.1143 66.1275 13.2537 66.2672 13.4256 66.2672H14.5684C14.7404 66.2672 14.8798 66.1275 14.8798 65.9551V51.1424C14.8798 50.9701 14.7404 50.8303 14.5684 50.8303Z" fill="#FFEAEF"/>
<path opacity="0.5" d="M30.4639 63.4194H29.3211C29.1492 63.4194 29.0098 63.5591 29.0098 63.7315V65.955C29.0098 66.1273 29.1492 66.2671 29.3211 66.2671H30.4639C30.6359 66.2671 30.7753 66.1273 30.7753 65.955V63.7315C30.7753 63.5591 30.6359 63.4194 30.4639 63.4194Z" fill="#FFEAEF"/>
<path d="M28.6983 49.5593H27.5555C27.3835 49.5593 27.2441 49.699 27.2441 49.8714V65.9549C27.2441 66.1272 27.3835 66.267 27.5555 66.267H28.6983C28.8703 66.267 29.0097 66.1272 29.0097 65.9549V49.8714C29.0097 49.699 28.8703 49.5593 28.6983 49.5593Z" fill="#FFEAEF"/>
<path opacity="0.5" d="M23.3985 52.796H22.2557C22.0837 52.796 21.9443 52.9358 21.9443 53.1081V65.9548C21.9443 66.1272 22.0837 66.2669 22.2557 66.2669H23.3985C23.5704 66.2669 23.7099 66.1272 23.7099 65.9548V53.1081C23.7099 52.9358 23.5704 52.796 23.3985 52.796Z" fill="#FFEAEF"/>
<path d="M21.6329 57.4504H20.4901C20.3181 57.4504 20.1787 57.5901 20.1787 57.7625V65.9547C20.1787 66.1271 20.3181 66.2668 20.4901 66.2668H21.6329C21.8048 66.2668 21.9442 66.1271 21.9442 65.9547V57.7625C21.9442 57.5901 21.8048 57.4504 21.6329 57.4504Z" fill="#FFEAEF"/>
<path opacity="0.5" d="M51.6573 48.1144H50.5145C50.3425 48.1144 50.2031 48.2541 50.2031 48.4265V65.955C50.2031 66.1274 50.3425 66.2671 50.5145 66.2671H51.6573C51.8292 66.2671 51.9686 66.1274 51.9686 65.955V48.4265C51.9686 48.2541 51.8292 48.1144 51.6573 48.1144Z" fill="#FFEAEF"/>
<path d="M49.8916 54.7977H48.7489C48.5769 54.7977 48.4375 54.9374 48.4375 55.1098V65.9551C48.4375 66.1275 48.5769 66.2672 48.7489 66.2672H49.8916C50.0636 66.2672 50.203 66.1275 50.203 65.9551V55.1098C50.203 54.9374 50.0636 54.7977 49.8916 54.7977Z" fill="#FFEAEF"/>
<path opacity="0.5" d="M37.5284 50.9459H36.3856C36.2136 50.9459 36.0742 51.0857 36.0742 51.258V65.9549C36.0742 66.1273 36.2136 66.267 36.3856 66.267H37.5284C37.7003 66.267 37.8397 66.1273 37.8397 65.9549V51.258C37.8397 51.0857 37.7003 50.9459 37.5284 50.9459Z" fill="#FFEAEF"/>
<path d="M35.7627 52.6805H34.62C34.448 52.6805 34.3086 52.8202 34.3086 52.9926V65.9549C34.3086 66.1273 34.448 66.267 34.62 66.267H35.7627C35.9347 66.267 36.0741 66.1273 36.0741 65.9549V52.9926C36.0741 52.8202 35.9347 52.6805 35.7627 52.6805Z" fill="#FFEAEF"/>
<path opacity="0.5" d="M44.5928 43.7617H43.45C43.2781 43.7617 43.1387 43.9014 43.1387 44.0738V65.9549C43.1387 66.1272 43.2781 66.267 43.45 66.267H44.5928C44.7648 66.267 44.9042 66.1272 44.9042 65.9549V44.0738C44.9042 43.9014 44.7648 43.7617 44.5928 43.7617Z" fill="#FFEAEF"/>
<path d="M42.8272 44.8458H41.6844C41.5125 44.8458 41.373 44.9855 41.373 45.1579V65.9548C41.373 66.1272 41.5125 66.2669 41.6844 66.2669H42.8272C42.9992 66.2669 43.1386 66.1272 43.1386 65.9548V45.1579C43.1386 44.9855 42.9992 44.8458 42.8272 44.8458Z" fill="#FFEAEF"/>
<path opacity="0.5" d="M58.7227 43.7617H57.5799C57.408 43.7617 57.2686 43.9014 57.2686 44.0738V65.9549C57.2686 66.1272 57.408 66.267 57.5799 66.267H58.7227C58.8947 66.267 59.0341 66.1272 59.0341 65.9549V44.0738C59.0341 43.9014 58.8947 43.7617 58.7227 43.7617Z" fill="#FFEAEF"/>
<path d="M56.9571 50.8303H55.8143C55.6423 50.8303 55.5029 50.9701 55.5029 51.1424V65.9551C55.5029 66.1275 55.6423 66.2672 55.8143 66.2672H56.9571C57.129 66.2672 57.2684 66.1275 57.2684 65.9551V51.1424C57.2684 50.9701 57.129 50.8303 56.9571 50.8303Z" fill="#FFEAEF"/>
<path opacity="0.5" d="M65.7872 52.796H64.6444C64.4724 52.796 64.333 52.9358 64.333 53.1081V65.9548C64.333 66.1272 64.4724 66.2669 64.6444 66.2669H65.7872C65.9591 66.2669 66.0985 66.1272 66.0985 65.9548V53.1081C66.0985 52.9358 65.9591 52.796 65.7872 52.796Z" fill="#FFEAEF"/>
<path d="M64.0215 57.4504H62.8788C62.7068 57.4504 62.5674 57.5901 62.5674 57.7625V65.9547C62.5674 66.1271 62.7068 66.2668 62.8788 66.2668H64.0215C64.1935 66.2668 64.3329 66.1271 64.3329 65.9547V57.7625C64.3329 57.5901 64.1935 57.4504 64.0215 57.4504Z" fill="#FFEAEF"/>
<path d="M10.5 10C11.8807 10 13 9.10457 13 8C13 6.89543 11.8807 6 10.5 6C9.11929 6 8 6.89543 8 8C8 9.10457 9.11929 10 10.5 10Z" fill="#DE1F4F"/>
<path d="M10.5 21C11.8807 21 13 20.1046 13 19C13 17.8954 11.8807 17 10.5 17C9.11929 17 8 17.8954 8 19C8 20.1046 9.11929 21 10.5 21Z" fill="#292A2E"/>
<path opacity="0.5" d="M10.5 32C11.8807 32 13 31.1046 13 30C13 28.8954 11.8807 28 10.5 28C9.11929 28 8 28.8954 8 30C8 31.1046 9.11929 32 10.5 32Z" fill="#DE1F4F"/>
<path opacity="0.2" d="M10.5 43C11.8807 43 13 42.1046 13 41C13 39.8954 11.8807 39 10.5 39C9.11929 39 8 39.8954 8 41C8 42.1046 9.11929 43 10.5 43Z" fill="#DE1F4F"/>
<path d="M40.8454 8H16.1546C16.1136 8 16.0743 7.94733 16.0453 7.85356C16.0163 7.75979 16 7.63261 16 7.5C16 7.36739 16.0163 7.24021 16.0453 7.14644C16.0743 7.05267 16.1136 7 16.1546 7H40.8454C40.8864 7 40.9257 7.05267 40.9547 7.14644C40.9837 7.24021 41 7.36739 41 7.5C41 7.63261 40.9837 7.75979 40.9547 7.85356C40.9257 7.94733 40.8864 8 40.8454 8Z" fill="#DE1F4F"/>
<path d="M40.8454 19H16.1546C16.1136 19 16.0743 18.9473 16.0453 18.8536C16.0163 18.7598 16 18.6326 16 18.5C16 18.3674 16.0163 18.2402 16.0453 18.1464C16.0743 18.0527 16.1136 18 16.1546 18H40.8454C40.8864 18 40.9257 18.0527 40.9547 18.1464C40.9837 18.2402 41 18.3674 41 18.5C41 18.6326 40.9837 18.7598 40.9547 18.8536C40.9257 18.9473 40.8864 19 40.8454 19Z" fill="#292A2E"/>
<g opacity="0.2">
<path d="M40.9593 40.4678H16.1553C16.1152 40.4662 16.0772 40.4492 16.0493 40.4202C16.0214 40.3912 16.0059 40.3525 16.0059 40.3122C16.0059 40.2719 16.0214 40.2332 16.0493 40.2042C16.0772 40.1752 16.1152 40.1581 16.1553 40.1566H40.9593C40.9801 40.1558 41.001 40.1593 41.0205 40.1667C41.04 40.1742 41.0578 40.1855 41.0729 40.2C41.0879 40.2146 41.0999 40.232 41.108 40.2513C41.1162 40.2705 41.1204 40.2912 41.1204 40.3122C41.1204 40.3331 41.1162 40.3538 41.108 40.3731C41.0999 40.3924 41.0879 40.4098 41.0729 40.4243C41.0578 40.4388 41.04 40.4502 41.0205 40.4576C41.001 40.4651 40.9801 40.4686 40.9593 40.4678Z" fill="#DE1F4F"/>
</g>
<path d="M40.8396 29.9996H16.1488C16.1088 29.9948 16.071 29.94 16.0432 29.8468C16.0155 29.7537 16 29.6294 16 29.5C16 29.3706 16.0155 29.2463 16.0432 29.1532C16.071 29.06 16.1088 29.0052 16.1488 29.0004H40.8396C40.8603 28.9978 40.8811 29.0089 40.9005 29.0328C40.9199 29.0568 40.9377 29.0932 40.9526 29.1399C40.9676 29.1865 40.9795 29.2424 40.9877 29.3043C40.9958 29.3662 41 29.4328 41 29.5C41 29.5672 40.9958 29.6338 40.9877 29.6957C40.9795 29.7576 40.9676 29.8135 40.9526 29.8601C40.9377 29.9068 40.9199 29.9432 40.9005 29.9672C40.8811 29.9911 40.8603 30.0022 40.8396 29.9996Z" fill="#DE1F4F"/>
<path d="M72.5026 51.6784H64.5078C64.4535 48.1606 63.1735 44.8075 60.9436 42.3414C58.7137 39.8753 55.7122 38.4934 52.5857 38.4934C49.4591 38.4934 46.4577 39.8753 44.2278 42.3414C41.9979 44.8075 40.7179 48.1606 40.6636 51.6784H32.6688C32.6333 48.7097 33.1223 45.7628 34.1073 43.0086C35.0923 40.2543 36.5537 37.7478 38.4067 35.6344C40.2597 33.521 42.4673 31.8429 44.9013 30.6976C47.3354 29.5522 49.9474 28.9624 52.5857 28.9624C55.224 28.9624 57.836 29.5522 60.27 30.6976C62.7041 31.8429 64.9117 33.521 66.7647 35.6344C68.6176 37.7478 70.0791 40.2543 71.0641 43.0086C72.0491 45.7628 72.538 48.7097 72.5026 51.6784Z" fill="#DE1F4F"/>
<path d="M62.9067 44.9734L69.8365 40.471C68.0853 37.0658 65.572 34.2362 62.5469 32.2639L58.5459 40.062C60.3568 41.2409 61.8606 42.9346 62.9067 44.9734Z" fill="#DE1F4F"/>
<path opacity="0.8" d="M35.3351 40.471C33.5835 43.8767 32.6636 47.7433 32.669 51.6784H40.6638C40.6609 49.3239 41.2121 47.0104 42.2613 44.9734L35.3351 40.471Z" fill="white"/>
<path opacity="0.2" d="M64.5074 51.6784H72.5022C72.5072 47.7434 71.5874 43.8769 69.8361 40.471L62.9062 44.9734C63.9582 47.0094 64.5108 49.3233 64.5074 51.6784Z" fill="black"/>
<path opacity="0.6" d="M46.6256 40.062L42.6246 32.2639C39.5994 34.2362 37.0862 37.0658 35.335 40.471L42.2612 44.9734C43.3096 42.9352 44.8144 41.2418 46.6256 40.062Z" fill="white"/>
<path opacity="0.4" d="M52.5834 38.2524V29.2639C49.0867 29.2588 45.6508 30.2939 42.624 32.2641L46.625 40.0623C48.4347 38.8785 50.4902 38.2542 52.5834 38.2524Z" fill="white"/>
<path opacity="0.2" d="M58.5459 40.0623L62.5469 32.2641C59.519 30.2933 56.0819 29.2583 52.584 29.2639V38.2524C54.6784 38.2535 56.7352 38.8779 58.5459 40.0623Z" fill="white"/>
<path d="M52.584 50.5528L62.8276 37.9485L63.7703 38.8798L54.1203 52.2817L52.584 50.5528Z" fill="#263238"/>
<path d="M54.4256 52.2818C54.4263 52.692 54.3189 53.0932 54.1169 53.4346C53.9149 53.7761 53.6274 54.0424 53.2909 54.1999C52.9543 54.3575 52.5838 54.3991 52.2262 54.3196C51.8686 54.24 51.54 54.0429 51.282 53.7532C51.0241 53.4634 50.8482 53.094 50.7769 52.6918C50.7055 52.2896 50.7418 51.8725 50.8811 51.4935C51.0204 51.1145 51.2565 50.7905 51.5596 50.5625C51.8626 50.3345 52.2189 50.2128 52.5834 50.2128C53.0714 50.2128 53.5394 50.4307 53.8848 50.8186C54.2301 51.2065 54.4246 51.7327 54.4256 52.2818Z" fill="#263238"/>
<path d="M80.5343 21.0204C78.6007 18.9542 76.8572 16.634 78.2293 16.0227C80.1919 15.1483 81.8143 14.6696 79.7167 11.7866C77.6203 8.90488 75.1221 10.5091 73.2216 11.3567C71.0262 12.3348 71.2876 17.2339 76.5107 22.8131C81.7357 28.3914 88.1035 30.5671 90.2992 29.5879C92.2027 28.7407 95.3465 27.8359 92.4003 25.3328C89.4545 22.8285 88.1551 23.6507 86.1903 24.527C84.8192 25.1351 82.4697 23.0858 80.5343 21.0204Z" fill="#DE1F4F"/>
<path d="M69.3168 9.54175V24.8542C69.3168 26.5947 70.0219 28.2639 71.277 29.4946C72.5321 30.7253 74.2344 31.4167 76.0094 31.4167H91.6257V64.2292C91.6257 65.9697 90.9206 67.6389 89.6655 68.8696C88.4103 70.1003 86.708 70.7917 84.933 70.7917H82.3229C82.7432 69.6239 82.8179 68.3633 82.5384 67.1556C82.2589 65.9478 81.6366 64.8423 80.7434 63.9667L71.8198 55.2167C73.5342 51.7026 74.1469 47.7688 73.5803 43.9131C73.0137 40.0574 71.2934 36.4532 68.6369 33.5566C68.6369 33.5566 62.5074 28.6013 58.6572 27.641C54.8071 26.6807 50.7529 26.8619 47.0078 28.1617V16.1042C47.0078 14.3638 47.7129 12.6946 48.9681 11.4639C50.2232 10.2332 51.9255 9.54175 53.7005 9.54175H69.3168Z" fill="#DE1F4F"/>
</g>
<defs>
<clipPath id="clip0_341_67991">
<rect width="99" height="76" fill="white"/>
</clipPath>
</defs>
</svg>
