<svg width="100" height="76" viewBox="0 0 100 76" fill="none" xmlns="http://www.w3.org/2000/svg">
<g clip-path="url(#clip0_341_68043)">
<rect width="100" height="76" rx="10" fill="#DEC5CB"/>
<path d="M86.1017 59.9791H78.9664C78.8304 59.9782 78.7 59.9464 78.6012 59.89C78.5023 59.8336 78.4422 59.7567 78.4329 59.6748L78.0625 55.3603C78.0584 55.3212 78.0677 55.282 78.0897 55.2451C78.1117 55.2083 78.146 55.1746 78.1904 55.146C78.2349 55.1175 78.2885 55.0948 78.3481 55.0793C78.4076 55.0638 78.4718 55.0558 78.5367 55.0559H85.6794C85.8146 55.0569 85.9441 55.0889 86.0418 55.1454C86.1394 55.2019 86.1979 55.2787 86.2054 55.3603L86.5833 59.6748C86.5874 59.7143 86.5779 59.7538 86.5555 59.791C86.533 59.8281 86.4981 59.8621 86.4528 59.8907C86.4076 59.9193 86.353 59.9419 86.2926 59.9571C86.2322 59.9723 86.1672 59.9798 86.1017 59.9791ZM79.4332 59.366H85.5608L85.2422 55.6646H79.1146L79.4332 59.366Z" fill="#DE1F4F"/>
<path d="M87.0499 70.9144H79.9146C79.7775 70.9134 79.646 70.881 79.547 70.8236C79.448 70.7663 79.3887 70.6884 79.3812 70.6056L79.0107 66.2956C79.0066 66.2565 79.0159 66.2173 79.0379 66.1804C79.0599 66.1436 79.0942 66.1099 79.1387 66.0813C79.1831 66.0528 79.2368 66.0301 79.2963 66.0146C79.3559 65.9991 79.42 65.9911 79.4849 65.9912H86.6276C86.7636 65.9921 86.894 66.024 86.9928 66.0804C87.0917 66.1368 87.1518 66.2136 87.1611 66.2956L87.5315 70.6056C87.5356 70.6453 87.5261 70.6851 87.5038 70.7225C87.4814 70.7598 87.4465 70.7941 87.4014 70.823C87.3563 70.8519 87.3018 70.875 87.2413 70.8907C87.1809 70.9064 87.1158 70.9145 87.0499 70.9144ZM80.3814 70.3013H86.509L86.1904 66.5999H80.0628L80.3814 70.3013Z" fill="#DE1F4F"/>
<path d="M82.9235 58.7182C82.6404 58.7094 82.3743 58.6339 82.1825 58.5078L80.2338 57.2144C80.1477 57.1556 80.0816 57.0871 80.0393 57.0129C79.997 56.9387 79.9793 56.8602 79.9872 56.7819C79.9951 56.7035 80.0285 56.6269 80.0854 56.5563C80.1424 56.4858 80.2217 56.4227 80.3191 56.3707C80.5156 56.2656 80.7731 56.212 81.035 56.2217C81.1647 56.2265 81.2916 56.2466 81.4084 56.281C81.5252 56.3154 81.6296 56.3634 81.7157 56.4222L82.8938 57.1965L87.3395 54.2067C87.5242 54.0833 87.7826 54.0092 88.0577 54.0008C88.3328 53.9924 88.6022 54.0504 88.8066 54.162C89.0109 54.2735 89.1336 54.4296 89.1475 54.5958C89.1613 54.762 89.0654 54.9247 88.8807 55.0481L83.6941 58.5257C83.598 58.5909 83.4788 58.6421 83.3453 58.6754C83.2119 58.7087 83.0676 58.7234 82.9235 58.7182Z" fill="#DE1F4F"/>
<path d="M83.8625 69.1201C83.5794 69.1114 83.3133 69.0358 83.1215 68.9098L81.1728 67.6208C81.0862 67.562 81.0197 67.4935 80.9769 67.4192C80.9341 67.3449 80.916 67.2662 80.9236 67.1876C80.9311 67.1091 80.9642 67.0322 81.021 66.9614C81.0777 66.8906 81.157 66.8272 81.2543 66.7749C81.3516 66.7226 81.465 66.6824 81.5881 66.6565C81.7111 66.6307 81.8414 66.6197 81.9714 66.6243C82.1014 66.6289 82.2287 66.6489 82.346 66.6832C82.4632 66.7174 82.5681 66.7653 82.6547 66.8241L83.7513 67.585L88.197 64.5952C88.3843 64.4805 88.6377 64.4138 88.9044 64.4089C89.1711 64.4041 89.4307 64.4615 89.6291 64.5693C89.8275 64.677 89.9496 64.8268 89.9699 64.9875C89.9902 65.1482 89.9072 65.3075 89.7381 65.4322L84.5515 68.9143C84.4657 68.9749 84.3603 69.0244 84.2419 69.0598C84.1235 69.0952 83.9944 69.1157 83.8625 69.1201Z" fill="#DE1F4F"/>
<path d="M69.6653 44.6682H38.6049C38.485 44.6675 38.3661 44.6817 38.2556 44.7099C38.1451 44.7381 38.0455 44.7797 37.9627 44.8322C37.88 44.8847 37.8161 44.9469 37.7749 45.0149C37.7337 45.0829 37.7161 45.1554 37.7232 45.2277C37.7382 45.3789 37.8473 45.5212 38.0288 45.6258C38.2102 45.7304 38.4505 45.7896 38.7013 45.7916H69.7765C69.8968 45.7918 70.0158 45.777 70.1263 45.7483C70.2368 45.7196 70.3364 45.6776 70.419 45.6247C70.5016 45.5719 70.5654 45.5094 70.6066 45.4411C70.6477 45.3729 70.6653 45.3002 70.6582 45.2277C70.6412 45.0757 70.5292 44.9333 70.3448 44.8294C70.1604 44.7255 69.9175 44.6679 69.6653 44.6682Z" fill="#263238"/>
<path d="M61.2099 40.5196H46.6059C46.486 40.5188 46.3671 40.533 46.2566 40.5612C46.1461 40.5894 46.0464 40.631 45.9637 40.6835C45.881 40.736 45.8171 40.7982 45.7759 40.8662C45.7347 40.9343 45.7171 41.0067 45.7242 41.079C45.7408 41.2299 45.8505 41.3715 46.0316 41.4759C46.2127 41.5803 46.452 41.6399 46.7023 41.6429H61.3063C61.4269 41.6437 61.5464 41.6294 61.6574 41.601C61.7684 41.5725 61.8685 41.5304 61.9513 41.4775C62.0341 41.4245 62.0979 41.3618 62.1386 41.2932C62.1794 41.2246 62.1962 41.1517 62.188 41.079C62.1729 40.9282 62.0635 40.7865 61.8819 40.6826C61.7003 40.5787 61.4601 40.5204 61.2099 40.5196Z" fill="#263238"/>
<path d="M72.8671 5.74219H33.597C33.4771 5.74202 33.3583 5.75677 33.2482 5.78552C33.138 5.81428 33.0389 5.85641 32.9569 5.90931C32.8748 5.96221 32.8117 6.02474 32.7714 6.093C32.7312 6.16127 32.7146 6.23382 32.7227 6.30612C32.7378 6.45694 32.8472 6.59866 33.0288 6.70254C33.2104 6.80643 33.4506 6.86472 33.7008 6.86558H72.9708C73.091 6.86699 73.2105 6.85328 73.3215 6.8253C73.4325 6.79733 73.5326 6.75571 73.6155 6.70309C73.6985 6.65047 73.7624 6.58801 73.8032 6.51967C73.844 6.45132 73.8608 6.3786 73.8525 6.30612C73.8358 6.15449 73.725 6.01224 73.5424 5.90772C73.3598 5.80321 73.1186 5.7441 72.8671 5.74219Z" fill="#263238"/>
<g opacity="0.1">
<path d="M62.2767 73H9.72333C9.26641 72.9996 8.82836 72.8545 8.50529 72.5967C8.18221 72.3388 8.00049 71.9892 8 71.6245V50.3753C8.00053 50.0107 8.18226 49.6611 8.50534 49.4033C8.82841 49.1455 9.26644 49.0004 9.72333 49H62.2767C62.7336 49.0004 63.1716 49.1454 63.4947 49.4033C63.8178 49.6611 63.9995 50.0107 64 50.3753V71.6245C63.9995 71.9892 63.8178 72.3388 63.4947 72.5967C63.1716 72.8545 62.7336 72.9996 62.2767 73Z" fill="#FFEAEF"/>
</g>
<path opacity="0.5" d="M15.1642 53.8201H14.1411C13.9871 53.8201 13.8623 53.9197 13.8623 54.0426V69.641C13.8623 69.7639 13.9871 69.8635 14.1411 69.8635H15.1642C15.3182 69.8635 15.443 69.7639 15.443 69.641V54.0426C15.443 53.9197 15.3182 53.8201 15.1642 53.8201Z" fill="#FFEAEF"/>
<path d="M13.5832 58.8593H12.56C12.4061 58.8593 12.2812 58.9589 12.2812 59.0817V69.6413C12.2812 69.7641 12.4061 69.8638 12.56 69.8638H13.5832C13.7372 69.8638 13.862 69.7641 13.862 69.6413V59.0817C13.862 58.9589 13.7372 58.8593 13.5832 58.8593Z" fill="#FFEAEF"/>
<path opacity="0.5" d="M27.8146 67.8339H26.7915C26.6375 67.8339 26.5127 67.9335 26.5127 68.0564V69.6415C26.5127 69.7643 26.6375 69.864 26.7915 69.864H27.8146C27.9686 69.864 28.0934 69.7643 28.0934 69.6415V68.0564C28.0934 67.9335 27.9686 67.8339 27.8146 67.8339Z" fill="#FFEAEF"/>
<path d="M26.2336 57.9531H25.2104C25.0565 57.9531 24.9316 58.0527 24.9316 58.1756V69.6411C24.9316 69.764 25.0565 69.8636 25.2104 69.8636H26.2336C26.3875 69.8636 26.5124 69.764 26.5124 69.6411V58.1756C26.5124 58.0527 26.3875 57.9531 26.2336 57.9531Z" fill="#FFEAEF"/>
<path opacity="0.5" d="M21.4894 60.2607H20.4663C20.3123 60.2607 20.1875 60.3603 20.1875 60.4832V69.6412C20.1875 69.7641 20.3123 69.8637 20.4663 69.8637H21.4894C21.6434 69.8637 21.7682 69.7641 21.7682 69.6412V60.4832C21.7682 60.3603 21.6434 60.2607 21.4894 60.2607Z" fill="#FFEAEF"/>
<path d="M19.9084 63.5783H18.8852C18.7313 63.5783 18.6064 63.6779 18.6064 63.8008V69.6408C18.6064 69.7637 18.7313 69.8633 18.8852 69.8633H19.9084C20.0624 69.8633 20.1872 69.7637 20.1872 69.6408V63.8008C20.1872 63.6779 20.0624 63.5783 19.9084 63.5783Z" fill="#FFEAEF"/>
<path opacity="0.5" d="M46.7902 56.9229H45.7671C45.6131 56.9229 45.4883 57.0225 45.4883 57.1454V69.641C45.4883 69.7639 45.6131 69.8635 45.7671 69.8635H46.7902C46.9442 69.8635 47.069 69.7639 47.069 69.641V57.1454C47.069 57.0225 46.9442 56.9229 46.7902 56.9229Z" fill="#FFEAEF"/>
<path d="M45.2092 61.6875H44.186C44.032 61.6875 43.9072 61.7871 43.9072 61.91V69.6413C43.9072 69.7642 44.032 69.8638 44.186 69.8638H45.2092C45.3631 69.8638 45.4879 69.7642 45.4879 69.6413V61.91C45.4879 61.7871 45.3631 61.6875 45.2092 61.6875Z" fill="#FFEAEF"/>
<path opacity="0.5" d="M34.1398 58.9415H33.1167C32.9627 58.9415 32.8379 59.0411 32.8379 59.164V69.641C32.8379 69.7638 32.9627 69.8634 33.1167 69.8634H34.1398C34.2938 69.8634 34.4186 69.7638 34.4186 69.641V59.164C34.4186 59.0411 34.2938 58.9415 34.1398 58.9415Z" fill="#FFEAEF"/>
<path d="M32.5588 60.1782H31.5356C31.3817 60.1782 31.2568 60.2778 31.2568 60.4007V69.6411C31.2568 69.764 31.3817 69.8636 31.5356 69.8636H32.5588C32.7127 69.8636 32.8376 69.764 32.8376 69.6411V60.4007C32.8376 60.2778 32.7127 60.1782 32.5588 60.1782Z" fill="#FFEAEF"/>
<path opacity="0.5" d="M40.465 53.8201H39.4419C39.2879 53.8201 39.1631 53.9197 39.1631 54.0426V69.641C39.1631 69.7639 39.2879 69.8635 39.4419 69.8635H40.465C40.619 69.8635 40.7438 69.7639 40.7438 69.641V54.0426C40.7438 53.9197 40.619 53.8201 40.465 53.8201Z" fill="#FFEAEF"/>
<path d="M38.884 54.5931H37.8608C37.7068 54.5931 37.582 54.6927 37.582 54.8156V69.6411C37.582 69.764 37.7068 69.8636 37.8608 69.8636H38.884C39.0379 69.8636 39.1628 69.764 39.1628 69.6411V54.8156C39.1628 54.6927 39.0379 54.5931 38.884 54.5931Z" fill="#FFEAEF"/>
<path opacity="0.5" d="M53.1154 53.8201H52.0923C51.9383 53.8201 51.8135 53.9197 51.8135 54.0426V69.641C51.8135 69.7639 51.9383 69.8635 52.0923 69.8635H53.1154C53.2694 69.8635 53.3942 69.7639 53.3942 69.641V54.0426C53.3942 53.9197 53.2694 53.8201 53.1154 53.8201Z" fill="#FFEAEF"/>
<path d="M51.5344 58.8593H50.5112C50.3572 58.8593 50.2324 58.9589 50.2324 59.0817V69.6413C50.2324 69.7641 50.3572 69.8638 50.5112 69.8638H51.5344C51.6883 69.8638 51.8131 69.7641 51.8131 69.6413V59.0817C51.8131 58.9589 51.6883 58.8593 51.5344 58.8593Z" fill="#FFEAEF"/>
<path opacity="0.5" d="M59.4406 60.2607H58.4175C58.2635 60.2607 58.1387 60.3603 58.1387 60.4832V69.6412C58.1387 69.7641 58.2635 69.8637 58.4175 69.8637H59.4406C59.5946 69.8637 59.7194 69.7641 59.7194 69.6412V60.4832C59.7194 60.3603 59.5946 60.2607 59.4406 60.2607Z" fill="#FFEAEF"/>
<path d="M57.8596 63.5783H56.8364C56.6824 63.5783 56.5576 63.6779 56.5576 63.8008V69.6408C56.5576 69.7637 56.6824 69.8633 56.8364 69.8633H57.8596C58.0135 69.8633 58.1383 69.7637 58.1383 69.6408V63.8008C58.1383 63.6779 58.0135 63.5783 57.8596 63.5783Z" fill="#FFEAEF"/>
<path d="M80.9975 36.4693H69.759C69.6827 32.5252 67.8834 28.7657 64.7488 26.0006C61.6142 23.2356 57.395 21.6862 53 21.6862C48.605 21.6862 44.3858 23.2356 41.2512 26.0006C38.1166 28.7657 36.3173 32.5252 36.241 36.4693H25.0025C24.9527 33.1409 25.64 29.8367 27.0247 26.7487C28.4093 23.6606 30.4637 20.8502 33.0684 18.4807C35.6732 16.1111 38.7764 14.2297 42.198 12.9455C45.6196 11.6613 49.2913 11 53 11C56.7087 11 60.3804 11.6613 63.802 12.9455C67.2236 14.2297 70.3268 16.1111 72.9316 18.4807C75.5363 20.8502 77.5907 23.6606 78.9753 26.7487C80.36 29.8367 81.0473 33.1409 80.9975 36.4693Z" fill="#DE1F4F"/>
<path d="M67.508 28.9517L77.2493 23.9036C74.7876 20.0857 71.2547 16.9131 67.0022 14.7017L61.3779 23.4451C63.9235 24.7668 66.0375 26.6658 67.508 28.9517Z" fill="#DE1F4F"/>
<path opacity="0.8" d="M28.7508 23.9034C26.2885 27.722 24.9955 32.0572 25.003 36.4692H36.2414C36.2373 33.8293 37.0121 31.2355 38.4871 28.9515L28.7508 23.9034Z" fill="white"/>
<path opacity="0.2" d="M69.7595 36.4692H80.9979C81.005 32.0573 79.712 27.7222 77.2501 23.9034L67.5088 28.9515C68.9876 31.2343 69.7643 33.8286 69.7595 36.4692Z" fill="black"/>
<path opacity="0.6" d="M44.6214 23.4451L38.9971 14.7017C34.7446 16.9131 31.2117 20.0857 28.75 23.9036L38.4863 28.9517C39.9601 26.6665 42.0754 24.7679 44.6214 23.4451Z" fill="white"/>
<path opacity="0.4" d="M52.9971 21.4158V11.3378C48.0817 11.3321 43.2519 12.4926 38.9971 14.7017L44.6214 23.4451C47.1652 22.1178 50.0547 21.4178 52.9971 21.4158Z" fill="white"/>
<path opacity="0.2" d="M61.3778 23.4451L67.0021 14.7017C62.7457 12.492 57.9142 11.3315 52.9971 11.3378V21.4158C55.9412 21.417 58.8325 22.1171 61.3778 23.4451Z" fill="white"/>
<path d="M52.9971 35.2073L67.3966 21.0754L68.7218 22.1195L55.1567 37.1458L52.9971 35.2073Z" fill="#263238"/>
<path d="M55.5874 37.1457C55.5884 37.6056 55.4374 38.0554 55.1534 38.4382C54.8695 38.8211 54.4654 39.1197 53.9923 39.2963C53.5192 39.4729 52.9984 39.5196 52.4957 39.4304C51.993 39.3413 51.5311 39.1203 51.1685 38.7954C50.8058 38.4705 50.5587 38.0564 50.4583 37.6054C50.358 37.1544 50.409 36.6868 50.6048 36.2618C50.8007 35.8368 51.1326 35.4736 51.5586 35.218C51.9845 34.9624 52.4854 34.8259 52.9978 34.8259C53.6837 34.8259 54.3416 35.0702 54.8271 35.5051C55.3126 35.94 55.586 36.53 55.5874 37.1457Z" fill="#263238"/>
</g>
<defs>
<clipPath id="clip0_341_68043">
<rect width="100" height="76" fill="white"/>
</clipPath>
</defs>
</svg>
