<svg width="373" height="373" viewBox="0 0 373 373" fill="none" xmlns="http://www.w3.org/2000/svg">
<g clip-path="url(#clip0)">
<g opacity="0.66" filter="url(#filter0_f)">
<path fill-rule="evenodd" clip-rule="evenodd" d="M191.852 64.3044C221.131 61.8091 249.587 74.9664 272.858 92.4068C295.653 109.49 313.607 133.007 319.929 160.291C325.929 186.189 318.131 212.908 306.323 236.848C295.689 258.407 278.472 276.138 257.014 287.842C237.285 298.603 214.292 296.468 191.852 299.284C165.095 302.643 138.063 316.043 113.189 305.894C86.0709 294.83 64.3474 271.002 55.6415 243.71C46.9872 216.58 54.946 187.176 67.0739 161.332C78.2133 137.595 99.5881 121.689 120.553 105.386C142.667 88.1909 163.635 66.7091 191.852 64.3044Z" fill="#DFF0D8"/>
</g>
<path d="M130.554 114.48L126.112 112.377L129.707 109.624L125.973 107.883L129.439 105.436L125.6 102.98" stroke="#3A89FF"/>
<rect width="2.571" height="4.10705" transform="matrix(0.977573 -0.210597 0.170391 0.985376 195.577 88.2397)" fill="#DC1C4D"/>
<path d="M234.629 91.0515L223.317 103.555L219.492 98.4784L234.629 91.0515Z" fill="#FCF8E3"/>
<path d="M252.485 81.5094L255.606 84.9757L259.867 83.0785L257.535 87.118L260.656 90.5843L256.094 89.6145L253.762 93.654L253.274 89.0152L248.711 88.0454L252.973 86.1482L252.485 81.5094Z" fill="#3C763D"/>
<path d="M96.0868 143.111C96.0868 143.111 95.6921 136.89 97.5858 136.362C98.6262 136.072 99.7586 136.007 100.256 136.903C100.64 137.594 100.434 138.254 99.9719 138.928C98.9925 140.355 96.7336 139.321 95.6059 138.071C94.049 136.345 97.2313 132.28 97.2313 132.28" stroke="#3C763D" stroke-width="1.2"/>
<path d="M144.537 130.247C146.827 130.488 149.07 127.012 148.802 129.567C148.533 132.122 146.459 133.997 144.168 133.757C141.877 133.516 140.238 131.25 140.507 128.695C140.775 126.14 142.246 130.007 144.537 130.247Z" fill="#3A89FF"/>
<path d="M179.477 118.746L180.882 114.665L177.435 112.068L181.75 112.144L183.155 108.063L184.417 112.19L188.732 112.265L185.197 114.741L186.459 118.868L183.012 116.271L179.477 118.746Z" fill="#3C763D"/>
<path d="M222.298 154.907L217.201 150.878L222.651 148.4L218.358 145.046L223.552 142.924L219.336 138.618" stroke="#3A89FF"/>
<path d="M268.548 149.456L269.838 146.691L267.606 144.61L270.635 144.982L271.925 142.216L272.507 145.211L275.536 145.583L272.867 147.063L273.449 150.058L271.217 147.977L268.548 149.456Z" fill="#3C763D"/>
<path d="M104.163 179.569L100.289 179.412L102.051 176.304L98.8025 176.191L100.565 173.345L97.0201 172.745" stroke="#3A89FF"/>
<path d="M130.261 178.902L130.119 182.394L127.318 180.806L127.216 183.734L124.651 182.145L124.11 185.341" stroke="#3A89FF"/>
<path d="M169.228 170.24L166.92 167.176L163.293 168.425L165.493 165.282L163.184 162.219L166.853 163.34L169.053 160.198L169.12 164.033L172.789 165.155L169.161 166.404L169.228 170.24Z" fill="#3C763D"/>
<path d="M210.638 190.59C210.638 190.59 209.262 183.907 211.235 183.046C212.318 182.573 213.536 182.331 214.212 183.226C214.733 183.917 214.61 184.663 214.212 185.464C213.368 187.16 210.762 186.383 209.349 185.2C207.398 183.567 210.228 178.676 210.228 178.676" stroke="#3C763D" stroke-width="1.2"/>
<rect width="3.79894" height="6.06862" transform="matrix(0.00274655 0.999996 -0.99927 -0.0382036 242.477 166.751)" fill="#DC1C4D"/>
<path d="M91.0105 228.678L87.5618 224.979L82.9788 227.117L85.4304 222.694L81.9817 218.996L86.9455 219.96L89.3971 215.538L90.0133 220.557L94.9772 221.522L90.3942 223.659L91.0105 228.678Z" fill="#3C763D"/>
<path d="M154.599 219.158L142.758 217.381L144.232 212.937L154.599 219.158Z" fill="#DC1C4D"/>
<path d="M201.909 189.813L188.619 174.234L195.507 170.152L201.909 189.813Z" fill="#DC1C4D"/>
<path d="M235.893 232.349L236.93 253.075L229.183 251.986L235.893 232.349Z" fill="#FCF8E3"/>
<path d="M259.666 213.662L249.032 229.953L243.756 224.858L259.666 213.662Z" fill="#FCF8E3"/>
<ellipse cx="133.934" cy="242.024" rx="3.285" ry="2.92" transform="rotate(-159 133.934 242.024)" fill="#8A6D3B"/>
<path d="M123.705 262.739C123.705 262.739 129.516 270.278 127.57 272.563C126.501 273.819 125.122 274.868 123.727 274.158C122.652 273.611 122.349 272.601 122.359 271.353C122.38 268.71 126.122 268.09 128.617 268.709C132.062 269.565 131.504 277.428 131.504 277.428" stroke="#3C763D" stroke-width="1.2"/>
<path d="M189.406 260.019L188.375 255.437L192.564 256.524L191.678 252.688L195.56 253.859L195.15 249.523" stroke="#3A89FF"/>
<path d="M183.752 213.066L183.072 217.901L187.461 220.042L182.652 220.889L181.973 225.724L179.681 221.413L174.873 222.261L178.264 218.749L175.972 214.438L180.36 216.579L183.752 213.066Z" fill="#3C763D"/>
<path d="M239.859 270.156C241.06 270.198 242.101 268.308 242.054 269.647C242.007 270.986 240.996 272.038 239.795 271.996C238.594 271.954 237.658 270.835 237.705 269.495C237.752 268.156 238.658 270.115 239.859 270.156Z" fill="#3A89FF"/>
<rect width="4.10286" height="6.55411" transform="matrix(-0.377152 -0.926151 0.940818 -0.338911 44.2402 46.1125)" fill="#DC1C4D"/>
<path d="M124.893 55.1418L121.91 43.0536L126.597 42.808L124.893 55.1418Z" fill="#FCF8E3"/>
<path d="M197.547 41.218L202.423 23.1893L208.751 26.2758L197.547 41.218Z" fill="#FCF8E3"/>
<path d="M267.625 14.3202L271.044 13.8397L271.643 10.4396L273.157 13.5427L276.576 13.0622L274.092 15.4606L275.606 18.5637L272.557 16.9428L270.074 19.3411L270.673 15.9411L267.625 14.3202Z" fill="#3C763D"/>
<rect width="2.8281" height="4.51775" transform="matrix(-0.717429 0.696631 -0.66667 -0.745353 335.648 5.6123)" fill="#DC1C4D"/>
<path d="M11.064 122.349C10.4102 120.553 7.00097 120.145 9.00454 119.415C11.0081 118.686 13.1623 119.551 13.8162 121.348C14.47 123.144 13.3758 125.191 11.3722 125.921C9.36866 126.65 11.7179 124.146 11.064 122.349Z" fill="#3A89FF"/>
<path d="M113.415 83.7654L116.247 83.4676L116.84 80.6815L117.998 83.2836L120.831 82.9859L118.714 84.8918L119.873 87.4939L117.406 86.0697L115.289 87.9756L115.881 85.1895L113.415 83.7654Z" fill="#3C763D"/>
<path d="M166.649 78.247C166.649 78.247 171.541 82.4055 170.577 84.1865C170.048 85.165 169.285 86.0503 168.265 85.7777C167.479 85.5676 167.137 84.9435 166.969 84.1187C166.612 82.3719 168.995 81.438 170.728 81.4969C173.12 81.5782 173.855 86.8444 173.855 86.8444" stroke="#3C763D" stroke-width="1.2"/>
<path d="M225.024 112.701C222.321 112.127 219.208 115.994 219.849 112.979C220.49 109.964 223.201 107.985 225.905 108.56C228.608 109.134 230.28 112.044 229.639 115.06C228.998 118.075 227.728 113.276 225.024 112.701Z" fill="#3A89FF"/>
<path d="M294.925 142.325L297.402 143.773L295.171 145.192L297.254 146.394L295.114 147.641L297.221 149.265" stroke="#3A89FF"/>
<path d="M13.9221 225.006L8.97757 225.789L8.19443 230.733L5.92168 226.273L0.977145 227.056L4.51704 223.516L2.24429 219.055L6.70482 221.328L10.2447 217.788L9.46157 222.733L13.9221 225.006Z" fill="#3C763D"/>
<path d="M109.39 214.67L112.024 212.126L110.419 208.835L113.652 210.554L116.286 208.011L115.65 211.617L118.884 213.336L115.257 213.845L114.622 217.452L113.016 214.16L109.39 214.67Z" fill="#3C763D"/>
<ellipse cx="165.241" cy="191.381" rx="2.79225" ry="2.482" transform="rotate(80 165.241 191.381)" fill="#8A6D3B"/>
<path d="M245.403 143.522C247.465 142.131 246.907 137.698 248.459 139.998C250.01 142.298 249.596 145.29 247.534 146.681C245.472 148.072 242.542 147.335 240.991 145.035C239.439 142.735 243.341 144.913 245.403 143.522Z" fill="#3A89FF"/>
<path d="M338.308 225.865L342.587 222.561L343.49 227.46L347.061 224.669L347.729 229.289L352.053 226.752" stroke="#3A89FF"/>
<path d="M3.88697 236.22L6.5118 240.015L2.29642 240.566L4.51533 243.734L0.548487 244.096L2.51723 247.895" stroke="#3A89FF"/>
<path d="M136.362 233.777C136.362 233.777 128.74 234.934 127.885 232.658C127.415 231.407 127.213 230.019 128.264 229.309C129.074 228.762 129.908 228.944 130.789 229.441C132.653 230.494 131.622 233.389 130.204 234.913C128.245 237.018 122.893 233.535 122.893 233.535" stroke="#3C763D" stroke-width="1.2"/>
<path d="M166.799 245.819L166.139 243.467L168.344 243.918L167.78 241.95L169.828 242.452L169.497 240.211" stroke="#3A89FF"/>
<path d="M258.394 293.791C257.771 294.916 259.068 296.827 257.814 296.131C256.559 295.436 256.048 293.961 256.671 292.836C257.294 291.712 258.817 291.364 260.071 292.059C261.325 292.754 259.017 292.667 258.394 293.791Z" fill="#3A89FF"/>
<path d="M349.877 263.704L348.704 259.865L344.691 259.795L347.978 257.493L346.805 253.655L350.01 256.071L353.298 253.768L351.991 257.563L355.197 259.979L351.184 259.909L349.877 263.704Z" fill="#3C763D"/>
<rect width="3.0852" height="4.92846" transform="matrix(-0.512682 0.858579 -0.836865 -0.547409 33.6631 333.311)" fill="#DC1C4D"/>
<path d="M105.373 335.615L104.321 332.503L107.314 332.953L106.417 330.349L109.203 330.88L108.601 327.893" stroke="#3A89FF"/>
<path d="M204.531 366.576L201.755 363.148L197.637 364.729L200.039 361.029L197.263 357.6L201.524 358.742L203.927 355.042L204.158 359.448L208.419 360.59L204.301 362.171L204.531 366.576Z" fill="#3C763D"/>
<path d="M281.093 347.911L278.267 349.817L279.207 353.095L276.52 350.996L273.693 352.902L274.859 349.698L272.173 347.599L275.58 347.718L276.746 344.515L277.686 347.792L281.093 347.911Z" fill="#3C763D"/>
<g filter="url(#filter1_d)">
<rect x="139" y="139" width="96" height="96" rx="4" fill="#DFF0D8"/>
<path d="M178.93 205.087C178.095 205.087 177.33 204.809 176.704 204.183L162.86 190.339C161.608 189.087 161.608 187.139 162.86 185.887C164.112 184.635 166.06 184.635 167.312 185.887L178.999 197.505L206.756 169.818C208.008 168.565 209.956 168.565 211.208 169.818C212.46 171.07 212.46 173.018 211.208 174.27L181.225 204.183C180.53 204.809 179.764 205.087 178.93 205.087Z" fill="#3C763D"/>
<rect x="140" y="140" width="94" height="94" rx="3" stroke="#3C763D" stroke-width="2"/>
</g>
</g>
<defs>
<filter id="filter0_f" x="-70" y="-58" width="514" height="489.627" filterUnits="userSpaceOnUse" color-interpolation-filters="sRGB">
<feFlood flood-opacity="0" result="BackgroundImageFix"/>
<feBlend mode="normal" in="SourceGraphic" in2="BackgroundImageFix" result="shape"/>
<feGaussianBlur stdDeviation="61" result="effect1_foregroundBlur"/>
</filter>
<filter id="filter1_d" x="123" y="127" width="128" height="128" filterUnits="userSpaceOnUse" color-interpolation-filters="sRGB">
<feFlood flood-opacity="0" result="BackgroundImageFix"/>
<feColorMatrix in="SourceAlpha" type="matrix" values="0 0 0 0 0 0 0 0 0 0 0 0 0 0 0 0 0 0 127 0"/>
<feOffset dy="4"/>
<feGaussianBlur stdDeviation="8"/>
<feColorMatrix type="matrix" values="0 0 0 0 0 0 0 0 0 0 0 0 0 0 0 0 0 0 0.15 0"/>
<feBlend mode="normal" in2="BackgroundImageFix" result="effect1_dropShadow"/>
<feBlend mode="normal" in="SourceGraphic" in2="effect1_dropShadow" result="shape"/>
</filter>
<clipPath id="clip0">
<rect width="373" height="373" fill="white"/>
</clipPath>
</defs>
</svg>
