<svg width="373" height="373" viewBox="0 0 373 373" fill="none" xmlns="http://www.w3.org/2000/svg">
<g clip-path="url(#clip0)">
<g opacity="0.66" filter="url(#filter0_f)">
<path fill-rule="evenodd" clip-rule="evenodd" d="M191.852 64.3044C221.131 61.8091 249.587 74.9664 272.858 92.4068C295.653 109.49 313.607 133.007 319.929 160.291C325.929 186.189 318.131 212.908 306.323 236.848C295.689 258.407 278.472 276.138 257.014 287.842C237.285 298.603 214.292 296.468 191.852 299.284C165.095 302.643 138.063 316.043 113.189 305.894C86.0709 294.83 64.3474 271.002 55.6415 243.71C46.9872 216.58 54.946 187.176 67.0739 161.332C78.2133 137.595 99.5881 121.689 120.553 105.386C142.667 88.1909 163.635 66.7091 191.852 64.3044Z" fill="#DFF0D8"/>
</g>
<circle cx="138" cy="173" r="86" fill="#3C763D"/>
<circle cx="276" cy="139" r="46" fill="#3C763D"/>
<circle cx="216" cy="265" r="23" fill="#3C763D"/>
<g filter="url(#filter1_d)">
<rect x="139" y="139" width="96" height="96" rx="4" fill="#DFF0D8"/>
<path d="M178.931 205.087C178.096 205.087 177.331 204.809 176.704 204.183L162.861 190.339C161.609 189.087 161.609 187.139 162.861 185.887C164.113 184.635 166.061 184.635 167.313 185.887L179 197.505L206.757 169.818C208.009 168.565 209.957 168.565 211.209 169.818C212.461 171.07 212.461 173.018 211.209 174.27L181.226 204.183C180.531 204.809 179.765 205.087 178.931 205.087Z" fill="#3C763D"/>
<rect x="140" y="140" width="94" height="94" rx="3" stroke="#3C763D" stroke-width="2"/>
</g>
</g>
<defs>
<filter id="filter0_f" x="-70" y="-58" width="514" height="489.627" filterUnits="userSpaceOnUse" color-interpolation-filters="sRGB">
<feFlood flood-opacity="0" result="BackgroundImageFix"/>
<feBlend mode="normal" in="SourceGraphic" in2="BackgroundImageFix" result="shape"/>
<feGaussianBlur stdDeviation="61" result="effect1_foregroundBlur"/>
</filter>
<filter id="filter1_d" x="123" y="127" width="128" height="128" filterUnits="userSpaceOnUse" color-interpolation-filters="sRGB">
<feFlood flood-opacity="0" result="BackgroundImageFix"/>
<feColorMatrix in="SourceAlpha" type="matrix" values="0 0 0 0 0 0 0 0 0 0 0 0 0 0 0 0 0 0 127 0"/>
<feOffset dy="4"/>
<feGaussianBlur stdDeviation="8"/>
<feColorMatrix type="matrix" values="0 0 0 0 0 0 0 0 0 0 0 0 0 0 0 0 0 0 0.15 0"/>
<feBlend mode="normal" in2="BackgroundImageFix" result="effect1_dropShadow"/>
<feBlend mode="normal" in="SourceGraphic" in2="effect1_dropShadow" result="shape"/>
</filter>
<clipPath id="clip0">
<rect width="373" height="373" fill="white"/>
</clipPath>
</defs>
</svg>
