<svg width="80" height="80" viewBox="0 0 80 80" fill="none" xmlns="http://www.w3.org/2000/svg">
<path d="M21.2512 12.469C21.2557 12.2952 21.2976 12.1243 21.374 11.968C21.4504 11.8117 21.5595 11.6737 21.6939 11.5633C21.8283 11.4529 21.9848 11.3726 22.153 11.328C22.3211 11.2834 22.4969 11.2755 22.6683 11.3048C27.4965 12.1257 44.1044 14.7169 57.9271 14.1206C58.0766 14.1137 58.2261 14.1368 58.3666 14.1886C58.507 14.2404 58.6357 14.3198 58.745 14.4221C58.8544 14.5244 58.9421 14.6476 59.0031 14.7843C59.064 14.9211 59.097 15.0686 59.1001 15.2183L60.1182 67.0272C60.125 67.3684 59.9965 67.6984 59.7608 67.9451C59.5251 68.1918 59.2013 68.3353 58.8602 68.3441C53.0499 68.4924 29.124 69.02 20.6353 67.8427C20.3857 67.8081 20.1577 67.6826 19.9949 67.4903C19.8322 67.298 19.7461 67.0524 19.7533 66.8005L21.2512 12.469Z" fill="#FF678E"/>
<path opacity="0.7" d="M21.7786 13.787C21.7833 13.6199 21.8237 13.4557 21.8973 13.3056C21.9708 13.1555 22.0757 13.0229 22.2049 12.9168C22.334 12.8107 22.4844 12.7335 22.646 12.6905C22.8075 12.6475 22.9764 12.6396 23.1412 12.6674C27.7873 13.4567 43.7706 15.9509 57.0733 15.3764C57.2173 15.3699 57.361 15.3924 57.4962 15.4423C57.6313 15.4923 57.7551 15.5688 57.8602 15.6674C57.9654 15.7659 58.0497 15.8845 58.1084 16.0161C58.167 16.1477 58.1987 16.2897 58.2016 16.4338L59.1827 66.2903C59.1894 66.6188 59.0658 66.9366 58.8388 67.1742C58.6119 67.4118 58.3 67.5498 57.9716 67.5581C52.3804 67.702 29.3549 68.2122 21.1855 67.0763C20.945 67.0435 20.7252 66.9227 20.5685 66.7373C20.4119 66.5518 20.3295 66.3149 20.3374 66.0723L21.7786 13.787Z" fill="white"/>
<path d="M55.4287 42.2729C55.6685 42.2805 55.8648 42.1257 55.8528 41.9284C55.8408 41.7311 55.6456 41.5621 55.4058 41.5512L25.445 40.3128C25.2052 40.303 25.1267 40.4524 25.2695 40.6399L25.481 40.9244C25.5671 41.0281 25.6729 41.1138 25.7923 41.1764C25.9116 41.2391 26.0422 41.2776 26.1765 41.2896L55.4287 42.2729Z" fill="url(#paint0_linear)"/>
<path d="M25.445 43.932C25.2052 43.9222 25.1267 44.0715 25.2695 44.2645L25.481 44.549C25.5672 44.6525 25.673 44.738 25.7924 44.8005C25.9117 44.863 26.0423 44.9013 26.1765 44.9131L55.4266 45.8942C55.6664 45.9029 55.8626 45.7481 55.8506 45.5508C55.8386 45.3535 55.6435 45.1834 55.4037 45.1736L25.445 43.932Z" fill="url(#paint1_linear)"/>
<path d="M29.539 52.2517H29.5074L26.9761 52.1427C26.8063 52.1422 26.6427 52.0795 26.5161 51.9664C26.3895 51.8532 26.3088 51.6976 26.2893 51.529L26.1378 49.3967C26.1335 49.3328 26.1421 49.2686 26.1633 49.208C26.1845 49.1475 26.2177 49.0919 26.261 49.0446C26.3125 48.989 26.3747 48.9442 26.4437 48.913C26.5128 48.8817 26.5874 48.8646 26.6632 48.8626C26.8813 48.8549 27.1723 48.8397 27.4961 48.8233C28.1981 48.7873 29.0059 48.7459 29.4758 48.7557C29.635 48.7535 29.7904 48.8042 29.9177 48.8999C30.045 48.9956 30.1369 49.1308 30.1789 49.2844C30.2944 49.7783 30.2519 50.7016 30.1941 51.6827C30.1781 51.8432 30.1014 51.9916 29.9796 52.0973C29.8578 52.2031 29.7002 52.2584 29.539 52.2517ZM29.321 48.9716C28.8457 48.9716 28.1338 49.0086 27.5048 49.0413C27.1778 49.0577 26.8835 49.073 26.6687 49.0806C26.6223 49.0814 26.5765 49.0914 26.534 49.1101C26.4915 49.1289 26.4532 49.1559 26.4212 49.1896C26.3976 49.2152 26.3793 49.2452 26.3675 49.278C26.3557 49.3108 26.3506 49.3456 26.3526 49.3804L26.5041 51.5126C26.52 51.6277 26.5775 51.733 26.6656 51.8087C26.7537 51.8844 26.8665 51.9252 26.9826 51.9236L29.5368 52.0326C29.6416 52.0385 29.7447 52.0046 29.8255 51.9377C29.9064 51.8708 29.959 51.7758 29.9728 51.6718C30.0295 50.7049 30.072 49.7979 29.9619 49.3324C29.9299 49.2265 29.864 49.1341 29.7745 49.0691C29.6849 49.0042 29.5765 48.9703 29.4659 48.9727L29.321 48.9716Z" fill="url(#paint2_linear)"/>
<path d="M31.8581 50.1195C31.8059 50.1141 31.7531 50.1216 31.7045 50.1415C31.6559 50.1613 31.6129 50.1929 31.5794 50.2333C31.5459 50.2737 31.5228 50.3218 31.5123 50.3732C31.5018 50.4247 31.5041 50.478 31.5191 50.5283L31.6172 50.9556C31.6494 51.0749 31.718 51.1811 31.8137 51.2593C31.9093 51.3376 32.027 51.3838 32.1503 51.3917L55.0864 51.9193C55.2004 51.9193 55.3098 51.8747 55.3913 51.7951C55.4728 51.7154 55.5199 51.607 55.5225 51.493V51.4189C55.5231 51.3017 55.4778 51.1888 55.3963 51.1045C55.3148 51.0201 55.2036 50.971 55.0864 50.9676L31.8581 50.1195Z" fill="url(#paint3_linear)"/>
<path d="M26.851 49.6344C26.8965 49.6097 26.9464 49.5942 26.9979 49.5891C27.0494 49.5839 27.1014 49.5891 27.1509 49.6043C27.2004 49.6196 27.2463 49.6445 27.286 49.6778C27.3256 49.711 27.3583 49.7519 27.3819 49.7979L27.8518 50.7104C27.8622 50.731 27.8782 50.7483 27.898 50.7604C27.9177 50.7725 27.9404 50.7789 27.9635 50.7789C27.9866 50.7789 28.0093 50.7725 28.029 50.7604C28.0487 50.7483 28.0647 50.731 28.0752 50.7104L29.4063 47.9938C29.4202 47.9651 29.4437 47.9422 29.4727 47.9288C29.5016 47.9154 29.5343 47.9124 29.5652 47.9204C29.5961 47.9283 29.6233 47.9467 29.6422 47.9724C29.6611 47.9981 29.6706 48.0295 29.669 48.0614C29.608 49.4826 28.9938 50.8237 27.9575 51.7983C27.9575 51.7983 27.2238 51.4854 26.6701 50.1511C26.6305 50.0579 26.6271 49.9533 26.6605 49.8578C26.694 49.7622 26.7619 49.6826 26.851 49.6344Z" fill="url(#paint4_linear)"/>
<path d="M29.3583 57.6795H29.3256L26.7944 57.5705C26.6247 57.5697 26.4611 57.5069 26.3346 57.3938C26.208 57.2808 26.1273 57.1253 26.1076 56.9567L25.9561 54.8245C25.9519 54.7604 25.9608 54.6962 25.9822 54.6357C26.0035 54.5752 26.0369 54.5196 26.0803 54.4724C26.1318 54.4167 26.194 54.3719 26.263 54.3406C26.3321 54.3094 26.4068 54.2923 26.4826 54.2903C26.7006 54.2827 26.9906 54.2674 27.3143 54.2511C28.0164 54.2151 28.8252 54.1737 29.294 54.1835C29.4532 54.1812 29.6087 54.2319 29.736 54.3276C29.8632 54.4233 29.9551 54.5586 29.9971 54.7122C30.1138 55.206 30.0713 56.1293 30.0135 57.1104C29.997 57.2708 29.9201 57.4188 29.7984 57.5245C29.6767 57.6302 29.5194 57.6856 29.3583 57.6795ZM29.1403 54.3993C28.6639 54.3993 27.9521 54.4364 27.3242 54.4691C26.9971 54.4854 26.7028 54.5007 26.488 54.5083C26.4414 54.509 26.3954 54.519 26.3528 54.5378C26.3101 54.5565 26.2716 54.5835 26.2395 54.6173C26.216 54.643 26.1979 54.6731 26.1862 54.7058C26.1746 54.7386 26.1698 54.7734 26.1719 54.8081L26.3256 56.9458C26.3413 57.061 26.3987 57.1664 26.4869 57.2422C26.5751 57.3179 26.6879 57.3587 26.8042 57.3568L29.3583 57.4658C29.4632 57.4719 29.5664 57.4381 29.6473 57.3712C29.7282 57.3042 29.7808 57.2091 29.7944 57.105C29.851 56.1381 29.8936 55.2311 29.7846 54.7656C29.7523 54.6598 29.6864 54.5675 29.5969 54.5025C29.5074 54.4376 29.3991 54.4037 29.2886 54.4059L29.1403 54.3993Z" fill="url(#paint5_linear)"/>
<path d="M26.7528 54.7253C27.287 54.7068 28.4469 54.6283 28.9952 54.6392C29.103 54.6378 29.2083 54.6718 29.295 54.736C29.3816 54.8002 29.4448 54.891 29.4748 54.9946C29.5675 55.3892 29.5272 56.1697 29.4847 56.8881C29.4723 56.9977 29.4174 57.0979 29.3317 57.1673C29.246 57.2366 29.1365 57.2695 29.0268 57.2588L27.0035 57.1716C26.8894 57.1722 26.7789 57.1309 26.6932 57.0556C26.6074 56.9802 26.5522 56.8761 26.5381 56.7628L26.4171 55.0589C26.4162 55.0147 26.4242 54.9707 26.4408 54.9297C26.4574 54.8887 26.4821 54.8514 26.5135 54.8202C26.5449 54.7891 26.5823 54.7646 26.6234 54.7483C26.6646 54.7319 26.7086 54.7241 26.7528 54.7253Z" fill="url(#paint6_linear)"/>
<path d="M31.6769 55.5473C31.6246 55.5416 31.5717 55.549 31.523 55.5687C31.4742 55.5885 31.4311 55.62 31.3975 55.6605C31.3639 55.701 31.3409 55.7492 31.3305 55.8008C31.3201 55.8524 31.3226 55.9057 31.3379 55.9561L31.4349 56.3834C31.467 56.5027 31.5357 56.6089 31.6314 56.6871C31.727 56.7653 31.8447 56.8116 31.968 56.8194L54.9041 57.3471C55.0181 57.3471 55.1275 57.3025 55.209 57.2228C55.2905 57.1432 55.3376 57.0348 55.3401 56.9208V56.8467C55.3402 56.7296 55.2948 56.6171 55.2134 56.5329C55.132 56.4486 55.0211 56.3993 54.9041 56.3954L31.6769 55.5473Z" fill="url(#paint7_linear)"/>
<path d="M29.177 63.1072H29.1454L26.6131 62.9982C26.4434 62.9977 26.2799 62.9349 26.1535 62.8218C26.0271 62.7086 25.9466 62.553 25.9274 62.3845L25.7726 60.2522C25.7682 60.1882 25.7769 60.124 25.7981 60.0635C25.8193 60.003 25.8525 59.9474 25.8958 59.9001C25.9473 59.8445 26.0094 59.7997 26.0785 59.7685C26.1476 59.7372 26.2222 59.72 26.298 59.718C26.516 59.7104 26.8071 59.6951 27.1309 59.6788C27.8318 59.6428 28.6407 59.6014 29.1094 59.6112C29.2688 59.6089 29.4244 59.6595 29.5519 59.7552C29.6793 59.8509 29.7714 59.9862 29.8136 60.1399C29.9292 60.6337 29.8867 61.5571 29.8289 62.5382C29.8129 62.6981 29.7366 62.846 29.6155 62.9517C29.4945 63.0574 29.3376 63.113 29.177 63.1072ZM28.959 59.827C28.4837 59.827 27.7708 59.8641 27.1428 59.8968C26.8158 59.9132 26.5215 59.9284 26.3067 59.9361C26.2603 59.9368 26.2145 59.9468 26.172 59.9655C26.1295 59.9842 26.0912 60.0113 26.0593 60.0451C26.0356 60.0706 26.0173 60.1007 26.0055 60.1335C25.9937 60.1662 25.9886 60.2011 25.9906 60.2358L26.1421 62.3681C26.1578 62.4833 26.2152 62.5887 26.3034 62.6644C26.3916 62.7402 26.5045 62.781 26.6207 62.7791L29.1748 62.8881C29.2797 62.8942 29.3829 62.8604 29.4638 62.7935C29.5447 62.7265 29.5973 62.6314 29.6109 62.5273C29.6687 61.5603 29.7101 60.6534 29.6011 60.1879C29.569 60.082 29.5031 59.9895 29.4136 59.9246C29.324 59.8596 29.2157 59.8258 29.1051 59.8281L28.959 59.827Z" fill="url(#paint8_linear)"/>
<path d="M26.5732 60.1531C27.1063 60.1345 28.2662 60.0561 28.8156 60.067C28.9233 60.0656 29.0284 60.0996 29.1149 60.1638C29.2014 60.228 29.2643 60.3189 29.2942 60.4223C29.3868 60.817 29.3476 61.5975 29.3051 62.3159C29.2922 62.4254 29.2369 62.5255 29.1512 62.5948C29.0654 62.664 28.9559 62.697 28.8461 62.6865L26.8229 62.5993C26.7087 62.5999 26.5983 62.5587 26.5125 62.4833C26.4267 62.408 26.3715 62.3038 26.3574 62.1905L26.2364 60.4866C26.2355 60.4423 26.2436 60.3983 26.2603 60.3572C26.2769 60.3161 26.3017 60.2788 26.3332 60.2476C26.3648 60.2164 26.4023 60.1919 26.4435 60.1757C26.4848 60.1594 26.5289 60.1517 26.5732 60.1531Z" fill="url(#paint9_linear)"/>
<path d="M31.4943 60.9793C31.442 60.9736 31.3891 60.981 31.3404 61.0007C31.2916 61.0205 31.2485 61.052 31.2149 61.0925C31.1813 61.133 31.1583 61.1812 31.1479 61.2328C31.1375 61.2844 31.14 61.3377 31.1553 61.3881L31.2534 61.8154C31.2855 61.9345 31.354 62.0406 31.4494 62.1188C31.5448 62.197 31.6623 62.2434 31.7854 62.2514L54.7225 62.7791C54.8365 62.7791 54.9459 62.7345 55.0274 62.6548C55.1089 62.5752 55.156 62.4668 55.1586 62.3528V62.2787C55.1589 62.1615 55.1136 62.0488 55.0321 61.9646C54.9507 61.8803 54.8397 61.8311 54.7225 61.8274L31.4943 60.9793Z" fill="url(#paint10_linear)"/>
<path d="M29.0535 11.3277L51.4566 12.0766C51.8469 12.0894 52.2201 12.2397 52.5104 12.501C52.8006 12.7624 52.9891 13.1178 53.0427 13.5047L53.0579 13.6137C53.0863 13.8192 53.0695 14.0283 53.0086 14.2266C52.9477 14.4248 52.8442 14.6074 52.7054 14.7615C52.5665 14.9156 52.3957 15.0375 52.2049 15.1186C52.014 15.1998 51.8077 15.2383 51.6005 15.2314L28.6164 14.4618C28.4912 14.4577 28.3682 14.4281 28.2548 14.375C28.1414 14.3219 28.0399 14.2464 27.9565 14.1529C27.8732 14.0595 27.8096 13.95 27.7698 13.8313C27.7299 13.7126 27.7146 13.587 27.7247 13.4622L27.8086 12.4353C27.8342 12.1261 27.9778 11.8387 28.2095 11.6325C28.4413 11.4263 28.7435 11.3172 29.0535 11.3277Z" fill="#DC1C4D"/>
<path d="M46.4463 32.3092C46.2518 32.2928 46.0703 32.2046 45.9372 32.0617C44.8329 30.9967 43.4356 30.2857 41.9245 30.0199C41.7364 29.9841 41.5677 29.8815 41.4493 29.7311C41.3309 29.5806 41.2708 29.3925 41.2803 29.2012L41.5048 23.9687C41.5084 23.8607 41.5342 23.7545 41.5807 23.657C41.6273 23.5594 41.6935 23.4726 41.7752 23.4018C41.9244 23.2734 42.117 23.2067 42.3137 23.2154C42.3337 23.2143 42.3537 23.2143 42.3736 23.2154C45.7152 23.6284 48.8091 25.1908 51.1251 27.6347C51.1998 27.7136 51.2573 27.8071 51.2941 27.9093C51.3309 28.0115 51.346 28.1202 51.3386 28.2286C51.3313 28.337 51.3015 28.4427 51.2513 28.539C51.201 28.6352 51.1313 28.7201 51.0466 28.7881L46.9739 32.102C46.826 32.2274 46.6401 32.2992 46.4463 32.3059V32.3092Z" fill="url(#paint11_linear)"/>
<path d="M51.0839 28.2147C51.0885 28.1415 51.078 28.0681 51.0531 27.9991C51.0282 27.93 50.9893 27.8669 50.9389 27.8135C48.6665 25.4086 45.6255 23.8729 42.3412 23.4716C42.2684 23.4628 42.1945 23.4692 42.1243 23.4902C42.0541 23.5113 41.9889 23.5466 41.933 23.594C41.877 23.6413 41.8314 23.6997 41.7991 23.7655C41.7667 23.8313 41.7482 23.9031 41.7449 23.9763L41.5268 29.2089C41.5214 29.3371 41.5625 29.463 41.6427 29.5632C41.7229 29.6634 41.8366 29.7311 41.9629 29.7539C43.5241 30.0243 44.97 30.752 46.1173 31.8448C46.2102 31.9321 46.3314 31.9831 46.4587 31.9883C46.586 31.9935 46.711 31.9526 46.8106 31.8731L50.8833 28.5908C50.941 28.5454 50.9886 28.4886 51.0231 28.4238C51.0576 28.3591 51.0783 28.2879 51.0839 28.2147Z" fill="url(#paint12_linear)"/>
<path d="M35.2321 31.7641C35.0435 31.6551 34.8604 31.6791 34.7219 31.5461L30.948 27.928C30.8697 27.8528 30.8078 27.7623 30.7662 27.662C30.7246 27.5618 30.7041 27.454 30.7062 27.3455C30.7082 27.237 30.7327 27.13 30.7781 27.0314C30.8234 26.9328 30.8887 26.8447 30.9698 26.7725C33.4876 24.5358 36.7046 23.2441 40.0701 23.1184H40.1322C40.3414 23.1271 40.5407 23.2098 40.6947 23.3517C40.7769 23.4268 40.8429 23.5177 40.8888 23.6191C40.9347 23.7205 40.9596 23.8302 40.9618 23.9414L40.7372 29.174C40.7193 29.3689 40.6328 29.5511 40.493 29.6881C40.3532 29.8251 40.1693 29.9079 39.9741 29.9218C38.4406 30.0472 36.9799 30.6293 35.7804 31.593C35.6227 31.7088 35.4311 31.7694 35.2354 31.7652L35.2321 31.7641Z" fill="url(#paint13_linear)"/>
<path d="M40.0787 23.3703C36.7718 23.4889 33.6102 24.7585 31.1398 26.96C31.0848 27.0088 31.0406 27.0684 31.0099 27.1351C30.9791 27.2017 30.9625 27.2741 30.961 27.3475C30.9596 27.4209 30.9734 27.4938 31.0015 27.5617C31.0297 27.6295 31.0715 27.6908 31.1245 27.7416L34.8985 31.3597C34.9919 31.4488 35.1145 31.501 35.2434 31.5064C35.3724 31.5118 35.4989 31.4701 35.5994 31.3892C36.8329 30.3909 38.339 29.7883 39.9207 29.6602C40.0499 29.6503 40.1711 29.5933 40.2613 29.5001C40.3514 29.4069 40.4044 29.284 40.4101 29.1544L40.6347 23.9219C40.6373 23.8483 40.6247 23.7749 40.5976 23.7064C40.5706 23.6379 40.5297 23.5757 40.4775 23.5237C40.4253 23.4717 40.363 23.4311 40.2943 23.4043C40.2257 23.3775 40.1523 23.3652 40.0787 23.3681V23.3703Z" fill="url(#paint14_linear)"/>
<path d="M49.0793 38.1195C48.6651 38.1021 48.3326 37.8132 48.325 37.399C48.2975 36.0363 47.906 34.7058 47.1913 33.5454C47.0921 33.3846 47.0553 33.193 47.0876 33.0069C47.1199 32.8207 47.2192 32.6529 47.3668 32.5349L51.4405 29.2569C51.5893 29.1376 51.7766 29.0771 51.967 29.0868C51.9944 29.0881 52.0217 29.091 52.0488 29.0955C52.1561 29.1116 52.2589 29.1496 52.3508 29.2072C52.4427 29.2647 52.5217 29.3407 52.583 29.4302C54.2435 31.8519 55.1244 34.7232 55.1077 37.6595C55.1069 37.758 55.0849 37.8551 55.0432 37.9443C55.0014 38.0335 54.9408 38.1126 54.8657 38.1762C54.7867 38.2424 54.6949 38.2914 54.596 38.3203C54.4971 38.3492 54.3933 38.3573 54.2912 38.3441L49.0793 38.1195Z" fill="url(#paint15_linear)"/>
<path d="M52.3712 29.5741C52.3298 29.5137 52.2764 29.4624 52.2143 29.4236C52.1522 29.3847 52.0827 29.3592 52.0102 29.3484C51.9378 29.3377 51.8639 29.342 51.7932 29.3611C51.7225 29.3803 51.6565 29.4138 51.5994 29.4596L47.5278 32.7453C47.4272 32.826 47.3596 32.9407 47.3377 33.0678C47.3159 33.1949 47.3412 33.3256 47.4089 33.4353C48.1469 34.6435 48.5506 36.026 48.5786 37.4415C48.5813 37.5765 48.6353 37.7054 48.7297 37.802C48.8241 37.8987 48.9517 37.9557 49.0866 37.9615L54.2985 38.1849C54.37 38.1883 54.4415 38.1772 54.5085 38.1521C54.5756 38.1271 54.6369 38.0887 54.6887 38.0392C54.7404 37.9898 54.7816 37.9304 54.8098 37.8645C54.8379 37.7987 54.8524 37.7278 54.8523 37.6562C54.8672 34.7724 54.0016 31.9528 52.3712 29.5741Z" fill="url(#paint16_linear)"/>
<path d="M26.8913 37.1689C26.7885 37.1725 26.686 37.1551 26.5902 37.1176C26.4944 37.0801 26.4073 37.0233 26.3342 36.9509C26.2645 36.8762 26.2112 36.7878 26.1776 36.6913C26.144 36.5948 26.1309 36.4924 26.1391 36.3906C26.3733 33.4691 27.4963 30.6893 29.3571 28.4251C29.4258 28.3426 29.5107 28.2752 29.6065 28.227C29.7023 28.1788 29.8071 28.1509 29.9142 28.1449C29.9418 28.1433 29.9694 28.1433 29.997 28.1449C30.1877 28.1526 30.3689 28.2302 30.5061 28.3629L34.2856 31.9821C34.4234 32.1143 34.5086 32.2921 34.5253 32.4824C34.5419 32.6727 34.4889 32.8625 34.376 33.0166C33.5648 34.1043 33.0611 35.3901 32.9175 36.7394C32.8738 37.1515 32.5174 37.412 32.1042 37.3935L26.8913 37.1689Z" fill="url(#paint17_linear)"/>
<path d="M34.1104 32.1652L30.3331 28.5515C30.2802 28.5008 30.2174 28.4617 30.1486 28.4365C30.0798 28.4113 30.0066 28.4007 29.9335 28.4052C29.8603 28.4097 29.789 28.4293 29.7238 28.4627C29.6586 28.4961 29.6011 28.5427 29.5548 28.5994C27.7276 30.8293 26.6247 33.5638 26.3934 36.4374C26.3875 36.5086 26.396 36.5804 26.4186 36.6482C26.4411 36.7161 26.4771 36.7787 26.5245 36.8323C26.5718 36.8859 26.6295 36.9293 26.6941 36.96C26.7587 36.9907 26.8289 37.0079 26.9003 37.0108L32.1122 37.2343C32.2471 37.2403 32.3792 37.1945 32.4815 37.1064C32.5839 37.0183 32.6487 36.8944 32.6627 36.7601C32.8105 35.3509 33.3292 34.0062 34.166 32.8629C34.2433 32.7598 34.2804 32.632 34.2701 32.5035C34.2599 32.3751 34.2031 32.2547 34.1104 32.1652Z" fill="url(#paint18_linear)"/>
<path d="M40.3295 38.7649C39.9751 38.7504 39.6316 38.6388 39.3363 38.4423C39.041 38.2458 38.8054 37.972 38.6551 37.6508C38.4131 37.1341 38.2812 36.3361 39.0257 35.4705C40.0744 34.254 42.4367 30.8528 43.4025 29.4476C43.4431 29.388 43.4982 29.3397 43.5627 29.3075C43.6272 29.2752 43.6989 29.26 43.771 29.2634C43.8252 29.2659 43.8784 29.2784 43.928 29.3005C44.0185 29.3414 44.0919 29.4128 44.1353 29.5022C44.1788 29.5916 44.1895 29.6934 44.1656 29.7899L42.4389 36.7514C42.3926 37.0417 42.3105 37.3251 42.1947 37.5952C42.0465 37.9387 41.8022 38.2322 41.4913 38.4403C41.1803 38.6484 40.8159 38.7622 40.4418 38.7681C40.4047 38.7671 40.3666 38.766 40.3295 38.7649ZM40.5235 36.2696C40.4399 36.2654 40.3575 36.2906 40.2904 36.3406C40.2233 36.3907 40.1758 36.4626 40.1561 36.544C40.1363 36.6253 40.1455 36.711 40.1822 36.7863C40.2188 36.8616 40.2805 36.9217 40.3568 36.9564C40.3993 36.9758 40.4452 36.9869 40.4919 36.9891C40.5873 36.9933 40.6805 36.9594 40.7509 36.8949C40.8214 36.8304 40.8633 36.7405 40.8675 36.6451C40.8717 36.5497 40.8378 36.4566 40.7733 36.3861C40.7088 36.3157 40.6189 36.2738 40.5235 36.2696Z" fill="url(#paint19_linear)"/>
<path d="M42.1873 36.7013L43.9184 29.7245C43.9281 29.6858 43.9238 29.645 43.9064 29.6091C43.889 29.5733 43.8595 29.5446 43.8232 29.5283C43.7868 29.5119 43.7459 29.5089 43.7075 29.5196C43.6691 29.5304 43.6357 29.5543 43.6132 29.5872C42.571 31.11 40.2709 34.4218 39.2189 35.6351C38.5976 36.3568 38.6466 37.0239 38.8864 37.5385C39.0237 37.8331 39.2434 38.0816 39.5188 38.2542C39.7942 38.4268 40.1137 38.516 40.4387 38.511C40.7637 38.5061 41.0803 38.4072 41.3503 38.2263C41.6204 38.0454 41.8323 37.7902 41.9606 37.4916C42.0691 37.2387 42.1453 36.9732 42.1873 36.7013ZM40.2502 37.1874C40.1399 37.1363 40.0472 37.0537 39.9838 36.9499C39.9205 36.8461 39.8893 36.7259 39.8943 36.6044C39.8993 36.4829 39.9402 36.3656 40.0118 36.2674C40.0834 36.1691 40.1826 36.0943 40.2967 36.0524C40.4109 36.0105 40.5349 36.0034 40.653 36.032C40.7712 36.0605 40.8783 36.1235 40.9607 36.2129C41.0431 36.3023 41.0971 36.4141 41.116 36.5342C41.1349 36.6543 41.1177 36.7773 41.0667 36.8877C41.0328 36.961 40.9847 37.0269 40.9254 37.0816C40.866 37.1364 40.7964 37.1789 40.7205 37.2067C40.6447 37.2346 40.5641 37.2472 40.4834 37.2439C40.4027 37.2406 40.3235 37.2214 40.2502 37.1874Z" fill="url(#paint20_linear)"/>
<path d="M27.5443 18.9007C27.4851 18.8983 27.427 18.8837 27.3736 18.8581C27.3202 18.8324 27.2726 18.7961 27.2336 18.7514C27.114 18.6416 26.9598 18.5772 26.7976 18.5693C26.3768 18.5519 26.0225 18.9312 26.004 19.4109C25.9855 19.8906 26.3081 20.295 26.73 20.3113C26.8966 20.3178 27.0599 20.264 27.19 20.1598C27.2739 20.0847 27.3839 20.0456 27.4964 20.0508C27.6118 20.0553 27.7208 20.1055 27.7993 20.1904C27.8778 20.2752 27.9194 20.3877 27.915 20.5032C27.9137 20.5608 27.9005 20.6176 27.8763 20.6699C27.8521 20.7222 27.8174 20.769 27.7743 20.8073C27.6339 20.9507 27.4654 21.0634 27.2793 21.1385C27.0931 21.2135 26.8935 21.2492 26.6929 21.2434C25.8208 21.2096 25.1548 20.3713 25.194 19.3815C25.2333 18.3916 25.9658 17.6089 26.8292 17.6438C27.0301 17.6542 27.2268 17.7057 27.407 17.7951C27.5872 17.8845 27.7471 18.01 27.8768 18.1638C27.9173 18.206 27.9489 18.256 27.9697 18.3107C27.9905 18.3653 28 18.4237 27.9978 18.4821C27.9956 18.5394 27.982 18.5957 27.958 18.6477C27.934 18.6998 27.9 18.7466 27.8579 18.7855C27.8157 18.8243 27.7664 18.8545 27.7126 18.8743C27.6588 18.8941 27.6016 18.9031 27.5443 18.9007Z" fill="url(#paint21_linear)"/>
<path d="M30.3191 19.8818L30.621 20.7223C30.638 20.757 30.6508 20.7936 30.6592 20.8313V20.839C30.6671 20.8747 30.6701 20.9114 30.6679 20.948C30.6642 21.0467 30.6282 21.1415 30.5654 21.2178C30.5026 21.2941 30.4165 21.3477 30.3204 21.3703C30.2242 21.393 30.1232 21.3834 30.033 21.3432C29.9428 21.3029 29.8683 21.2342 29.8209 21.1475L29.8122 21.1235C29.7991 21.0963 29.7888 21.0678 29.7816 21.0384L29.4088 20.0017L28.9728 19.9843L28.939 20.8564C28.9401 20.8716 28.9401 20.8869 28.939 20.9022C28.9368 20.9583 28.9235 21.0134 28.9 21.0644C28.8765 21.1154 28.8431 21.1613 28.8019 21.1994C28.7606 21.2375 28.7123 21.2671 28.6596 21.2865C28.6069 21.306 28.5509 21.3148 28.4947 21.3126C28.4386 21.3104 28.3835 21.2971 28.3325 21.2736C28.2815 21.2501 28.2356 21.2167 28.1975 21.1755C28.1594 21.1342 28.1298 21.0859 28.1104 21.0332C28.091 20.9805 28.0821 20.9245 28.0843 20.8684C28.0843 20.8531 28.0843 20.839 28.0843 20.8237L28.1933 18.1147C28.2062 18.0014 28.2614 17.897 28.3479 17.8226C28.4344 17.7482 28.5459 17.7093 28.6599 17.7136L30.0694 17.7692H30.0814C30.3367 17.7819 30.5791 17.8849 30.7654 18.0599C30.9517 18.235 31.0696 18.4705 31.0982 18.7245C31.1268 18.9785 31.0641 19.2343 30.9214 19.4464C30.7786 19.6584 30.5651 19.8127 30.3191 19.8818ZM30.2744 18.9541C30.277 18.8793 30.25 18.8065 30.1991 18.7515C30.1483 18.6966 30.0777 18.664 30.0029 18.6609L29.1396 18.6271L29.1167 19.194L29.9811 19.2278C30.0185 19.2291 30.0558 19.223 30.0909 19.2098C30.1259 19.1966 30.158 19.1766 30.1852 19.151C30.2125 19.1253 30.2344 19.0945 30.2497 19.0604C30.265 19.0262 30.2734 18.9894 30.2744 18.952V18.9541Z" fill="url(#paint22_linear)"/>
<path d="M33.3184 18.6827L32.1051 18.6347L32.0811 19.2539L33.0819 19.2931C33.1874 19.2973 33.2869 19.3433 33.3586 19.4208C33.4303 19.4984 33.4682 19.6013 33.464 19.7068C33.4598 19.8124 33.4138 19.9119 33.3362 19.9836C33.2587 20.0552 33.1558 20.0931 33.0503 20.0889L32.0495 20.0497L32.0288 20.5642L32.9979 20.6024C33.1144 20.6078 33.224 20.6594 33.3025 20.7457C33.381 20.8319 33.422 20.9459 33.4165 21.0624C33.411 21.1789 33.3595 21.2885 33.2732 21.367C33.1869 21.4455 33.073 21.4865 32.9565 21.481H32.9173L31.5099 21.4265V21.4156C31.4271 21.3933 31.3538 21.3447 31.301 21.277C31.2483 21.2093 31.2191 21.1263 31.2178 21.0406L31.3268 18.1899C31.3357 18.0883 31.3833 17.9939 31.4598 17.9263C31.5362 17.8588 31.6358 17.8232 31.7378 17.8269L33.3511 17.8902C33.403 17.8922 33.4539 17.9044 33.501 17.926C33.5481 17.9477 33.5905 17.9785 33.6257 18.0165C33.6609 18.0546 33.6883 18.0992 33.7063 18.1479C33.7243 18.1965 33.7325 18.2482 33.7305 18.3C33.7285 18.3519 33.7163 18.4028 33.6946 18.4499C33.6729 18.497 33.6422 18.5394 33.6041 18.5746C33.5661 18.6098 33.5214 18.6372 33.4728 18.6552C33.4241 18.6732 33.3724 18.6814 33.3206 18.6794L33.3184 18.6827Z" fill="url(#paint23_linear)"/>
<path d="M36.2925 20.3877C36.2798 20.7061 36.1436 21.007 35.9129 21.2268C35.6822 21.4465 35.375 21.5678 35.0563 21.565L34.3216 21.5356C34.1878 21.5222 34.0632 21.4616 33.9699 21.3648C33.8767 21.2679 33.8209 21.1411 33.8125 21.0069L33.8419 20.2689L33.8855 19.1602L33.9128 18.4473C33.9264 18.3089 33.9903 18.1803 34.0923 18.0859C34.1944 17.9914 34.3276 17.9377 34.4666 17.9349L35.2013 17.9644C35.5192 17.9862 35.8161 18.1311 36.0289 18.3682C36.2418 18.6053 36.354 18.916 36.3416 19.2344C36.3416 19.2671 36.3416 19.2998 36.334 19.3325L36.2969 20.2863C36.2972 20.3202 36.2958 20.354 36.2925 20.3877ZM35.5665 19.1264C35.5669 19.018 35.5251 18.9137 35.4501 18.8354C35.3751 18.7571 35.2726 18.711 35.1643 18.7067H35.1468L34.6279 18.6871L34.5451 20.8041L35.064 20.8238C35.0698 20.8234 35.0756 20.8234 35.0814 20.8238C35.1865 20.8282 35.2894 20.7925 35.3692 20.7239C35.449 20.6553 35.4997 20.5588 35.5109 20.4542V20.4269L35.5611 19.1417L35.5665 19.1264Z" fill="url(#paint24_linear)"/>
<path d="M36.821 21.6348C36.7172 21.6306 36.6192 21.5859 36.5479 21.5103C36.4766 21.4347 36.4377 21.3343 36.4395 21.2304L36.5485 18.4179V18.4124C36.5561 18.3096 36.6034 18.2138 36.6802 18.1451C36.7571 18.0765 36.8576 18.0403 36.9606 18.0442C37.0636 18.0482 37.161 18.092 37.2324 18.1663C37.3038 18.2407 37.3435 18.3399 37.3432 18.4429L37.2342 21.2533C37.2299 21.3586 37.184 21.458 37.1066 21.5295C37.0291 21.6011 36.9264 21.6389 36.821 21.6348Z" fill="url(#paint25_linear)"/>
<path d="M39.9831 18.964L39.3388 18.9378L39.2473 21.2641C39.2489 21.2823 39.2489 21.3005 39.2473 21.3186C39.2395 21.425 39.1908 21.5242 39.1112 21.5953C39.0317 21.6664 38.9276 21.7038 38.821 21.6995C38.7144 21.6953 38.6137 21.6497 38.54 21.5726C38.4664 21.4954 38.4257 21.3926 38.4264 21.2859C38.4243 21.2693 38.4243 21.2524 38.4264 21.2358L38.5169 18.9062L37.8944 18.8822C37.7884 18.8752 37.6893 18.8271 37.6183 18.7481C37.5472 18.6691 37.5098 18.5654 37.514 18.4593C37.5191 18.3542 37.565 18.2553 37.642 18.1836C37.719 18.1119 37.8209 18.0731 37.9261 18.0755L40.0071 18.1562C40.1113 18.1632 40.2087 18.2102 40.279 18.2875C40.3493 18.3647 40.387 18.4661 40.3843 18.5705C40.3798 18.6758 40.3347 18.7754 40.2585 18.8483C40.1824 18.9212 40.0809 18.9619 39.9755 18.9618L39.9831 18.964Z" fill="url(#paint26_linear)"/>
<path d="M43.8997 20.7998C43.8997 20.8085 43.8997 20.8172 43.8997 20.826C43.8528 21.4724 43.3677 21.8954 42.7845 21.8725H42.7224H42.6929C42.3659 21.8594 41.8208 21.6152 41.7783 21.4103C41.7783 21.4015 41.7783 21.3765 41.7783 21.3427C41.7816 21.2627 41.8061 21.1851 41.8492 21.1177C41.8922 21.0503 41.9524 20.9955 42.0236 20.959C42.0604 20.9392 42.1018 20.9295 42.1435 20.9306C42.2983 20.9361 42.4117 21.1072 42.67 21.117C42.9513 21.1279 43.0799 21.0342 43.0854 20.9066C43.0869 20.8896 43.0869 20.8724 43.0854 20.8554C43.0309 20.5687 42.3474 20.1741 42.1457 19.9931C42.0598 19.9122 41.9924 19.8138 41.948 19.7045C41.9036 19.5952 41.8833 19.4776 41.8884 19.3598C41.9146 18.7057 42.4019 18.25 42.9873 18.2696C43.0065 18.2685 43.0258 18.2685 43.045 18.2696H43.0756C43.4026 18.2816 44 18.5291 44.0436 18.7329C44.0436 18.7427 44.0436 18.7678 44.0436 18.8016C44.0403 18.8815 44.0158 18.9592 43.9728 19.0266C43.9297 19.094 43.8695 19.1488 43.7983 19.1853C43.7533 19.2072 43.7033 19.217 43.6533 19.2137C43.4636 19.2071 43.2402 19.06 43.0309 19.0513C43.0142 19.0502 42.9974 19.0502 42.9807 19.0513C42.9217 19.0697 42.8698 19.1061 42.8323 19.1553C42.7949 19.2045 42.7736 19.2641 42.7714 19.326C42.7691 19.357 42.7739 19.3881 42.7854 19.417C42.797 19.4459 42.8149 19.4718 42.8379 19.4927C42.9524 19.5941 43.407 19.9691 43.5847 20.1163C43.6849 20.1995 43.7652 20.304 43.8197 20.4223C43.8742 20.5406 43.9016 20.6696 43.8997 20.7998Z" fill="url(#paint27_linear)"/>
<path d="M46.522 19.6409C46.4626 19.6386 46.4043 19.6241 46.3507 19.5984C46.2971 19.5728 46.2493 19.5364 46.2102 19.4915C46.0907 19.3815 45.9364 19.3167 45.7742 19.3084C45.3523 19.2921 44.9991 19.6714 44.9806 20.15C44.962 20.6285 45.2847 21.0352 45.7055 21.0515C45.872 21.0576 46.0352 21.0039 46.1655 20.9C46.2294 20.843 46.3086 20.8061 46.3933 20.7938C46.4779 20.7815 46.5644 20.7944 46.6418 20.8309C46.7192 20.8674 46.7841 20.9259 46.8285 20.999C46.873 21.0722 46.8949 21.1568 46.8915 21.2423C46.8902 21.3 46.8769 21.3568 46.8525 21.4092C46.8281 21.4615 46.7931 21.5082 46.7498 21.5464C46.6095 21.6896 46.4412 21.8023 46.2552 21.8773C46.0693 21.9524 45.8699 21.9882 45.6695 21.9825C44.7974 21.9487 44.1313 21.1104 44.1706 20.1205C44.2098 19.1307 44.9424 18.348 45.8058 18.3764C46.0066 18.3871 46.203 18.4389 46.383 18.5285C46.563 18.6181 46.7227 18.7437 46.8523 18.8974C46.895 18.9406 46.928 18.9924 46.949 19.0494C46.9701 19.1064 46.9787 19.1672 46.9744 19.2277C46.9685 19.3423 46.9176 19.4498 46.833 19.5272C46.7483 19.6045 46.6366 19.6453 46.522 19.6409Z" fill="url(#paint28_linear)"/>
<path d="M50.2706 20.3572C50.2313 21.3514 49.4944 22.1297 48.6223 22.0959C47.7502 22.0621 47.0776 21.2238 47.1169 20.234C47.1561 19.2442 47.893 18.4582 48.764 18.4898C49.635 18.5214 50.3087 19.3641 50.2706 20.3572ZM49.4563 20.3256C49.4759 19.8437 49.1488 19.4415 48.727 19.424C48.3051 19.4066 47.9486 19.7838 47.9301 20.2656C47.9116 20.7474 48.2375 21.1508 48.6594 21.1671C49.0813 21.1835 49.4377 20.8085 49.4563 20.3256Z" fill="url(#paint29_linear)"/>
<path d="M52.6299 20.7539L52.9319 21.5943C52.9488 21.6291 52.9616 21.6657 52.97 21.7034V21.7099C52.978 21.7457 52.9809 21.7823 52.9788 21.8189C52.9748 21.9176 52.9387 22.0122 52.8758 22.0883C52.8129 22.1644 52.7269 22.2179 52.6307 22.2404C52.5346 22.2629 52.4338 22.2533 52.3436 22.213C52.2535 22.1727 52.1791 22.104 52.1317 22.0173L52.123 21.9944C52.1101 21.9671 52.0999 21.9387 52.0925 21.9094L51.7164 20.8683L51.2804 20.8509L51.2466 21.723C51.2477 21.7379 51.2477 21.7528 51.2466 21.7677C51.2422 21.881 51.1931 21.988 51.1098 22.0651C51.0266 22.1421 50.9162 22.183 50.8029 22.1787C50.6896 22.1743 50.5826 22.1251 50.5055 22.0419C50.4284 21.9587 50.3876 21.8483 50.3919 21.735C50.3919 21.7197 50.3919 21.7045 50.3919 21.6903L50.5009 18.9803C50.5133 18.8669 50.5682 18.7624 50.6546 18.6879C50.741 18.6134 50.8524 18.5746 50.9664 18.5791L52.3759 18.6336H52.3879C52.6453 18.6435 52.8906 18.7455 53.0792 18.9209C53.2678 19.0964 53.3872 19.3337 53.4157 19.5897C53.4443 19.8457 53.38 20.1034 53.2346 20.3161C53.0892 20.5287 52.8723 20.6821 52.6234 20.7484L52.6299 20.7539ZM52.5852 19.8273C52.5867 19.7902 52.5808 19.7532 52.568 19.7184C52.5551 19.6836 52.5355 19.6516 52.5103 19.6244C52.4851 19.5971 52.4548 19.5751 52.421 19.5596C52.3873 19.5441 52.3509 19.5354 52.3138 19.534L51.4504 19.5002L51.4275 20.0671L52.292 20.1009C52.3297 20.103 52.3675 20.0974 52.403 20.0845C52.4386 20.0716 52.4712 20.0517 52.4988 20.026C52.5265 20.0003 52.5487 19.9692 52.5641 19.9347C52.5795 19.9002 52.5878 19.8629 52.5885 19.8251L52.5852 19.8273Z" fill="url(#paint30_linear)"/>
<path d="M55.631 19.5548L54.4177 19.5079L54.3938 20.1271L55.3945 20.1663C55.4467 20.1684 55.4981 20.1808 55.5455 20.2027C55.593 20.2246 55.6357 20.2556 55.6712 20.2941C55.7067 20.3325 55.7342 20.3775 55.7523 20.4266C55.7704 20.4756 55.7786 20.5278 55.7766 20.58C55.7745 20.6323 55.7621 20.6836 55.7402 20.7311C55.7183 20.7786 55.6873 20.8213 55.6489 20.8568C55.6104 20.8922 55.5654 20.9198 55.5163 20.9379C55.4673 20.956 55.4151 20.9642 55.3629 20.9621L54.3621 20.924L54.3414 21.4385L55.3105 21.4767C55.4269 21.4823 55.5363 21.5339 55.6146 21.6202C55.6929 21.7065 55.7337 21.8203 55.7281 21.9367C55.7224 22.0531 55.6708 22.1624 55.5845 22.2407C55.4982 22.319 55.3844 22.3598 55.268 22.3542H55.2288L53.8214 22.2986V22.2888C53.7387 22.266 53.6655 22.2171 53.6129 22.1493C53.5602 22.0815 53.5309 21.9985 53.5293 21.9127L53.6383 19.061C53.6472 18.9594 53.6948 18.8651 53.7714 18.7977C53.8479 18.7304 53.9474 18.695 54.0493 18.699L55.6627 18.7623C55.7157 18.7624 55.7681 18.7733 55.8168 18.7941C55.8655 18.815 55.9095 18.8455 55.9462 18.8837C55.9829 18.922 56.0115 18.9673 56.0303 19.0168C56.0491 19.0664 56.0578 19.1192 56.0557 19.1722C56.0537 19.2251 56.041 19.2771 56.0184 19.3251C55.9958 19.373 55.9638 19.4159 55.9242 19.4512C55.8847 19.4865 55.8385 19.5135 55.7883 19.5306C55.7381 19.5476 55.685 19.5544 55.6321 19.5504L55.631 19.5548Z" fill="url(#paint31_linear)"/>
<defs>
<linearGradient id="paint0_linear" x1="10042" y1="931.294" x2="18661.9" y2="931.294" gradientUnits="userSpaceOnUse">
<stop stop-color="#ED539F"/>
<stop offset="1" stop-color="#A061C2"/>
</linearGradient>
<linearGradient id="paint1_linear" x1="10041.3" y1="1001.12" x2="18660.6" y2="1001.12" gradientUnits="userSpaceOnUse">
<stop stop-color="#ED539F"/>
<stop offset="1" stop-color="#A061C2"/>
</linearGradient>
<linearGradient id="paint2_linear" x1="1406.16" y1="1933.82" x2="1561.51" y2="1933.82" gradientUnits="userSpaceOnUse">
<stop stop-color="#ED539F"/>
<stop offset="1" stop-color="#A061C2"/>
</linearGradient>
<linearGradient id="paint3_linear" x1="9269.01" y1="1029.46" x2="14560.6" y2="1029.46" gradientUnits="userSpaceOnUse">
<stop stop-color="#ED539F"/>
<stop offset="1" stop-color="#A061C2"/>
</linearGradient>
<linearGradient id="paint4_linear" x1="-337.252" y1="1428.6" x2="-866.695" y2="2087.26" gradientUnits="userSpaceOnUse">
<stop stop-color="#A737D5"/>
<stop offset="1" stop-color="#EF497A"/>
</linearGradient>
<linearGradient id="paint5_linear" x1="1399.38" y1="2113.38" x2="1554.8" y2="2113.38" gradientUnits="userSpaceOnUse">
<stop stop-color="#ED539F"/>
<stop offset="1" stop-color="#A061C2"/>
</linearGradient>
<linearGradient id="paint6_linear" x1="1078.73" y1="1598.95" x2="1167.73" y2="1598.95" gradientUnits="userSpaceOnUse">
<stop stop-color="#ED539F"/>
<stop offset="1" stop-color="#A061C2"/>
</linearGradient>
<linearGradient id="paint7_linear" x1="9228.46" y1="1124.68" x2="14520.1" y2="1124.68" gradientUnits="userSpaceOnUse">
<stop stop-color="#ED539F"/>
<stop offset="1" stop-color="#A061C2"/>
</linearGradient>
<linearGradient id="paint8_linear" x1="1392.09" y1="2292.94" x2="1547.44" y2="2292.94" gradientUnits="userSpaceOnUse">
<stop stop-color="#ED539F"/>
<stop offset="1" stop-color="#A061C2"/>
</linearGradient>
<linearGradient id="paint9_linear" x1="1073.53" y1="1734.9" x2="1162.51" y2="1734.9" gradientUnits="userSpaceOnUse">
<stop stop-color="#ED539F"/>
<stop offset="1" stop-color="#A061C2"/>
</linearGradient>
<linearGradient id="paint10_linear" x1="9188.58" y1="1219.82" x2="14480.5" y2="1219.82" gradientUnits="userSpaceOnUse">
<stop stop-color="#ED539F"/>
<stop offset="1" stop-color="#A061C2"/>
</linearGradient>
<linearGradient id="paint11_linear" x1="37.6376" y1="35.1131" x2="36.3011" y2="36.4875" gradientUnits="userSpaceOnUse">
<stop stop-color="#41A362"/>
<stop offset="1" stop-color="#204F2E"/>
</linearGradient>
<linearGradient id="paint12_linear" x1="4465.13" y1="3004.35" x2="5298.35" y2="3040.01" gradientUnits="userSpaceOnUse">
<stop stop-color="#41A362"/>
<stop offset="1" stop-color="#204F2E"/>
</linearGradient>
<linearGradient id="paint13_linear" x1="32.5843" y1="32.288" x2="29.8194" y2="35.8577" gradientUnits="userSpaceOnUse">
<stop stop-color="#F9C200"/>
<stop offset="1" stop-color="#9B1E5F"/>
</linearGradient>
<linearGradient id="paint14_linear" x1="5619" y1="1975.47" x2="4854.7" y2="3117.12" gradientUnits="userSpaceOnUse">
<stop stop-color="#F9C200"/>
<stop offset="1" stop-color="#9B1E5F"/>
</linearGradient>
<linearGradient id="paint15_linear" x1="4937.4" y1="3492.1" x2="4359.55" y2="3546.19" gradientUnits="userSpaceOnUse">
<stop stop-color="#53D8FF"/>
<stop offset="1" stop-color="#3840F7"/>
</linearGradient>
<linearGradient id="paint16_linear" x1="3890.6" y1="3550.22" x2="4422.02" y2="3572.96" gradientUnits="userSpaceOnUse">
<stop stop-color="#53D8FF"/>
<stop offset="1" stop-color="#3840F7"/>
</linearGradient>
<linearGradient id="paint17_linear" x1="3369.32" y1="3679.9" x2="3281.99" y2="3716.88" gradientUnits="userSpaceOnUse">
<stop stop-color="#E40045"/>
<stop offset="1" stop-color="#5C0E16"/>
</linearGradient>
<linearGradient id="paint18_linear" x1="2558.95" y1="3487.74" x2="3115.65" y2="3511.56" gradientUnits="userSpaceOnUse">
<stop stop-color="#E40045"/>
<stop offset="1" stop-color="#5C0E16"/>
</linearGradient>
<linearGradient id="paint19_linear" x1="3172.59" y1="3890.23" x2="3088.92" y2="4199.91" gradientUnits="userSpaceOnUse">
<stop stop-color="#2B3582"/>
<stop offset="1" stop-color="#150E42"/>
</linearGradient>
<linearGradient id="paint20_linear" x1="7326.91" y1="1974.24" x2="7472.68" y2="2041.29" gradientUnits="userSpaceOnUse">
<stop stop-color="#2B3582"/>
<stop offset="1" stop-color="#150E42"/>
</linearGradient>
<linearGradient id="paint21_linear" x1="945.673" y1="1378.76" x2="922.687" y2="1572.16" gradientUnits="userSpaceOnUse">
<stop stop-color="#2B3582"/>
<stop offset="1" stop-color="#150E42"/>
</linearGradient>
<linearGradient id="paint22_linear" x1="1100.83" y1="1413.62" x2="1078.64" y2="1610.95" gradientUnits="userSpaceOnUse">
<stop stop-color="#2B3582"/>
<stop offset="1" stop-color="#150E42"/>
</linearGradient>
<linearGradient id="paint23_linear" x1="988.802" y1="1417.11" x2="962.474" y2="1612.62" gradientUnits="userSpaceOnUse">
<stop stop-color="#2B3582"/>
<stop offset="1" stop-color="#150E42"/>
</linearGradient>
<linearGradient id="paint24_linear" x1="1059.53" y1="1415.94" x2="1033.72" y2="1610.22" gradientUnits="userSpaceOnUse">
<stop stop-color="#2B3582"/>
<stop offset="1" stop-color="#150E42"/>
</linearGradient>
<linearGradient id="paint25_linear" x1="417.877" y1="1406.57" x2="354.495" y2="1578.84" gradientUnits="userSpaceOnUse">
<stop stop-color="#2B3582"/>
<stop offset="1" stop-color="#150E42"/>
</linearGradient>
<linearGradient id="paint26_linear" x1="1299.83" y1="1425.39" x2="1277.07" y2="1620.13" gradientUnits="userSpaceOnUse">
<stop stop-color="#2B3582"/>
<stop offset="1" stop-color="#150E42"/>
</linearGradient>
<linearGradient id="paint27_linear" x1="1121.9" y1="1430.25" x2="1093.59" y2="1622.39" gradientUnits="userSpaceOnUse">
<stop stop-color="#2B3582"/>
<stop offset="1" stop-color="#150E42"/>
</linearGradient>
<linearGradient id="paint28_linear" x1="1451.09" y1="1439.67" x2="1428.03" y2="1633.4" gradientUnits="userSpaceOnUse">
<stop stop-color="#2B3582"/>
<stop offset="1" stop-color="#150E42"/>
</linearGradient>
<linearGradient id="paint29_linear" x1="1719.56" y1="1449.57" x2="1699" y2="1643.9" gradientUnits="userSpaceOnUse">
<stop stop-color="#2B3582"/>
<stop offset="1" stop-color="#150E42"/>
</linearGradient>
<linearGradient id="paint30_linear" x1="1743.89" y1="1485.46" x2="1721.71" y2="1683.04" gradientUnits="userSpaceOnUse">
<stop stop-color="#2B3582"/>
<stop offset="1" stop-color="#150E42"/>
</linearGradient>
<linearGradient id="paint31_linear" x1="1530.94" y1="1487.34" x2="1504.73" y2="1682.95" gradientUnits="userSpaceOnUse">
<stop stop-color="#2B3582"/>
<stop offset="1" stop-color="#150E42"/>
</linearGradient>
</defs>
</svg>
