<svg width="870" height="530" viewBox="0 0 870 530" fill="none" xmlns="http://www.w3.org/2000/svg">
<g filter="url(#filter0_d)">
<mask id="mask0" mask-type="alpha" maskUnits="userSpaceOnUse" x="10" y="6" width="850" height="510">
<rect x="10" y="6" width="850" height="510" rx="4" fill="#DC1C4D"/>
</mask>
<g mask="url(#mask0)">
<path d="M-38.0215 -78.9674L18.7956 -174.638L388.319 -63.2162L333.833 33.1574L-38.0215 -78.9674Z" stroke="#353B42"/>
<path d="M-180.84 -9.13927L-123.732 -105.767L245.792 5.65522L191.015 102.986L-180.84 -9.13927Z" stroke="#353B42"/>
<path d="M-330.245 58.7084L-273.428 -36.9625L96.0958 74.4595L41.6094 170.833L-330.245 58.7084Z" stroke="#353B42"/>
<path d="M771.979 315.033L828.797 219.362L1198.32 330.784L1143.83 427.157L771.979 315.033Z" stroke="#353B42"/>
<path d="M632.161 386.861L689.269 290.233L1058.79 401.655L1004.02 498.986L632.161 386.861Z" stroke="#353B42"/>
<path d="M471.756 451.708L528.573 356.038L898.097 467.46L843.61 563.833L471.756 451.708Z" stroke="#353B42"/>
</g>
</g>
<defs>
<filter id="filter0_d" x="0" y="0" width="870" height="530" filterUnits="userSpaceOnUse" color-interpolation-filters="sRGB">
<feFlood flood-opacity="0" result="BackgroundImageFix"/>
<feColorMatrix in="SourceAlpha" type="matrix" values="0 0 0 0 0 0 0 0 0 0 0 0 0 0 0 0 0 0 127 0"/>
<feOffset dy="4"/>
<feGaussianBlur stdDeviation="5"/>
<feColorMatrix type="matrix" values="0 0 0 0 0 0 0 0 0 0 0 0 0 0 0 0 0 0 0.05 0"/>
<feBlend mode="normal" in2="BackgroundImageFix" result="effect1_dropShadow"/>
<feBlend mode="normal" in="SourceGraphic" in2="effect1_dropShadow" result="shape"/>
</filter>
</defs>
</svg>
