<svg width="60" height="60" viewBox="0 0 60 60" fill="none" xmlns="http://www.w3.org/2000/svg">
<g clip-path="url(#clip0_207_69117)">
<g opacity="0.7">
<path d="M51.0269 0.522461H40.4738V13.8741H51.0269V0.522461Z" fill="#F4F4F4"/>
<path d="M51.0268 13.874H51.3692V0.522434H51.0268V13.874Z" fill="#F4F4F4"/>
<path opacity="0.05" d="M51.0268 13.874H51.3692V0.522434H51.0268V13.874Z" fill="#292A2E"/>
<path opacity="0.05" d="M49.1045 3.19336H42.3961V11.2037H49.1045V3.19336Z" fill="#292A2E"/>
<path opacity="0.03" d="M49.1045 3.19336H48.7549V11.2037H49.1045V3.19336Z" fill="#292A2E"/>
<path d="M59.6576 17.4795H51.0269V26.7758H59.6576V17.4795Z" fill="#F4F4F4"/>
<path opacity="0.05" d="M58.0854 19.1729H52.5991V25.0823H58.0854V19.1729Z" fill="#292A2E"/>
<path d="M59.6576 26.7754H60V17.4791H59.6576V26.7754Z" fill="#F4F4F4"/>
<path opacity="0.05" d="M59.6576 26.7754H60V17.4791H59.6576V26.7754Z" fill="#292A2E"/>
<path opacity="0.03" d="M58.0854 19.1729H57.7358V25.0823H58.0854V19.1729Z" fill="#292A2E"/>
</g>
<g opacity="0.7">
<path d="M29.4193 0H4.57422V26.5176H29.4193V0Z" fill="#F4F4F4"/>
<path d="M4.5742 0H4.28943V26.5176H4.5742V0Z" fill="#F4F4F4"/>
<path opacity="0.05" d="M4.5742 0H4.28943V26.5176H4.5742V0Z" fill="#292A2E"/>
<path opacity="0.05" d="M10.593 18.2728V11.335H15.9177V15.3657H24.1657V22.5027H27.6712V26.5176H24.1657H23.4904H5.76935V18.2728H10.593Z" fill="#292A2E"/>
<path opacity="0.34" d="M15.2343 12.0879H11.3568V12.8412H15.2343V12.0879Z" fill="#FFFFFA"/>
<path opacity="0.34" d="M15.2343 13.6484H11.3568V14.4017H15.2343V13.6484Z" fill="#FFFFFA"/>
<path opacity="0.34" d="M15.2343 15.21H11.3568V15.9632H15.2343V15.21Z" fill="#FFFFFA"/>
<path opacity="0.34" d="M7.17163 19.0039H6.45697V19.7572H7.17163V19.0039Z" fill="#FFFFFA"/>
<path opacity="0.34" d="M7.17163 20.5645H6.45697V21.3177H7.17163V20.5645Z" fill="#FFFFFA"/>
<path opacity="0.34" d="M7.17163 22.126H6.45697V22.8793H7.17163V22.126Z" fill="#FFFFFA"/>
<path opacity="0.34" d="M8.49377 19.0039H7.77911V19.7572H8.49377V19.0039Z" fill="#FFFFFA"/>
<path opacity="0.34" d="M8.49377 20.5645H7.77911V21.3177H8.49377V20.5645Z" fill="#FFFFFA"/>
<path opacity="0.34" d="M8.49377 22.126H7.77911V22.8793H8.49377V22.126Z" fill="#FFFFFA"/>
<path opacity="0.34" d="M9.78021 19.0039H9.06555V19.7572H9.78021V19.0039Z" fill="#FFFFFA"/>
<path opacity="0.34" d="M9.78021 20.5645H9.06555V21.3177H9.78021V20.5645Z" fill="#FFFFFA"/>
<path opacity="0.34" d="M9.78021 22.126H9.06555V22.8793H9.78021V22.126Z" fill="#FFFFFA"/>
<path d="M4.57422 13.11H9.57345V0H9.9869V13.11H23.4904V0H23.9038V13.11H29.4193V13.5513H23.9038V26.5176H23.4904V13.5513H9.9869V26.5176H9.57345V13.5513H4.57422V13.11Z" fill="white"/>
<path d="M30.409 26.4854H3.58447V27.3672H30.409V26.4854Z" fill="#F4F4F4"/>
<path opacity="0.1" d="M30.409 26.4854H3.58447V27.3672H30.409V26.4854Z" fill="#292A2E"/>
<path opacity="0.1" d="M3.58446 26.4854H3.1972V27.3672H3.58446V26.4854Z" fill="#292A2E"/>
<path opacity="0.1" d="M3.58446 26.4854H3.1972V27.3672H3.58446V26.4854Z" fill="#292A2E"/>
</g>
<path d="M18.9136 3.29297H47.9941C48.413 3.29297 48.8147 3.47058 49.1109 3.78672C49.4071 4.10287 49.5735 4.53166 49.5735 4.97876V42.1536C49.5735 42.6104 49.4035 43.0485 49.1008 43.3715C48.7982 43.6946 48.3877 43.876 47.9597 43.876H18.948C18.52 43.876 18.1095 43.6946 17.8068 43.3715C17.5042 43.0485 17.3342 42.6104 17.3342 42.1536V4.97856C17.3342 4.53151 17.5006 4.10278 17.7968 3.78668C18.093 3.47058 18.4947 3.29299 18.9136 3.29297Z" fill="white"/>
<path d="M47.9597 43.9414H18.948C18.5037 43.9414 18.0776 43.7531 17.7635 43.4178C17.4493 43.0825 17.2728 42.6277 17.2728 42.1535V4.91313C17.2729 4.46607 17.4393 4.03734 17.7355 3.72123C18.0317 3.40512 18.4334 3.22754 18.8522 3.22754H48.0554C48.4743 3.22754 48.876 3.40514 49.1722 3.72127C49.4684 4.0374 49.6348 4.46618 49.6348 4.91326V42.1535C49.6348 42.6277 49.4584 43.0825 49.1442 43.4178C48.8301 43.7531 48.404 43.9414 47.9597 43.9414ZM17.3955 4.97578V42.1535C17.3955 42.3711 17.4356 42.5866 17.5137 42.7877C17.5917 42.9887 17.706 43.1714 17.8502 43.3252C17.9943 43.4791 18.1655 43.6011 18.3539 43.6844C18.5422 43.7677 18.7441 43.8105 18.948 43.8105H47.9597C48.3714 43.8105 48.7663 43.636 49.0575 43.3252C49.3486 43.0145 49.5122 42.593 49.5122 42.1535V4.95941C49.5122 4.74915 49.4733 4.54095 49.3979 4.3467C49.3225 4.15245 49.212 3.97595 49.0727 3.82729C48.9333 3.67863 48.7679 3.56071 48.5859 3.48027C48.4039 3.39983 48.2088 3.35844 48.0118 3.35846H18.9109C18.509 3.35846 18.1236 3.52886 17.8394 3.83216C17.5552 4.13546 17.3955 4.54683 17.3955 4.97578Z" fill="#292A2E"/>
<path d="M23.5881 11.3633H20.0639C19.8675 11.363 19.6792 11.2797 19.5403 11.1315C19.4015 10.9833 19.3233 10.7823 19.3231 10.5727V6.81123C19.3233 6.60159 19.4014 6.40061 19.5403 6.25237C19.6792 6.10414 19.8675 6.02075 20.0639 6.02051H23.5881C23.7845 6.02073 23.9728 6.10411 24.1117 6.25235C24.2506 6.40059 24.3288 6.60158 24.329 6.81123V10.5727C24.3287 10.7823 24.2506 10.9833 24.1117 11.1315C23.9728 11.2797 23.7845 11.3631 23.5881 11.3633ZM20.0639 6.1513C19.9 6.15151 19.7429 6.22109 19.627 6.34478C19.5111 6.46847 19.4459 6.63617 19.4457 6.8111V10.5727C19.4459 10.7476 19.5111 10.9153 19.627 11.039C19.7429 11.1627 19.9 11.2323 20.0639 11.2325H23.5881C23.752 11.2323 23.9091 11.1627 24.025 11.039C24.1409 10.9153 24.2061 10.7476 24.2063 10.5727V6.81123C24.2061 6.63629 24.1409 6.46858 24.025 6.34489C23.9091 6.2212 23.752 6.15162 23.5881 6.15143L20.0639 6.1513Z" fill="#292A2E"/>
<path d="M23.5881 18.8156H20.0639C19.8675 18.8153 19.6792 18.7319 19.5403 18.5837C19.4014 18.4355 19.3233 18.2345 19.3231 18.0249V14.2634C19.3233 14.0538 19.4014 13.8528 19.5403 13.7045C19.6792 13.5563 19.8675 13.4729 20.0639 13.4727H23.5881C23.7845 13.4729 23.9728 13.5563 24.1117 13.7045C24.2506 13.8528 24.3288 14.0538 24.329 14.2634V18.0249C24.3288 18.2345 24.2506 18.4355 24.1117 18.5837C23.9728 18.732 23.7845 18.8153 23.5881 18.8156ZM20.0639 13.6038C19.9 13.604 19.7429 13.6736 19.627 13.7973C19.5111 13.921 19.4459 14.0887 19.4457 14.2636V18.025C19.4459 18.2 19.5111 18.3677 19.627 18.4914C19.7429 18.6151 19.9 18.6847 20.0639 18.6848H23.5881C23.752 18.6847 23.9091 18.6151 24.025 18.4914C24.1409 18.3677 24.2061 18.2 24.2063 18.025V14.2634C24.2061 14.0885 24.1409 13.9208 24.025 13.7971C23.9091 13.6734 23.752 13.6038 23.5881 13.6036L20.0639 13.6038Z" fill="#292A2E"/>
<path d="M23.5881 26.2677H20.0639C19.8675 26.2674 19.6792 26.184 19.5403 26.0358C19.4014 25.8876 19.3233 25.6866 19.3231 25.4769V21.7155C19.3233 21.5059 19.4014 21.3049 19.5403 21.1567C19.6792 21.0084 19.8675 20.925 20.0639 20.9248H23.5881C23.7845 20.925 23.9728 21.0084 24.1117 21.1566C24.2506 21.3049 24.3288 21.5059 24.329 21.7155V25.4769C24.3288 25.6866 24.2506 25.8876 24.1117 26.0358C23.9728 26.184 23.7845 26.2674 23.5881 26.2677ZM20.0639 21.0557C19.9 21.0559 19.7429 21.1255 19.627 21.2492C19.5111 21.3729 19.4459 21.5406 19.4457 21.7155V25.4769C19.4459 25.6519 19.5111 25.8196 19.627 25.9433C19.7429 26.067 19.9 26.1365 20.0639 26.1367H23.5881C23.752 26.1365 23.9091 26.067 24.025 25.9433C24.1409 25.8196 24.2061 25.6519 24.2063 25.4769V21.7155C24.2061 21.5406 24.1409 21.3729 24.025 21.2492C23.9091 21.1255 23.752 21.0559 23.5881 21.0557H20.0639Z" fill="#292A2E"/>
<path d="M23.5881 33.6173H20.0639C19.8675 33.6171 19.6792 33.5337 19.5403 33.3855C19.4014 33.2372 19.3233 33.0362 19.3231 32.8266V29.0652C19.3233 28.8556 19.4014 28.6546 19.5403 28.5063C19.6792 28.3581 19.8675 28.2747 20.0639 28.2744H23.5881C23.7845 28.2747 23.9728 28.358 24.1117 28.5063C24.2506 28.6545 24.3288 28.8555 24.329 29.0652V32.8266C24.3288 33.0363 24.2506 33.2373 24.1117 33.3855C23.9728 33.5337 23.7845 33.6171 23.5881 33.6173ZM20.0639 28.4053C19.9 28.4055 19.7429 28.4751 19.627 28.5988C19.5111 28.7225 19.4459 28.8903 19.4457 29.0652V32.8266C19.4459 33.0015 19.5111 33.1692 19.627 33.2929C19.7429 33.4166 19.9 33.4862 20.0639 33.4864H23.5881C23.752 33.4862 23.9091 33.4166 24.025 33.2929C24.1409 33.1693 24.2061 33.0015 24.2063 32.8266V29.0652C24.2061 28.8903 24.1409 28.7225 24.025 28.5988C23.9091 28.4751 23.752 28.4055 23.5881 28.4053H20.0639Z" fill="#292A2E"/>
<path d="M23.5881 40.9669H20.0639C19.8675 40.9667 19.6792 40.8833 19.5403 40.735C19.4014 40.5868 19.3233 40.3858 19.3231 40.1761V36.4148C19.3233 36.2052 19.4014 36.0042 19.5403 35.8559C19.6792 35.7077 19.8675 35.6243 20.0639 35.624H23.5881C23.7845 35.6243 23.9728 35.7077 24.1117 35.8559C24.2506 36.0042 24.3288 36.2052 24.329 36.4148V40.1762C24.3287 40.3859 24.2506 40.5868 24.1117 40.7351C23.9728 40.8833 23.7845 40.9667 23.5881 40.9669ZM20.0639 35.7549C19.9 35.7551 19.7429 35.8247 19.627 35.9484C19.5111 36.0721 19.4459 36.2398 19.4457 36.4147V40.1761C19.4459 40.3511 19.5111 40.5188 19.627 40.6425C19.7429 40.7662 19.9 40.8358 20.0639 40.836H23.5881C23.752 40.8358 23.9091 40.7662 24.025 40.6425C24.1409 40.5188 24.2061 40.3511 24.2063 40.1761V36.4148C24.2061 36.2399 24.1409 36.0721 24.025 35.9484C23.9091 35.8247 23.752 35.7552 23.5881 35.7549L20.0639 35.7549Z" fill="#292A2E"/>
<path opacity="0.5" d="M46.9238 7.52734H26.2551C26.1606 7.52734 26.0839 7.60914 26.0839 7.71005C26.0839 7.81096 26.1606 7.89276 26.2551 7.89276H46.9238C47.0183 7.89276 47.0949 7.81096 47.0949 7.71005C47.0949 7.60914 47.0183 7.52734 46.9238 7.52734Z" fill="#262626"/>
<path opacity="0.5" d="M39.5637 9.49121H26.2551C26.1606 9.49121 26.0839 9.57301 26.0839 9.67392C26.0839 9.77482 26.1606 9.85662 26.2551 9.85662H39.5637C39.6583 9.85662 39.7349 9.77482 39.7349 9.67392C39.7349 9.57301 39.6583 9.49121 39.5637 9.49121Z" fill="#262626"/>
<path opacity="0.5" d="M46.9238 14.9795H26.2551C26.1606 14.9795 26.0839 15.0613 26.0839 15.1622C26.0839 15.2631 26.1606 15.3449 26.2551 15.3449H46.9238C47.0183 15.3449 47.0949 15.2631 47.0949 15.1622C47.0949 15.0613 47.0183 14.9795 46.9238 14.9795Z" fill="#262626"/>
<path opacity="0.5" d="M39.5637 16.9434H26.2551C26.1606 16.9434 26.0839 17.0252 26.0839 17.1261C26.0839 17.227 26.1606 17.3088 26.2551 17.3088H39.5637C39.6583 17.3088 39.7349 17.227 39.7349 17.1261C39.7349 17.0252 39.6583 16.9434 39.5637 16.9434Z" fill="#262626"/>
<path opacity="0.5" d="M46.9238 22.4307H26.2551C26.1606 22.4307 26.0839 22.5125 26.0839 22.6134C26.0839 22.7143 26.1606 22.7961 26.2551 22.7961H46.9238C47.0183 22.7961 47.0949 22.7143 47.0949 22.6134C47.0949 22.5125 47.0183 22.4307 46.9238 22.4307Z" fill="#262626"/>
<path opacity="0.5" d="M39.5637 24.3945H26.2551C26.1606 24.3945 26.0839 24.4763 26.0839 24.5772C26.0839 24.6781 26.1606 24.7599 26.2551 24.7599H39.5637C39.6583 24.7599 39.7349 24.6781 39.7349 24.5772C39.7349 24.4763 39.6583 24.3945 39.5637 24.3945Z" fill="#262626"/>
<path opacity="0.5" d="M46.9238 29.7812H26.2551C26.1606 29.7812 26.0839 29.863 26.0839 29.964C26.0839 30.0649 26.1606 30.1467 26.2551 30.1467H46.9238C47.0183 30.1467 47.0949 30.0649 47.0949 29.964C47.0949 29.863 47.0183 29.7812 46.9238 29.7812Z" fill="#262626"/>
<path opacity="0.5" d="M39.5637 31.7451H26.2551C26.1606 31.7451 26.0839 31.8269 26.0839 31.9278C26.0839 32.0287 26.1606 32.1105 26.2551 32.1105H39.5637C39.6583 32.1105 39.7349 32.0287 39.7349 31.9278C39.7349 31.8269 39.6583 31.7451 39.5637 31.7451Z" fill="#262626"/>
<path opacity="0.5" d="M46.9238 37.1309H26.2551C26.1606 37.1309 26.0839 37.2127 26.0839 37.3136C26.0839 37.4145 26.1606 37.4963 26.2551 37.4963H46.9238C47.0183 37.4963 47.0949 37.4145 47.0949 37.3136C47.0949 37.2127 47.0183 37.1309 46.9238 37.1309Z" fill="#262626"/>
<path opacity="0.5" d="M39.5637 39.0947H26.2551C26.1606 39.0947 26.0839 39.1765 26.0839 39.2774C26.0839 39.3783 26.1606 39.4601 26.2551 39.4601H39.5637C39.6583 39.4601 39.7349 39.3783 39.7349 39.2774C39.7349 39.1765 39.6583 39.0947 39.5637 39.0947Z" fill="#262626"/>
<path d="M26.7737 35.5468L33.9759 34.9055C34.5062 34.9203 34.9679 34.4538 35.1624 33.9304L37.0493 27.6731L34.5809 26.6465L32.9153 32.0064L26.5813 32.4754L26.7737 35.5468Z" fill="#367CFF"/>
<path d="M21.2735 41.9509C21.2735 41.9509 21.287 41.571 21.2841 42.4329C21.2735 45.6479 21.2208 49.3203 21.092 51.4693C20.8849 54.9238 20.3538 65.8154 20.3538 65.8154L23.1628 65.7904L25.8852 41.8203L21.2735 41.9509Z" fill="#262626"/>
<path d="M24.4456 45.7422C24.4456 45.7422 24.5619 48.0753 24.5834 48.623C24.6333 49.8898 24.6507 51.2013 24.6507 52.6884L25.0936 48.79C25.0936 48.79 24.7696 47.5684 24.4456 45.7422Z" fill="#0A0A0A"/>
<path d="M28.9527 42.2004C28.9527 42.2004 29.2015 53.1887 29.1651 53.7258L28.1205 65.7318L25.3579 65.7858L25.6272 53.2914C25.6272 53.2914 25.4373 49.8448 24.6502 46.6444C24.2475 45.0018 24.0051 43.3199 23.9269 41.625L28.9527 42.2004Z" fill="#262626"/>
<path d="M21.2429 41.9501L21.2337 41.9507C21.2337 41.9507 21.2404 41.7632 21.2429 41.9501Z" fill="#333333"/>
<path d="M29.3481 36.4252C29.2902 37.1453 29.0084 41.3135 28.9527 42.2004H21.2766C21.2332 41.4005 21.0385 37.9026 20.8741 36.3384C20.7171 34.8457 20.4091 34.0984 20.6349 33.6571C21.0037 32.9359 22.0117 32.5192 22.699 32.4207C23.1187 32.3606 26.6969 32.3174 26.7054 32.3174C26.9865 32.3174 28.6231 32.4572 28.9848 32.7519C29.6394 33.2853 29.4493 35.1696 29.3481 36.4252Z" fill="#367CFF"/>
<path d="M29.4542 35.3306C29.4607 35.3306 29.467 35.328 29.4717 35.3232C29.4765 35.3185 29.4793 35.312 29.4797 35.3052L29.5416 34.2698C29.542 34.2626 29.5397 34.2556 29.5352 34.2502C29.5307 34.2449 29.5244 34.2417 29.5176 34.2412C29.5109 34.2409 29.5043 34.2434 29.4993 34.2481C29.4942 34.2529 29.4911 34.2595 29.4907 34.2666L29.4288 35.302C29.4284 35.3092 29.4307 35.3162 29.4352 35.3215C29.4397 35.3269 29.446 35.3301 29.4527 35.3305L29.4542 35.3306Z" fill="#0C0C0C"/>
<path d="M19.617 42.1528C19.3913 42.1528 19.1689 42.095 18.9688 41.9844C18.7687 41.8739 18.5968 41.7138 18.4677 41.5179C18.3387 41.3219 18.2562 41.0959 18.2275 40.859C18.1987 40.6221 18.2245 40.3813 18.3026 40.1572C18.3816 39.9297 20.2408 34.721 20.5946 33.7559L23.2153 34.8792C23.0162 35.4219 22.2953 37.4787 21.716 39.1357L22.6784 39.025L22.9813 41.9731L19.7686 42.1441C19.7183 42.1499 19.6677 42.1528 19.617 42.1528Z" fill="#367CFF"/>
<path d="M27.62 32.219C27.6114 32.2178 27.3759 33.1552 25.5383 33.0093C24.2662 32.9085 23.9559 31.9924 23.9269 31.9924C24.064 31.9616 24.2868 31.9295 24.3477 31.8952C24.548 31.7813 24.694 31.6427 24.7674 31.3452C24.8248 31.1125 24.8542 30.2169 24.8542 29.7676L26.8117 30.233C26.7844 30.7398 26.5934 31.9149 27.2627 32.1229C27.3741 32.1573 27.494 32.1889 27.62 32.219Z" fill="#E98862"/>
<path d="M26.7439 31.2291C25.9722 31.2935 24.9809 30.9488 24.7925 29.8595L24.6227 28.8766C24.4343 27.7873 24.8225 26.7996 25.7919 26.612C26.7613 26.4244 27.6385 27.1673 27.8268 28.2566L27.902 28.6917C27.9743 29.1098 28.1207 31.1142 26.7439 31.2291Z" fill="#E98862"/>
<path d="M27.4594 30.2288C27.3209 29.4925 27.2574 29.0012 27.2648 28.4829C27.4599 28.121 27.4086 27.7052 27.3642 27.5256C27.4986 27.6159 27.6566 27.6588 27.8154 27.648C27.8154 27.648 27.4927 26.2779 26.396 25.9093C26.1943 25.8263 25.6794 25.7214 24.9957 25.8206C24.4143 25.905 22.9809 26.365 22.7761 28.0723V28.0733C22.7693 28.1299 22.6317 29.703 22.3575 30.4578C21.9886 31.4724 21.4708 31.7877 21.4839 32.9584C21.5008 34.4642 24.1173 34.6647 25.6953 34.552C27.2733 34.4394 28.1545 33.8904 28.166 32.8052C28.1786 31.5892 27.7366 31.7021 27.4594 30.2288Z" fill="#0A0A0A"/>
<path d="M4.88915 28.9601L4.83813 28.9619L5.02674 34.7929L5.07776 34.7911L4.88915 28.9601Z" fill="#0C0C0C"/>
<path d="M36.1621 26.2899C36.1158 26.3205 36.0641 26.3373 36.0121 26.3384C35.96 26.3395 35.9095 26.325 35.8656 26.2964C35.8217 26.2677 35.786 26.2258 35.7619 26.175C35.7379 26.1242 35.7264 26.0662 35.7287 26.0068L35.8405 23.0639C35.8417 23.0191 35.8508 22.9745 35.8671 22.9326C35.8834 22.8907 35.9066 22.8524 35.9355 22.8199C35.9643 22.7874 35.9981 22.7613 36.035 22.7432C36.0718 22.7251 36.111 22.7153 36.1503 22.7143C36.1895 22.7134 36.228 22.7213 36.2636 22.7377C36.2992 22.7541 36.3311 22.7786 36.3575 22.8098C36.3838 22.841 36.4042 22.8782 36.4173 22.9194C36.4305 22.9605 36.4362 23.0048 36.434 23.0496L36.3222 25.9926C36.32 26.0522 36.304 26.111 36.2759 26.1632C36.2478 26.2155 36.2085 26.2592 36.1621 26.2899Z" fill="#0CBC8B"/>
<path d="M37.3864 22.7836C37.3423 22.8102 37.2969 22.8351 37.2502 22.8583C36.8218 23.0704 36.3422 23.1013 35.9169 22.9442C35.4915 22.7872 35.1552 22.455 34.982 22.0207C34.8087 21.5865 34.8127 21.0858 34.9931 20.6288C35.1735 20.1717 35.5155 19.7958 35.9438 19.5837C36.3601 19.3776 36.8254 19.3424 37.2425 19.4855C37.6596 19.6286 37.9963 19.9389 38.1824 20.3518C38.3685 20.7646 38.3896 21.248 38.2412 21.7011C38.0929 22.1542 37.7866 22.5421 37.3863 22.7837L37.3864 22.7836ZM36.0883 20.2137C35.8261 20.3713 35.6262 20.6259 35.5315 20.9232C35.4368 21.2204 35.4549 21.5365 35.5818 21.8037C35.7087 22.071 35.9345 22.2682 36.2106 22.3529C36.4867 22.4377 36.7912 22.4034 37.0589 22.2573C37.3267 22.1113 37.5362 21.8651 37.6428 21.5715C37.7493 21.2779 37.7443 20.9603 37.6289 20.6868C37.5134 20.4133 37.2967 20.2055 37.0252 20.1081C36.7536 20.0108 36.4489 20.0314 36.1762 20.1658C36.1461 20.1805 36.1168 20.1966 36.0883 20.2137Z" fill="#0CBC8B"/>
<path d="M58.6036 59.994H0.924403C0.913017 59.994 0.902096 59.9892 0.894045 59.9806C0.885993 59.972 0.88147 59.9603 0.88147 59.9482C0.88147 59.936 0.885993 59.9244 0.894045 59.9158C0.902096 59.9072 0.913017 59.9023 0.924403 59.9023H58.6036C58.615 59.9023 58.6259 59.9072 58.634 59.9158C58.642 59.9244 58.6465 59.936 58.6465 59.9482C58.6465 59.9603 58.642 59.972 58.634 59.9806C58.6259 59.9892 58.615 59.994 58.6036 59.994Z" fill="#292A2E"/>
<path d="M52.6499 51.4154C52.6337 51.4154 52.6181 51.4085 52.6066 51.3963C52.5202 51.304 52.3793 49.6118 51.9999 44.5735C51.8447 42.512 51.698 40.5648 51.591 39.3814C51.5833 39.2968 51.5527 39.287 51.5426 39.2838C51.3961 39.2366 50.9506 39.6116 50.7019 39.9399C50.6968 39.9466 50.6905 39.9521 50.6835 39.9562C50.6764 39.9603 50.6686 39.9629 50.6606 39.9638C50.6526 39.9647 50.6445 39.9639 50.6368 39.9615C50.6291 39.959 50.6219 39.955 50.6156 39.9496C50.6093 39.9442 50.6041 39.9375 50.6003 39.93C50.5964 39.9224 50.594 39.9141 50.5932 39.9056C50.5923 39.897 50.5931 39.8884 50.5954 39.8801C50.5976 39.8719 50.6014 39.8642 50.6065 39.8575C50.771 39.6405 51.307 39.0714 51.5778 39.1584C51.6325 39.1759 51.7005 39.2266 51.7131 39.3688C51.8202 40.5532 51.9669 42.501 52.1222 44.563C52.3528 47.6247 52.6139 51.0933 52.6997 51.3118C52.7063 51.3215 52.7103 51.3331 52.7111 51.3451C52.712 51.3571 52.7097 51.3691 52.7045 51.3798C52.6994 51.3906 52.6916 51.3996 52.6819 51.4058C52.6723 51.4121 52.6612 51.4154 52.6499 51.4154Z" fill="#494949"/>
<path d="M51.4334 41.5529C52.4512 40.6822 52.7885 39.3269 52.1869 38.5258C51.5852 37.7247 50.2724 37.7812 49.2547 38.6519C48.2369 39.5226 47.8996 40.8779 48.5012 41.679C49.1029 42.4801 50.4157 42.4237 51.4334 41.5529Z" fill="#0CBC8B"/>
<path opacity="0.2" d="M51.4334 41.5529C52.4512 40.6822 52.7885 39.3269 52.1869 38.5258C51.5852 37.7247 50.2724 37.7812 49.2547 38.6519C48.2369 39.5226 47.8996 40.8779 48.5012 41.679C49.1029 42.4801 50.4157 42.4237 51.4334 41.5529Z" fill="white"/>
<path d="M48.7865 41.8831C48.7807 41.8831 48.775 41.8813 48.7701 41.878C48.7652 41.8747 48.7613 41.8699 48.7588 41.8643C48.7564 41.8587 48.7554 41.8524 48.7562 41.8463C48.7569 41.8401 48.7593 41.8343 48.763 41.8295L51.6635 38.0962C51.666 38.0929 51.6692 38.09 51.6728 38.088C51.6764 38.0859 51.6803 38.0846 51.6843 38.0842C51.6884 38.0837 51.6925 38.0841 51.6964 38.0854C51.7003 38.0867 51.7039 38.0888 51.707 38.0915C51.7102 38.0943 51.7127 38.0977 51.7146 38.1016C51.7165 38.1054 51.7177 38.1097 51.718 38.114C51.7183 38.1183 51.7179 38.1227 51.7166 38.1268C51.7153 38.131 51.7133 38.1348 51.7107 38.1381L48.8101 41.8713C48.8073 41.875 48.8036 41.878 48.7996 41.88C48.7955 41.8821 48.791 41.8831 48.7865 41.8831Z" fill="white"/>
<path d="M53.2826 50.6152C53.2728 50.6152 53.2632 50.6127 53.2545 50.6079C53.2458 50.6031 53.2383 50.5961 53.2326 50.5876C53.227 50.5791 53.2233 50.5693 53.2219 50.5589C53.2205 50.5486 53.2215 50.538 53.2247 50.5282L54.3142 47.1839C54.3463 47.0856 54.4009 46.9975 54.4732 46.9277C54.5454 46.8578 54.633 46.8084 54.7277 46.784C54.8225 46.7595 54.9215 46.7609 55.0157 46.7879C55.1098 46.8149 55.1961 46.8667 55.2666 46.9385L55.8426 47.5261C55.8544 47.5381 55.8612 47.5546 55.8616 47.5719C55.8619 47.5893 55.8558 47.6061 55.8446 47.6186C55.8334 47.6312 55.8179 47.6385 55.8016 47.6388C55.7854 47.6392 55.7696 47.6327 55.7579 47.6207L55.1819 47.0335C55.1262 46.9768 55.0581 46.9359 54.9838 46.9146C54.9094 46.8933 54.8313 46.8922 54.7565 46.9115C54.6817 46.9308 54.6126 46.9697 54.5556 47.0249C54.4986 47.08 54.4554 47.1495 54.4301 47.2271L53.3405 50.5712C53.3363 50.584 53.3285 50.5952 53.3182 50.603C53.3078 50.6109 53.2954 50.6152 53.2826 50.6152Z" fill="#494949"/>
<path d="M57.4519 49.3774C58.2062 48.7402 58.1614 47.3387 57.3518 46.2471C56.5423 45.1555 55.2746 44.7871 54.5203 45.4244C53.766 46.0616 53.8109 47.463 54.6204 48.5546C55.43 49.6462 56.6977 50.0146 57.4519 49.3774Z" fill="#0CBC8B"/>
<path d="M52.155 51.2022C52.1412 51.2022 52.1278 51.1972 52.117 51.1881C52.1062 51.179 52.0986 51.1662 52.0954 51.1519L50.267 42.9924C50.2545 42.9368 50.2279 42.8859 50.1901 42.8454C50.1522 42.8049 50.1047 42.7763 50.0526 42.7627C50.0005 42.7492 49.946 42.7513 49.8949 42.7687C49.8439 42.7861 49.7983 42.8182 49.7633 42.8615L49.1997 43.5567C49.189 43.5698 49.1739 43.5779 49.1577 43.5791C49.1415 43.5804 49.1254 43.5747 49.1131 43.5633C49.1008 43.552 49.0933 43.5358 49.0921 43.5185C49.0909 43.5012 49.0962 43.4841 49.1069 43.471L49.6705 42.7758C49.7204 42.7143 49.7851 42.6687 49.8577 42.644C49.9302 42.6193 50.0078 42.6164 50.0818 42.6356C50.1558 42.6549 50.2234 42.6956 50.2771 42.7532C50.3308 42.8109 50.3686 42.8832 50.3863 42.9623L52.2147 51.1218C52.2169 51.1314 52.217 51.1414 52.215 51.1511C52.213 51.1608 52.2089 51.1698 52.2032 51.1776C52.1974 51.1854 52.1901 51.1916 52.1818 51.1959C52.1734 51.2003 52.1642 51.2025 52.155 51.2025V51.2022Z" fill="#494949"/>
<path d="M51.4444 45.3708C51.6661 43.9995 51.0778 42.7463 50.1303 42.5718C49.1827 42.3973 48.2349 43.3674 48.0131 44.7387C47.7914 46.11 48.3797 47.3632 49.3273 47.5377C50.2748 47.7122 51.2226 46.7421 51.4444 45.3708Z" fill="#0CBC8B"/>
<path d="M52.65 51.415C52.6475 51.415 52.645 51.4148 52.6424 51.4145C52.6345 51.4134 52.6267 51.4107 52.6197 51.4065C52.6127 51.4022 52.6066 51.3966 52.6016 51.3898C52.5966 51.383 52.593 51.3753 52.5908 51.367C52.5887 51.3587 52.5881 51.35 52.5891 51.3415L53.7566 41.2238C53.7693 41.1136 53.8116 41.0096 53.8783 40.9245C53.9451 40.8393 54.0335 40.7765 54.1328 40.7436C54.2322 40.7107 54.3384 40.7092 54.4386 40.7392C54.5388 40.7692 54.6287 40.8294 54.6975 40.9127L56.032 42.5259C56.0428 42.5389 56.0483 42.5559 56.0473 42.5733C56.0463 42.5906 56.0389 42.6068 56.0267 42.6183C56.0145 42.6298 55.9985 42.6357 55.9822 42.6346C55.966 42.6335 55.9508 42.6256 55.94 42.6126L54.6055 40.9994C54.5523 40.9351 54.4828 40.8885 54.4054 40.8653C54.328 40.8421 54.2459 40.8433 54.1691 40.8687C54.0923 40.8941 54.024 40.9426 53.9724 41.0084C53.9208 41.0743 53.8881 41.1546 53.8783 41.2398L52.7108 51.3575C52.709 51.3734 52.7018 51.388 52.6906 51.3986C52.6794 51.4091 52.665 51.415 52.65 51.415Z" fill="#494949"/>
<path d="M57.4008 43.4229C57.8664 42.5245 57.3186 41.2499 56.1772 40.5761C55.0358 39.9022 53.733 40.0842 53.2674 40.9827C52.8018 41.8811 53.3497 43.1556 54.491 43.8295C55.6324 44.5034 56.9352 44.3213 57.4008 43.4229Z" fill="#0CBC8B"/>
<path opacity="0.2" d="M57.4519 49.3774C58.2062 48.7402 58.1614 47.3387 57.3518 46.2471C56.5423 45.1555 55.2746 44.7871 54.5203 45.4244C53.766 46.0616 53.8109 47.463 54.6204 48.5546C55.43 49.6462 56.6977 50.0146 57.4519 49.3774Z" fill="white"/>
<path opacity="0.5" d="M51.4444 45.3708C51.6661 43.9995 51.0778 42.7463 50.1303 42.5718C49.1827 42.3973 48.2349 43.3674 48.0131 44.7387C47.7914 46.11 48.3797 47.3632 49.3273 47.5377C50.2748 47.7122 51.2226 46.7421 51.4444 45.3708Z" fill="white"/>
<path opacity="0.5" d="M57.4008 43.4229C57.8664 42.5245 57.3186 41.2499 56.1772 40.5761C55.0358 39.9022 53.733 40.0842 53.2674 40.9827C52.8018 41.8811 53.3497 43.1556 54.491 43.8295C55.6324 44.5034 56.9352 44.3213 57.4008 43.4229Z" fill="white"/>
<path d="M54.1433 60.0001H51.1566L50.6617 49.8008H54.6382L54.1433 60.0001Z" fill="#292A2E"/>
<path opacity="0.3" d="M54.1433 60.0001H51.1566L50.6617 49.8008H54.6382L54.1433 60.0001Z" fill="white"/>
<path d="M57.452 49.4101C57.4473 49.4102 57.4428 49.409 57.4386 49.4069C57.4344 49.4047 57.4307 49.4016 57.4279 49.3977L54.4961 45.4447C54.4911 45.4379 54.4888 45.4292 54.4897 45.4206C54.4907 45.4119 54.4948 45.4041 54.5012 45.3987C54.5075 45.3933 54.5157 45.3908 54.5238 45.3918C54.5318 45.3928 54.5392 45.3972 54.5443 45.404L57.476 49.3571C57.4796 49.3619 57.4818 49.3677 57.4825 49.3738C57.4831 49.3799 57.4821 49.3861 57.4796 49.3916C57.4771 49.3972 57.4732 49.4018 57.4683 49.4051C57.4634 49.4084 57.4577 49.4101 57.452 49.4101Z" fill="white"/>
<path d="M57.2057 43.7392C57.1992 43.7391 57.1929 43.7369 57.1877 43.7327L53.4362 40.8092C53.4329 40.8067 53.4302 40.8035 53.4281 40.7998C53.426 40.7961 53.4246 40.792 53.4239 40.7878C53.4233 40.7835 53.4235 40.7792 53.4245 40.775C53.4254 40.7708 53.4271 40.7669 53.4295 40.7634C53.4319 40.76 53.4349 40.757 53.4383 40.7548C53.4417 40.7525 53.4456 40.7511 53.4495 40.7504C53.4535 40.7497 53.4576 40.7499 53.4615 40.7509C53.4654 40.7519 53.4691 40.7538 53.4724 40.7563L57.2241 43.6801C57.2293 43.6842 57.2331 43.6899 57.235 43.6965C57.2369 43.703 57.2369 43.7101 57.2348 43.7166C57.2328 43.7231 57.2289 43.7288 57.2237 43.7328C57.2184 43.7368 57.2122 43.739 57.2057 43.739V43.7392Z" fill="white"/>
<path d="M49.2095 47.494C49.2068 47.494 49.2041 47.4936 49.2015 47.4929C49.1937 47.4907 49.187 47.4852 49.1829 47.4777C49.1788 47.4702 49.1777 47.4612 49.1798 47.4528L50.3741 42.6772C50.3751 42.6729 50.3768 42.669 50.3793 42.6655C50.3817 42.662 50.3848 42.6591 50.3883 42.6569C50.3918 42.6547 50.3957 42.6532 50.3997 42.6526C50.4037 42.6521 50.4078 42.6523 50.4118 42.6535C50.4157 42.6546 50.4194 42.6565 50.4226 42.6592C50.4258 42.6618 50.4285 42.6651 50.4305 42.6689C50.4325 42.6727 50.4338 42.6769 50.4343 42.6812C50.4348 42.6855 50.4345 42.6899 50.4333 42.694L49.2391 47.4697C49.2373 47.4767 49.2335 47.4828 49.2281 47.4872C49.2228 47.4916 49.2162 47.494 49.2095 47.494Z" fill="white"/>
</g>
<defs>
<clipPath id="clip0_207_69117">
<rect width="60" height="60" fill="white"/>
</clipPath>
</defs>
</svg>
