<svg width="561" height="554" viewBox="0 0 561 554" fill="none" xmlns="http://www.w3.org/2000/svg">
<g filter="url(#filter0_f)">
<path fill-rule="evenodd" clip-rule="evenodd" d="M285.401 153.499C309.568 154.774 335.489 141.558 356.534 153.501C377.715 165.521 383.323 192.665 393.437 214.81C403.548 236.949 413.97 258.543 415.598 282.824C417.522 311.512 423.659 345.861 403.606 366.478C383.431 387.221 347.77 373.74 319.828 381.29C292.747 388.607 269.8 416.611 242.539 409.998C215.338 403.399 203.822 371.657 187.235 349.124C171.993 328.418 155.854 308.555 149.527 283.64C142.716 256.815 138.946 227.694 149.949 202.298C161.033 176.715 183.032 155.191 209.274 145.737C233.766 136.913 259.402 152.129 285.401 153.499Z" fill="#FFD3DF"/>
</g>
<path d="M191.284 169.765C191.443 165.119 193.44 160.726 196.836 157.552C200.232 154.378 204.749 152.683 209.395 152.838L358.423 157.825C362.382 157.957 366.138 159.605 368.917 162.428C371.695 165.251 373.282 169.034 373.35 172.994L377.106 389.411C377.132 390.938 376.852 392.455 376.28 393.871C375.709 395.288 374.858 396.575 373.779 397.656C372.7 398.737 371.415 399.59 370 400.164C368.585 400.738 367.068 401.022 365.541 400.999L194.651 398.414C193.214 398.392 191.797 398.083 190.481 397.507C189.164 396.931 187.976 396.099 186.985 395.058C185.994 394.018 185.22 392.791 184.709 391.448C184.197 390.105 183.958 388.674 184.006 387.238L191.284 169.765Z" fill="#A70D34"/>
<path d="M219.736 395.6L200.632 394.713C197.538 394.557 194.627 393.195 192.525 390.919C190.423 388.642 189.297 385.632 189.388 382.535L190.353 353.678C190.353 353.557 190.401 353.44 190.487 353.355C190.573 353.269 190.689 353.221 190.811 353.221C190.932 353.221 191.048 353.269 191.134 353.355C191.22 353.44 191.268 353.557 191.268 353.678L190.303 382.535C190.219 385.391 191.258 388.167 193.197 390.266C195.135 392.366 197.82 393.622 200.674 393.766L219.777 394.653C219.895 394.659 220.005 394.71 220.086 394.795C220.167 394.88 220.212 394.993 220.212 395.111C220.216 395.175 220.207 395.239 220.185 395.3C220.163 395.361 220.128 395.416 220.084 395.462C220.039 395.508 219.984 395.544 219.925 395.568C219.865 395.592 219.8 395.603 219.736 395.6Z" fill="white"/>
<path d="M191.102 345.216C190.981 345.216 190.864 345.167 190.779 345.082C190.693 344.996 190.645 344.88 190.645 344.758L190.805 340.087C190.808 339.966 190.86 339.851 190.948 339.768C191.037 339.685 191.155 339.64 191.276 339.644C191.397 339.647 191.512 339.699 191.595 339.787C191.679 339.876 191.723 339.994 191.72 340.115L191.559 344.79C191.551 344.906 191.5 345.014 191.415 345.093C191.33 345.172 191.218 345.216 191.102 345.216Z" fill="white"/>
<path d="M203.967 155.958C203.986 155.229 204.162 154.512 204.482 153.856C204.803 153.2 205.261 152.621 205.825 152.157C206.389 151.694 207.046 151.357 207.751 151.17C208.457 150.983 209.194 150.95 209.914 151.073C230.175 154.517 299.87 165.391 357.876 162.889C358.504 162.86 359.131 162.957 359.72 163.175C360.31 163.392 360.85 163.725 361.309 164.154C361.767 164.584 362.135 165.1 362.391 165.674C362.647 166.248 362.786 166.867 362.798 167.496L367.071 384.91C367.099 386.341 366.56 387.726 365.571 388.761C364.582 389.797 363.223 390.399 361.792 390.436C337.409 391.058 237.005 393.272 201.382 388.332C200.335 388.187 199.378 387.66 198.695 386.853C198.012 386.046 197.651 385.015 197.681 383.958L203.967 155.958Z" fill="#FF678E"/>
<path opacity="0.7" d="M206.339 161.716C206.359 161.015 206.528 160.326 206.837 159.696C207.146 159.066 207.586 158.51 208.128 158.065C208.67 157.619 209.301 157.295 209.979 157.115C210.657 156.934 211.365 156.901 212.057 157.018C231.554 160.33 298.628 170.797 354.452 168.386C355.056 168.359 355.659 168.453 356.226 168.663C356.794 168.873 357.313 169.194 357.754 169.607C358.195 170.021 358.549 170.518 358.795 171.071C359.041 171.623 359.174 172.219 359.187 172.823L363.304 382.044C363.332 383.423 362.813 384.757 361.861 385.754C360.908 386.751 359.6 387.33 358.221 387.365C334.758 387.969 238.133 390.109 203.85 385.343C202.841 385.205 201.918 384.698 201.261 383.92C200.604 383.142 200.258 382.148 200.291 381.129L206.339 161.716Z" fill="white"/>
<path d="M230.291 373.677H230.158L219.532 373.22C218.82 373.217 218.133 372.954 217.603 372.479C217.073 372.004 216.735 371.351 216.654 370.644L216.005 361.696C215.986 361.428 216.023 361.158 216.112 360.904C216.2 360.65 216.34 360.417 216.521 360.218C216.738 359.985 216.999 359.797 217.288 359.666C217.578 359.535 217.891 359.463 218.21 359.454C219.124 359.422 220.346 359.358 221.705 359.29C224.646 359.139 228.04 358.965 230.008 359.006C230.676 358.996 231.329 359.209 231.864 359.611C232.399 360.012 232.785 360.58 232.963 361.225C233.448 363.297 233.269 367.172 233.027 371.289C232.96 371.96 232.64 372.581 232.131 373.024C231.623 373.468 230.965 373.701 230.291 373.677ZM229.376 359.912C227.382 359.912 224.39 360.067 221.755 360.205C220.382 360.273 219.147 360.337 218.246 360.369C218.051 360.372 217.859 360.414 217.681 360.493C217.502 360.572 217.341 360.685 217.208 360.827C217.108 360.934 217.032 361.06 216.982 361.198C216.933 361.335 216.911 361.481 216.919 361.627L217.555 370.575C217.621 371.059 217.862 371.501 218.232 371.819C218.602 372.137 219.076 372.308 219.564 372.3L230.282 372.757C230.722 372.783 231.155 372.641 231.495 372.36C231.834 372.079 232.055 371.68 232.112 371.243C232.354 367.186 232.528 363.379 232.071 361.426C231.936 360.982 231.66 360.594 231.284 360.321C230.908 360.049 230.453 359.907 229.989 359.916L229.376 359.912Z" fill="url(#paint0_linear)"/>
<path d="M230.291 354.677H230.158L219.532 354.22C218.82 354.217 218.133 353.954 217.603 353.479C217.073 353.004 216.735 352.351 216.654 351.644L216.005 342.696C215.986 342.428 216.023 342.158 216.112 341.904C216.2 341.65 216.34 341.417 216.521 341.218C216.738 340.985 216.999 340.797 217.288 340.666C217.578 340.535 217.891 340.463 218.21 340.454C219.124 340.422 220.346 340.358 221.705 340.29C224.646 340.139 228.04 339.965 230.008 340.006C230.676 339.996 231.329 340.209 231.864 340.611C232.399 341.012 232.785 341.58 232.963 342.225C233.448 344.297 233.269 348.172 233.027 352.289C232.96 352.96 232.64 353.581 232.131 354.024C231.623 354.468 230.965 354.701 230.291 354.677ZM229.376 340.912C227.382 340.912 224.39 341.067 221.755 341.205C220.382 341.273 219.147 341.337 218.246 341.369C218.051 341.372 217.859 341.414 217.681 341.493C217.502 341.572 217.341 341.685 217.208 341.827C217.108 341.934 217.032 342.06 216.982 342.198C216.933 342.335 216.911 342.481 216.919 342.627L217.555 351.575C217.621 352.059 217.862 352.501 218.232 352.819C218.602 353.137 219.076 353.308 219.564 353.3L230.282 353.757C230.722 353.783 231.155 353.641 231.495 353.36C231.834 353.079 232.055 352.68 232.112 352.243C232.354 348.186 232.528 344.379 232.071 342.426C231.936 341.982 231.66 341.594 231.284 341.321C230.908 341.049 230.453 340.907 229.989 340.916L229.376 340.912Z" fill="url(#paint1_linear)"/>
<path d="M230.291 331.677H230.158L219.532 331.22C218.82 331.217 218.133 330.954 217.603 330.479C217.073 330.004 216.735 329.351 216.654 328.644L216.005 319.696C215.986 319.428 216.023 319.158 216.112 318.904C216.2 318.65 216.34 318.417 216.521 318.218C216.738 317.985 216.999 317.797 217.288 317.666C217.578 317.535 217.891 317.463 218.21 317.454C219.124 317.422 220.346 317.358 221.705 317.29C224.646 317.139 228.04 316.965 230.008 317.006C230.676 316.996 231.329 317.209 231.864 317.611C232.399 318.012 232.785 318.58 232.963 319.225C233.448 321.297 233.269 325.172 233.027 329.289C232.96 329.96 232.64 330.581 232.131 331.024C231.623 331.468 230.965 331.701 230.291 331.677ZM229.376 317.912C227.382 317.912 224.39 318.067 221.755 318.205C220.382 318.273 219.147 318.337 218.246 318.369C218.051 318.372 217.859 318.414 217.681 318.493C217.502 318.572 217.341 318.685 217.208 318.827C217.108 318.934 217.032 319.06 216.982 319.198C216.933 319.335 216.911 319.481 216.919 319.627L217.555 328.575C217.621 329.059 217.862 329.501 218.232 329.819C218.602 330.137 219.076 330.308 219.564 330.3L230.282 330.757C230.722 330.783 231.155 330.641 231.495 330.36C231.834 330.079 232.055 329.68 232.112 329.243C232.354 325.186 232.528 321.379 232.071 319.426C231.936 318.982 231.66 318.594 231.284 318.321C230.908 318.049 230.453 317.907 229.989 317.916L229.376 317.912Z" fill="url(#paint2_linear)"/>
<path d="M230.291 310.677H230.158L219.532 310.22C218.82 310.217 218.133 309.954 217.603 309.479C217.073 309.004 216.735 308.351 216.654 307.644L216.005 298.696C215.986 298.428 216.023 298.158 216.112 297.904C216.2 297.65 216.34 297.417 216.521 297.218C216.738 296.985 216.999 296.797 217.288 296.666C217.578 296.535 217.891 296.463 218.21 296.454C219.124 296.422 220.346 296.358 221.705 296.29C224.646 296.139 228.04 295.965 230.008 296.006C230.676 295.996 231.329 296.209 231.864 296.611C232.399 297.012 232.785 297.58 232.963 298.225C233.448 300.297 233.269 304.172 233.027 308.289C232.96 308.96 232.64 309.581 232.131 310.024C231.623 310.468 230.965 310.701 230.291 310.677ZM229.376 296.912C227.382 296.912 224.39 297.067 221.755 297.205C220.382 297.273 219.147 297.337 218.246 297.369C218.051 297.372 217.859 297.414 217.681 297.493C217.502 297.572 217.341 297.685 217.208 297.827C217.108 297.934 217.032 298.06 216.982 298.198C216.933 298.335 216.911 298.481 216.919 298.627L217.555 307.575C217.621 308.059 217.862 308.501 218.232 308.819C218.602 309.137 219.076 309.308 219.564 309.3L230.282 309.757C230.722 309.783 231.155 309.641 231.495 309.36C231.834 309.079 232.055 308.68 232.112 308.243C232.354 304.186 232.528 300.379 232.071 298.426C231.936 297.982 231.66 297.594 231.284 297.321C230.908 297.049 230.453 296.907 229.989 296.916L229.376 296.912Z" fill="url(#paint3_linear)"/>
<path d="M230.291 288.677H230.158L219.532 288.22C218.82 288.217 218.133 287.954 217.603 287.479C217.073 287.004 216.735 286.351 216.654 285.644L216.005 276.696C215.986 276.428 216.023 276.158 216.112 275.904C216.2 275.65 216.34 275.417 216.521 275.218C216.738 274.985 216.999 274.797 217.288 274.666C217.578 274.535 217.891 274.463 218.21 274.454C219.124 274.422 220.346 274.358 221.705 274.29C224.646 274.139 228.04 273.965 230.008 274.006C230.676 273.996 231.329 274.209 231.864 274.611C232.399 275.012 232.785 275.58 232.963 276.225C233.448 278.297 233.269 282.172 233.027 286.289C232.96 286.96 232.64 287.581 232.131 288.024C231.623 288.468 230.965 288.701 230.291 288.677ZM229.376 274.912C227.382 274.912 224.39 275.067 221.755 275.205C220.382 275.273 219.147 275.337 218.246 275.369C218.051 275.372 217.859 275.414 217.681 275.493C217.502 275.572 217.341 275.685 217.208 275.827C217.108 275.934 217.032 276.06 216.982 276.198C216.933 276.335 216.911 276.481 216.919 276.627L217.555 285.575C217.621 286.059 217.862 286.501 218.232 286.819C218.602 287.137 219.076 287.308 219.564 287.3L230.282 287.757C230.722 287.783 231.155 287.641 231.495 287.36C231.834 287.079 232.055 286.68 232.112 286.243C232.354 282.186 232.528 278.379 232.071 276.426C231.936 275.982 231.66 275.594 231.284 275.321C230.908 275.049 230.453 274.907 229.989 274.916L229.376 274.912Z" fill="url(#paint4_linear)"/>
<path d="M230.291 265.677H230.158L219.532 265.22C218.82 265.217 218.133 264.954 217.603 264.479C217.073 264.004 216.735 263.351 216.654 262.644L216.005 253.696C215.986 253.428 216.023 253.158 216.112 252.904C216.2 252.65 216.34 252.417 216.521 252.218C216.738 251.985 216.999 251.797 217.288 251.666C217.578 251.535 217.891 251.463 218.21 251.454C219.124 251.422 220.346 251.358 221.705 251.29C224.646 251.139 228.04 250.965 230.008 251.006C230.676 250.996 231.329 251.209 231.864 251.611C232.399 252.012 232.785 252.58 232.963 253.225C233.448 255.297 233.269 259.172 233.027 263.289C232.96 263.96 232.64 264.581 232.131 265.024C231.623 265.468 230.965 265.701 230.291 265.677ZM229.376 251.912C227.382 251.912 224.39 252.067 221.755 252.205C220.382 252.273 219.147 252.337 218.246 252.369C218.051 252.372 217.859 252.414 217.681 252.493C217.502 252.572 217.341 252.685 217.208 252.827C217.108 252.934 217.032 253.06 216.982 253.198C216.933 253.335 216.911 253.481 216.919 253.627L217.555 262.575C217.621 263.059 217.862 263.501 218.232 263.819C218.602 264.137 219.076 264.308 219.564 264.3L230.282 264.757C230.722 264.783 231.155 264.641 231.495 264.36C231.834 264.079 232.055 263.68 232.112 263.243C232.354 259.186 232.528 255.379 232.071 253.426C231.936 252.982 231.66 252.594 231.284 252.321C230.908 252.049 230.453 251.907 229.989 251.916L229.376 251.912Z" fill="url(#paint5_linear)"/>
<path d="M230.291 244.677H230.158L219.532 244.22C218.82 244.217 218.133 243.954 217.603 243.479C217.073 243.004 216.735 242.351 216.654 241.644L216.005 232.696C215.986 232.428 216.023 232.158 216.112 231.904C216.2 231.65 216.34 231.417 216.521 231.218C216.738 230.985 216.999 230.797 217.288 230.666C217.578 230.535 217.891 230.463 218.21 230.454C219.124 230.422 220.346 230.358 221.705 230.29C224.646 230.139 228.04 229.965 230.008 230.006C230.676 229.996 231.329 230.209 231.864 230.611C232.399 231.012 232.785 231.58 232.963 232.225C233.448 234.297 233.269 238.172 233.027 242.289C232.96 242.96 232.64 243.581 232.131 244.024C231.623 244.468 230.965 244.701 230.291 244.677ZM229.376 230.912C227.382 230.912 224.39 231.067 221.755 231.205C220.382 231.273 219.147 231.337 218.246 231.369C218.051 231.372 217.859 231.414 217.681 231.493C217.502 231.572 217.341 231.685 217.208 231.827C217.108 231.934 217.032 232.06 216.982 232.198C216.933 232.335 216.911 232.481 216.919 232.627L217.555 241.575C217.621 242.059 217.862 242.501 218.232 242.819C218.602 243.137 219.076 243.308 219.564 243.3L230.282 243.757C230.722 243.783 231.155 243.641 231.495 243.36C231.834 243.079 232.055 242.68 232.112 242.243C232.354 238.186 232.528 234.379 232.071 232.426C231.936 231.982 231.66 231.594 231.284 231.321C230.908 231.049 230.453 230.907 229.989 230.916L229.376 230.912Z" fill="url(#paint6_linear)"/>
<path d="M230.291 221.677H230.158L219.532 221.22C218.82 221.217 218.133 220.954 217.603 220.479C217.073 220.004 216.735 219.351 216.654 218.644L216.005 209.696C215.986 209.428 216.023 209.158 216.112 208.904C216.2 208.65 216.34 208.417 216.521 208.218C216.738 207.985 216.999 207.797 217.288 207.666C217.578 207.535 217.891 207.463 218.21 207.454C219.124 207.422 220.346 207.358 221.705 207.29C224.646 207.139 228.04 206.965 230.008 207.006C230.676 206.996 231.329 207.209 231.864 207.611C232.399 208.012 232.785 208.58 232.963 209.225C233.448 211.297 233.269 215.172 233.027 219.289C232.96 219.96 232.64 220.581 232.131 221.024C231.623 221.468 230.965 221.701 230.291 221.677ZM229.376 207.912C227.382 207.912 224.39 208.067 221.755 208.205C220.382 208.273 219.147 208.337 218.246 208.369C218.051 208.372 217.859 208.414 217.681 208.493C217.502 208.572 217.341 208.685 217.208 208.827C217.108 208.934 217.032 209.06 216.982 209.198C216.933 209.335 216.911 209.481 216.919 209.627L217.555 218.575C217.621 219.059 217.862 219.501 218.232 219.819C218.602 220.137 219.076 220.308 219.564 220.3L230.282 220.757C230.722 220.783 231.155 220.641 231.495 220.36C231.834 220.079 232.055 219.68 232.112 219.243C232.354 215.186 232.528 211.379 232.071 209.426C231.936 208.982 231.66 208.594 231.284 208.321C230.908 208.049 230.453 207.907 229.989 207.916L229.376 207.912Z" fill="url(#paint7_linear)"/>
<path d="M219.367 361.279C221.604 361.201 226.471 360.872 228.777 360.917C229.229 360.912 229.67 361.055 230.033 361.324C230.396 361.593 230.66 361.975 230.785 362.409C231.174 364.065 231.009 367.34 230.831 370.355C230.777 370.814 230.545 371.234 230.185 371.525C229.825 371.816 229.366 371.954 228.905 371.91L220.415 371.544C219.935 371.547 219.472 371.374 219.112 371.058C218.752 370.741 218.521 370.304 218.461 369.829L217.953 362.679C217.95 362.493 217.984 362.308 218.054 362.135C218.123 361.963 218.228 361.806 218.36 361.675C218.492 361.544 218.65 361.442 218.823 361.374C218.996 361.305 219.181 361.273 219.367 361.279Z" fill="url(#paint8_linear)"/>
<path d="M219.367 342.279C221.604 342.201 226.471 341.872 228.777 341.917C229.229 341.912 229.67 342.055 230.033 342.324C230.396 342.593 230.66 342.975 230.785 343.409C231.174 345.065 231.009 348.34 230.831 351.355C230.777 351.814 230.545 352.234 230.185 352.525C229.825 352.816 229.366 352.954 228.905 352.91L220.415 352.544C219.935 352.547 219.472 352.374 219.112 352.058C218.752 351.741 218.521 351.304 218.461 350.829L217.953 343.679C217.95 343.493 217.984 343.308 218.054 343.135C218.123 342.963 218.228 342.806 218.36 342.675C218.492 342.544 218.65 342.442 218.823 342.374C218.996 342.305 219.181 342.273 219.367 342.279Z" fill="url(#paint9_linear)"/>
<path d="M219.367 319.279C221.604 319.201 226.471 318.872 228.777 318.917C229.229 318.912 229.67 319.055 230.033 319.324C230.396 319.593 230.66 319.975 230.785 320.409C231.174 322.065 231.009 325.34 230.831 328.355C230.777 328.814 230.545 329.234 230.185 329.525C229.825 329.816 229.366 329.954 228.905 329.91L220.415 329.544C219.935 329.547 219.472 329.374 219.112 329.058C218.752 328.741 218.521 328.304 218.461 327.829L217.953 320.679C217.95 320.493 217.984 320.308 218.054 320.135C218.123 319.963 218.228 319.806 218.36 319.675C218.492 319.544 218.65 319.442 218.823 319.374C218.996 319.305 219.181 319.273 219.367 319.279Z" fill="url(#paint10_linear)"/>
<path d="M219.367 298.279C221.604 298.201 226.471 297.872 228.777 297.917C229.229 297.912 229.67 298.055 230.033 298.324C230.396 298.593 230.66 298.975 230.785 299.409C231.174 301.065 231.009 304.34 230.831 307.355C230.777 307.814 230.545 308.234 230.185 308.525C229.825 308.816 229.366 308.954 228.905 308.91L220.415 308.544C219.935 308.547 219.472 308.374 219.112 308.058C218.752 307.741 218.521 307.304 218.461 306.829L217.953 299.679C217.95 299.493 217.984 299.308 218.054 299.135C218.123 298.963 218.228 298.806 218.36 298.675C218.492 298.544 218.65 298.442 218.823 298.374C218.996 298.305 219.181 298.273 219.367 298.279Z" fill="url(#paint11_linear)"/>
<path d="M219.367 276.279C221.604 276.201 226.471 275.872 228.777 275.917C229.229 275.912 229.67 276.055 230.033 276.324C230.396 276.593 230.66 276.975 230.785 277.409C231.174 279.065 231.009 282.34 230.831 285.355C230.777 285.814 230.545 286.234 230.185 286.525C229.825 286.816 229.366 286.954 228.905 286.91L220.415 286.544C219.935 286.547 219.472 286.374 219.112 286.058C218.752 285.741 218.521 285.304 218.461 284.829L217.953 277.679C217.95 277.493 217.984 277.308 218.054 277.135C218.123 276.963 218.228 276.806 218.36 276.675C218.492 276.544 218.65 276.442 218.823 276.374C218.996 276.305 219.181 276.273 219.367 276.279Z" fill="url(#paint12_linear)"/>
<path d="M219.367 253.279C221.604 253.201 226.471 252.872 228.777 252.917C229.229 252.912 229.67 253.055 230.033 253.324C230.396 253.593 230.66 253.975 230.785 254.409C231.174 256.065 231.009 259.34 230.831 262.355C230.777 262.814 230.545 263.234 230.185 263.525C229.825 263.816 229.366 263.954 228.905 263.91L220.415 263.544C219.935 263.547 219.472 263.374 219.112 263.058C218.752 262.741 218.521 262.304 218.461 261.829L217.953 254.679C217.95 254.493 217.984 254.308 218.054 254.135C218.123 253.963 218.228 253.806 218.36 253.675C218.492 253.544 218.65 253.442 218.823 253.374C218.996 253.305 219.181 253.273 219.367 253.279Z" fill="url(#paint13_linear)"/>
<path d="M219.367 232.279C221.604 232.201 226.471 231.872 228.777 231.917C229.229 231.912 229.67 232.055 230.033 232.324C230.396 232.593 230.66 232.975 230.785 233.409C231.174 235.065 231.009 238.34 230.831 241.355C230.777 241.814 230.545 242.234 230.185 242.525C229.825 242.816 229.366 242.954 228.905 242.91L220.415 242.544C219.935 242.547 219.472 242.374 219.112 242.058C218.752 241.741 218.521 241.304 218.461 240.829L217.953 233.679C217.95 233.493 217.984 233.308 218.054 233.135C218.123 232.963 218.228 232.806 218.36 232.675C218.492 232.544 218.65 232.442 218.823 232.374C218.996 232.305 219.181 232.273 219.367 232.279Z" fill="url(#paint14_linear)"/>
<path d="M219.367 209.279C221.604 209.201 226.471 208.872 228.777 208.917C229.229 208.912 229.67 209.055 230.033 209.324C230.396 209.593 230.66 209.975 230.785 210.409C231.174 212.065 231.009 215.34 230.831 218.355C230.777 218.814 230.545 219.234 230.185 219.525C229.825 219.816 229.366 219.954 228.905 219.91L220.415 219.544C219.935 219.547 219.472 219.374 219.112 219.058C218.752 218.741 218.521 218.304 218.461 217.829L217.953 210.679C217.95 210.493 217.984 210.308 218.054 210.135C218.123 209.963 218.228 209.806 218.36 209.675C218.492 209.544 218.65 209.442 218.823 209.374C218.996 209.305 219.181 209.273 219.367 209.279Z" fill="url(#paint15_linear)"/>
<path d="M240.019 364.746C239.8 364.722 239.578 364.753 239.373 364.836C239.168 364.919 238.988 365.051 238.847 365.221C238.706 365.391 238.609 365.594 238.565 365.81C238.522 366.026 238.532 366.25 238.597 366.462L239.008 368.255C239.143 368.755 239.43 369.2 239.831 369.528C240.231 369.856 240.724 370.051 241.241 370.085L337.496 372.299C337.974 372.299 338.433 372.112 338.775 371.778C339.117 371.443 339.315 370.988 339.325 370.51V370.199C339.327 369.707 339.136 369.234 338.795 368.881C338.453 368.527 337.987 368.321 337.496 368.305L240.019 364.746Z" fill="url(#paint16_linear)"/>
<path d="M240.019 345.746C239.8 345.722 239.578 345.753 239.373 345.836C239.168 345.919 238.988 346.051 238.847 346.221C238.706 346.391 238.609 346.594 238.565 346.81C238.522 347.026 238.532 347.25 238.597 347.462L239.008 349.255C239.143 349.755 239.43 350.2 239.831 350.528C240.231 350.856 240.724 351.051 241.241 351.085L337.496 353.299C337.974 353.299 338.433 353.112 338.775 352.778C339.117 352.443 339.315 351.988 339.325 351.51V351.199C339.327 350.707 339.136 350.234 338.795 349.881C338.453 349.527 337.987 349.321 337.496 349.305L240.019 345.746Z" fill="url(#paint17_linear)"/>
<path d="M240.019 322.746C239.8 322.722 239.578 322.753 239.373 322.836C239.168 322.919 238.988 323.051 238.847 323.221C238.706 323.391 238.609 323.594 238.565 323.81C238.522 324.026 238.532 324.25 238.597 324.462L239.008 326.255C239.143 326.755 239.43 327.2 239.831 327.528C240.231 327.856 240.724 328.051 241.241 328.085L337.496 330.299C337.974 330.299 338.433 330.112 338.775 329.778C339.117 329.443 339.315 328.988 339.325 328.51V328.199C339.327 327.707 339.136 327.234 338.795 326.881C338.453 326.527 337.987 326.321 337.496 326.305L240.019 322.746Z" fill="url(#paint18_linear)"/>
<path d="M240.019 301.746C239.8 301.722 239.578 301.753 239.373 301.836C239.168 301.919 238.988 302.051 238.847 302.221C238.706 302.391 238.609 302.594 238.565 302.81C238.522 303.026 238.532 303.25 238.597 303.462L239.008 305.255C239.143 305.755 239.43 306.2 239.831 306.528C240.231 306.856 240.724 307.051 241.241 307.085L337.496 309.299C337.974 309.299 338.433 309.112 338.775 308.778C339.117 308.443 339.315 307.988 339.325 307.51V307.199C339.327 306.707 339.136 306.234 338.795 305.881C338.453 305.527 337.987 305.321 337.496 305.305L240.019 301.746Z" fill="url(#paint19_linear)"/>
<path d="M240.019 279.746C239.8 279.722 239.578 279.753 239.373 279.836C239.168 279.919 238.988 280.051 238.847 280.221C238.706 280.391 238.609 280.594 238.565 280.81C238.522 281.026 238.532 281.25 238.597 281.462L239.008 283.255C239.143 283.755 239.43 284.2 239.831 284.528C240.231 284.856 240.724 285.051 241.241 285.085L337.496 287.299C337.974 287.299 338.433 287.112 338.775 286.778C339.117 286.443 339.315 285.988 339.325 285.51V285.199C339.327 284.707 339.136 284.234 338.795 283.881C338.453 283.527 337.987 283.321 337.496 283.305L240.019 279.746Z" fill="url(#paint20_linear)"/>
<path d="M240.019 256.746C239.8 256.722 239.578 256.753 239.373 256.836C239.168 256.919 238.988 257.051 238.847 257.221C238.706 257.391 238.609 257.594 238.565 257.81C238.522 258.026 238.532 258.25 238.597 258.462L239.008 260.255C239.143 260.755 239.43 261.2 239.831 261.528C240.231 261.856 240.724 262.051 241.241 262.085L337.496 264.299C337.974 264.299 338.433 264.112 338.775 263.778C339.117 263.443 339.315 262.988 339.325 262.51V262.199C339.327 261.707 339.136 261.234 338.795 260.881C338.453 260.527 337.987 260.321 337.496 260.305L240.019 256.746Z" fill="url(#paint21_linear)"/>
<path d="M240.019 235.746C239.8 235.722 239.578 235.753 239.373 235.836C239.168 235.919 238.988 236.051 238.847 236.221C238.706 236.391 238.609 236.594 238.565 236.81C238.522 237.026 238.532 237.25 238.597 237.462L239.008 239.255C239.143 239.755 239.43 240.2 239.831 240.528C240.231 240.856 240.724 241.051 241.241 241.085L337.496 243.299C337.974 243.299 338.433 243.112 338.775 242.778C339.117 242.443 339.315 241.988 339.325 241.51V241.199C339.327 240.707 339.136 240.234 338.795 239.881C338.453 239.527 337.987 239.321 337.496 239.305L240.019 235.746Z" fill="url(#paint22_linear)"/>
<path d="M240.019 212.746C239.8 212.722 239.578 212.753 239.373 212.836C239.168 212.919 238.988 213.051 238.847 213.221C238.706 213.391 238.609 213.594 238.565 213.81C238.522 214.026 238.532 214.25 238.597 214.462L239.008 216.255C239.143 216.755 239.43 217.2 239.831 217.528C240.231 217.856 240.724 218.051 241.241 218.085L337.496 220.299C337.974 220.299 338.433 220.112 338.775 219.778C339.117 219.443 339.315 218.988 339.325 218.51V218.199C339.327 217.707 339.136 217.234 338.795 216.881C338.453 216.527 337.987 216.321 337.496 216.305L240.019 212.746Z" fill="url(#paint23_linear)"/>
<path d="M219.777 183.008C219.513 182.983 219.247 183.016 219.001 183.104C218.756 183.191 218.538 183.331 218.369 183.511C218.2 183.691 218.084 183.905 218.032 184.134C217.979 184.363 217.992 184.6 218.069 184.823L218.563 186.721C218.725 187.25 219.07 187.721 219.551 188.068C220.031 188.415 220.623 188.621 221.243 188.657L336.803 191C337.377 191 337.929 190.802 338.339 190.448C338.75 190.095 338.987 189.613 339 189.107V188.778C339.002 188.258 338.773 187.757 338.363 187.383C337.953 187.009 337.393 186.791 336.803 186.774L219.777 183.008Z" fill="url(#paint24_linear)"/>
<path d="M219.131 195.008C218.963 194.983 218.794 195.016 218.637 195.104C218.481 195.191 218.343 195.331 218.235 195.511C218.127 195.691 218.053 195.905 218.02 196.134C217.987 196.363 217.995 196.6 218.044 196.823L218.358 198.721C218.461 199.25 218.681 199.721 218.987 200.068C219.293 200.415 219.669 200.621 220.064 200.657L293.602 203C293.967 203 294.318 202.802 294.58 202.448C294.841 202.095 294.992 201.613 295 201.107V200.778C295.001 200.258 294.856 199.757 294.595 199.383C294.334 199.009 293.977 198.791 293.602 198.774L219.131 195.008Z" fill="url(#paint25_linear)"/>
<path opacity="0.3" d="M309.42 190.08L309.316 190.14L309.549 190.544L309.652 190.485L309.42 190.08Z" fill="white"/>
<circle cx="278.5" cy="273.5" r="44.5" fill="#FFD3DF" stroke="#DC1C4D" stroke-width="4"/>
<line x1="262.962" y1="254.204" x2="296.224" y2="287.467" stroke="#DC1C4D" stroke-width="8" stroke-linecap="round" stroke-linejoin="round"/>
<line x1="261.328" y1="287.467" x2="294.591" y2="254.204" stroke="#DC1C4D" stroke-width="8" stroke-linecap="round" stroke-linejoin="round"/>
<defs>
<filter id="filter0_f" x="0" y="0" width="561" height="554" filterUnits="userSpaceOnUse" color-interpolation-filters="sRGB">
<feFlood flood-opacity="0" result="BackgroundImageFix"/>
<feBlend mode="normal" in="SourceGraphic" in2="BackgroundImageFix" result="shape"/>
<feGaussianBlur stdDeviation="71.5" result="effect1_foregroundBlur"/>
</filter>
<linearGradient id="paint0_linear" x1="5949.71" y1="9731.07" x2="6601.62" y2="9731.07" gradientUnits="userSpaceOnUse">
<stop stop-color="#ED539F"/>
<stop offset="1" stop-color="#A061C2"/>
</linearGradient>
<linearGradient id="paint1_linear" x1="5949.71" y1="9712.07" x2="6601.62" y2="9712.07" gradientUnits="userSpaceOnUse">
<stop stop-color="#ED539F"/>
<stop offset="1" stop-color="#A061C2"/>
</linearGradient>
<linearGradient id="paint2_linear" x1="5949.71" y1="9689.07" x2="6601.62" y2="9689.07" gradientUnits="userSpaceOnUse">
<stop stop-color="#ED539F"/>
<stop offset="1" stop-color="#A061C2"/>
</linearGradient>
<linearGradient id="paint3_linear" x1="5949.71" y1="9668.07" x2="6601.62" y2="9668.07" gradientUnits="userSpaceOnUse">
<stop stop-color="#ED539F"/>
<stop offset="1" stop-color="#A061C2"/>
</linearGradient>
<linearGradient id="paint4_linear" x1="5949.71" y1="9646.07" x2="6601.62" y2="9646.07" gradientUnits="userSpaceOnUse">
<stop stop-color="#ED539F"/>
<stop offset="1" stop-color="#A061C2"/>
</linearGradient>
<linearGradient id="paint5_linear" x1="5949.71" y1="9623.07" x2="6601.62" y2="9623.07" gradientUnits="userSpaceOnUse">
<stop stop-color="#ED539F"/>
<stop offset="1" stop-color="#A061C2"/>
</linearGradient>
<linearGradient id="paint6_linear" x1="5949.71" y1="9602.07" x2="6601.62" y2="9602.07" gradientUnits="userSpaceOnUse">
<stop stop-color="#ED539F"/>
<stop offset="1" stop-color="#A061C2"/>
</linearGradient>
<linearGradient id="paint7_linear" x1="5949.71" y1="9579.07" x2="6601.62" y2="9579.07" gradientUnits="userSpaceOnUse">
<stop stop-color="#ED539F"/>
<stop offset="1" stop-color="#A061C2"/>
</linearGradient>
<linearGradient id="paint8_linear" x1="4612.87" y1="7389.23" x2="4986.28" y2="7389.23" gradientUnits="userSpaceOnUse">
<stop stop-color="#ED539F"/>
<stop offset="1" stop-color="#A061C2"/>
</linearGradient>
<linearGradient id="paint9_linear" x1="4612.87" y1="7370.23" x2="4986.28" y2="7370.23" gradientUnits="userSpaceOnUse">
<stop stop-color="#ED539F"/>
<stop offset="1" stop-color="#A061C2"/>
</linearGradient>
<linearGradient id="paint10_linear" x1="4612.87" y1="7347.23" x2="4986.28" y2="7347.23" gradientUnits="userSpaceOnUse">
<stop stop-color="#ED539F"/>
<stop offset="1" stop-color="#A061C2"/>
</linearGradient>
<linearGradient id="paint11_linear" x1="4612.87" y1="7326.23" x2="4986.28" y2="7326.23" gradientUnits="userSpaceOnUse">
<stop stop-color="#ED539F"/>
<stop offset="1" stop-color="#A061C2"/>
</linearGradient>
<linearGradient id="paint12_linear" x1="4612.87" y1="7304.23" x2="4986.28" y2="7304.23" gradientUnits="userSpaceOnUse">
<stop stop-color="#ED539F"/>
<stop offset="1" stop-color="#A061C2"/>
</linearGradient>
<linearGradient id="paint13_linear" x1="4612.87" y1="7281.23" x2="4986.28" y2="7281.23" gradientUnits="userSpaceOnUse">
<stop stop-color="#ED539F"/>
<stop offset="1" stop-color="#A061C2"/>
</linearGradient>
<linearGradient id="paint14_linear" x1="4612.87" y1="7260.23" x2="4986.28" y2="7260.23" gradientUnits="userSpaceOnUse">
<stop stop-color="#ED539F"/>
<stop offset="1" stop-color="#A061C2"/>
</linearGradient>
<linearGradient id="paint15_linear" x1="4612.87" y1="7237.23" x2="4986.28" y2="7237.23" gradientUnits="userSpaceOnUse">
<stop stop-color="#ED539F"/>
<stop offset="1" stop-color="#A061C2"/>
</linearGradient>
<linearGradient id="paint16_linear" x1="38667.4" y1="5227.76" x2="60874.6" y2="5227.76" gradientUnits="userSpaceOnUse">
<stop stop-color="#ED539F"/>
<stop offset="1" stop-color="#A061C2"/>
</linearGradient>
<linearGradient id="paint17_linear" x1="38667.4" y1="5208.76" x2="60874.6" y2="5208.76" gradientUnits="userSpaceOnUse">
<stop stop-color="#ED539F"/>
<stop offset="1" stop-color="#A061C2"/>
</linearGradient>
<linearGradient id="paint18_linear" x1="38667.4" y1="5185.76" x2="60874.6" y2="5185.76" gradientUnits="userSpaceOnUse">
<stop stop-color="#ED539F"/>
<stop offset="1" stop-color="#A061C2"/>
</linearGradient>
<linearGradient id="paint19_linear" x1="38667.4" y1="5164.76" x2="60874.6" y2="5164.76" gradientUnits="userSpaceOnUse">
<stop stop-color="#ED539F"/>
<stop offset="1" stop-color="#A061C2"/>
</linearGradient>
<linearGradient id="paint20_linear" x1="38667.4" y1="5142.76" x2="60874.6" y2="5142.76" gradientUnits="userSpaceOnUse">
<stop stop-color="#ED539F"/>
<stop offset="1" stop-color="#A061C2"/>
</linearGradient>
<linearGradient id="paint21_linear" x1="38667.4" y1="5119.76" x2="60874.6" y2="5119.76" gradientUnits="userSpaceOnUse">
<stop stop-color="#ED539F"/>
<stop offset="1" stop-color="#A061C2"/>
</linearGradient>
<linearGradient id="paint22_linear" x1="38667.4" y1="5098.76" x2="60874.6" y2="5098.76" gradientUnits="userSpaceOnUse">
<stop stop-color="#ED539F"/>
<stop offset="1" stop-color="#A061C2"/>
</linearGradient>
<linearGradient id="paint23_linear" x1="38667.4" y1="5075.76" x2="60874.6" y2="5075.76" gradientUnits="userSpaceOnUse">
<stop stop-color="#ED539F"/>
<stop offset="1" stop-color="#A061C2"/>
</linearGradient>
<linearGradient id="paint24_linear" x1="46354.1" y1="5328.68" x2="73015.2" y2="5328.68" gradientUnits="userSpaceOnUse">
<stop stop-color="#ED539F"/>
<stop offset="1" stop-color="#A061C2"/>
</linearGradient>
<linearGradient id="paint25_linear" x1="29577.3" y1="5340.68" x2="46543.5" y2="5340.68" gradientUnits="userSpaceOnUse">
<stop stop-color="#ED539F"/>
<stop offset="1" stop-color="#A061C2"/>
</linearGradient>
</defs>
</svg>
