<svg width="373" height="373" viewBox="0 0 373 373" fill="none" xmlns="http://www.w3.org/2000/svg">
<g clip-path="url(#clip0)">
<path d="M144.578 93.6597L140.136 91.5576L143.731 88.804L139.997 87.0632L143.463 84.6159L139.624 82.16" stroke="#3A89FF"/>
<rect width="2.571" height="4.10705" transform="matrix(0.977573 -0.210597 0.170391 0.985376 209.602 67.4199)" fill="#DC1C4D"/>
<path d="M248.653 70.2317L237.341 82.7351L233.516 77.6586L248.653 70.2317Z" fill="#FCF8E3"/>
<path d="M266.509 60.6895L269.631 64.1559L273.892 62.2587L271.56 66.2982L274.681 69.7645L270.118 68.7947L267.786 72.8342L267.298 68.1954L262.736 67.2256L266.997 65.3284L266.509 60.6895Z" fill="#3C763D"/>
<path d="M110.111 122.291C110.111 122.291 109.717 116.07 111.61 115.542C112.651 115.252 113.783 115.187 114.281 116.083C114.664 116.774 114.459 117.434 113.997 118.108C113.017 119.535 110.758 118.501 109.631 117.251C108.074 115.525 111.256 111.46 111.256 111.46" stroke="#3C763D" stroke-width="1.2"/>
<path d="M158.561 109.428C160.852 109.668 163.094 106.192 162.826 108.747C162.557 111.302 160.483 113.178 158.192 112.937C155.902 112.696 154.263 110.43 154.531 107.875C154.8 105.32 156.271 109.187 158.561 109.428Z" fill="#3A89FF"/>
<path d="M193.501 97.9262L194.906 93.8457L191.46 91.2484L195.775 91.3237L197.18 87.2432L198.441 91.3703L202.756 91.4456L199.221 93.921L200.483 98.0481L197.036 95.4508L193.501 97.9262Z" fill="#3C763D"/>
<path d="M236.323 134.087L231.225 130.058L236.676 127.58L232.382 124.226L237.576 122.104L233.36 117.798" stroke="#3A89FF"/>
<path d="M282.573 128.637L283.862 125.871L281.631 123.79L284.659 124.162L285.949 121.396L286.531 124.392L289.56 124.764L286.891 126.243L287.473 129.238L285.242 127.157L282.573 128.637Z" fill="#3C763D"/>
<path d="M118.187 158.749L114.313 158.592L116.075 155.484L112.826 155.371L114.589 152.525L111.044 151.925" stroke="#3A89FF"/>
<path d="M144.286 158.083L144.144 161.574L141.343 159.986L141.241 162.914L138.676 161.325L138.135 164.521" stroke="#3A89FF"/>
<path d="M183.253 149.42L180.944 146.356L177.317 147.605L179.517 144.463L177.209 141.399L180.877 142.52L183.078 139.378L183.144 143.214L186.813 144.335L183.186 145.584L183.253 149.42Z" fill="#3C763D"/>
<path d="M224.662 169.77C224.662 169.77 223.287 163.088 225.259 162.227C226.342 161.754 227.56 161.511 228.236 162.407C228.757 163.097 228.635 163.843 228.236 164.644C227.392 166.34 224.786 165.564 223.373 164.381C221.423 162.747 224.253 157.856 224.253 157.856" stroke="#3C763D" stroke-width="1.2"/>
<rect width="3.79894" height="6.06862" transform="matrix(0.00274655 0.999996 -0.99927 -0.0382036 256.501 145.932)" fill="#DC1C4D"/>
<path d="M105.035 207.858L101.586 204.16L97.0032 206.297L99.4548 201.874L96.0061 198.176L100.97 199.141L103.421 194.718L104.038 199.737L109.002 200.702L104.419 202.839L105.035 207.858Z" fill="#3C763D"/>
<path d="M168.624 198.338L156.782 196.561L158.257 192.117L168.624 198.338Z" fill="#DC1C4D"/>
<path d="M215.932 168.993L202.643 153.415L209.531 149.333L215.932 168.993Z" fill="#DC1C4D"/>
<path d="M249.917 211.529L250.954 232.255L243.207 231.166L249.917 211.529Z" fill="#FCF8E3"/>
<path d="M273.691 192.842L263.056 209.134L257.781 204.039L273.691 192.842Z" fill="#FCF8E3"/>
<ellipse cx="147.958" cy="221.204" rx="3.285" ry="2.92" transform="rotate(-159 147.958 221.204)" fill="#8A6D3B"/>
<path d="M137.729 241.92C137.729 241.92 143.54 249.458 141.594 251.744C140.525 252.999 139.146 254.048 137.751 253.339C136.676 252.792 136.373 251.781 136.383 250.533C136.404 247.89 140.146 247.27 142.641 247.89C146.086 248.745 145.528 256.609 145.528 256.609" stroke="#3C763D" stroke-width="1.2"/>
<path d="M203.43 239.199L202.4 234.617L206.588 235.704L205.702 231.868L209.584 233.039L209.174 228.703" stroke="#3A89FF"/>
<path d="M197.776 192.247L197.097 197.081L201.485 199.222L196.677 200.07L195.997 204.904L193.705 200.594L188.897 201.441L192.289 197.929L189.996 193.618L194.385 195.759L197.776 192.247Z" fill="#3C763D"/>
<path d="M253.883 249.337C255.084 249.379 256.125 247.488 256.078 248.827C256.031 250.167 255.02 251.219 253.819 251.177C252.618 251.135 251.682 250.015 251.729 248.675C251.776 247.336 252.682 249.295 253.883 249.337Z" fill="#3A89FF"/>
<rect width="4.10286" height="6.55411" transform="matrix(-0.377152 -0.926151 0.940818 -0.338911 58.2642 25.2927)" fill="#DC1C4D"/>
<path d="M138.918 34.322L135.934 22.2338L140.622 21.9881L138.918 34.322Z" fill="#FCF8E3"/>
<path d="M211.571 20.3982L216.447 2.36945L222.775 5.456L211.571 20.3982Z" fill="#FCF8E3"/>
<path d="M25.0885 101.529C24.4346 99.733 21.0254 99.3247 23.0289 98.5955C25.0325 97.8663 27.1868 98.7313 27.8406 100.528C28.4944 102.324 27.4002 104.371 25.3966 105.101C23.3931 105.83 25.7423 103.326 25.0885 101.529Z" fill="#3A89FF"/>
<path d="M127.44 62.9455L130.272 62.6478L130.865 59.8617L132.023 62.4638L134.856 62.1661L132.739 64.072L133.898 66.6741L131.431 65.2499L129.314 67.1558L129.906 64.3697L127.44 62.9455Z" fill="#3C763D"/>
<path d="M180.673 57.4271C180.673 57.4271 185.565 61.5857 184.601 63.3667C184.072 64.3451 183.309 65.2305 182.289 64.9579C181.503 64.7478 181.161 64.1237 180.993 63.2988C180.636 61.5521 183.019 60.6182 184.752 60.6771C187.144 60.7584 187.879 66.0246 187.879 66.0246" stroke="#3C763D" stroke-width="1.2"/>
<path d="M239.049 91.8816C236.346 91.307 233.233 95.1742 233.874 92.159C234.515 89.1437 237.226 87.1652 239.929 87.7398C242.633 88.3144 244.305 91.2246 243.664 94.2399C243.023 97.2552 241.753 92.4562 239.049 91.8816Z" fill="#3A89FF"/>
<path d="M308.949 121.505L311.426 122.954L309.195 124.372L311.278 125.574L309.137 126.821L311.245 128.445" stroke="#3A89FF"/>
<path d="M27.9465 204.186L23.002 204.969L22.2188 209.914L19.9461 205.453L15.0016 206.236L18.5415 202.696L16.2687 198.236L20.7292 200.509L24.2691 196.969L23.486 201.913L27.9465 204.186Z" fill="#3C763D"/>
<path d="M123.415 193.85L126.049 191.307L124.444 188.016L127.677 189.735L130.311 187.191L129.675 190.797L132.908 192.516L129.282 193.026L128.646 196.632L127.041 193.341L123.415 193.85Z" fill="#3C763D"/>
<ellipse cx="179.265" cy="170.561" rx="2.79225" ry="2.482" transform="rotate(80 179.265 170.561)" fill="#8A6D3B"/>
<path d="M259.427 122.702C261.49 121.312 260.932 116.879 262.483 119.179C264.035 121.479 263.621 124.471 261.558 125.862C259.496 127.253 256.567 126.516 255.015 124.216C253.464 121.916 257.365 124.093 259.427 122.702Z" fill="#3A89FF"/>
<path d="M352.331 205.046L356.61 201.742L357.514 206.64L361.085 203.85L361.752 208.469L366.077 205.932" stroke="#3A89FF"/>
<path d="M17.9114 215.4L20.5362 219.195L16.3208 219.746L18.5397 222.914L14.5729 223.276L16.5416 227.075" stroke="#3A89FF"/>
<path d="M150.387 212.958C150.387 212.958 142.764 214.115 141.909 211.838C141.44 210.587 141.238 209.199 142.288 208.489C143.098 207.942 143.933 208.124 144.813 208.621C146.678 209.674 145.647 212.569 144.228 214.093C142.27 216.198 136.918 212.715 136.918 212.715" stroke="#3C763D" stroke-width="1.2"/>
<path d="M180.823 224.999L180.163 222.648L182.368 223.098L181.804 221.13L183.852 221.632L183.521 219.391" stroke="#3A89FF"/>
<path d="M272.419 272.971C271.795 274.096 273.092 276.007 271.838 275.312C270.584 274.616 270.072 273.141 270.696 272.016C271.319 270.892 272.841 270.544 274.096 271.239C275.35 271.934 273.042 271.847 272.419 272.971Z" fill="#3A89FF"/>
<path d="M363.901 242.884L362.728 239.046L358.715 238.976L362.002 236.673L360.829 232.835L364.034 235.251L367.322 232.949L366.015 236.744L369.221 239.159L365.208 239.089L363.901 242.884Z" fill="#3C763D"/>
<rect width="3.0852" height="4.92846" transform="matrix(-0.512682 0.858579 -0.836865 -0.547409 47.6875 312.492)" fill="#DC1C4D"/>
<path d="M119.398 314.795L118.346 311.683L121.339 312.133L120.442 309.529L123.229 310.06L122.627 307.073" stroke="#3A89FF"/>
<path d="M218.556 345.756L215.779 342.328L211.661 343.909L214.064 340.209L211.287 336.781L215.548 337.922L217.951 334.223L218.182 338.628L222.443 339.77L218.325 341.351L218.556 345.756Z" fill="#3C763D"/>
<path d="M295.118 327.091L292.291 328.998L293.231 332.275L290.545 330.176L287.718 332.082L288.884 328.879L286.198 326.78L289.605 326.899L290.771 323.695L291.711 326.972L295.118 327.091Z" fill="#3C763D"/>
<g filter="url(#filter0_f)">
<circle cx="186.5" cy="186.5" r="150.5" fill="#DFF0D8"/>
</g>
<path d="M250.271 156.51L190.221 126.871C189.059 126.298 187.78 126 186.485 126C185.189 126 183.911 126.298 182.749 126.871L122.698 156.51C120.396 157.638 118.455 159.387 117.095 161.56C115.735 163.733 115.009 166.243 115 168.807V232.253C115 239.845 121.234 246 128.926 246H244.057C251.749 246 257.983 239.845 257.983 232.253V168.807C257.973 166.242 257.245 163.731 255.882 161.558C254.52 159.384 252.576 157.636 250.271 156.51V156.51Z" stroke="#3C763D" stroke-width="12" stroke-linecap="round" stroke-linejoin="round"/>
<path d="M235.057 224.005L190.633 189.451C189.185 188.325 187.403 187.714 185.569 187.714C183.735 187.714 181.953 188.325 180.505 189.451L136.078 224.005" stroke="#3C763D" stroke-width="12" stroke-linecap="round" stroke-linejoin="round"/>
<path d="M204.813 198.916L251.553 163.518" stroke="#3C763D" stroke-width="12" stroke-linecap="round" stroke-linejoin="round"/>
<path d="M119.581 163.518L167.352 199.604" stroke="#3C763D" stroke-width="12" stroke-linecap="round" stroke-linejoin="round"/>
</g>
<defs>
<filter id="filter0_f" x="-84" y="-84" width="541" height="541" filterUnits="userSpaceOnUse" color-interpolation-filters="sRGB">
<feFlood flood-opacity="0" result="BackgroundImageFix"/>
<feBlend mode="normal" in="SourceGraphic" in2="BackgroundImageFix" result="shape"/>
<feGaussianBlur stdDeviation="60" result="effect1_foregroundBlur"/>
</filter>
<clipPath id="clip0">
<rect width="373" height="373" fill="white"/>
</clipPath>
</defs>
</svg>
