<svg width="151" height="112" viewBox="0 0 151 112" fill="none" xmlns="http://www.w3.org/2000/svg">
<circle cx="51.0001" cy="53" r="30" fill="#DC1C4D"/>
<circle cx="99.0001" cy="41" r="16" fill="#DC1C4D"/>
<circle cx="78.0001" cy="85" r="8" fill="#DC1C4D"/>
<rect x="54.0001" y="40" width="43" height="32" fill="white"/>
<path fill-rule="evenodd" clip-rule="evenodd" d="M96.6189 67.8605C96.6189 68.1653 96.5604 68.4536 96.4763 68.7283L83.1069 54.3485L96.6189 43.8391V67.8605ZM56.9175 70.7822L70.4656 56.3452L75.6002 60.2262L80.5126 56.3212L94.2829 70.7822C94.0682 70.8317 57.1322 70.8317 56.9175 70.7822ZM54.5814 67.8605V43.8391L68.0935 54.3485L54.724 68.7283C54.64 68.4536 54.5814 68.1653 54.5814 67.8605ZM95.1176 40.8364L75.6002 55.8498L56.0828 40.8364H95.1176ZM93.6163 37.8337H57.5841C54.2676 37.8337 51.5787 40.5226 51.5787 43.8391V67.8605C51.5787 71.177 54.2676 73.8659 57.5841 73.8659H93.6163C96.9327 73.8659 99.6216 71.177 99.6216 67.8605V43.8391C99.6216 40.5226 96.9327 37.8337 93.6163 37.8337Z" fill="#DC1C4D"/>
</svg>
