<svg width="498" height="373" viewBox="0 0 498 373" fill="none" xmlns="http://www.w3.org/2000/svg">
<g clip-path="url(#clip0)">
<path d="M188.554 115.48L184.112 113.377L187.707 110.624L183.973 108.883L187.439 106.436L183.599 103.98" stroke="#3A89FF"/>
<rect width="2.571" height="4.10705" transform="matrix(0.977573 -0.210597 0.170391 0.985376 253.577 89.2397)" fill="#DC1C4D"/>
<path d="M292.629 92.0515L281.317 104.555L277.492 99.4784L292.629 92.0515Z" fill="#FCF8E3"/>
<path d="M310.485 82.5094L313.606 85.9757L317.867 84.0785L315.535 88.118L318.656 91.5843L314.094 90.6145L311.762 94.654L311.274 90.0152L306.711 89.0454L310.973 87.1482L310.485 82.5094Z" fill="#3C763D"/>
<path d="M154.087 144.111C154.087 144.111 153.692 137.89 155.586 137.362C156.626 137.072 157.759 137.007 158.256 137.903C158.64 138.594 158.435 139.254 157.972 139.928C156.993 141.355 154.734 140.321 153.606 139.071C152.049 137.345 155.232 133.28 155.232 133.28" stroke="#3C763D" stroke-width="1.2"/>
<path d="M202.537 131.247C204.827 131.488 207.07 128.012 206.802 130.567C206.533 133.122 204.459 134.997 202.168 134.757C199.877 134.516 198.238 132.25 198.507 129.695C198.775 127.14 200.246 131.007 202.537 131.247Z" fill="#3A89FF"/>
<path d="M237.477 119.746L238.882 115.665L235.435 113.068L239.75 113.144L241.155 109.063L242.417 113.19L246.732 113.265L243.197 115.741L244.459 119.868L241.012 117.271L237.477 119.746Z" fill="#3C763D"/>
<path d="M280.298 155.907L275.2 151.878L280.651 149.4L276.358 146.046L281.552 143.924L277.335 139.618" stroke="#3A89FF"/>
<path d="M326.548 150.456L327.838 147.691L325.606 145.61L328.635 145.982L329.925 143.216L330.507 146.211L333.536 146.583L330.867 148.063L331.449 151.058L329.217 148.977L326.548 150.456Z" fill="#3C763D"/>
<path d="M162.162 180.569L158.288 180.412L160.05 177.304L156.802 177.191L158.565 174.345L155.02 173.745" stroke="#3A89FF"/>
<path d="M188.261 179.902L188.119 183.394L185.318 181.806L185.216 184.734L182.651 183.145L182.11 186.341" stroke="#3A89FF"/>
<path d="M227.228 171.24L224.92 168.176L221.293 169.425L223.493 166.282L221.184 163.219L224.853 164.34L227.053 161.198L227.12 165.033L230.789 166.155L227.161 167.404L227.228 171.24Z" fill="#3C763D"/>
<path d="M268.638 191.59C268.638 191.59 267.262 184.907 269.235 184.046C270.318 183.573 271.536 183.331 272.212 184.226C272.733 184.917 272.61 185.663 272.212 186.464C271.368 188.16 268.762 187.383 267.349 186.2C265.398 184.567 268.228 179.676 268.228 179.676" stroke="#3C763D" stroke-width="1.2"/>
<rect width="3.79894" height="6.06862" transform="matrix(0.00274655 0.999996 -0.99927 -0.0382036 300.477 167.751)" fill="#DC1C4D"/>
<path d="M149.01 229.678L145.562 225.979L140.979 228.117L143.43 223.694L139.982 219.996L144.946 220.96L147.397 216.538L148.013 221.557L152.977 222.522L148.394 224.659L149.01 229.678Z" fill="#3C763D"/>
<path d="M212.599 220.158L200.758 218.381L202.232 213.937L212.599 220.158Z" fill="#DC1C4D"/>
<path d="M259.908 190.813L246.618 175.234L253.507 171.152L259.908 190.813Z" fill="#DC1C4D"/>
<path d="M293.893 233.349L294.93 254.075L287.183 252.986L293.893 233.349Z" fill="#FCF8E3"/>
<path d="M317.666 214.662L307.032 230.953L301.756 225.858L317.666 214.662Z" fill="#FCF8E3"/>
<ellipse cx="191.934" cy="243.024" rx="3.285" ry="2.92" transform="rotate(-159 191.934 243.024)" fill="#8A6D3B"/>
<path d="M181.704 263.739C181.704 263.739 187.516 271.278 185.57 273.563C184.5 274.819 183.122 275.868 181.727 275.158C180.651 274.611 180.348 273.601 180.358 272.353C180.379 269.71 184.122 269.09 186.617 269.709C190.062 270.565 189.504 278.428 189.504 278.428" stroke="#3C763D" stroke-width="1.2"/>
<path d="M247.406 261.019L246.375 256.437L250.564 257.524L249.678 253.688L253.56 254.859L253.15 250.523" stroke="#3A89FF"/>
<path d="M241.752 214.066L241.072 218.901L245.461 221.042L240.652 221.889L239.973 226.724L237.681 222.413L232.873 223.261L236.264 219.749L233.972 215.438L238.36 217.579L241.752 214.066Z" fill="#3C763D"/>
<path d="M297.859 271.156C299.06 271.198 300.101 269.308 300.054 270.647C300.007 271.986 298.996 273.038 297.795 272.996C296.594 272.954 295.658 271.835 295.705 270.495C295.752 269.156 296.658 271.115 297.859 271.156Z" fill="#3A89FF"/>
<rect width="4.10286" height="6.55411" transform="matrix(-0.377152 -0.926151 0.940818 -0.338911 102.24 47.1125)" fill="#DC1C4D"/>
<path d="M182.894 56.1418L179.91 44.0536L184.598 43.808L182.894 56.1418Z" fill="#FCF8E3"/>
<path d="M255.546 42.218L260.423 24.1893L266.751 27.2758L255.546 42.218Z" fill="#FCF8E3"/>
<path d="M325.625 15.3202L329.044 14.8397L329.644 11.4396L331.157 14.5427L334.576 14.0622L332.093 16.4606L333.606 19.5637L330.558 17.9428L328.074 20.3411L328.674 16.9411L325.625 15.3202Z" fill="#3C763D"/>
<rect width="2.8281" height="4.51775" transform="matrix(-0.717429 0.696631 -0.66667 -0.745353 393.648 6.6123)" fill="#DC1C4D"/>
<path d="M69.064 123.349C68.4102 121.553 65.001 121.145 67.0045 120.415C69.0081 119.686 71.1623 120.551 71.8162 122.348C72.47 124.144 71.3758 126.191 69.3722 126.921C67.3687 127.65 69.7179 125.146 69.064 123.349Z" fill="#3A89FF"/>
<path d="M171.415 84.7654L174.248 84.4676L174.84 81.6815L175.999 84.2836L178.831 83.9859L176.715 85.8918L177.873 88.4939L175.406 87.0697L173.29 88.9756L173.882 86.1895L171.415 84.7654Z" fill="#3C763D"/>
<path d="M224.649 79.247C224.649 79.247 229.54 83.4055 228.577 85.1865C228.047 86.165 227.285 87.0503 226.265 86.7777C225.479 86.5676 225.137 85.9435 224.968 85.1187C224.612 83.3719 226.994 82.438 228.727 82.4969C231.12 82.5782 231.855 87.8444 231.855 87.8444" stroke="#3C763D" stroke-width="1.2"/>
<path d="M283.025 113.701C280.321 113.127 277.209 116.994 277.85 113.979C278.491 110.964 281.202 108.985 283.905 109.56C286.608 110.134 288.28 113.044 287.64 116.06C286.999 119.075 285.728 114.276 283.025 113.701Z" fill="#3A89FF"/>
<path d="M352.925 143.325L355.401 144.773L353.17 146.192L355.253 147.394L353.113 148.641L355.221 150.265" stroke="#3A89FF"/>
<path d="M71.9221 226.006L66.9776 226.789L66.1944 231.733L63.9217 227.273L58.9771 228.056L62.517 224.516L60.2443 220.055L64.7048 222.328L68.2447 218.788L67.4616 223.733L71.9221 226.006Z" fill="#3C763D"/>
<path d="M167.391 215.67L170.025 213.126L168.42 209.835L171.653 211.554L174.287 209.011L173.651 212.617L176.884 214.336L173.258 214.845L172.622 218.452L171.017 215.16L167.391 215.67Z" fill="#3C763D"/>
<ellipse cx="223.241" cy="192.381" rx="2.79225" ry="2.482" transform="rotate(80 223.241 192.381)" fill="#8A6D3B"/>
<path d="M303.403 144.522C305.465 143.131 304.907 138.698 306.459 140.998C308.01 143.298 307.596 146.29 305.534 147.681C303.472 149.072 300.542 148.335 298.991 146.035C297.44 143.735 301.341 145.913 303.403 144.522Z" fill="#3A89FF"/>
<path d="M396.307 226.865L400.586 223.561L401.489 228.46L405.06 225.669L405.728 230.289L410.052 227.752" stroke="#3A89FF"/>
<path d="M61.887 237.22L64.5118 241.015L60.2964 241.566L62.5153 244.734L58.5485 245.096L60.5172 248.895" stroke="#3A89FF"/>
<path d="M194.362 234.777C194.362 234.777 186.74 235.934 185.885 233.658C185.415 232.407 185.213 231.019 186.264 230.309C187.074 229.762 187.909 229.944 188.789 230.441C190.653 231.494 189.623 234.389 188.204 235.913C186.245 238.018 180.893 234.535 180.893 234.535" stroke="#3C763D" stroke-width="1.2"/>
<path d="M224.799 246.819L224.139 244.467L226.344 244.918L225.779 242.95L227.827 243.452L227.497 241.211" stroke="#3A89FF"/>
<path d="M316.394 294.791C315.771 295.916 317.068 297.827 315.814 297.131C314.559 296.436 314.048 294.961 314.671 293.836C315.295 292.712 316.817 292.364 318.071 293.059C319.325 293.754 317.018 293.667 316.394 294.791Z" fill="#3A89FF"/>
<path d="M407.877 264.704L406.703 260.865L402.69 260.795L405.978 258.493L404.804 254.655L408.01 257.071L411.298 254.768L409.991 258.563L413.196 260.979L409.183 260.909L407.877 264.704Z" fill="#3C763D"/>
<rect width="3.0852" height="4.92846" transform="matrix(-0.512682 0.858579 -0.836865 -0.547409 91.6631 334.311)" fill="#DC1C4D"/>
<path d="M163.373 336.615L162.322 333.503L165.315 333.953L164.418 331.349L167.204 331.88L166.602 328.893" stroke="#3A89FF"/>
<path d="M262.531 367.576L259.755 364.148L255.636 365.729L258.039 362.029L255.263 358.6L259.524 359.742L261.927 356.042L262.158 360.448L266.419 361.59L262.3 363.171L262.531 367.576Z" fill="#3C763D"/>
<path d="M339.094 348.911L336.267 350.817L337.207 354.095L334.52 351.996L331.694 353.902L332.86 350.698L330.173 348.599L333.58 348.718L334.746 345.515L335.686 348.792L339.094 348.911Z" fill="#3C763D"/>
<path d="M437.19 312.794L433.417 309.812L437.451 307.978L434.274 305.497L438.117 303.926L434.997 300.74" stroke="#3A89FF"/>
<g filter="url(#filter0_f)">
<circle cx="248.5" cy="186.5" r="150.5" fill="#FFD3DF"/>
</g>
<path fill-rule="evenodd" clip-rule="evenodd" d="M319 226C319 227.015 318.805 227.975 318.525 228.89L274 181L319 146V226ZM186.78 235.73L231.9 187.65L249 200.575L265.36 187.57L311.22 235.73C310.505 235.895 187.495 235.895 186.78 235.73ZM179 226V146L224 181L179.475 228.89C179.195 227.975 179 227.015 179 226ZM314 136L249 186L184 136H314ZM309 126H189C177.955 126 169 134.955 169 146V226C169 237.045 177.955 246 189 246H309C320.045 246 329 237.045 329 226V146C329 134.955 320.045 126 309 126Z" fill="#DC1C4D"/>
</g>
<defs>
<filter id="filter0_f" x="-22" y="-84" width="541" height="541" filterUnits="userSpaceOnUse" color-interpolation-filters="sRGB">
<feFlood flood-opacity="0" result="BackgroundImageFix"/>
<feBlend mode="normal" in="SourceGraphic" in2="BackgroundImageFix" result="shape"/>
<feGaussianBlur stdDeviation="60" result="effect1_foregroundBlur"/>
</filter>
<clipPath id="clip0">
<rect width="497.333" height="373" fill="white"/>
</clipPath>
</defs>
</svg>
