<svg width="461" height="345" viewBox="0 0 461 345" fill="none" xmlns="http://www.w3.org/2000/svg">
<g clip-path="url(#clip0_207_70885)">
<path d="M414.5 345H46.5C50.5324 331.827 57.9789 320.652 68.4762 317.337C83.8323 312.494 100.083 325.81 115.404 320.803C124.109 317.962 130.962 309.681 138.163 302.804C165.33 276.857 202.56 269.188 234.707 282.922C251.511 290.097 266.823 302.645 284.037 307.981C306.296 314.882 329.574 309.157 352.463 308.216C374.757 307.297 406.699 318.933 414.5 345Z" fill="#FFEAEF"/>
<path d="M289.101 211.266H161.354V0H261.914L289.101 36.8051V211.266Z" fill="#FFEAEF"/>
<path d="M261.914 0V36.8051H289.101L261.914 0Z" fill="#FFEAEF"/>
<path d="M389.654 180.919H306.418V43.2637H371.94L389.654 67.2453V180.919Z" fill="#FFEAEF"/>
<path d="M371.94 43.2637V67.2453H389.655L371.94 43.2637Z" fill="#FFEAEF"/>
<path d="M144.038 180.919H60.8018V43.2637H126.324L144.038 67.2453V180.919Z" fill="#FFEAEF"/>
<path d="M126.324 43.2637V67.2453H144.038L126.324 43.2637Z" fill="#FFEAEF"/>
<path d="M151.241 157.853C150.734 157.852 150.236 157.68 149.797 157.355C149.358 157.03 148.994 156.563 148.74 156.001C148.487 155.438 148.353 154.8 148.353 154.151C148.352 153.501 148.485 152.863 148.738 152.3L161.27 124.405C161.457 123.978 161.709 123.602 162.01 123.301C162.311 122.999 162.656 122.776 163.025 122.646C163.393 122.516 163.778 122.481 164.158 122.543C164.537 122.605 164.903 122.763 165.234 123.008C165.566 123.252 165.856 123.578 166.089 123.967C166.321 124.356 166.491 124.8 166.588 125.274C166.686 125.748 166.709 126.241 166.656 126.727C166.604 127.212 166.477 127.679 166.282 128.101L153.75 155.996C153.496 156.561 153.131 157.03 152.69 157.357C152.25 157.683 151.75 157.854 151.241 157.853Z" fill="#DE1F4F"/>
<path d="M170.636 129.801C170.174 129.801 169.709 129.775 169.24 129.725C164.941 129.255 160.963 126.616 158.183 122.389C155.402 118.163 154.047 112.694 154.413 107.187C154.78 101.68 156.84 96.585 160.14 93.0233C163.439 89.4615 167.708 87.7246 172.007 88.1947C176.185 88.652 180.065 91.1586 182.835 95.1915C185.606 99.2245 187.054 104.472 186.877 109.84C186.7 115.207 184.912 120.279 181.885 123.999C178.859 127.718 174.829 129.797 170.635 129.801H170.636ZM170.617 95.5271C167.872 95.5222 165.236 96.8946 163.272 99.3502C161.308 101.806 160.173 105.149 160.11 108.664C160.047 112.179 161.062 115.585 162.936 118.153C164.81 120.721 167.395 122.246 170.137 122.402C172.879 122.558 175.559 121.332 177.604 118.986C179.648 116.641 180.894 113.363 181.074 109.855C181.255 106.347 180.355 102.888 178.569 100.219C176.782 97.5506 174.251 95.8846 171.517 95.5782C171.215 95.5435 170.914 95.5271 170.617 95.5271Z" fill="#DE1F4F"/>
<path d="M130.29 338.504L121.969 337.237C122.343 333.202 122.767 328.355 122.796 327.561C122.796 327.612 122.796 327.654 122.796 327.686H131.176C131.174 328.006 131.174 328.986 130.29 338.504Z" fill="#E98862"/>
<path d="M96.8995 339.786L88.5195 339.752C88.5195 339.752 88.5471 328.667 88.5471 327.685H96.927C96.9274 328.67 96.8995 339.786 96.8995 339.786Z" fill="#E98862"/>
<path d="M133.381 334.791C132.688 312.295 132.646 288.667 132.429 266.111C129.545 241.783 128.032 215.099 124.474 190.942L124.368 190.982L124.056 188.257L93.6975 185.859C93.6975 185.859 92.9058 204.915 92.6297 211.265C91.15 245.303 88.1472 300.014 86.3599 334.505L101.072 336.097C103.7 302.176 107.984 248.136 110.358 214.702C112.964 231.738 115.422 250.923 117.735 268.161C118.241 290.181 118.665 313.129 118.619 335.114L133.381 334.791Z" fill="#262626"/>
<path d="M107.086 343.938C107.521 343.935 107.937 343.711 108.244 343.316C108.55 342.92 108.72 342.385 108.719 341.828C108.719 341.777 108.719 341.726 108.713 341.675C108.689 341.276 108.576 340.894 108.388 340.575C108.2 340.255 107.945 340.011 107.652 339.871L97.8973 335.686C97.7083 335.606 97.5081 335.579 97.3103 335.608C97.1125 335.636 96.9218 335.718 96.7512 335.85C95.4102 337.041 93.8062 337.651 92.1749 337.588C90.9044 337.472 89.6848 336.901 88.6554 335.94C88.5648 335.845 88.4551 335.785 88.339 335.767C88.2229 335.749 88.1052 335.774 87.9995 335.838C87.8938 335.902 87.8046 336.004 87.7422 336.13C87.6798 336.257 87.6467 336.404 87.647 336.554V342.663C87.647 343.026 87.7596 343.375 87.96 343.631C88.1604 343.888 88.4322 344.032 88.7156 344.032H88.7196L107.086 343.938Z" fill="#FFEAEF"/>
<path d="M140.5 343.938C140.934 343.936 141.351 343.712 141.657 343.316C141.963 342.921 142.133 342.386 142.131 341.829C142.131 341.778 142.129 341.727 142.126 341.676C142.102 341.277 141.989 340.895 141.801 340.576C141.613 340.256 141.358 340.012 141.066 339.872L131.312 335.687C131.123 335.607 130.923 335.58 130.725 335.609C130.527 335.637 130.336 335.719 130.166 335.851C128.825 337.042 127.221 337.652 125.589 337.589C124.319 337.473 123.099 336.902 122.069 335.941C121.979 335.846 121.869 335.786 121.753 335.768C121.637 335.75 121.519 335.775 121.414 335.839C121.308 335.903 121.219 336.004 121.156 336.131C121.094 336.258 121.061 336.405 121.061 336.555V342.664C121.061 343.027 121.174 343.376 121.374 343.632C121.574 343.889 121.846 344.033 122.13 344.033H122.134L140.5 343.938Z" fill="#FFEAEF"/>
<path d="M103.534 133.446C103.534 133.446 106.62 131.35 105.931 120.587L112.306 119.072C112.306 119.072 111.588 128.723 114.815 131.786L103.534 133.446Z" fill="#E98862"/>
<path d="M102.313 116.413C102.755 119.678 104.146 122.771 106.394 123.825C109.064 125.077 111.041 125.162 114.119 125.162C118.319 125.162 118.18 119.551 118.298 113.896C118.418 108.222 118.064 102.13 116.404 100.151C113.092 96.203 103.366 98.7032 102.183 105.308C101.572 108.724 101.892 113.304 102.313 116.413Z" fill="#E98862"/>
<path d="M120.893 100.089C120.191 96.7885 118.001 95.1762 114.38 96.3887C111.804 97.2511 111.478 96.4756 109.297 95.1307C108.048 94.3604 103.95 94.712 102.936 98.2653C101.849 102.072 98.4861 98.9891 98.1736 105.19C97.9123 110.38 99.2818 117.799 102.034 121.973C102.987 123.419 104.541 125.151 105.745 125.579C106.927 126 112.039 125.63 112.536 125.255C114.977 123.399 114.726 114.883 114.339 109.421C114.276 108.522 114.404 107.028 116.205 107.028C117.442 107.028 118.127 106.991 118.766 106.401C118.767 106.401 121.596 103.389 120.893 100.089Z" fill="#0F1011"/>
<path d="M116.757 114.969C116.806 115.796 116.597 116.614 116.176 117.245C115.756 117.875 115.157 118.267 114.512 118.335C113.867 118.402 113.227 118.14 112.732 117.605C112.237 117.07 111.927 116.306 111.871 115.48C111.839 115.076 111.871 114.669 111.962 114.28C112.054 113.892 112.205 113.531 112.405 113.217C112.606 112.904 112.853 112.644 113.132 112.453C113.412 112.261 113.718 112.142 114.033 112.102C114.06 112.099 114.087 112.096 114.112 112.094C115.861 112.023 116.646 113.24 116.757 114.969Z" fill="#E98862"/>
<path d="M151.489 150.202C151.489 150.202 158.214 146.188 159.27 145.103C162.991 141.286 162.913 138.441 162.41 137.238C161.817 135.816 154.838 140.509 154.838 140.509C154.838 140.509 156.191 138.107 155.461 137.447C155.161 137.177 154.748 137.428 153.541 138.973C152.165 140.735 149.807 143.207 149.807 143.207L151.489 150.202Z" fill="#E98862"/>
<path d="M94.0715 161.163C94.4568 163.143 94.6674 165.173 94.6992 167.214C94.6992 177.948 90.9082 182.763 91.1876 188.274C91.6265 196.936 124.48 194.89 126.154 189.969C127.877 184.895 124.379 181.769 124.532 165.172C124.549 163.366 124.657 161.477 124.808 159.553L131.272 174.377C131.611 175.153 132.089 175.814 132.668 176.305C133.246 176.796 133.908 177.102 134.598 177.198C135.288 177.295 135.986 177.178 136.633 176.859C137.281 176.539 137.859 176.025 138.32 175.361L156.231 148.524L149.506 142.466L135.883 162.1L125.229 137.665C124.22 133.805 121.923 131.22 117.238 130.963C115.636 130.875 107.819 130.86 102.095 130.86C98.2495 130.86 95.0926 132.372 93.2694 134.707L93.2418 134.742C92.5734 135.613 92.058 136.658 91.7303 137.805C91.4025 138.953 91.27 140.177 91.3416 141.395C91.5192 144.859 92.111 151.733 94.0715 161.163Z" fill="#367CFF"/>
<path d="M212.324 59.5752L208.95 55.2539L187.064 83.2906L190.437 87.6119L212.324 59.5752Z" fill="white"/>
<path d="M208.95 87.6113L212.323 83.29L190.437 55.2534L187.064 59.5746L208.95 87.6113Z" fill="white"/>
<path d="M263.394 59.5752L260.021 55.2539L238.134 83.2906L241.507 87.6118L263.394 59.5752Z" fill="white"/>
<path d="M260.02 87.6123L263.394 83.291L241.507 55.2543L238.134 59.5756L260.02 87.6123Z" fill="white"/>
<path d="M203.089 135.526L199.563 131.374C199.95 130.834 209.22 118.149 226.625 118.149C244.132 118.149 252.299 130.991 252.638 131.538L248.889 135.354C248.61 134.913 241.711 124.284 226.625 124.284C211.418 124.284 203.17 135.413 203.089 135.526Z" fill="white"/>
<path d="M344.982 226.598L340.869 227.844L346.025 255.78L350.138 254.534L344.982 226.598Z" fill="#FFEAEF"/>
<path d="M349.507 224.432L345.976 248.952L348.259 249.492L351.79 224.971L349.507 224.432Z" fill="#FFEAEF"/>
<path d="M349.508 224.424L349.106 227.129L351.387 227.685L351.789 224.98L349.508 224.424Z" fill="#FFEAEF"/>
<path d="M342.438 230.659L341.17 231.299L348.569 255.357L349.836 254.717L342.438 230.659Z" fill="#DE1F4F"/>
<path d="M351.97 241.189H340.817V259.449H351.97V241.189Z" fill="#FFEAEF"/>
<path d="M311.046 292.432H306.875V345H311.046V292.432Z" fill="#FFEAEF"/>
<path d="M307.613 292.432H303.441V345H307.613V292.432Z" fill="#FFEAEF"/>
<path d="M363.003 292.432H358.832V345H363.003V292.432Z" fill="#FFEAEF"/>
<path d="M359.571 292.432H355.399V345H359.571V292.432Z" fill="#FFEAEF"/>
<path d="M322.487 292.432H318.315V345H322.487V292.432Z" fill="#FFEAEF"/>
<path d="M319.054 292.432H314.883V345H319.054V292.432Z" fill="#FFEAEF"/>
<path d="M374.445 292.432H370.273V345H374.445V292.432Z" fill="#FFEAEF"/>
<path d="M371.012 292.432H366.841V345H371.012V292.432Z" fill="#FFEAEF"/>
<path d="M374.445 258.782H318.342V293.691H374.445V258.782Z" fill="#FFEAEF"/>
<path d="M359.545 258.782H303.441V293.691H359.545V258.782Z" fill="#FFEAEF"/>
<g opacity="0.53">
<path d="M356.527 263.745H306.46V288.575H356.527V263.745Z" fill="#FFEAEF"/>
</g>
<path d="M331.493 279.009C332.721 279.009 333.716 277.734 333.716 276.161C333.716 274.588 332.721 273.312 331.493 273.312C330.265 273.312 329.27 274.588 329.27 276.161C329.27 277.734 330.265 279.009 331.493 279.009Z" fill="white"/>
</g>
<defs>
<clipPath id="clip0_207_70885">
<rect width="368" height="345" fill="white" transform="translate(46.5)"/>
</clipPath>
</defs>
</svg>
