<svg width="64" height="64" viewBox="0 0 64 64" fill="none" xmlns="http://www.w3.org/2000/svg">
<circle cx="22" cy="22" r="22" fill="#FCF8E3"/>
<circle cx="54" cy="10" r="10" fill="#FCF8E3"/>
<circle cx="51.5" cy="47.5" r="7.5" fill="#FCF8E3"/>
<path d="M53.4606 43.9287C50.2506 40 47.9844 38 47.9844 27.1688C47.9844 17.25 42.9194 13.7162 38.7506 12C38.1969 11.7725 37.6756 11.25 37.5069 10.6812C36.7756 8.1925 34.7256 6 32.0006 6C29.2756 6 27.2244 8.19375 26.5006 10.6838C26.3319 11.2588 25.8106 11.7725 25.2569 12C21.0831 13.7188 16.0231 17.24 16.0231 27.1688C16.0169 38 13.7506 40 10.5406 43.9287C9.21062 45.5562 10.3756 48 12.7019 48H51.3119C53.6256 48 54.7831 45.5487 53.4606 43.9287Z" stroke="#8A6D3B" stroke-width="4" stroke-linecap="round" stroke-linejoin="round"/>
<path d="M40 48V50C40 52.1217 39.1571 54.1566 37.6569 55.6569C36.1566 57.1571 34.1217 58 32 58C29.8783 58 27.8434 57.1571 26.3431 55.6569C24.8429 54.1566 24 52.1217 24 50V48" stroke="#8A6D3B" stroke-width="4" stroke-linecap="round" stroke-linejoin="round"/>
</svg>
