<svg width="505" height="250" viewBox="0 0 505 250" fill="none" xmlns="http://www.w3.org/2000/svg">
<circle cx="254.958" cy="129.581" r="120.419" fill="#FCF8E3"/>
<circle cx="440.166" cy="64.7906" r="64.7906" fill="#FCF8E3"/>
<circle cx="398.603" cy="208.77" r="29.4503" fill="#FCF8E3"/>
<path d="M297.165 176.702H291.93V162.958C291.93 155.366 284.338 148.953 277.008 142.67C274.521 140.576 270.987 137.435 269.678 135.864V123.168C270.987 121.728 274.521 118.455 277.008 116.361C284.338 110.209 291.93 103.796 291.93 96.2042V82.4607H297.165C300.045 82.4607 302.401 80.1047 302.401 77.2251C302.401 74.3455 300.045 71.9895 297.165 71.9895H213.396C210.516 71.9895 208.16 74.3455 208.16 77.2251C208.16 80.1047 210.516 82.4607 213.396 82.4607H218.631V96.2042C218.631 103.796 226.223 110.209 233.553 116.492C236.04 118.586 239.574 121.859 240.883 123.298V135.995C239.574 137.435 236.04 140.707 233.553 142.801C226.223 148.953 218.631 155.366 218.631 162.958V176.702H213.396C210.516 176.702 208.16 179.058 208.16 181.937C208.16 184.817 210.516 187.173 213.396 187.173H297.165C300.045 187.173 302.401 184.817 302.401 181.937C302.401 179.058 300.045 176.702 297.165 176.702ZM229.103 162.958C229.103 160.209 236.432 153.927 240.359 150.654C246.642 145.288 251.354 141.361 251.354 136.518V122.644C251.354 117.67 246.642 113.743 240.359 108.377C236.432 105.105 229.103 98.9529 229.103 96.0733V82.4607H281.459V96.2042C281.459 98.9529 274.129 105.236 270.202 108.508C263.919 113.874 259.207 117.801 259.207 122.644V136.387C259.207 141.361 263.919 145.288 270.202 150.654C274.129 153.927 281.459 160.079 281.459 162.958V176.702H229.103V162.958ZM267.061 94.2408V91.623C267.061 89.1361 269.155 87.0419 271.642 87.0419C274.129 87.0419 276.223 89.0052 276.223 91.623V94.2408C276.223 96.7277 274.129 98.822 271.642 98.822C269.155 98.822 267.061 96.7277 267.061 94.2408Z" fill="#8A6D3B"/>
<g opacity="0.5">
<path opacity="0.5" d="M220.351 213.217C206.673 216.947 200.286 192.34 177.799 192.811C176.79 192.872 175.782 192.679 174.867 192.249C173.952 191.819 173.16 191.166 172.563 190.35C167.864 182.654 152.93 162.196 132.681 173.478C122.21 179.303 120.05 188.557 118.676 197.693C117.013 208.635 109.972 215.834 94.3565 210.415C80.1418 205.468 69.1863 207.654 55.6654 212.719C21.5161 225.52 21.4637 211.908 0.966353 225.481C0.577803 225.683 0.281344 226.026 0.137745 226.44C-0.00585373 226.854 0.0143393 227.307 0.194147 227.706C0.457738 228.126 0.827994 228.468 1.26721 228.698C1.70644 228.928 2.19885 229.038 2.69411 229.015C44.4349 229.957 270.822 234.8 269.239 228.858C267.472 222.366 234.749 209.29 220.351 213.217Z" fill="#8A6D3B"/>
<path opacity="0.3" d="M460.483 137.52C451.321 133.305 428.847 117.886 410.562 126.97C401.845 131.342 396.962 128.017 393.625 123.266C392.165 121.219 390.175 119.61 387.869 118.611C385.562 117.612 383.027 117.262 380.536 117.598C377.067 118.082 373.991 120.216 370.379 118.999C367.119 117.886 364.449 114.967 361.216 113.619C353.794 110.676 345.566 110.476 338.01 113.056C326.517 116.891 320.562 130.334 308.023 131.878C301.897 132.637 295.627 132.69 289.698 134.719C287.355 135.53 285.771 140.661 286.792 142.808C286.972 143.175 287.216 143.507 287.512 143.789C291.439 147.624 305.313 145.7 309.554 145.844C325.68 146.394 341.832 146.564 357.983 146.891C377.181 147.275 396.4 147.463 415.64 147.454C432.25 147.454 448.86 147.454 465.457 146.983C473.311 146.76 483.677 147.755 491.256 144.928C491.564 144.855 491.857 144.726 492.119 144.548C497.748 138.933 469.633 141.747 460.483 137.52Z" fill="#8A6D3B"/>
<path opacity="0.8" d="M185.462 107.049C179.128 104.153 163.592 93.56 150.951 99.8008C144.925 102.804 141.55 100.52 139.243 97.2559C138.234 95.8499 136.858 94.7443 135.264 94.0581C133.669 93.3719 131.916 93.1313 130.194 93.3621C127.797 93.6949 125.67 95.1606 123.173 94.3243C120.92 93.56 119.074 91.5546 116.839 90.6284C111.708 88.6062 106.02 88.4691 100.796 90.2417C92.8519 92.8765 88.7349 102.112 80.0665 103.173C75.8319 103.695 71.4977 103.731 67.3988 105.124C65.7792 105.682 64.6844 109.207 65.3901 110.682C65.5145 110.934 65.683 111.162 65.8878 111.356C68.6023 113.991 78.1936 112.669 81.1252 112.768C92.2728 113.146 103.439 113.263 114.604 113.487C127.875 113.751 141.161 113.88 154.462 113.874C165.945 113.874 177.427 113.874 188.9 113.55C194.329 113.398 201.496 114.081 206.735 112.139C206.948 112.088 207.15 112 207.332 111.878C211.223 108.02 191.787 109.953 185.462 107.049Z" fill="#8A6D3B"/>
</g>
</svg>
