<svg width="32" height="32" viewBox="0 0 32 32" fill="none" xmlns="http://www.w3.org/2000/svg">
<g clip-path="url(#clip0)">
<g opacity="0.5">
<path d="M7.99946 12.8891C9.8439 12.8891 11.3217 11.4002 11.3217 9.55575C11.3217 7.7113 9.8439 6.22241 7.99946 6.22241C6.15501 6.22241 4.66612 7.7113 4.66612 9.55575C4.66612 11.4002 6.15501 12.8891 7.99946 12.8891ZM7.99946 15.1113C5.41057 15.1113 0.22168 16.4113 0.22168 19.0002V21.778H15.7772V19.0002C15.7772 16.4113 10.5883 15.1113 7.99946 15.1113Z" fill="#9DABB9"/>
</g>
<g opacity="0.5">
<path d="M23.6831 12.8891C25.5275 12.8891 27.0053 11.4002 27.0053 9.55575C27.0053 7.7113 25.5275 6.22241 23.6831 6.22241C21.8386 6.22241 20.3497 7.7113 20.3497 9.55575C20.3497 11.4002 21.8386 12.8891 23.6831 12.8891ZM23.6831 15.1113C21.0942 15.1113 15.9053 16.4113 15.9053 19.0002V21.778H31.4608V19.0002C31.4608 16.4113 26.2719 15.1113 23.6831 15.1113Z" fill="#9DABB9"/>
</g>
<path d="M16.2103 15.3683C18.3071 15.3683 19.9871 13.6756 19.9871 11.5788C19.9871 9.48194 18.3071 7.78931 16.2103 7.78931C14.1134 7.78931 12.4208 9.48194 12.4208 11.5788C12.4208 13.6756 14.1134 15.3683 16.2103 15.3683ZM16.2103 17.8946C13.2671 17.8946 7.36816 19.3725 7.36816 22.3156V25.4735H25.0524V22.3156C25.0524 19.3725 19.1534 17.8946 16.2103 17.8946Z" fill="#9DABB9"/>
</g>
<defs>
<clipPath id="clip0">
<rect width="32" height="32" rx="4" fill="white"/>
</clipPath>
</defs>
</svg>
