<svg width="138" height="120" viewBox="0 0 138 120" fill="none" xmlns="http://www.w3.org/2000/svg">
<path d="M106.071 13.7859L68.6484 0.0275879L31.5725 13.6043C26.8397 15.8937 22.6847 17.2695 22.6847 21.7877V44.3018C22.6068 60.0685 26.8288 75.558 34.8965 89.1044C41.8142 100.617 52.5072 112.466 69.0171 120C84.1678 114.954 95.4771 101.498 102.395 89.9849C110.455 76.4364 114.669 60.947 114.585 45.1824V24.9356C114.585 18.4857 111.255 15.3378 106.071 13.7859Z" fill="#DC1C4D"/>
<g opacity="0.8">
<path opacity="0.9" d="M106.071 13.7859L68.6484 0.0275879L31.5725 13.6043C26.8397 15.8937 22.6847 17.2695 22.6847 21.7877V44.3018C22.6068 60.0685 26.8288 75.558 34.8965 89.1044C41.8142 100.617 52.5072 112.466 69.0171 120C84.1678 114.954 95.4771 101.498 102.395 89.9849C110.455 76.4364 114.669 60.947 114.585 45.1824V24.9356C114.585 18.4857 111.255 15.3378 106.071 13.7859Z" fill="white"/>
</g>
<path d="M91.4927 70.7784H84.6191V33.3558C84.6191 29.1172 82.9353 25.0522 79.9382 22.0551C76.941 19.0579 72.876 17.3741 68.6374 17.3741C64.3988 17.3741 60.3338 19.0579 57.3367 22.0551C54.3395 25.0522 52.6558 29.1172 52.6558 33.3558V70.7784H45.7821V33.3558C45.7821 27.2942 48.1901 21.4809 52.4763 17.1947C56.7625 12.9085 62.5758 10.5005 68.6374 10.5005C74.699 10.5005 80.5124 12.9085 84.7986 17.1947C89.0848 21.4809 91.4927 27.2942 91.4927 33.3558V70.7784Z" fill="#DC1C4D"/>
<g opacity="0.4">
<path opacity="0.4" d="M91.4927 70.7784H84.6191V33.3558C84.6191 29.1172 82.9353 25.0522 79.9382 22.0551C76.941 19.0579 72.876 17.3741 68.6374 17.3741C64.3988 17.3741 60.3338 19.0579 57.3367 22.0551C54.3395 25.0522 52.6558 29.1172 52.6558 33.3558V70.7784H45.7821V33.3558C45.7821 27.2942 48.1901 21.4809 52.4763 17.1947C56.7625 12.9085 62.5758 10.5005 68.6374 10.5005C74.699 10.5005 80.5124 12.9085 84.7986 17.1947C89.0848 21.4809 91.4927 27.2942 91.4927 33.3558V70.7784Z" fill="black"/>
</g>
<path d="M96.2476 54.1252H41.0328C39.2669 54.1252 37.8353 55.5568 37.8353 57.3227V90.4527C37.8353 92.2186 39.2669 93.6501 41.0328 93.6501H96.2476C98.0135 93.6501 99.445 92.2186 99.445 90.4527V57.3227C99.445 55.5568 98.0135 54.1252 96.2476 54.1252Z" fill="#DC1C4D"/>
<g opacity="0.5">
<path opacity="0.5" d="M73.7886 68.7422C73.7892 67.7837 73.5223 66.844 73.0181 66.0289C72.5138 65.2138 71.7922 64.5555 70.9342 64.1282C70.0763 63.7008 69.1161 63.5213 68.1617 63.6098C67.2074 63.6983 66.2966 64.0513 65.5319 64.6292C64.7672 65.2071 64.1789 65.9868 63.8331 66.8808C63.4874 67.7747 63.3979 68.7474 63.5748 69.6894C63.7517 70.6315 64.1879 71.5054 64.8343 72.2131C65.4808 72.9208 66.3119 73.434 67.2341 73.6951V81.3998H70.0408V73.6951C71.1202 73.3914 72.0708 72.743 72.7474 71.8487C73.424 70.9545 73.7897 69.8635 73.7886 68.7422Z" fill="black"/>
</g>
<path d="M41.1208 89.9024C40.9778 89.9024 40.8622 83.2984 40.8622 75.181C40.8622 67.0636 40.9778 60.4596 41.1208 60.4596C41.2639 60.4596 41.374 67.0636 41.374 75.181C41.374 83.2984 41.2749 89.9024 41.1208 89.9024Z" fill="#FAFAFA"/>
<path d="M64.6036 75.3406C64.6036 75.3406 64.3614 75.258 63.9982 74.9994C63.4904 74.6175 63.0433 74.1611 62.6719 73.6456C62.0315 72.7972 61.5862 71.8179 61.3677 70.7776C61.1492 69.7374 61.1629 68.6617 61.4078 67.6273C61.6527 66.593 62.1229 65.6254 62.7846 64.7936C63.4464 63.9617 64.2836 63.2862 65.2364 62.815C65.7985 62.5146 66.4037 62.303 67.0305 62.1876C67.2565 62.1269 67.4926 62.1138 67.7239 62.1491C67.7239 62.2482 66.7444 62.3417 65.4126 63.1177C64.5392 63.5999 63.7764 64.2593 63.173 65.0537C62.5697 65.8482 62.1391 66.76 61.909 67.7307C61.6789 68.7013 61.6544 69.7094 61.8369 70.6901C62.0195 71.6709 62.4051 72.6026 62.9691 73.4254C63.8386 74.7352 64.6696 75.2635 64.6036 75.3406Z" fill="#FAFAFA"/>
<path d="M2.37193 99.1645C3.68192 99.1645 4.74387 98.1026 4.74387 96.7926C4.74387 95.4826 3.68192 94.4207 2.37193 94.4207C1.06195 94.4207 0 95.4826 0 96.7926C0 98.1026 1.06195 99.1645 2.37193 99.1645Z" fill="#DC1C4D"/>
<path d="M19.036 102.912C19.036 103.032 19.0005 103.149 18.934 103.249C18.8675 103.348 18.773 103.426 18.6623 103.472C18.5517 103.517 18.43 103.529 18.3126 103.506C18.1952 103.483 18.0873 103.425 18.0026 103.34C17.918 103.256 17.8603 103.148 17.8369 103.03C17.8136 102.913 17.8256 102.791 17.8714 102.681C17.9172 102.57 17.9948 102.475 18.0944 102.409C18.1939 102.342 18.311 102.307 18.4307 102.307C18.5104 102.306 18.5894 102.321 18.6632 102.352C18.737 102.382 18.804 102.426 18.8604 102.483C18.9167 102.539 18.9613 102.606 18.9915 102.68C19.0216 102.754 19.0368 102.833 19.036 102.912Z" fill="#DC1C4D"/>
<path d="M126.026 68.7476C126.026 68.8673 125.991 68.9844 125.924 69.0839C125.858 69.1835 125.763 69.2611 125.652 69.3069C125.542 69.3527 125.42 69.3647 125.303 69.3413C125.185 69.318 125.077 69.2603 124.993 69.1757C124.908 69.091 124.85 68.9831 124.827 68.8657C124.804 68.7483 124.816 68.6266 124.862 68.5159C124.907 68.4053 124.985 68.3108 125.084 68.2443C125.184 68.1777 125.301 68.1422 125.421 68.1422C125.5 68.1415 125.58 68.1567 125.653 68.1868C125.727 68.217 125.794 68.2615 125.85 68.3179C125.907 68.3743 125.951 68.4413 125.982 68.5151C126.012 68.5888 126.027 68.6679 126.026 68.7476Z" fill="#DC1C4D"/>
<path d="M134.391 40.6311C134.392 40.7511 134.358 40.8687 134.292 40.9689C134.226 41.0692 134.132 41.1476 134.021 41.1943C133.911 41.241 133.789 41.2537 133.671 41.231C133.553 41.2083 133.445 41.1511 133.36 41.0666C133.275 40.9822 133.216 40.8743 133.193 40.7568C133.169 40.6392 133.18 40.5172 133.226 40.4062C133.272 40.2953 133.349 40.2004 133.449 40.1337C133.549 40.0669 133.666 40.0313 133.786 40.0313C133.945 40.0312 134.099 40.0943 134.212 40.2066C134.325 40.319 134.39 40.4715 134.391 40.6311Z" fill="#DC1C4D"/>
</svg>
