<svg width="523" height="518" viewBox="0 0 523 518" fill="none" xmlns="http://www.w3.org/2000/svg">
<g filter="url(#filter0_f)">
<path fill-rule="evenodd" clip-rule="evenodd" d="M266.127 152.703C286.881 153.799 309.141 142.431 327.213 152.704C345.402 163.043 350.218 186.391 358.903 205.438C367.586 224.48 376.536 243.054 377.934 263.94C379.586 288.614 384.857 318.159 367.637 335.892C350.311 353.734 319.687 342.139 295.691 348.633C272.436 354.926 252.73 379.014 229.319 373.325C205.96 367.649 196.071 340.347 181.827 320.966C168.738 303.156 154.879 286.071 149.445 264.641C143.596 241.568 140.359 216.52 149.808 194.676C159.326 172.671 178.217 154.158 200.753 146.026C221.785 138.437 243.801 151.524 266.127 152.703Z" fill="#FFD3DF"/>
</g>
<path d="M212.022 152.764C212.181 148.119 214.178 143.726 217.574 140.552C220.97 137.378 225.488 135.683 230.133 135.838L379.161 140.825C383.12 140.957 386.877 142.605 389.655 145.428C392.433 148.251 394.02 152.034 394.088 155.994L397.844 372.411C397.871 373.938 397.59 375.455 397.018 376.871C396.447 378.288 395.596 379.575 394.517 380.656C393.439 381.737 392.153 382.59 390.738 383.164C389.323 383.738 387.807 384.022 386.279 383.999L215.389 381.414C213.953 381.392 212.535 381.083 211.219 380.507C209.903 379.931 208.714 379.098 207.723 378.058C206.732 377.018 205.959 375.79 205.447 374.448C204.936 373.105 204.697 371.674 204.744 370.238L212.022 152.764Z" fill="#A70D34"/>
<path d="M240.478 378.601L221.375 377.713C218.28 377.558 215.369 376.196 213.267 373.919C211.165 371.642 210.039 368.633 210.13 365.535L211.095 336.679C211.095 336.557 211.144 336.441 211.229 336.355C211.315 336.269 211.432 336.221 211.553 336.221C211.674 336.221 211.791 336.269 211.876 336.355C211.962 336.441 212.01 336.557 212.01 336.679L211.045 365.535C210.961 368.392 212 371.167 213.939 373.267C215.878 375.366 218.562 376.623 221.416 376.766L240.519 377.654C240.637 377.66 240.747 377.71 240.828 377.795C240.909 377.881 240.954 377.994 240.954 378.111C240.959 378.175 240.95 378.24 240.927 378.3C240.905 378.361 240.871 378.416 240.826 378.462C240.781 378.509 240.727 378.545 240.667 378.569C240.607 378.592 240.543 378.603 240.478 378.601Z" fill="white"/>
<path d="M211.84 328.216C211.719 328.216 211.603 328.168 211.517 328.082C211.431 327.996 211.383 327.88 211.383 327.759L211.543 323.088C211.547 322.967 211.598 322.852 211.687 322.768C211.775 322.685 211.893 322.64 212.014 322.644C212.135 322.648 212.25 322.699 212.334 322.788C212.417 322.876 212.461 322.994 212.458 323.115L212.298 327.791C212.29 327.906 212.238 328.015 212.153 328.094C212.068 328.173 211.956 328.216 211.84 328.216Z" fill="white"/>
<path d="M224.709 138.958C224.728 138.229 224.904 137.512 225.225 136.856C225.545 136.2 226.003 135.621 226.567 135.157C227.131 134.694 227.788 134.357 228.494 134.17C229.199 133.983 229.937 133.95 230.656 134.073C250.917 137.517 320.612 148.391 378.618 145.889C379.246 145.86 379.873 145.957 380.462 146.175C381.052 146.392 381.592 146.725 382.051 147.154C382.509 147.584 382.878 148.1 383.133 148.674C383.389 149.248 383.528 149.867 383.54 150.496L387.813 367.91C387.841 369.341 387.302 370.726 386.313 371.761C385.324 372.797 383.965 373.399 382.534 373.436C358.151 374.058 257.747 376.272 222.125 371.332C221.077 371.187 220.12 370.66 219.437 369.853C218.754 369.046 218.393 368.015 218.424 366.958L224.709 138.958Z" fill="#FF678E"/>
<path opacity="0.7" d="M227.077 144.716C227.097 144.015 227.267 143.326 227.575 142.697C227.884 142.067 228.324 141.51 228.866 141.065C229.408 140.62 230.039 140.296 230.717 140.115C231.395 139.935 232.104 139.902 232.795 140.018C252.293 143.33 319.366 153.797 375.19 151.386C375.794 151.359 376.398 151.453 376.965 151.663C377.532 151.873 378.051 152.194 378.492 152.607C378.934 153.021 379.288 153.518 379.534 154.071C379.78 154.623 379.913 155.219 379.925 155.824L384.042 365.045C384.07 366.423 383.551 367.757 382.599 368.754C381.647 369.751 380.338 370.33 378.96 370.365C355.496 370.969 258.871 373.11 224.589 368.343C223.579 368.205 222.657 367.699 221.999 366.92C221.342 366.142 220.996 365.148 221.03 364.13L227.077 144.716Z" fill="white"/>
<path d="M368.134 264.029C369.141 264.061 369.964 263.411 369.914 262.583C369.864 261.755 369.045 261.046 368.038 261L242.309 255.804C241.303 255.763 240.973 256.389 241.573 257.176L242.46 258.37C242.821 258.805 243.265 259.165 243.766 259.428C244.267 259.691 244.815 259.852 245.379 259.903L368.134 264.029Z" fill="url(#paint0_linear)"/>
<path d="M368.134 233.723C369.141 233.755 369.964 233.106 369.914 232.278C369.864 231.45 369.045 230.741 368.038 230.695L242.309 225.498C241.303 225.457 240.973 226.084 241.573 226.871L242.46 228.065C242.821 228.5 243.265 228.859 243.766 229.122C244.267 229.385 244.815 229.547 245.379 229.597L368.134 233.723Z" fill="url(#paint1_linear)"/>
<path d="M368.134 202.615C369.141 202.647 369.964 201.998 369.914 201.17C369.864 200.342 369.045 199.633 368.038 199.587L242.309 194.39C241.303 194.349 240.973 194.976 241.573 195.762L242.46 196.956C242.821 197.392 243.265 197.751 243.766 198.014C244.267 198.277 244.815 198.439 245.379 198.489L368.134 202.615Z" fill="url(#paint2_linear)"/>
<path d="M242.309 270.992C241.303 270.951 240.973 271.577 241.573 272.387L242.46 273.581C242.822 274.016 243.266 274.374 243.767 274.637C244.268 274.899 244.815 275.059 245.379 275.109L368.125 279.226C369.132 279.263 369.955 278.613 369.905 277.785C369.854 276.957 369.036 276.243 368.029 276.202L242.309 270.992Z" fill="url(#paint3_linear)"/>
<path d="M242.309 240.686C241.303 240.645 240.973 241.272 241.573 242.082L242.46 243.275C242.822 243.71 243.266 244.069 243.767 244.331C244.268 244.593 244.815 244.754 245.379 244.803L368.125 248.921C369.132 248.957 369.955 248.308 369.905 247.48C369.854 246.652 369.036 245.938 368.029 245.897L242.309 240.686Z" fill="url(#paint4_linear)"/>
<path d="M242.309 209.578C241.303 209.537 240.973 210.164 241.573 210.973L242.46 212.167C242.822 212.602 243.266 212.961 243.767 213.223C244.268 213.485 244.815 213.646 245.379 213.695L368.125 217.813C369.132 217.849 369.955 217.2 369.905 216.372C369.854 215.544 369.036 214.83 368.029 214.789L242.309 209.578Z" fill="url(#paint5_linear)"/>
<path d="M259.488 305.905H259.356L248.733 305.448C248.021 305.446 247.334 305.182 246.803 304.708C246.272 304.233 245.933 303.58 245.851 302.872L245.215 293.924C245.197 293.656 245.234 293.386 245.323 293.132C245.411 292.878 245.551 292.645 245.732 292.446C245.949 292.213 246.209 292.025 246.499 291.894C246.789 291.763 247.102 291.691 247.42 291.682C248.335 291.65 249.557 291.586 250.916 291.518C253.862 291.367 257.251 291.193 259.223 291.234C259.891 291.225 260.544 291.437 261.078 291.839C261.612 292.241 261.997 292.808 262.174 293.453C262.659 295.525 262.48 299.4 262.238 303.517C262.171 304.191 261.849 304.813 261.337 305.257C260.826 305.701 260.165 305.933 259.488 305.905ZM258.573 292.14C256.579 292.14 253.592 292.295 250.952 292.433C249.58 292.501 248.345 292.565 247.443 292.597C247.249 292.601 247.056 292.643 246.878 292.721C246.7 292.8 246.539 292.913 246.405 293.055C246.306 293.162 246.229 293.288 246.179 293.426C246.13 293.563 246.109 293.709 246.117 293.855L246.753 302.803C246.819 303.286 247.061 303.728 247.43 304.046C247.8 304.363 248.273 304.535 248.761 304.528L259.479 304.986C259.919 305.01 260.352 304.868 260.691 304.587C261.03 304.306 261.251 303.908 261.309 303.471C261.547 299.414 261.725 295.608 261.263 293.654C261.129 293.21 260.852 292.822 260.477 292.549C260.101 292.277 259.646 292.135 259.182 292.145L258.573 292.14Z" fill="url(#paint6_linear)"/>
<path d="M269.221 296.957C269.001 296.934 268.78 296.966 268.576 297.049C268.372 297.132 268.192 297.265 268.051 297.434C267.91 297.604 267.813 297.806 267.769 298.022C267.725 298.237 267.735 298.461 267.798 298.672L268.21 300.465C268.344 300.966 268.633 301.412 269.034 301.74C269.435 302.068 269.929 302.262 270.447 302.295L366.697 304.509C367.175 304.51 367.634 304.322 367.976 303.988C368.318 303.654 368.516 303.199 368.527 302.721V302.41C368.529 301.918 368.339 301.444 367.997 301.09C367.656 300.736 367.189 300.53 366.697 300.516L269.221 296.957Z" fill="url(#paint7_linear)"/>
<path d="M248.208 294.922C248.398 294.818 248.608 294.753 248.824 294.731C249.04 294.71 249.259 294.731 249.466 294.795C249.674 294.859 249.867 294.964 250.033 295.104C250.199 295.243 250.336 295.415 250.436 295.608L252.407 299.437C252.451 299.523 252.518 299.596 252.601 299.647C252.684 299.698 252.779 299.724 252.876 299.724C252.973 299.724 253.068 299.698 253.151 299.647C253.234 299.596 253.301 299.523 253.345 299.437L258.931 288.037C258.989 287.917 259.088 287.82 259.209 287.764C259.331 287.708 259.468 287.695 259.598 287.729C259.727 287.762 259.841 287.839 259.921 287.947C260 288.055 260.04 288.187 260.033 288.32C259.777 294.285 257.2 299.913 252.851 304.002C252.851 304.002 249.772 302.689 247.448 297.09C247.282 296.699 247.268 296.26 247.408 295.859C247.549 295.458 247.834 295.124 248.208 294.922Z" fill="url(#paint8_linear)"/>
<path d="M258.731 328.682H258.594L247.971 328.224C247.259 328.221 246.573 327.958 246.042 327.483C245.511 327.009 245.172 326.356 245.089 325.649L244.453 316.701C244.436 316.432 244.473 316.163 244.563 315.909C244.653 315.655 244.793 315.422 244.975 315.223C245.191 314.99 245.452 314.802 245.742 314.671C246.032 314.539 246.345 314.468 246.663 314.459C247.578 314.427 248.795 314.363 250.153 314.295C253.099 314.144 256.494 313.97 258.461 314.011C259.129 314.002 259.781 314.214 260.316 314.616C260.85 315.018 261.235 315.585 261.412 316.23C261.901 318.302 261.723 322.177 261.48 326.294C261.411 326.967 261.088 327.588 260.578 328.031C260.067 328.475 259.407 328.708 258.731 328.682ZM257.816 314.917C255.817 314.917 252.83 315.072 250.195 315.21C248.822 315.278 247.587 315.342 246.686 315.374C246.49 315.377 246.297 315.419 246.118 315.498C245.939 315.576 245.777 315.69 245.643 315.832C245.544 315.939 245.468 316.066 245.419 316.203C245.371 316.341 245.35 316.487 245.359 316.632L246.004 325.603C246.07 326.086 246.311 326.529 246.681 326.847C247.051 327.164 247.525 327.336 248.012 327.328L258.731 327.785C259.171 327.811 259.604 327.669 259.944 327.388C260.283 327.107 260.504 326.708 260.561 326.271C260.799 322.213 260.977 318.407 260.519 316.454C260.384 316.01 260.108 315.622 259.732 315.35C259.356 315.077 258.902 314.935 258.438 314.944L257.816 314.917Z" fill="url(#paint9_linear)"/>
<path d="M247.796 316.285C250.038 316.207 254.905 315.878 257.206 315.924C257.658 315.918 258.1 316.06 258.464 316.33C258.828 316.599 259.093 316.98 259.219 317.415C259.608 319.071 259.438 322.346 259.26 325.361C259.208 325.821 258.978 326.241 258.618 326.533C258.259 326.824 257.799 326.961 257.339 326.916L248.848 326.551C248.369 326.553 247.906 326.38 247.546 326.064C247.186 325.748 246.954 325.31 246.895 324.835L246.387 317.685C246.383 317.499 246.417 317.315 246.487 317.143C246.556 316.97 246.66 316.814 246.792 316.683C246.924 316.552 247.08 316.45 247.253 316.381C247.426 316.313 247.61 316.28 247.796 316.285Z" fill="url(#paint10_linear)"/>
<path d="M268.461 319.734C268.241 319.71 268.019 319.741 267.815 319.824C267.61 319.907 267.429 320.04 267.288 320.21C267.147 320.379 267.05 320.582 267.007 320.798C266.963 321.015 266.974 321.238 267.038 321.45L267.445 323.243C267.58 323.744 267.868 324.189 268.269 324.518C268.671 324.846 269.165 325.04 269.682 325.073L365.932 327.287C366.411 327.287 366.87 327.1 367.212 326.766C367.554 326.431 367.751 325.976 367.762 325.498V325.187C367.762 324.696 367.572 324.224 367.23 323.87C366.889 323.517 366.423 323.31 365.932 323.293L268.461 319.734Z" fill="url(#paint11_linear)"/>
<path d="M257.967 351.46H257.834L247.207 351.002C246.495 351 245.809 350.737 245.279 350.262C244.748 349.787 244.411 349.134 244.33 348.427L243.68 339.479C243.662 339.21 243.699 338.941 243.787 338.687C243.876 338.433 244.016 338.2 244.197 338.001C244.414 337.768 244.674 337.58 244.964 337.449C245.254 337.318 245.567 337.246 245.885 337.237C246.8 337.205 248.022 337.141 249.38 337.072C252.322 336.922 255.716 336.748 257.683 336.789C258.352 336.779 259.005 336.992 259.54 337.393C260.075 337.795 260.461 338.363 260.639 339.008C261.123 341.08 260.945 344.955 260.703 349.072C260.636 349.743 260.315 350.363 259.807 350.807C259.299 351.251 258.641 351.484 257.967 351.46ZM257.052 337.695C255.057 337.695 252.066 337.85 249.431 337.987C248.058 338.056 246.823 338.12 245.922 338.152C245.727 338.155 245.535 338.197 245.356 338.276C245.178 338.354 245.017 338.468 244.883 338.61C244.784 338.717 244.707 338.843 244.658 338.981C244.608 339.118 244.587 339.264 244.595 339.41L245.231 348.358C245.297 348.841 245.538 349.284 245.908 349.602C246.278 349.919 246.752 350.091 247.239 350.083L257.958 350.54C258.398 350.566 258.831 350.424 259.171 350.143C259.51 349.862 259.731 349.463 259.788 349.026C260.03 344.968 260.204 341.162 259.746 339.209C259.612 338.765 259.335 338.376 258.96 338.104C258.584 337.831 258.129 337.689 257.665 337.699L257.052 337.695Z" fill="url(#paint12_linear)"/>
<path d="M247.043 339.062C249.28 338.984 254.147 338.655 256.453 338.701C256.905 338.695 257.346 338.838 257.709 339.107C258.072 339.377 258.336 339.758 258.461 340.192C258.85 341.848 258.685 345.123 258.507 348.138C258.453 348.597 258.221 349.018 257.861 349.308C257.501 349.599 257.041 349.737 256.581 349.693L248.09 349.327C247.611 349.33 247.148 349.157 246.788 348.841C246.428 348.524 246.196 348.087 246.137 347.612L245.629 340.462C245.625 340.276 245.659 340.091 245.729 339.918C245.799 339.746 245.903 339.589 246.036 339.459C246.168 339.328 246.325 339.225 246.498 339.157C246.672 339.089 246.857 339.056 247.043 339.062Z" fill="url(#paint13_linear)"/>
<path d="M267.695 342.53C267.476 342.506 267.254 342.537 267.049 342.62C266.844 342.703 266.663 342.835 266.522 343.005C266.381 343.175 266.285 343.377 266.241 343.594C266.198 343.81 266.208 344.034 266.272 344.245L266.684 346.039C266.819 346.538 267.106 346.984 267.506 347.312C267.907 347.64 268.4 347.835 268.916 347.868L365.171 350.083C365.65 350.083 366.109 349.896 366.451 349.561C366.793 349.227 366.99 348.772 367.001 348.294V347.983C367.003 347.491 366.812 347.018 366.471 346.664C366.129 346.311 365.663 346.104 365.171 346.089L267.695 342.53Z" fill="url(#paint14_linear)"/>
<path d="M281.271 179.365L279.121 178.4C279.038 178.362 278.947 178.345 278.856 178.351C278.765 178.356 278.677 178.384 278.599 178.432L276.586 179.658C276.497 179.713 276.394 179.742 276.29 179.741C276.185 179.74 276.083 179.709 275.994 179.653C275.906 179.597 275.835 179.517 275.79 179.422C275.745 179.328 275.728 179.222 275.74 179.118L275.996 176.776C276.005 176.686 275.992 176.595 275.959 176.511C275.925 176.426 275.872 176.351 275.804 176.291L274.015 174.754C273.936 174.687 273.878 174.598 273.846 174.499C273.815 174.4 273.812 174.293 273.838 174.193C273.863 174.092 273.917 174 273.992 173.928C274.067 173.856 274.161 173.806 274.262 173.784L276.55 173.3C276.638 173.281 276.721 173.241 276.791 173.184C276.861 173.127 276.917 173.053 276.952 172.97L277.867 170.793C277.908 170.697 277.974 170.615 278.059 170.555C278.144 170.495 278.244 170.46 278.347 170.454C278.451 170.448 278.554 170.471 278.646 170.52C278.737 170.569 278.813 170.643 278.865 170.733L280.036 172.778C280.082 172.859 280.148 172.928 280.228 172.977C280.308 173.025 280.399 173.053 280.493 173.057L282.844 173.249C282.945 173.26 283.041 173.298 283.121 173.36C283.202 173.421 283.265 173.503 283.302 173.597C283.34 173.691 283.351 173.793 283.335 173.893C283.319 173.993 283.276 174.087 283.21 174.164L281.628 175.912C281.567 175.979 281.524 176.06 281.502 176.148C281.48 176.235 281.479 176.327 281.499 176.415L282.044 178.702C282.074 178.805 282.075 178.915 282.044 179.019C282.014 179.122 281.954 179.214 281.872 179.284C281.79 179.354 281.69 179.399 281.583 179.414C281.477 179.428 281.368 179.411 281.271 179.365Z" fill="url(#paint15_linear)"/>
<path d="M276.391 176.169C276.328 176.062 276.25 175.967 276.157 175.885L274.986 174.878C274.927 174.827 274.882 174.76 274.859 174.685C274.835 174.609 274.834 174.529 274.854 174.452C274.874 174.376 274.915 174.307 274.972 174.253C275.03 174.199 275.101 174.162 275.179 174.147L276.684 173.831C276.858 173.796 277.021 173.718 277.158 173.604C277.295 173.491 277.403 173.346 277.47 173.181L278.065 171.759C278.096 171.686 278.147 171.623 278.211 171.578C278.276 171.533 278.352 171.506 278.431 171.501C278.509 171.497 278.588 171.514 278.658 171.551C278.727 171.589 278.785 171.645 278.825 171.713L279.213 172.394L279.113 172.454L278.719 171.772C278.692 171.722 278.65 171.681 278.6 171.654C278.55 171.628 278.493 171.616 278.436 171.621C278.38 171.623 278.325 171.641 278.28 171.674C278.234 171.707 278.199 171.752 278.179 171.804L277.585 173.227C277.509 173.409 277.389 173.57 277.237 173.695C277.085 173.82 276.904 173.906 276.711 173.945L275.201 174.265C275.147 174.277 275.096 174.304 275.056 174.342C275.015 174.381 274.986 174.43 274.972 174.484C274.958 174.538 274.959 174.595 274.975 174.649C274.992 174.702 275.022 174.75 275.064 174.787L276.235 175.793C276.338 175.883 276.426 175.988 276.496 176.105L276.391 176.169Z" fill="white"/>
<path d="M276.778 178.835C276.7 178.833 276.624 178.809 276.558 178.767C276.491 178.725 276.438 178.665 276.404 178.593C276.37 178.522 276.357 178.443 276.366 178.364L276.49 177.193H276.609L276.485 178.364C276.478 178.42 276.487 178.477 276.511 178.529C276.535 178.58 276.574 178.623 276.622 178.652C276.67 178.682 276.726 178.698 276.783 178.698C276.839 178.698 276.895 178.682 276.943 178.652L278.256 177.852C278.424 177.75 278.615 177.691 278.812 177.678C279.008 177.665 279.205 177.7 279.386 177.779L280.795 178.41C280.846 178.434 280.902 178.442 280.958 178.435C281.014 178.428 281.067 178.405 281.11 178.369C281.154 178.334 281.187 178.286 281.205 178.233C281.223 178.179 281.225 178.122 281.211 178.067L280.859 176.566C280.814 176.374 280.816 176.174 280.864 175.983C280.913 175.792 281.007 175.616 281.138 175.468L282.176 174.329C282.214 174.287 282.24 174.236 282.25 174.18C282.259 174.124 282.253 174.066 282.231 174.014C282.212 173.96 282.177 173.914 282.131 173.88C282.086 173.845 282.032 173.825 281.975 173.822L280.438 173.698C280.278 173.684 280.123 173.639 279.98 173.565L280.035 173.46C280.162 173.524 280.3 173.565 280.442 173.579L281.979 173.703C282.057 173.71 282.132 173.739 282.195 173.786C282.257 173.833 282.306 173.897 282.335 173.969C282.363 174.042 282.372 174.122 282.358 174.199C282.345 174.276 282.31 174.348 282.258 174.407L281.225 175.551C281.105 175.682 281.019 175.841 280.975 176.013C280.93 176.185 280.928 176.366 280.968 176.539L281.325 178.039C281.343 178.116 281.339 178.196 281.314 178.27C281.289 178.344 281.244 178.41 281.183 178.46C281.121 178.514 281.045 178.549 280.964 178.559C280.882 178.57 280.8 178.556 280.726 178.52L279.322 177.888C279.159 177.817 278.981 177.786 278.804 177.797C278.626 177.808 278.454 177.861 278.301 177.952L277.002 178.758C276.936 178.803 276.858 178.83 276.778 178.835Z" fill="white"/>
<path d="M279.209 172.368L279.105 172.427L279.338 172.832L279.441 172.772L279.209 172.368Z" fill="white"/>
<path d="M293.81 179.545L291.66 178.575C291.576 178.539 291.485 178.523 291.395 178.529C291.304 178.536 291.216 178.564 291.138 178.611L289.125 179.833C289.037 179.887 288.934 179.916 288.83 179.915C288.726 179.914 288.624 179.884 288.536 179.828C288.448 179.773 288.377 179.693 288.332 179.6C288.286 179.506 288.268 179.401 288.279 179.298L288.535 176.951C288.544 176.861 288.531 176.771 288.497 176.687C288.464 176.604 288.411 176.529 288.343 176.47L286.554 174.933C286.475 174.866 286.417 174.777 286.385 174.678C286.354 174.579 286.351 174.473 286.377 174.372C286.402 174.271 286.456 174.179 286.531 174.107C286.606 174.035 286.7 173.985 286.801 173.963L289.089 173.479C289.178 173.46 289.261 173.421 289.331 173.364C289.401 173.306 289.456 173.233 289.491 173.149L290.406 170.972C290.447 170.876 290.513 170.794 290.598 170.734C290.683 170.674 290.783 170.639 290.887 170.633C290.99 170.627 291.093 170.65 291.185 170.699C291.276 170.749 291.352 170.822 291.404 170.912L292.579 172.957C292.625 173.039 292.691 173.108 292.771 173.157C292.851 173.206 292.943 173.233 293.037 173.236L295.388 173.428C295.489 173.438 295.585 173.476 295.667 173.537C295.748 173.598 295.811 173.68 295.849 173.774C295.887 173.868 295.899 173.971 295.883 174.071C295.867 174.171 295.824 174.266 295.759 174.343L294.171 176.095C294.11 176.162 294.067 176.243 294.045 176.331C294.022 176.419 294.022 176.511 294.043 176.598L294.588 178.886C294.616 178.989 294.614 179.098 294.582 179.2C294.55 179.302 294.49 179.393 294.408 179.462C294.327 179.532 294.227 179.576 294.121 179.591C294.015 179.605 293.907 179.589 293.81 179.545Z" fill="url(#paint16_linear)"/>
<path d="M288.929 176.342C288.867 176.237 288.788 176.143 288.696 176.063L287.525 175.057C287.465 175.005 287.422 174.938 287.398 174.863C287.375 174.788 287.373 174.708 287.392 174.631C287.412 174.555 287.453 174.486 287.51 174.432C287.568 174.377 287.639 174.34 287.717 174.325L289.222 174.009C289.396 173.972 289.559 173.893 289.696 173.779C289.833 173.665 289.941 173.52 290.009 173.355L290.603 171.937C290.634 171.864 290.684 171.8 290.749 171.754C290.814 171.708 290.89 171.681 290.969 171.676C291.048 171.672 291.126 171.689 291.196 171.726C291.265 171.763 291.323 171.819 291.363 171.887L291.752 172.573L291.651 172.632L291.258 171.946C291.229 171.898 291.188 171.858 291.139 171.832C291.09 171.805 291.034 171.792 290.979 171.795C290.922 171.799 290.867 171.818 290.821 171.851C290.775 171.885 290.739 171.93 290.718 171.983L290.123 173.405C290.045 173.586 289.926 173.746 289.774 173.871C289.622 173.996 289.442 174.082 289.249 174.124L287.74 174.439C287.685 174.451 287.634 174.477 287.594 174.516C287.553 174.555 287.524 174.604 287.511 174.659C287.495 174.714 287.496 174.772 287.513 174.826C287.53 174.881 287.563 174.929 287.607 174.965L288.774 175.972C288.878 176.059 288.967 176.164 289.034 176.283L288.929 176.342Z" fill="white"/>
<path d="M289.32 179.009C289.262 179.009 289.205 178.997 289.152 178.973C289.099 178.949 289.052 178.915 289.013 178.872C288.974 178.829 288.945 178.778 288.927 178.723C288.909 178.668 288.903 178.61 288.908 178.552L289.032 177.381H289.151L289.027 178.552C289.02 178.608 289.03 178.665 289.054 178.716C289.078 178.767 289.117 178.81 289.164 178.84C289.212 178.871 289.268 178.888 289.325 178.888C289.381 178.888 289.437 178.871 289.485 178.84L290.802 178.04C290.972 177.94 291.163 177.882 291.359 177.87C291.555 177.858 291.752 177.893 291.932 177.971L293.337 178.602C293.388 178.626 293.444 178.635 293.5 178.627C293.556 178.62 293.609 178.597 293.652 178.561C293.696 178.525 293.729 178.477 293.747 178.422C293.765 178.368 293.767 178.31 293.753 178.255L293.401 176.759C293.355 176.566 293.357 176.366 293.407 176.175C293.456 175.983 293.551 175.807 293.684 175.661L294.718 174.517C294.757 174.476 294.782 174.425 294.792 174.37C294.802 174.314 294.795 174.258 294.773 174.206C294.754 174.153 294.719 174.106 294.673 174.072C294.628 174.038 294.574 174.018 294.517 174.014L292.98 173.886C292.82 173.876 292.664 173.832 292.522 173.758L292.577 173.652C292.705 173.718 292.845 173.757 292.989 173.767L294.521 173.895C294.6 173.901 294.676 173.929 294.74 173.975C294.803 174.022 294.853 174.086 294.882 174.16C294.911 174.233 294.919 174.313 294.904 174.391C294.89 174.469 294.854 174.541 294.8 174.599L293.767 175.743C293.647 175.875 293.561 176.033 293.517 176.206C293.472 176.378 293.47 176.558 293.51 176.731L293.867 178.227C293.885 178.304 293.881 178.385 293.856 178.46C293.831 178.535 293.786 178.602 293.725 178.653C293.661 178.702 293.585 178.734 293.505 178.744C293.424 178.755 293.343 178.744 293.268 178.712L291.864 178.081C291.701 178.008 291.523 177.976 291.346 177.987C291.168 177.999 290.996 178.053 290.843 178.145L289.549 178.95C289.48 178.993 289.401 179.013 289.32 179.009Z" fill="white"/>
<path d="M291.752 172.59L291.648 172.649L291.88 173.054L291.984 172.995L291.752 172.59Z" fill="white"/>
<path d="M306.474 179.723L304.324 178.758C304.241 178.72 304.15 178.703 304.059 178.708C303.968 178.714 303.88 178.742 303.802 178.79L301.789 180.011C301.701 180.066 301.598 180.094 301.494 180.093C301.39 180.093 301.288 180.063 301.2 180.007C301.112 179.951 301.041 179.872 300.996 179.778C300.95 179.684 300.932 179.58 300.943 179.476L301.199 177.129C301.208 177.04 301.195 176.949 301.161 176.866C301.128 176.782 301.075 176.708 301.007 176.649L299.219 175.098C299.139 175.03 299.081 174.942 299.049 174.843C299.018 174.743 299.015 174.637 299.041 174.536C299.066 174.436 299.12 174.344 299.195 174.272C299.27 174.2 299.364 174.15 299.466 174.128L301.776 173.643C301.865 173.625 301.948 173.586 302.018 173.528C302.088 173.471 302.143 173.397 302.178 173.314L303.093 171.136C303.134 171.041 303.2 170.959 303.285 170.899C303.37 170.839 303.47 170.804 303.573 170.798C303.677 170.792 303.78 170.815 303.872 170.864C303.963 170.913 304.039 170.987 304.091 171.077L305.262 173.122C305.308 173.203 305.374 173.272 305.454 173.32C305.534 173.369 305.625 173.397 305.719 173.401L308.07 173.593C308.171 173.603 308.268 173.641 308.349 173.702C308.43 173.763 308.493 173.845 308.532 173.939C308.57 174.033 308.581 174.136 308.565 174.236C308.549 174.336 308.506 174.43 308.441 174.508L306.854 176.26C306.793 176.327 306.75 176.408 306.727 176.496C306.705 176.584 306.704 176.675 306.725 176.763L307.27 179.051C307.307 179.157 307.311 179.273 307.281 179.381C307.251 179.49 307.189 179.588 307.103 179.66C307.017 179.733 306.91 179.778 306.798 179.789C306.686 179.801 306.573 179.777 306.474 179.723Z" fill="url(#paint17_linear)"/>
<path d="M301.593 176.52C301.531 176.415 301.452 176.321 301.36 176.241L300.189 175.235C300.129 175.183 300.086 175.116 300.062 175.041C300.039 174.966 300.037 174.886 300.056 174.809C300.076 174.733 300.117 174.664 300.175 174.609C300.232 174.555 300.303 174.518 300.381 174.503L301.9 174.183C302.073 174.146 302.236 174.067 302.373 173.954C302.51 173.841 302.617 173.697 302.687 173.533L303.281 172.11C303.312 172.037 303.362 171.974 303.427 171.928C303.492 171.882 303.568 171.854 303.647 171.85C303.726 171.845 303.804 171.863 303.873 171.9C303.943 171.937 304.001 171.992 304.041 172.06L304.429 172.746L304.329 172.806L303.935 172.124C303.908 172.074 303.866 172.033 303.816 172.005C303.766 171.977 303.709 171.965 303.652 171.968C303.596 171.972 303.542 171.992 303.497 172.025C303.451 172.058 303.416 172.104 303.396 172.156L302.801 173.579C302.723 173.76 302.603 173.919 302.451 174.044C302.299 174.169 302.12 174.256 301.927 174.297L300.418 174.613C300.362 174.625 300.311 174.652 300.271 174.692C300.231 174.731 300.202 174.782 300.189 174.837C300.174 174.891 300.175 174.948 300.192 175.002C300.209 175.056 300.241 175.103 300.285 175.139L301.451 176.145C301.556 176.232 301.645 176.338 301.712 176.456L301.593 176.52Z" fill="white"/>
<path d="M301.98 179.188C301.922 179.188 301.865 179.175 301.812 179.151C301.759 179.128 301.712 179.093 301.673 179.05C301.635 179.007 301.605 178.956 301.587 178.901C301.569 178.846 301.563 178.788 301.568 178.73L301.692 177.559H301.811L301.687 178.73C301.68 178.787 301.69 178.844 301.714 178.895C301.738 178.946 301.777 178.989 301.825 179.019C301.872 179.05 301.928 179.066 301.985 179.066C302.042 179.066 302.097 179.05 302.145 179.019L303.462 178.223C303.631 178.121 303.822 178.062 304.018 178.049C304.215 178.036 304.412 178.071 304.592 178.15L305.997 178.781C306.048 178.803 306.104 178.811 306.16 178.804C306.215 178.796 306.267 178.773 306.311 178.738C306.354 178.702 306.386 178.655 306.404 178.602C306.422 178.549 306.425 178.492 306.413 178.438L306.061 176.928C306.015 176.736 306.017 176.535 306.067 176.344C306.116 176.153 306.211 175.976 306.344 175.83L307.378 174.687C307.417 174.646 307.442 174.594 307.452 174.539C307.462 174.484 307.455 174.427 307.433 174.375C307.414 174.322 307.379 174.275 307.334 174.241C307.288 174.207 307.234 174.187 307.177 174.183L305.64 174.055C305.48 174.045 305.324 174.001 305.182 173.927L305.237 173.822C305.364 173.887 305.502 173.926 305.644 173.936L307.182 174.064C307.26 174.071 307.335 174.099 307.398 174.146C307.461 174.193 307.51 174.257 307.538 174.33C307.574 174.405 307.585 174.489 307.571 174.571C307.557 174.652 307.519 174.728 307.461 174.787L306.427 175.931C306.307 176.062 306.221 176.221 306.177 176.393C306.132 176.565 306.13 176.746 306.171 176.919L306.527 178.415C306.545 178.492 306.541 178.572 306.516 178.648C306.491 178.723 306.446 178.789 306.386 178.84C306.321 178.89 306.245 178.921 306.165 178.932C306.084 178.942 306.003 178.931 305.928 178.9L304.524 178.268C304.361 178.196 304.183 178.164 304.006 178.175C303.828 178.186 303.656 178.24 303.504 178.332L302.186 179.133C302.124 179.17 302.053 179.189 301.98 179.188Z" fill="white"/>
<path d="M304.424 172.783L304.32 172.842L304.552 173.247L304.656 173.187L304.424 172.783Z" fill="white"/>
<path d="M319.348 179.902L317.198 178.936C317.115 178.9 317.025 178.883 316.935 178.889C316.845 178.894 316.758 178.922 316.681 178.968L314.663 180.194C314.574 180.249 314.472 180.277 314.368 180.277C314.264 180.276 314.162 180.246 314.074 180.19C313.985 180.134 313.915 180.055 313.869 179.961C313.824 179.868 313.806 179.763 313.817 179.659L314.073 177.312C314.079 177.226 314.065 177.14 314.032 177.061C313.998 176.981 313.947 176.911 313.881 176.855L312.092 175.313C312.015 175.245 311.957 175.157 311.927 175.058C311.897 174.959 311.894 174.853 311.92 174.753C311.946 174.653 312 174.562 312.075 174.491C312.149 174.419 312.243 174.37 312.344 174.348L314.631 173.863C314.719 173.844 314.801 173.805 314.871 173.747C314.94 173.69 314.994 173.617 315.029 173.534L315.944 171.356C315.984 171.261 316.05 171.178 316.135 171.118C316.22 171.058 316.319 171.022 316.423 171.015C316.527 171.009 316.63 171.031 316.722 171.08C316.813 171.129 316.889 171.202 316.941 171.292L318.117 173.342C318.164 173.422 318.231 173.49 318.311 173.539C318.391 173.587 318.481 173.616 318.575 173.621L320.926 173.813C321.027 173.823 321.123 173.861 321.205 173.922C321.286 173.983 321.349 174.065 321.387 174.159C321.425 174.253 321.437 174.356 321.421 174.456C321.405 174.556 321.362 174.65 321.296 174.728L319.709 176.471C319.648 176.538 319.604 176.618 319.581 176.706C319.558 176.794 319.556 176.886 319.576 176.974L320.121 179.261C320.146 179.363 320.141 179.47 320.108 179.569C320.075 179.668 320.015 179.757 319.935 179.823C319.854 179.89 319.756 179.933 319.652 179.947C319.549 179.961 319.443 179.945 319.348 179.902Z" fill="url(#paint18_linear)"/>
<path d="M314.464 176.704C314.403 176.596 314.325 176.5 314.231 176.42L313.064 175.418C313.005 175.367 312.961 175.299 312.937 175.224C312.914 175.149 312.912 175.069 312.931 174.992C312.951 174.916 312.991 174.847 313.047 174.792C313.104 174.737 313.175 174.699 313.252 174.682L314.761 174.366C314.935 174.33 315.098 174.252 315.235 174.138C315.372 174.025 315.48 173.881 315.548 173.717L316.143 172.294C316.173 172.222 316.223 172.159 316.287 172.114C316.351 172.068 316.426 172.042 316.504 172.038C316.583 172.033 316.661 172.051 316.731 172.088C316.8 172.125 316.858 172.18 316.898 172.248L317.291 172.934L317.186 172.994L316.793 172.308C316.764 172.259 316.723 172.22 316.674 172.193C316.625 172.167 316.569 172.154 316.514 172.157C316.457 172.16 316.402 172.18 316.356 172.213C316.31 172.246 316.274 172.292 316.253 172.344L315.658 173.762C315.582 173.945 315.463 174.106 315.311 174.232C315.158 174.358 314.978 174.445 314.784 174.485L313.275 174.801C313.219 174.812 313.168 174.839 313.128 174.879C313.087 174.918 313.058 174.968 313.044 175.022C313.03 175.077 313.032 175.135 313.049 175.189C313.067 175.243 313.099 175.29 313.142 175.327L314.309 176.333C314.413 176.421 314.502 176.526 314.569 176.644L314.464 176.704Z" fill="white"/>
<path d="M314.856 179.371C314.779 179.369 314.703 179.347 314.637 179.307C314.57 179.265 314.516 179.205 314.482 179.134C314.448 179.062 314.435 178.983 314.444 178.904L314.573 177.733H314.691L314.563 178.909C314.556 178.965 314.565 179.021 314.589 179.072C314.613 179.122 314.652 179.164 314.701 179.193C314.748 179.224 314.804 179.24 314.861 179.24C314.918 179.24 314.973 179.224 315.021 179.193L316.338 178.392C316.507 178.29 316.698 178.231 316.895 178.219C317.092 178.207 317.288 178.243 317.468 178.323L318.873 178.955C318.924 178.978 318.981 178.987 319.037 178.979C319.093 178.971 319.146 178.946 319.188 178.909C319.232 178.874 319.266 178.827 319.284 178.773C319.303 178.72 319.306 178.662 319.294 178.607L318.937 177.107C318.892 176.915 318.894 176.715 318.943 176.525C318.993 176.334 319.088 176.159 319.22 176.013L320.254 174.87C320.293 174.828 320.318 174.776 320.328 174.72C320.338 174.664 320.331 174.606 320.309 174.554C320.289 174.501 320.255 174.455 320.209 174.422C320.164 174.388 320.109 174.369 320.053 174.366L318.52 174.238C318.361 174.227 318.205 174.183 318.063 174.11L318.113 174.005C318.241 174.071 318.381 174.109 318.525 174.119L320.057 174.247C320.136 174.253 320.212 174.281 320.276 174.328C320.34 174.375 320.389 174.439 320.418 174.512C320.447 174.586 320.455 174.666 320.44 174.744C320.426 174.822 320.39 174.894 320.337 174.952L319.303 176.091C319.183 176.223 319.098 176.382 319.054 176.554C319.01 176.726 319.009 176.906 319.051 177.079L319.403 178.58C319.423 178.656 319.421 178.737 319.397 178.813C319.374 178.888 319.33 178.956 319.27 179.008C319.21 179.059 319.137 179.094 319.058 179.106C318.98 179.119 318.9 179.109 318.827 179.078L317.422 178.447C317.26 178.375 317.082 178.342 316.905 178.354C316.727 178.365 316.555 178.419 316.402 178.511L315.089 179.312C315.018 179.352 314.938 179.372 314.856 179.371Z" fill="white"/>
<path d="M318.631 172.187L318.527 172.246L318.761 172.652L318.864 172.593L318.631 172.187Z" fill="white"/>
<path opacity="0.8" d="M332.227 180.084L330.072 179.119C329.99 179.082 329.9 179.065 329.81 179.071C329.719 179.077 329.632 179.104 329.555 179.151L327.519 180.377C327.43 180.43 327.329 180.457 327.225 180.456C327.122 180.454 327.021 180.424 326.933 180.369C326.846 180.313 326.776 180.234 326.731 180.141C326.686 180.048 326.667 179.944 326.678 179.841L326.929 177.495C326.94 177.405 326.928 177.313 326.895 177.229C326.863 177.145 326.81 177.069 326.742 177.01L324.953 175.473C324.874 175.405 324.815 175.316 324.784 175.217C324.752 175.118 324.749 175.012 324.775 174.911C324.801 174.81 324.854 174.718 324.929 174.646C325.004 174.574 325.098 174.524 325.2 174.503L327.487 174.022C327.575 174.003 327.657 173.962 327.727 173.904C327.796 173.846 327.85 173.772 327.885 173.689L328.8 171.516C328.84 171.419 328.906 171.335 328.991 171.274C329.076 171.213 329.177 171.177 329.281 171.17C329.386 171.163 329.49 171.186 329.582 171.236C329.674 171.286 329.75 171.36 329.802 171.452L330.973 173.501C331.021 173.581 331.087 173.648 331.167 173.696C331.247 173.744 331.338 173.771 331.431 173.775L333.782 173.972C333.883 173.983 333.978 174.021 334.059 174.082C334.14 174.144 334.202 174.226 334.24 174.32C334.277 174.414 334.289 174.516 334.272 174.616C334.256 174.716 334.213 174.81 334.148 174.887L332.565 176.635C332.504 176.701 332.46 176.782 332.438 176.87C332.415 176.958 332.415 177.05 332.437 177.138L332.977 179.425C333.005 179.526 333.004 179.632 332.975 179.732C332.945 179.832 332.888 179.922 332.809 179.991C332.731 180.06 332.634 180.105 332.531 180.121C332.428 180.138 332.323 180.125 332.227 180.084Z" fill="#DC1C4D"/>
<path d="M327.341 176.887C327.278 176.779 327.198 176.683 327.103 176.603L325.937 175.597C325.876 175.546 325.831 175.479 325.808 175.403C325.784 175.328 325.783 175.247 325.804 175.171C325.824 175.095 325.864 175.027 325.92 174.972C325.977 174.918 326.048 174.881 326.124 174.865L327.634 174.549C327.808 174.513 327.971 174.435 328.108 174.322C328.245 174.209 328.352 174.064 328.421 173.9L329.015 172.477C329.046 172.405 329.096 172.343 329.16 172.297C329.223 172.252 329.299 172.225 329.377 172.221C329.456 172.214 329.535 172.231 329.604 172.268C329.674 172.305 329.732 172.362 329.77 172.431L330.164 173.113L330.058 173.172L329.67 172.491C329.642 172.441 329.6 172.4 329.55 172.373C329.5 172.347 329.443 172.335 329.386 172.34C329.33 172.342 329.275 172.361 329.229 172.393C329.183 172.426 329.147 172.47 329.125 172.523L328.53 173.945C328.454 174.128 328.335 174.289 328.183 174.415C328.031 174.541 327.85 174.628 327.657 174.668L326.152 174.984C326.096 174.994 326.044 175.02 326.002 175.059C325.961 175.098 325.932 175.148 325.918 175.203C325.905 175.258 325.907 175.316 325.924 175.37C325.941 175.424 325.972 175.472 326.014 175.51L327.181 176.512C327.285 176.602 327.373 176.708 327.442 176.827L327.341 176.887Z" fill="white"/>
<path opacity="0.3" d="M330.158 173.081L330.055 173.14L330.287 173.545L330.39 173.485L330.158 173.081Z" fill="white"/>
<path opacity="0.7" d="M333.467 161.375C333.463 161.635 333.408 161.892 333.306 162.131C333.203 162.37 333.054 162.586 332.867 162.767C332.681 162.949 332.46 163.092 332.219 163.188C331.977 163.284 331.719 163.332 331.458 163.328L278.114 162.555C277.589 162.546 277.088 162.33 276.722 161.954C276.356 161.578 276.154 161.072 276.16 160.547V160.46C276.164 160.2 276.219 159.943 276.322 159.704C276.424 159.465 276.573 159.248 276.76 159.067C276.946 158.886 277.167 158.743 277.408 158.647C277.65 158.55 277.908 158.503 278.169 158.506L331.504 159.261C331.764 159.265 332.021 159.319 332.26 159.422C332.499 159.525 332.716 159.674 332.897 159.861C333.078 160.047 333.221 160.268 333.317 160.509C333.414 160.751 333.461 161.009 333.458 161.269L333.467 161.375Z" fill="white"/>
<path d="M268.744 172.061C269.93 165.035 265.196 158.379 258.171 157.193C251.145 156.008 244.489 160.741 243.303 167.767C242.117 174.792 246.851 181.449 253.877 182.634C260.902 183.82 267.559 179.086 268.744 172.061Z" fill="url(#paint19_linear)"/>
<path d="M244.126 169.37C244.056 169.365 243.991 169.332 243.945 169.279C243.899 169.226 243.875 169.157 243.879 169.087C243.915 168.576 243.98 168.067 244.076 167.563C244.083 167.529 244.096 167.497 244.115 167.467C244.134 167.438 244.159 167.413 244.188 167.394C244.217 167.374 244.249 167.361 244.283 167.354C244.318 167.347 244.353 167.346 244.387 167.353C244.421 167.36 244.454 167.373 244.483 167.392C244.512 167.411 244.537 167.436 244.557 167.465C244.576 167.494 244.59 167.526 244.597 167.56C244.604 167.595 244.604 167.63 244.598 167.664C244.501 168.146 244.437 168.633 244.405 169.123C244.401 169.193 244.369 169.258 244.317 169.304C244.264 169.35 244.196 169.374 244.126 169.37Z" fill="white"/>
<path d="M245.445 164.659C245.406 164.658 245.367 164.649 245.331 164.631C245.269 164.599 245.222 164.543 245.2 164.477C245.179 164.41 245.185 164.337 245.217 164.275C246.257 162.27 247.835 160.596 249.775 159.441C251.715 158.285 253.938 157.694 256.196 157.733C256.932 157.745 257.665 157.821 258.387 157.962C258.455 157.976 258.515 158.017 258.554 158.075C258.592 158.133 258.606 158.204 258.593 158.273C258.586 158.307 258.573 158.339 258.554 158.368C258.535 158.397 258.51 158.422 258.481 158.441C258.452 158.46 258.419 158.473 258.385 158.48C258.351 158.486 258.316 158.486 258.282 158.478C257.591 158.345 256.89 158.273 256.187 158.263C254.029 158.226 251.903 158.792 250.049 159.896C248.195 161.001 246.687 162.601 245.692 164.517C245.67 164.563 245.635 164.601 245.591 164.626C245.547 164.652 245.496 164.663 245.445 164.659Z" fill="white"/>
<path opacity="0.78" d="M267.205 170.345C267.175 172.505 266.506 174.607 265.281 176.386C264.056 178.165 262.331 179.541 260.324 180.339C258.317 181.138 256.119 181.323 254.007 180.872C251.895 180.421 249.963 179.354 248.458 177.806C246.952 176.257 245.94 174.297 245.548 172.173C245.157 170.049 245.404 167.856 246.258 165.873C247.113 163.889 248.536 162.204 250.349 161.029C252.162 159.855 254.282 159.244 256.441 159.275C259.337 159.316 262.097 160.505 264.116 162.581C266.134 164.657 267.246 167.45 267.205 170.345Z" fill="white"/>
<path d="M259.689 166.113C259.662 167.943 258.134 169.933 256.286 169.91C254.437 169.888 252.969 167.866 252.996 166.017C253.024 164.169 254.538 162.879 256.386 162.907C258.234 162.934 259.717 164.265 259.689 166.113Z" fill="url(#paint20_linear)"/>
<path d="M252.034 176.969L260.209 177.083C260.628 177.088 261.038 176.961 261.38 176.718C261.722 176.476 261.979 176.131 262.112 175.734L262.57 174.361C262.731 173.879 262.701 173.353 262.486 172.892C262.271 172.432 261.886 172.071 261.412 171.886C258.1 170.624 254.66 170.729 251.124 171.854C250.646 172.01 250.246 172.341 250.005 172.782C249.763 173.222 249.699 173.738 249.825 174.224L250.15 175.477C250.256 175.899 250.498 176.273 250.839 176.543C251.18 176.812 251.6 176.962 252.034 176.969Z" fill="url(#paint21_linear)"/>
<path d="M181.944 381.035C178.434 381.34 172.332 381.837 167.523 382.048C164.634 382.172 162.969 381.893 162.012 381.507C162.012 381.613 162.012 381.719 162.012 381.812C162.025 382.057 162.129 382.289 162.304 382.462C162.478 382.636 162.711 382.738 162.956 382.75C169.247 383.103 175.554 383.103 181.845 382.75C181.966 382.743 182.082 382.705 182.184 382.64C182.286 382.575 182.37 382.485 182.427 382.379C182.485 382.272 182.514 382.153 182.512 382.032C182.51 381.911 182.477 381.792 182.416 381.688C182.275 381.459 182.117 381.241 181.944 381.035Z" fill="#A70D34"/>
<path d="M167.524 382.048C172.333 381.837 178.434 381.34 181.945 381.036C178.49 376.798 167.524 373.94 167.524 373.94H164.417C162.841 376.148 161.996 378.795 162 381.508C162.969 381.893 164.622 382.173 167.524 382.048Z" fill="#DC1C4D"/>
<path d="M163.906 368.882L164.192 374.623C164.204 374.929 164.322 375.22 164.526 375.447C164.73 375.674 165.008 375.822 165.31 375.866C166.092 375.982 166.889 375.916 167.64 375.673C167.905 375.587 168.141 375.43 168.324 375.22C168.507 375.01 168.629 374.754 168.678 374.48L169.685 368.888L163.906 368.882Z" fill="url(#paint22_linear)"/>
<path d="M123.673 382.005C122.145 381.793 121.455 380.998 121.188 380.141C121.097 380.615 121.182 381.106 121.428 381.522C121.674 381.937 122.064 382.248 122.524 382.396C123.698 382.854 124.957 383.051 126.215 382.974C126.741 382.973 127.261 382.859 127.739 382.639C128.218 382.42 128.643 382.099 128.986 381.7C127.824 382.29 126.215 382.359 123.673 382.005Z" fill="#A70D34"/>
<path d="M130.855 368.851H128.301C124.411 368.77 121.963 376.978 121.168 380.153C121.454 380.998 122.143 381.793 123.653 382.017C126.195 382.371 127.804 382.303 128.953 381.737C131.053 378.972 132.097 374.903 132.594 372.554C132.78 371.831 132.708 371.065 132.39 370.389C132.073 369.714 131.53 369.17 130.855 368.851Z" fill="#DC1C4D"/>
<path d="M128.63 363.526L127.213 369.168C127.13 369.504 127.163 369.859 127.307 370.174C127.452 370.489 127.699 370.745 128.008 370.901C128.898 371.412 129.916 371.658 130.941 371.609C131.179 371.583 131.403 371.488 131.588 371.337C131.773 371.186 131.911 370.985 131.985 370.758L134.073 364.824L128.63 363.526Z" fill="url(#paint23_linear)"/>
<path d="M126.934 365.154C128.704 366.72 134.439 366.925 134.439 366.925C155.117 317.299 163.574 310.253 163.574 310.253C160.591 328.98 163.095 370.448 163.095 370.448C166.507 371.957 170.906 370.448 170.906 370.448C171.161 343.949 174.709 317.584 181.468 291.96C167.494 291.644 160.063 286.865 157.64 284.946C145.978 303.722 126.934 365.154 126.934 365.154Z" fill="#A70D34"/>
<path d="M161.183 227.876C158.536 241.067 159.487 264.684 160.108 275.451C160.282 278.483 158.169 282.678 156.461 285.542C156.4 285.646 156.361 285.762 156.346 285.882C156.332 286.002 156.342 286.124 156.375 286.24C156.409 286.356 156.466 286.465 156.542 286.558C156.619 286.652 156.714 286.729 156.821 286.785C159.686 288.257 169.372 292.812 180.6 293.377C180.964 293.391 181.323 293.28 181.616 293.063C181.91 292.847 182.121 292.537 182.215 292.184C190.541 261.08 200.234 241.203 200.234 241.203C189.535 224.166 161.183 227.876 161.183 227.876Z" fill="url(#paint24_linear)"/>
<path d="M144.586 265.74C145.437 271.885 147.947 278.589 152.968 285.71L154.881 284.156C153.527 277.888 153.206 271.441 153.931 265.069C150.83 264.466 147.171 265.087 144.586 265.74Z" fill="url(#paint25_linear)"/>
<path d="M164.137 244.161L161.185 227.882C161.185 227.882 141.445 242.968 144.589 265.746C147.174 265.094 150.834 264.472 153.909 265.075C154.835 257.756 157.532 249.821 164.137 244.161Z" fill="url(#paint26_linear)"/>
<path d="M200.214 241.223L192.578 257.632C193.821 267.573 199.133 271.823 204.868 273.47C205.153 269.795 206.017 266.188 207.428 262.783C200.115 255.215 200.214 241.223 200.214 241.223Z" fill="url(#paint27_linear)"/>
<path d="M207.447 262.801C206.035 266.206 205.171 269.813 204.887 273.488C220.196 279.428 224.248 267.896 224.248 267.896L221.42 267.393C215.033 268.064 210.597 266.001 207.447 262.801Z" fill="url(#paint28_linear)"/>
<path d="M193.201 220.967L189.522 234.487C189.425 234.845 189.254 235.179 189.018 235.466C188.783 235.753 188.49 235.987 188.157 236.153C187.825 236.318 187.462 236.412 187.091 236.427C186.72 236.442 186.35 236.378 186.006 236.239C184.196 235.529 182.427 234.72 180.706 233.816C180.272 233.58 179.892 233.256 179.591 232.865C179.289 232.474 179.073 232.024 178.956 231.544C178.839 231.064 178.824 230.565 178.911 230.079C178.998 229.593 179.186 229.13 179.463 228.721L187.105 217.32L193.201 220.967Z" fill="url(#paint29_linear)"/>
<path d="M231.269 258.837L137.007 293.148C136.072 293.487 135.217 294.017 134.497 294.703C133.776 295.389 133.205 296.217 132.82 297.134C132.435 298.052 132.244 299.039 132.259 300.034C132.273 301.028 132.494 302.009 132.906 302.915L133.192 303.536C133.558 304.342 134.08 305.067 134.728 305.67C135.376 306.274 136.137 306.743 136.967 307.05C137.796 307.358 138.679 307.499 139.564 307.464C140.448 307.429 141.317 307.22 142.12 306.848L233.643 264.51L231.269 258.837Z" fill="#DC1C4D"/>
<path opacity="0.5" d="M269.583 283.895C295.282 283.895 316.115 263.438 316.115 238.202C316.115 212.967 295.282 192.509 269.583 192.509C243.884 192.509 223.051 212.967 223.051 238.202C223.051 263.438 243.884 283.895 269.583 283.895Z" fill="#F4F5F8"/>
<path d="M274.596 187.358C246.015 187.358 222.82 210.124 222.82 238.202C222.82 266.281 246.015 289.046 274.596 289.046C303.178 289.046 326.366 266.281 326.366 238.202C326.366 210.124 303.178 187.358 274.596 187.358ZM274.596 281.578C250.196 281.578 230.425 262.155 230.425 238.202C230.425 214.25 250.196 194.827 274.596 194.827C298.996 194.827 318.761 214.25 318.761 238.202C318.761 262.155 298.99 281.578 274.596 281.578Z" fill="#DC1C4D"/>
<path d="M226.749 244.466C226.673 244.465 226.6 244.437 226.543 244.387C226.486 244.336 226.449 244.267 226.439 244.192C226.289 242.993 226.178 241.763 226.122 240.551C226.119 240.51 226.125 240.469 226.138 240.431C226.151 240.392 226.172 240.356 226.199 240.326C226.226 240.295 226.259 240.27 226.296 240.252C226.333 240.235 226.373 240.224 226.414 240.222C226.497 240.218 226.578 240.248 226.639 240.304C226.701 240.359 226.738 240.437 226.743 240.52C226.799 241.719 226.905 242.925 227.06 244.111C227.065 244.152 227.062 244.194 227.051 244.233C227.04 244.273 227.021 244.31 226.996 244.343C226.971 244.375 226.939 244.402 226.903 244.422C226.867 244.442 226.827 244.455 226.787 244.459L226.749 244.466ZM227.103 230.249H227.047C226.967 230.234 226.896 230.188 226.849 230.12C226.802 230.053 226.784 229.97 226.799 229.889C227.385 226.615 228.32 223.413 229.589 220.339C237.045 202.246 254.709 190.552 274.592 190.552C283.804 190.54 292.834 193.124 300.645 198.008C300.715 198.052 300.765 198.122 300.783 198.202C300.802 198.282 300.788 198.367 300.744 198.437C300.701 198.507 300.631 198.557 300.55 198.575C300.47 198.594 300.386 198.58 300.315 198.536C292.604 193.712 283.689 191.158 274.592 191.167C254.964 191.167 237.529 202.706 230.167 220.569C228.917 223.605 227.992 226.764 227.408 229.995C227.396 230.066 227.359 230.132 227.303 230.178C227.247 230.225 227.176 230.25 227.103 230.249Z" fill="white"/>
<path d="M196.307 208.851C196.431 209.043 199.861 224.173 199.861 224.173L191.162 225.95L185.781 212.088C185.781 212.088 194.176 205.533 196.307 208.851Z" fill="url(#paint30_linear)"/>
<path d="M188.913 214.337L191.174 221.856C191.2 221.951 191.242 222.041 191.299 222.123C191.628 222.645 192.895 224.347 194.561 222.949C196.07 221.675 197.468 220.532 198.724 220.377C198.993 220.341 199.266 220.407 199.489 220.562C199.712 220.717 199.869 220.95 199.929 221.216C200.485 223.608 200.853 226.041 201.029 228.491C201.042 228.765 200.952 229.033 200.778 229.244C200.603 229.454 200.355 229.591 200.084 229.628C197.365 230.044 194.606 230.142 191.864 229.92C191.668 229.898 191.481 229.824 191.324 229.705C191.166 229.585 191.044 229.426 190.969 229.243C190.236 227.416 187.987 221.88 187.123 220.433C186.26 218.985 184.166 219.01 183.265 219.047C183.119 219.053 182.973 219.03 182.837 218.979C182.7 218.928 182.575 218.849 182.469 218.749C181.718 218.022 180.307 216.189 182.513 214.182C182.622 214.083 182.71 213.963 182.772 213.829C182.833 213.695 182.867 213.55 182.871 213.402C182.875 213.255 182.85 213.108 182.795 212.971C182.741 212.834 182.66 212.709 182.556 212.604C181.699 211.709 180.798 210.162 182.395 208.36C183.992 206.558 186.023 206.931 187.241 207.441C187.478 207.539 187.742 207.55 187.986 207.473C188.231 207.396 188.44 207.235 188.577 207.018C188.672 206.869 188.811 206.754 188.975 206.687C189.138 206.62 189.318 206.606 189.49 206.645C189.64 206.662 189.792 206.647 189.936 206.601C190.079 206.556 190.212 206.481 190.325 206.382C190.439 206.283 190.53 206.161 190.594 206.024C190.658 205.888 190.692 205.74 190.696 205.589C190.68 204.81 190.942 204.051 191.435 203.447C191.928 202.844 192.62 202.436 193.386 202.296C197.183 201.308 199.351 205.042 199.457 207.751C199.562 210.46 195.375 211.299 192.951 211.007C191.087 210.777 189.652 212.548 189.056 213.405C188.964 213.54 188.904 213.694 188.879 213.855C188.854 214.016 188.866 214.181 188.913 214.337Z" fill="url(#paint31_linear)"/>
<path d="M187.973 223.128C187.973 223.128 187.587 218.412 185.649 218.089C183.71 217.766 181.734 219.282 183.549 222.004C185.804 225.396 187.973 223.128 187.973 223.128Z" fill="url(#paint32_linear)"/>
<path d="M154.096 283.883L163.006 283.156L166.864 286.716C166.864 286.716 165.951 287.959 163.099 287.251C160.872 286.765 158.609 286.463 156.333 286.35C156.333 286.35 152.393 288.127 152.344 284.803L154.096 283.883Z" fill="url(#paint33_linear)"/>
<path d="M223.119 269.996C223.889 270.617 226.53 269.344 228.146 268.474C228.527 268.268 228.825 267.936 228.989 267.535C229.152 267.133 229.17 266.688 229.04 266.274C228.655 265.032 228.003 263.466 227.207 263.267C225.884 262.938 219.919 267.517 223.119 269.996Z" fill="url(#paint34_linear)"/>
<path d="M138.87 305.499C138.835 305.505 138.799 305.505 138.764 305.499C135.105 304.257 134.253 302.076 134.185 300.485C134.158 299.324 134.492 298.184 135.143 297.222C135.793 296.26 136.726 295.524 137.814 295.117L149.135 290.705C149.212 290.677 149.298 290.68 149.373 290.713C149.449 290.747 149.508 290.809 149.538 290.886C149.567 290.962 149.564 291.047 149.53 291.121C149.496 291.196 149.434 291.254 149.358 291.283L138.044 295.701C137.077 296.06 136.246 296.712 135.666 297.564C135.086 298.417 134.786 299.429 134.806 300.46C134.893 302.492 136.291 303.99 138.969 304.915C139.052 304.929 139.126 304.974 139.175 305.042C139.223 305.109 139.244 305.193 139.23 305.276C139.217 305.358 139.172 305.432 139.104 305.481C139.037 305.53 138.952 305.55 138.87 305.537V305.499Z" fill="white"/>
<path d="M152.734 289.929C152.671 289.93 152.61 289.911 152.559 289.875C152.507 289.84 152.469 289.789 152.448 289.73C152.433 289.692 152.425 289.651 152.426 289.61C152.426 289.57 152.435 289.529 152.451 289.492C152.467 289.454 152.491 289.42 152.52 289.392C152.549 289.363 152.584 289.341 152.622 289.326L154.088 288.754C154.126 288.739 154.167 288.732 154.208 288.732C154.248 288.733 154.289 288.742 154.326 288.758C154.364 288.774 154.398 288.797 154.426 288.826C154.455 288.856 154.477 288.89 154.492 288.928C154.507 288.966 154.515 289.007 154.514 289.048C154.514 289.088 154.505 289.129 154.489 289.166C154.473 289.204 154.449 289.238 154.42 289.266C154.391 289.295 154.356 289.317 154.318 289.332L152.846 289.904C152.811 289.921 152.772 289.93 152.734 289.929Z" fill="white"/>
<defs>
<filter id="filter0_f" x="0.839844" y="0.671997" width="522.157" height="516.515" filterUnits="userSpaceOnUse" color-interpolation-filters="sRGB">
<feFlood flood-opacity="0" result="BackgroundImageFix"/>
<feBlend mode="normal" in="SourceGraphic" in2="BackgroundImageFix" result="shape"/>
<feGaussianBlur stdDeviation="71.5" result="effect1_foregroundBlur"/>
</filter>
<linearGradient id="paint0_linear" x1="42276.6" y1="3994.8" x2="78449.6" y2="3994.8" gradientUnits="userSpaceOnUse">
<stop stop-color="#ED539F"/>
<stop offset="1" stop-color="#A061C2"/>
</linearGradient>
<linearGradient id="paint1_linear" x1="42276.6" y1="3964.49" x2="78449.6" y2="3964.49" gradientUnits="userSpaceOnUse">
<stop stop-color="#ED539F"/>
<stop offset="1" stop-color="#A061C2"/>
</linearGradient>
<linearGradient id="paint2_linear" x1="42276.6" y1="3933.38" x2="78449.6" y2="3933.38" gradientUnits="userSpaceOnUse">
<stop stop-color="#ED539F"/>
<stop offset="1" stop-color="#A061C2"/>
</linearGradient>
<linearGradient id="paint3_linear" x1="42273.6" y1="4287.79" x2="78444" y2="4287.79" gradientUnits="userSpaceOnUse">
<stop stop-color="#ED539F"/>
<stop offset="1" stop-color="#A061C2"/>
</linearGradient>
<linearGradient id="paint4_linear" x1="42273.6" y1="4257.49" x2="78444" y2="4257.49" gradientUnits="userSpaceOnUse">
<stop stop-color="#ED539F"/>
<stop offset="1" stop-color="#A061C2"/>
</linearGradient>
<linearGradient id="paint5_linear" x1="42273.6" y1="4226.38" x2="78444" y2="4226.38" gradientUnits="userSpaceOnUse">
<stop stop-color="#ED539F"/>
<stop offset="1" stop-color="#A061C2"/>
</linearGradient>
<linearGradient id="paint6_linear" x1="6036.43" y1="8201.87" x2="6688.34" y2="8201.87" gradientUnits="userSpaceOnUse">
<stop stop-color="#ED539F"/>
<stop offset="1" stop-color="#A061C2"/>
</linearGradient>
<linearGradient id="paint7_linear" x1="39032.5" y1="4406.71" x2="61238.4" y2="4406.71" gradientUnits="userSpaceOnUse">
<stop stop-color="#ED539F"/>
<stop offset="1" stop-color="#A061C2"/>
</linearGradient>
<linearGradient id="paint8_linear" x1="-1279.74" y1="6081.72" x2="-3501.53" y2="8845.75" gradientUnits="userSpaceOnUse">
<stop stop-color="#A737D5"/>
<stop offset="1" stop-color="#EF497A"/>
</linearGradient>
<linearGradient id="paint9_linear" x1="6007.97" y1="8955.33" x2="6660.19" y2="8955.33" gradientUnits="userSpaceOnUse">
<stop stop-color="#ED539F"/>
<stop offset="1" stop-color="#A061C2"/>
</linearGradient>
<linearGradient id="paint10_linear" x1="4662.34" y1="6796.52" x2="5035.83" y2="6796.52" gradientUnits="userSpaceOnUse">
<stop stop-color="#ED539F"/>
<stop offset="1" stop-color="#A061C2"/>
</linearGradient>
<linearGradient id="paint11_linear" x1="38862.4" y1="4806.31" x2="61068.6" y2="4806.31" gradientUnits="userSpaceOnUse">
<stop stop-color="#ED539F"/>
<stop offset="1" stop-color="#A061C2"/>
</linearGradient>
<linearGradient id="paint12_linear" x1="5977.39" y1="9708.85" x2="6629.3" y2="9708.85" gradientUnits="userSpaceOnUse">
<stop stop-color="#ED539F"/>
<stop offset="1" stop-color="#A061C2"/>
</linearGradient>
<linearGradient id="paint13_linear" x1="4640.54" y1="7367.02" x2="5013.95" y2="7367.02" gradientUnits="userSpaceOnUse">
<stop stop-color="#ED539F"/>
<stop offset="1" stop-color="#A061C2"/>
</linearGradient>
<linearGradient id="paint14_linear" x1="38695" y1="5205.54" x2="60902.3" y2="5205.54" gradientUnits="userSpaceOnUse">
<stop stop-color="#ED539F"/>
<stop offset="1" stop-color="#A061C2"/>
</linearGradient>
<linearGradient id="paint15_linear" x1="7614.2" y1="2702.06" x2="7419.41" y2="3061.61" gradientUnits="userSpaceOnUse">
<stop stop-color="#FDF53F"/>
<stop offset="1" stop-color="#D93C65"/>
</linearGradient>
<linearGradient id="paint16_linear" x1="7894.78" y1="2703.74" x2="7700.25" y2="3063.34" gradientUnits="userSpaceOnUse">
<stop stop-color="#FDF53F"/>
<stop offset="1" stop-color="#D93C65"/>
</linearGradient>
<linearGradient id="paint17_linear" x1="8186.43" y1="2710.45" x2="7991.66" y2="3070.65" gradientUnits="userSpaceOnUse">
<stop stop-color="#FDF53F"/>
<stop offset="1" stop-color="#D93C65"/>
</linearGradient>
<linearGradient id="paint18_linear" x1="8448.05" y1="2704.32" x2="8254.12" y2="3063.39" gradientUnits="userSpaceOnUse">
<stop stop-color="#FDF53F"/>
<stop offset="1" stop-color="#D93C65"/>
</linearGradient>
<linearGradient id="paint19_linear" x1="19214.2" y1="6383.19" x2="16165.9" y2="10850.3" gradientUnits="userSpaceOnUse">
<stop stop-color="#FDF53F"/>
<stop offset="1" stop-color="#D93C65"/>
</linearGradient>
<linearGradient id="paint20_linear" x1="5085.23" y1="1954.55" x2="4679.33" y2="2484.63" gradientUnits="userSpaceOnUse">
<stop stop-color="#FDF53F"/>
<stop offset="1" stop-color="#D93C65"/>
</linearGradient>
<linearGradient id="paint21_linear" x1="9678.1" y1="1821.98" x2="9450.31" y2="2472.47" gradientUnits="userSpaceOnUse">
<stop stop-color="#FDF53F"/>
<stop offset="1" stop-color="#D93C65"/>
</linearGradient>
<linearGradient id="paint22_linear" x1="7270.91" y1="5327.26" x2="7324.65" y2="5327.26" gradientUnits="userSpaceOnUse">
<stop stop-color="#F9B776"/>
<stop offset="1" stop-color="#F47960"/>
</linearGradient>
<linearGradient id="paint23_linear" x1="8349.25" y1="5998.97" x2="8426.03" y2="5998.97" gradientUnits="userSpaceOnUse">
<stop stop-color="#F9B776"/>
<stop offset="1" stop-color="#F47960"/>
</linearGradient>
<linearGradient id="paint24_linear" x1="62357.9" y1="30819.9" x2="47655.8" y2="39344.2" gradientUnits="userSpaceOnUse">
<stop stop-color="#FDF53F"/>
<stop offset="1" stop-color="#D93C65"/>
</linearGradient>
<linearGradient id="paint25_linear" x1="13276.9" y1="11430.6" x2="12666.4" y2="11697.1" gradientUnits="userSpaceOnUse">
<stop stop-color="#F9B776"/>
<stop offset="1" stop-color="#F47960"/>
</linearGradient>
<linearGradient id="paint26_linear" x1="27515.1" y1="16930.9" x2="20184.7" y2="20279.4" gradientUnits="userSpaceOnUse">
<stop stop-color="#FDF53F"/>
<stop offset="1" stop-color="#D93C65"/>
</linearGradient>
<linearGradient id="paint27_linear" x1="21043.8" y1="15945" x2="15342.4" y2="18228.6" gradientUnits="userSpaceOnUse">
<stop stop-color="#FDF53F"/>
<stop offset="1" stop-color="#D93C65"/>
</linearGradient>
<linearGradient id="paint28_linear" x1="26960.4" y1="6926.36" x2="27563.7" y2="6926.36" gradientUnits="userSpaceOnUse">
<stop stop-color="#F9B776"/>
<stop offset="1" stop-color="#F47960"/>
</linearGradient>
<linearGradient id="paint29_linear" x1="19385" y1="8905.68" x2="19376.3" y2="10017.6" gradientUnits="userSpaceOnUse">
<stop stop-color="#F9B776"/>
<stop offset="1" stop-color="#F47960"/>
</linearGradient>
<linearGradient id="paint30_linear" x1="20271.1" y1="34411.9" x2="20116.3" y2="35167.6" gradientUnits="userSpaceOnUse">
<stop stop-color="#F9B776"/>
<stop offset="1" stop-color="#F47960"/>
</linearGradient>
<linearGradient id="paint31_linear" x1="-8776.97" y1="22040.5" x2="-6905.88" y2="21389.3" gradientUnits="userSpaceOnUse">
<stop stop-color="#CB236D"/>
<stop offset="1" stop-color="#4C246D"/>
</linearGradient>
<linearGradient id="paint32_linear" x1="6250.63" y1="10837.7" x2="6298.2" y2="10664.4" gradientUnits="userSpaceOnUse">
<stop stop-color="#F9B776"/>
<stop offset="1" stop-color="#F47960"/>
</linearGradient>
<linearGradient id="paint33_linear" x1="19191.6" y1="2664.99" x2="19088" y2="2974.07" gradientUnits="userSpaceOnUse">
<stop stop-color="#F9B776"/>
<stop offset="1" stop-color="#F47960"/>
</linearGradient>
<linearGradient id="paint34_linear" x1="9549.12" y1="3955.53" x2="9626.48" y2="3955.53" gradientUnits="userSpaceOnUse">
<stop stop-color="#F9B776"/>
<stop offset="1" stop-color="#F47960"/>
</linearGradient>
</defs>
</svg>
