<svg width="80" height="80" viewBox="0 0 80 80" fill="none" xmlns="http://www.w3.org/2000/svg">
<path d="M37.4264 37.1109C37.2713 42.7791 36.7533 62.3284 36.9984 69.2558C37.0247 69.9893 37.6885 70.5786 38.5181 70.6019C42.6184 70.7213 57.6487 71.0222 64.3544 70.7725C65.7501 70.7213 66.862 69.7195 66.8899 68.482C67.0295 62.5331 67.3381 45.8016 66.6061 38.1376C66.5193 37.2195 65.7051 36.4875 64.6692 36.396C60.2044 36.0006 45.109 35.0344 39.3153 35.3663C38.2716 35.4268 37.4528 36.1851 37.4264 37.1109Z" fill="#A70D34"/>
<path d="M39.256 38.4322C39.0342 39.7566 38.3379 44.1702 38.5596 45.7923C38.5922 46.0311 39.3242 46.2234 40.2516 46.2374C44.0727 46.2947 57.1087 46.4219 62.7132 46.3056C63.7228 46.2854 64.5137 46.0761 64.5742 45.8171C64.8595 44.4664 65.6737 40.363 65.4628 38.7517C65.4287 38.4942 64.6517 38.2864 63.653 38.2616C59.5186 38.1655 45.6638 37.9391 40.9044 38.0057C40.005 38.0182 39.2932 38.2027 39.256 38.4322Z" fill="url(#paint0_linear)"/>
<path opacity="0.2" d="M63.7154 39.583C63.6146 39.4789 63.4942 39.3957 63.3611 39.3382C63.228 39.2807 63.0849 39.2501 62.94 39.248L41.4677 38.9069C41.1909 38.9025 40.9226 39.0028 40.7165 39.1877C40.5103 39.3725 40.3815 39.6284 40.3558 39.904L39.9107 44.6665C39.8735 45.0573 40.5155 45.3861 41.3328 45.3954L62.4437 45.6513C63.2595 45.6606 63.9356 45.3489 63.9418 44.9596L64.0209 40.3662C64.0246 40.2219 63.9995 40.0783 63.947 39.9438C63.8946 39.8093 63.8158 39.6867 63.7154 39.583Z" fill="white"/>
<path opacity="0.63" d="M56.3009 49.3761H54.4058C53.5588 49.3761 52.8721 50.0628 52.8721 50.9098V50.944C52.8721 51.791 53.5588 52.4777 54.4058 52.4777H56.3009C57.1479 52.4777 57.8346 51.791 57.8346 50.944V50.9098C57.8346 50.0628 57.1479 49.3761 56.3009 49.3761Z" fill="#FFD3DF"/>
<path opacity="0.63" d="M48.9405 49.3761H47.0455C46.1984 49.3761 45.5117 50.0628 45.5117 50.9098V50.944C45.5117 51.791 46.1984 52.4777 47.0455 52.4777H48.9405C49.7876 52.4777 50.4743 51.791 50.4743 50.944V50.9098C50.4743 50.0628 49.7876 49.3761 48.9405 49.3761Z" fill="#FFD3DF"/>
<path opacity="0.63" d="M41.9855 49.3761H40.0904C39.2433 49.3761 38.5566 50.0628 38.5566 50.9098V50.944C38.5566 51.791 39.2433 52.4777 40.0904 52.4777H41.9855C42.8325 52.4777 43.5192 51.791 43.5192 50.944V50.9098C43.5192 50.0628 42.8325 49.3761 41.9855 49.3761Z" fill="#FFD3DF"/>
<path d="M64.7113 51.1751C64.7115 51.38 64.6713 51.5829 64.593 51.7723C64.5146 51.9617 64.3997 52.1337 64.2548 52.2787C64.1099 52.4236 63.9378 52.5385 63.7485 52.6168C63.5591 52.6951 63.3561 52.7353 63.1512 52.7351H61.3477C60.9354 52.7331 60.5407 52.5678 60.2501 52.2754C59.9594 51.983 59.7965 51.5873 59.7969 51.1751C59.7989 50.7644 59.963 50.3711 60.2533 50.0807C60.5437 49.7903 60.937 49.6263 61.3477 49.6243H63.1528C63.565 49.6239 63.9607 49.7868 64.2531 50.0775C64.5455 50.3681 64.7108 50.7628 64.7129 51.1751H64.7113Z" fill="url(#paint1_linear)"/>
<path opacity="0.63" d="M56.3009 54.1836H54.4058C53.5588 54.1836 52.8721 54.8703 52.8721 55.7173V55.7515C52.8721 56.5985 53.5588 57.2852 54.4058 57.2852H56.3009C57.1479 57.2852 57.8346 56.5985 57.8346 55.7515V55.7173C57.8346 54.8703 57.1479 54.1836 56.3009 54.1836Z" fill="#FFD3DF"/>
<path opacity="0.63" d="M48.9405 54.1836H47.0455C46.1984 54.1836 45.5117 54.8703 45.5117 55.7173V55.7515C45.5117 56.5985 46.1984 57.2852 47.0455 57.2852H48.9405C49.7876 57.2852 50.4743 56.5985 50.4743 55.7515V55.7173C50.4743 54.8703 49.7876 54.1836 48.9405 54.1836Z" fill="#FFD3DF"/>
<path opacity="0.63" d="M41.9855 54.1836H40.0904C39.2433 54.1836 38.5566 54.8703 38.5566 55.7173V55.7515C38.5566 56.5985 39.2433 57.2852 40.0904 57.2852H41.9855C42.8325 57.2852 43.5192 56.5985 43.5192 55.7515V55.7173C43.5192 54.8703 42.8325 54.1836 41.9855 54.1836Z" fill="#FFD3DF"/>
<path d="M63.2794 54.1836H61.3843C60.5373 54.1836 59.8506 54.8703 59.8506 55.7173V55.7515C59.8506 56.5985 60.5373 57.2852 61.3843 57.2852H63.2794C64.1265 57.2852 64.8131 56.5985 64.8131 55.7515V55.7173C64.8131 54.8703 64.1265 54.1836 63.2794 54.1836Z" fill="#FFD3DF"/>
<path opacity="0.63" d="M56.3009 58.8359H54.4058C53.5588 58.8359 52.8721 59.5226 52.8721 60.3697V60.4038C52.8721 61.2509 53.5588 61.9375 54.4058 61.9375H56.3009C57.1479 61.9375 57.8346 61.2509 57.8346 60.4038V60.3697C57.8346 59.5226 57.1479 58.8359 56.3009 58.8359Z" fill="#FFD3DF"/>
<path opacity="0.63" d="M48.9405 58.8359H47.0455C46.1984 58.8359 45.5117 59.5226 45.5117 60.3697V60.4038C45.5117 61.2509 46.1984 61.9375 47.0455 61.9375H48.9405C49.7876 61.9375 50.4743 61.2509 50.4743 60.4038V60.3697C50.4743 59.5226 49.7876 58.8359 48.9405 58.8359Z" fill="#FFD3DF"/>
<path opacity="0.63" d="M41.9855 58.8359H40.0904C39.2433 58.8359 38.5566 59.5226 38.5566 60.3697V60.4038C38.5566 61.2509 39.2433 61.9375 40.0904 61.9375H41.9855C42.8325 61.9375 43.5192 61.2509 43.5192 60.4038V60.3697C43.5192 59.5226 42.8325 58.8359 41.9855 58.8359Z" fill="#FFD3DF"/>
<path opacity="0.63" d="M56.3009 63.4884H54.4058C53.5588 63.4884 52.8721 64.1751 52.8721 65.0221V65.0563C52.8721 65.9033 53.5588 66.59 54.4058 66.59H56.3009C57.1479 66.59 57.8346 65.9033 57.8346 65.0563V65.0221C57.8346 64.1751 57.1479 63.4884 56.3009 63.4884Z" fill="#FFD3DF"/>
<path opacity="0.63" d="M48.9405 63.4884H47.0455C46.1984 63.4884 45.5117 64.1751 45.5117 65.0221V65.0563C45.5117 65.9033 46.1984 66.59 47.0455 66.59H48.9405C49.7876 66.59 50.4743 65.9033 50.4743 65.0563V65.0221C50.4743 64.1751 49.7876 63.4884 48.9405 63.4884Z" fill="#FFD3DF"/>
<path opacity="0.63" d="M41.9855 63.4884H40.0904C39.2433 63.4884 38.5566 64.1751 38.5566 65.0221V65.0563C38.5566 65.9033 39.2433 66.59 40.0904 66.59H41.9855C42.8325 66.59 43.5192 65.9033 43.5192 65.0563V65.0221C43.5192 64.1751 42.8325 63.4884 41.9855 63.4884Z" fill="#FFD3DF"/>
<path d="M62.2516 58.991H62.1027C61.0304 58.991 60.1611 59.8603 60.1611 60.9326V64.6483C60.1611 65.7206 61.0304 66.5899 62.1027 66.5899H62.2516C63.3239 66.5899 64.1932 65.7206 64.1932 64.6483V60.9326C64.1932 59.8603 63.3239 58.991 62.2516 58.991Z" fill="#FFD3DF"/>
<g opacity="0.7">
<path opacity="0.7" d="M61.4024 40.2264C61.4024 40.3087 61.3697 40.3876 61.3115 40.4457C61.2534 40.5039 61.1745 40.5366 61.0922 40.5366H60.1617C60.0795 40.5366 60.0006 40.5039 59.9424 40.4457C59.8842 40.3876 59.8516 40.3087 59.8516 40.2264C59.8516 40.1442 59.8842 40.0653 59.9424 40.0071C60.0006 39.9489 60.0795 39.9163 60.1617 39.9163H61.0922C61.1745 39.9163 61.2534 39.9489 61.3115 40.0071C61.3697 40.0653 61.4024 40.1442 61.4024 40.2264Z" fill="white"/>
<path opacity="0.7" d="M61.4024 44.8788C61.4024 44.961 61.3697 45.0399 61.3115 45.0981C61.2534 45.1563 61.1745 45.1889 61.0922 45.1889H60.1617C60.0795 45.1889 60.0006 45.1563 59.9424 45.0981C59.8842 45.0399 59.8516 44.961 59.8516 44.8788C59.8516 44.7965 59.8842 44.7176 59.9424 44.6595C60.0006 44.6013 60.0795 44.5686 60.1617 44.5686H61.0922C61.1745 44.5686 61.2534 44.6013 61.3115 44.6595C61.3697 44.7176 61.4024 44.7965 61.4024 44.8788Z" fill="white"/>
<path opacity="0.7" d="M59.8508 42.0873C59.8508 42.1696 59.8181 42.2485 59.76 42.3066C59.7018 42.3648 59.6229 42.3975 59.5406 42.3975C59.4584 42.3975 59.3795 42.3648 59.3213 42.3066C59.2632 42.2485 59.2305 42.1696 59.2305 42.0873V41.1568C59.2305 41.0746 59.2632 40.9957 59.3213 40.9375C59.3795 40.8794 59.4584 40.8467 59.5406 40.8467C59.6229 40.8467 59.7018 40.8794 59.76 40.9375C59.8181 40.9957 59.8508 41.0746 59.8508 41.1568V42.0873Z" fill="white"/>
<path opacity="0.7" d="M59.8508 43.9483C59.8508 44.0305 59.8181 44.1094 59.76 44.1676C59.7018 44.2257 59.6229 44.2584 59.5406 44.2584C59.4584 44.2584 59.3795 44.2257 59.3213 44.1676C59.2632 44.1094 59.2305 44.0305 59.2305 43.9483V43.0178C59.2305 42.9355 59.2632 42.8567 59.3213 42.7985C59.3795 42.7403 59.4584 42.7076 59.5406 42.7076C59.6229 42.7076 59.7018 42.7403 59.76 42.7985C59.8181 42.8567 59.8508 42.9355 59.8508 43.0178V43.9483Z" fill="white"/>
<path opacity="0.7" d="M62.177 42.0873C62.177 42.1696 62.1443 42.2485 62.0861 42.3066C62.028 42.3648 61.9491 42.3975 61.8668 42.3975C61.7845 42.3975 61.7057 42.3648 61.6475 42.3066C61.5893 42.2485 61.5566 42.1696 61.5566 42.0873V41.1568C61.5566 41.0746 61.5893 40.9957 61.6475 40.9375C61.7057 40.8794 61.7845 40.8467 61.8668 40.8467C61.9491 40.8467 62.028 40.8794 62.0861 40.9375C62.1443 40.9957 62.177 41.0746 62.177 41.1568V42.0873Z" fill="white"/>
<path opacity="0.7" d="M62.177 43.9483C62.177 44.0305 62.1443 44.1094 62.0861 44.1676C62.028 44.2257 61.9491 44.2584 61.8668 44.2584C61.7845 44.2584 61.7057 44.2257 61.6475 44.1676C61.5893 44.1094 61.5566 44.0305 61.5566 43.9483V43.0178C61.5566 42.9355 61.5893 42.8567 61.6475 42.7985C61.7057 42.7403 61.7845 42.7076 61.8668 42.7076C61.9491 42.7076 62.028 42.7403 62.0861 42.7985C62.1443 42.8567 62.177 42.9355 62.177 43.0178V43.9483Z" fill="white"/>
</g>
<path d="M49.1824 9.74636C49.4327 9.2151 50.164 9.08777 50.7042 9.04387C51.5826 8.96923 52.7751 8.93191 53.5942 9.29852C55.3884 10.1042 56.1811 12.0602 57.6744 13.2346C58.8822 14.1852 60.4063 14.3323 61.8886 14.3849C64.4426 14.4859 67.9957 15.5989 67.3984 18.8479C67.2249 19.8029 66.856 20.7358 66.7857 21.7018C66.7374 22.3603 67.1305 22.7335 67.5675 23.1923C68.8412 24.5271 70.5058 26.1889 69.7065 28.2085C68.4921 31.2819 65.0575 30.597 62.5298 30.3643C61.3813 30.2589 60.6413 30.6716 59.7848 31.3895C58.9284 32.1073 58.118 32.6803 56.9497 32.5551C56.2053 32.4761 55.1666 32.1995 54.5692 31.7144C53.7084 31.0163 53.8951 29.5937 53.6777 28.6147C53.4142 27.3594 52.8172 26.1984 51.9494 25.2537C51.1149 24.3536 50.3002 23.3899 49.9049 22.2089C49.492 20.9839 49.861 19.7699 50.1486 18.5647C50.4034 17.4956 50.0981 16.4353 49.9422 15.3794C49.8368 14.6616 49.7775 13.9393 49.6414 13.2259C49.4415 12.1831 48.8881 11.0108 49.1187 9.93295C49.132 9.86832 49.1534 9.80563 49.1824 9.74636Z" fill="url(#paint2_linear)"/>
<path d="M35.2247 48.0518C35.2423 48.0518 44.6319 31.7278 45.9002 30.2042C46.0049 30.0771 46.1402 29.9783 46.2937 29.9171C46.4472 29.8558 46.6138 29.834 46.778 29.8537L49.398 30.1628L52.4701 36.7708L47.3485 33.8085C47.8554 37.291 41.2658 42.4624 39.01 44.3517C38.9558 44.397 38.9116 44.4528 38.88 44.5157C38.8485 44.5787 38.8303 44.6473 38.8266 44.7175C38.8229 44.7877 38.8338 44.8579 38.8585 44.9238C38.8833 44.9896 38.9214 45.0497 38.9705 45.1004L39.8723 46.0385C38.4828 47.4712 36.7047 48.4744 34.7529 48.9267L35.2247 48.0518Z" fill="url(#paint3_linear)"/>
<path d="M39.399 45.5195C39.5685 45.5787 39.7244 45.6724 39.8572 45.7949C39.99 45.9174 40.0969 46.0662 40.1714 46.2321C40.2141 46.3559 40.2157 46.4904 40.1759 46.6151C40.1361 46.7398 40.0572 46.8477 39.9514 46.9223C39.0006 47.617 35.8622 49.8557 34.4163 50.2837C34.389 50.2912 34.3603 50.2915 34.3328 50.2845C34.3054 50.2774 34.2802 50.2634 34.2596 50.2436C34.2391 50.2238 34.2239 50.1989 34.2155 50.1714C34.2071 50.1439 34.2057 50.1147 34.2116 50.0865C34.2843 49.7436 34.5263 49.0601 35.2988 48.0697L35.2306 48.2108C35.2106 48.25 35.2035 48.2946 35.2105 48.3381C35.2175 48.3817 35.2382 48.4217 35.2695 48.4522C35.3007 48.4828 35.3408 48.5022 35.3838 48.5076C35.4268 48.5129 35.4704 48.504 35.5079 48.482C36.4807 47.9285 38.4526 46.7094 39.399 45.5195Z" fill="#A70D34"/>
<path d="M38.9872 52.0583C39.0024 52.0474 40.3957 48.6673 40.4131 48.6586C41.6892 40.8279 44.8058 34.1223 45.726 32.3569C45.8017 32.2111 45.9128 32.0869 46.0491 31.9959C46.1853 31.905 46.3422 31.8503 46.5051 31.8369L49.1094 31.6184L53.424 37.4937L47.8572 35.6146C49.053 38.9357 43.7141 45.3485 41.9063 47.6601C41.8629 47.7157 41.8313 47.7797 41.8133 47.8481C41.7954 47.9164 41.7915 47.9878 41.8018 48.0577C41.8122 48.1276 41.8366 48.1947 41.8736 48.2548C41.9106 48.315 41.9594 48.3668 42.0169 48.4073L43.0804 49.1458C42.0244 50.8346 40.5046 52.1787 38.7051 53.0153L38.9872 52.0583Z" fill="url(#paint4_linear)"/>
<path d="M42.4876 48.7904C42.6664 48.8138 42.8386 48.8725 42.994 48.9631C43.1494 49.0536 43.2848 49.1741 43.3921 49.3175C43.4584 49.4274 43.4865 49.5557 43.4721 49.6829C43.4577 49.81 43.4016 49.9291 43.3125 50.0218C42.5141 50.8769 39.8759 53.648 38.538 54.3589C38.5127 54.3723 38.4844 54.3789 38.4558 54.3781C38.4271 54.3773 38.3992 54.369 38.3748 54.3542C38.3504 54.3393 38.3304 54.3184 38.3167 54.2935C38.3031 54.2686 38.2962 54.2406 38.2969 54.2123C38.2969 53.8689 38.4031 53.1691 38.9604 52.0558L38.9206 52.2067C38.9093 52.248 38.9118 52.2918 38.9276 52.3316C38.9435 52.3714 38.9719 52.405 39.0086 52.4276C39.0453 52.4502 39.0884 52.4605 39.1315 52.4569C39.1746 52.4534 39.2154 52.4362 39.2478 52.4079C40.0816 51.6818 41.7799 50.1224 42.4876 48.7904Z" fill="#A70D34"/>
<path d="M61.3152 30.3672C61.3152 30.3672 63.6958 33.9154 63.8912 35.5322C64.0867 37.1491 63.2324 37.71 60.742 37.9168C53.3257 38.5305 49.6714 36.3043 49.6714 36.3043C49.1641 33.0641 48.7929 32.2414 44.5654 30.4794C44.5654 30.4794 49.9239 30.9061 51.0022 30.4794C52.0805 30.0526 61.3152 30.3672 61.3152 30.3672Z" fill="url(#paint5_linear)"/>
<path d="M54.9352 29.9829C54.9352 29.9829 52.1647 27.3533 50.7992 25.6002C50.4368 25.1347 50.1908 24.5898 50.0816 24.0105C49.9724 23.4312 50.0032 22.8343 50.1713 22.2693C50.7948 20.1743 51.9012 18.0049 52.0022 17.6674C52.1581 17.1502 55.2645 17.1721 55.2645 17.1721C55.2645 17.1721 61.3808 21.1341 63.7825 27.8441L61.0844 28.6834C61.0844 28.6834 59.4884 26.0077 57.9099 24.3007C57.9099 24.3007 60.6409 27.8989 60.7375 29.3737L54.9352 29.9829Z" fill="url(#paint6_linear)"/>
<path d="M51.6523 14.8219C51.6858 14.9294 52.5076 17.6165 52.5722 17.6735C52.6368 17.7306 54.3784 17.8227 55.1958 17.2721L53.5254 13.6287L51.6523 14.8219Z" fill="url(#paint7_linear)"/>
<path d="M49.4258 11.7354C49.4258 11.7354 48.8548 13.0707 49.5257 15.0999C50.1965 17.1291 51.2929 17.296 51.9877 16.8019C52.6824 16.3078 53.5834 15.4051 53.6942 13.567C53.8049 11.7288 50.2117 10.0488 49.4258 11.7354Z" fill="url(#paint8_linear)"/>
<path d="M52.2635 13.5166C52.2635 13.5166 51.0608 10.8078 49.2461 12.4945L49.106 13.1918C49.106 13.1918 47.3817 12.7002 47.9529 11.1347C48.1177 10.7163 48.3693 10.3379 48.6909 10.0248C49.0125 9.71162 49.3968 9.47083 49.8182 9.31844C50.2397 9.16604 50.6885 9.10553 51.135 9.14093C51.5815 9.17632 52.0154 9.30681 52.4079 9.52372C54.2463 10.5371 54.8713 11.7323 54.7787 13.1571C54.686 14.5819 53.617 14.0925 53.617 14.0925C53.617 14.0925 53.4122 13.0467 52.9144 12.8605C52.4165 12.6743 52.4251 13.4668 52.4251 13.4668L52.2635 13.5166Z" fill="url(#paint9_linear)"/>
<path d="M52.7281 13.5122C52.7281 13.5122 51.9849 12.1786 53.0243 12.1308C54.0638 12.0829 53.6424 13.4165 53.4355 13.9012L52.7281 13.5122Z" fill="url(#paint10_linear)"/>
<path d="M49.7451 30.9841L51.8222 28.7211L54.2297 29.368C54.2297 29.368 57.0246 29.8065 58.6246 29.368L60.2245 28.9294L63.8402 27.8024L64.4092 29.4097C64.4791 29.6084 64.4822 29.8245 64.4182 30.0252C64.3542 30.2258 64.2266 30.4001 64.0547 30.5214C63.7674 30.7375 63.4621 30.9282 63.142 31.0915C62.6671 31.3108 52.1745 31.1573 52.1745 31.1573L49.7451 30.9841Z" fill="url(#paint11_linear)"/>
<path d="M56.6295 31.891H56.6073L46.9593 31.879C46.8605 31.8557 46.772 31.7963 46.7085 31.7106C46.645 31.6249 46.6104 31.5181 46.6104 31.408C46.6104 31.2979 46.645 31.1911 46.7085 31.1054C46.772 31.0197 46.8605 30.9602 46.9593 30.937L56.6073 30.9491C56.7068 30.9694 56.7969 31.0263 56.8625 31.1102C56.9281 31.1942 56.9653 31.3001 56.9679 31.4103C56.9705 31.5205 56.9383 31.6284 56.8767 31.7159C56.8151 31.8033 56.7279 31.8652 56.6295 31.891Z" fill="url(#paint12_linear)"/>
<path d="M38.3823 23.3049H46.3319C46.6199 23.3072 46.9014 23.3897 47.1442 23.543C47.3869 23.6963 47.5812 23.9142 47.7046 24.1718L51.3805 31.8909H41.5021C41.3157 31.8916 41.1334 31.8362 40.9794 31.7321C40.8253 31.628 40.7069 31.4801 40.6395 31.308L37.7934 24.1566C37.757 24.0618 37.7443 23.9597 37.7564 23.859C37.7685 23.7584 37.8051 23.6621 37.8629 23.5784C37.9208 23.4947 37.9983 23.4262 38.0887 23.3785C38.1791 23.3309 38.2799 23.3057 38.3823 23.3049Z" fill="url(#paint13_linear)"/>
<path opacity="0.6" d="M55.5705 11.6211C55.9804 12.5734 56.6011 13.4202 57.386 14.0978C57.7803 14.4271 58.2364 14.6743 58.7275 14.8251C58.9728 14.8954 59.2246 14.9407 59.4791 14.9605L60.2612 15.0042C61.3083 15.039 62.3509 15.1581 63.3789 15.3602C63.8999 15.4667 64.3997 15.6586 64.8581 15.928C65.3328 16.2072 65.6795 16.6611 65.8237 17.1926C65.8297 17.2166 65.8259 17.242 65.8133 17.2633C65.8006 17.2846 65.78 17.3 65.756 17.3062C65.7317 17.3115 65.7063 17.3071 65.6851 17.2941C65.6639 17.2811 65.6486 17.2603 65.6424 17.2363C65.5145 16.7495 65.2007 16.3323 64.7685 16.0743C64.3271 15.8131 63.8459 15.6257 63.344 15.5196C62.3265 15.3142 61.2941 15.1908 60.2569 15.1505L59.4747 15.1003C59.2095 15.0798 58.9472 15.0308 58.6925 14.9539C58.186 14.7951 57.716 14.5375 57.3096 14.1961C56.9062 13.8553 56.5493 13.4632 56.2478 13.0298C55.943 12.6011 55.6831 12.1422 55.4722 11.6604C55.4674 11.647 55.4676 11.6323 55.4729 11.619C55.4781 11.6058 55.4879 11.5949 55.5006 11.5883C55.5139 11.583 55.5288 11.583 55.5422 11.5883C55.5556 11.5936 55.5665 11.6037 55.5727 11.6167L55.5705 11.6211Z" fill="white"/>
<path opacity="0.6" d="M68.9613 26.6187C68.9217 26.8887 68.8499 27.153 68.7474 27.4061C68.6506 27.6599 68.5166 27.8979 68.3497 28.1124C68.1777 28.3258 67.958 28.4961 67.7082 28.6096C67.4588 28.717 67.1883 28.7666 66.917 28.7547C66.917 28.7547 66.917 28.7547 66.917 28.7547C67.1841 28.7585 67.4487 28.7024 67.6911 28.5904C67.9279 28.4714 68.1342 28.2998 68.2941 28.0889C68.4508 27.8751 68.5747 27.6392 68.6619 27.389C68.7512 27.1414 68.8114 26.8844 68.8415 26.623C68.8432 26.6092 68.8501 26.5966 68.8609 26.5878C68.8716 26.579 68.8854 26.5748 68.8993 26.576C68.9063 26.5768 68.9131 26.579 68.9193 26.5824C68.9255 26.5859 68.931 26.5905 68.9353 26.5961C68.9397 26.6016 68.9429 26.608 68.9448 26.6148C68.9467 26.6216 68.9472 26.6287 68.9463 26.6358L68.9613 26.6187Z" fill="white"/>
<path d="M30.7444 69.2334C29.5542 69.3382 27.4854 69.5093 25.8549 69.582C24.8753 69.6248 24.3107 69.5286 23.9863 69.396C23.9863 69.4323 23.9863 69.4687 23.9863 69.5008C23.9909 69.5853 24.0262 69.6651 24.0853 69.7247C24.1445 69.7844 24.2233 69.8196 24.3065 69.8237C26.4396 69.9452 28.5777 69.9452 30.7107 69.8237C30.7517 69.8213 30.7913 69.8083 30.8259 69.7859C30.8605 69.7635 30.8888 69.7325 30.9083 69.6958C30.9277 69.6592 30.9376 69.6181 30.9369 69.5764C30.9362 69.5348 30.9251 69.494 30.9045 69.458C30.8565 69.3793 30.803 69.3043 30.7444 69.2334Z" fill="#A70D34"/>
<path d="M25.8358 69.6322C27.446 69.5615 29.4889 69.395 30.6643 69.293C29.5077 67.8738 25.8358 66.9165 25.8358 66.9165H24.7956C24.2679 67.6561 23.9849 68.5425 23.9863 69.4512C24.3109 69.5802 24.8643 69.6739 25.8358 69.6322Z" fill="#DC1C4D"/>
<path d="M24.668 65.1448L24.7623 67.1455C24.7661 67.2519 24.8052 67.3536 24.8726 67.4327C24.9401 67.5118 25.0318 67.5635 25.1316 67.5786C25.3896 67.6189 25.6528 67.5959 25.901 67.5115C25.9884 67.4813 26.0663 67.4267 26.1267 67.3535C26.187 67.2803 26.2274 67.1912 26.2436 67.0957L26.576 65.1469L24.668 65.1448Z" fill="url(#paint14_linear)"/>
<path d="M11.0551 69.5849C10.5498 69.5142 10.3218 69.2479 10.2335 68.9608C10.2033 69.1196 10.2315 69.2841 10.3129 69.4232C10.3942 69.5624 10.5231 69.6665 10.6751 69.7159C11.0631 69.8691 11.4794 69.9351 11.8951 69.9094C12.0691 69.9092 12.241 69.871 12.3991 69.7974C12.5571 69.7238 12.6977 69.6166 12.8111 69.4829C12.427 69.6806 11.8951 69.7034 11.0551 69.5849Z" fill="#A70D34"/>
<path d="M13.5429 65.145H12.6673C11.3337 65.1178 10.4944 67.8759 10.2217 68.9428C10.3197 69.2267 10.5561 69.494 11.0738 69.5692C11.9451 69.6882 12.4969 69.6652 12.891 69.4752C13.6111 68.5461 13.969 67.1786 14.1394 66.3893C14.203 66.1463 14.1783 65.8891 14.0694 65.662C13.9606 65.435 13.7744 65.2521 13.5429 65.145Z" fill="#DC1C4D"/>
<path d="M12.7561 63.373L12.2808 65.274C12.2527 65.3873 12.2639 65.5068 12.3123 65.613C12.3608 65.7191 12.4438 65.8055 12.5476 65.8581C12.8463 66.0302 13.1877 66.1131 13.5317 66.0968C13.6114 66.0878 13.6868 66.056 13.7489 66.0051C13.811 65.9543 13.8572 65.8865 13.882 65.8099L14.5825 63.8106L12.7561 63.373Z" fill="url(#paint15_linear)"/>
<path d="M12.1299 63.9532C12.7273 64.4806 14.6621 64.5497 14.6621 64.5497C21.6384 47.8323 24.4914 45.4587 24.4914 45.4587C23.4852 51.7673 24.33 65.7365 24.33 65.7365C25.4808 66.2451 26.9649 65.7365 26.9649 65.7365C27.051 56.8098 28.248 47.9285 30.5285 39.2967C25.8141 39.1899 23.307 37.5804 22.4895 36.9336C18.5548 43.2589 12.1299 63.9532 12.1299 63.9532Z" fill="#A70D34"/>
<path d="M23.7172 17.6961C22.8214 22.1465 23.1431 30.1145 23.3534 33.7474C23.4123 34.7704 22.6973 36.1854 22.119 37.1518C22.0985 37.1871 22.0853 37.2261 22.0804 37.2666C22.0754 37.3071 22.0787 37.3482 22.0901 37.3874C22.1015 37.4266 22.1208 37.4631 22.1467 37.4946C22.1726 37.5262 22.2047 37.5522 22.241 37.571C23.2104 38.0678 26.4887 39.6044 30.2885 39.7952C30.4119 39.7998 30.5332 39.7625 30.6325 39.6894C30.7319 39.6163 30.8033 39.5116 30.8352 39.3927C33.6529 28.8987 36.9333 22.1926 36.9333 22.1926C33.3123 16.4446 23.7172 17.6961 23.7172 17.6961Z" fill="url(#paint16_linear)"/>
<path d="M18.126 30.43C18.4077 32.5151 19.2384 34.79 20.8998 37.2061L21.5331 36.6791C21.085 34.5521 20.9787 32.3644 21.2185 30.2023C20.1925 29.9978 18.9814 30.2086 18.126 30.43Z" fill="url(#paint17_linear)"/>
<path d="M24.6683 23.1664L23.6772 17.7172C23.6772 17.7172 17.0484 22.767 18.1042 30.3918C18.9722 30.1734 20.2011 29.9654 21.2339 30.1672C21.5448 27.7171 22.4503 25.0611 24.6683 23.1664Z" fill="url(#paint18_linear)"/>
<path d="M36.8677 22.2146L34.3447 27.6933C34.7553 31.0125 36.5105 32.4315 38.4053 32.9812C38.4993 31.7542 38.7848 30.55 39.251 29.4131C36.8348 26.8863 36.8677 22.2146 36.8677 22.2146Z" fill="url(#paint19_linear)"/>
<path d="M39.2976 29.4377C38.8207 30.5991 38.5288 31.8293 38.4326 33.0827C43.6055 35.1087 44.9744 31.1755 44.9744 31.1755L44.0191 31.0038C41.8609 31.2327 40.362 30.5291 39.2976 29.4377Z" fill="url(#paint20_linear)"/>
<path d="M34.481 15.3963L33.2579 19.9283C33.2256 20.0484 33.1685 20.1603 33.0903 20.2565C33.012 20.3528 32.9145 20.4312 32.804 20.4867C32.6935 20.5422 32.5727 20.5735 32.4493 20.5784C32.326 20.5834 32.203 20.562 32.0885 20.5157C31.4868 20.2774 30.8985 20.0063 30.3261 19.7034C30.1819 19.6243 30.0556 19.5157 29.9554 19.3845C29.8552 19.2534 29.7834 19.1025 29.7445 18.9417C29.7056 18.7808 29.7004 18.6136 29.7295 18.4507C29.7585 18.2877 29.821 18.1327 29.9129 17.9955L32.4542 14.1737L34.481 15.3963Z" fill="url(#paint21_linear)"/>
<path d="M35.5933 11.2216C35.6354 11.2871 36.7974 16.4315 36.7974 16.4315L33.8503 17.0357L32.0273 12.3223C32.0273 12.3223 34.8712 10.0934 35.5933 11.2216Z" fill="url(#paint22_linear)"/>
<path d="M33.0991 13.1079L33.8657 15.6418C33.8745 15.6739 33.8887 15.7044 33.9078 15.7318C34.0195 15.9077 34.4491 16.4815 35.0135 16.0103C35.5253 15.581 35.9991 15.1957 36.4246 15.1434C36.5159 15.1312 36.6085 15.1534 36.6841 15.2058C36.7597 15.2581 36.8129 15.3367 36.8331 15.4261C37.0216 16.2325 37.1462 17.0524 37.2059 17.8782C37.2104 17.9704 37.1801 18.0608 37.1208 18.1318C37.0615 18.2027 36.9777 18.249 36.8858 18.2614C35.964 18.4014 35.0289 18.4344 34.0995 18.3599C34.033 18.3524 33.9697 18.3273 33.9164 18.2871C33.863 18.2469 33.8215 18.1932 33.7962 18.1316C33.5477 17.516 32.7853 15.6501 32.4926 15.1622C32.1998 14.6743 31.4901 14.6827 31.1847 14.6952C31.1353 14.6973 31.086 14.6895 31.0397 14.6722C30.9933 14.655 30.951 14.6286 30.9151 14.5947C30.6603 14.3497 30.1822 13.7319 30.9299 13.0556C30.9669 13.0222 30.9968 12.9817 31.0176 12.9365C31.0385 12.8913 31.05 12.8424 31.0514 12.7927C31.0527 12.743 31.044 12.6936 31.0257 12.6474C31.0073 12.6011 30.9797 12.559 30.9446 12.5237C30.654 12.2221 30.3486 11.7007 30.8899 11.0934C31.4311 10.4861 32.1198 10.6118 32.5326 10.7835C32.6128 10.8166 32.7023 10.8205 32.7851 10.7945C32.868 10.7684 32.9389 10.7141 32.9854 10.6411C33.0177 10.591 33.0648 10.552 33.1202 10.5296C33.1756 10.5071 33.2366 10.5021 33.295 10.5154C33.3457 10.521 33.3971 10.5159 33.4458 10.5007C33.4946 10.4854 33.5396 10.4602 33.578 10.4268C33.6164 10.3933 33.6474 10.3522 33.669 10.3062C33.6906 10.2602 33.7024 10.2102 33.7035 10.1594C33.6982 9.89691 33.7871 9.64107 33.9542 9.43771C34.1213 9.23436 34.3557 9.09677 34.6155 9.04958C35.9023 8.71662 36.6373 9.97516 36.6731 10.8882C36.7089 11.8012 35.2894 12.0839 34.468 11.9855C33.8362 11.908 33.3497 12.5048 33.1476 12.7938C33.1166 12.8393 33.0961 12.8911 33.0878 12.9454C33.0794 12.9998 33.0833 13.0553 33.0991 13.1079Z" fill="url(#paint23_linear)"/>
<path d="M32.7087 16.0938C32.7087 16.0938 32.5861 14.4386 31.9694 14.3252C31.3526 14.2118 30.724 14.7439 31.3012 15.6991C32.0188 16.8898 32.7087 16.0938 32.7087 16.0938Z" fill="url(#paint24_linear)"/>
<path d="M35.8052 11.448C35.7952 11.4479 35.7854 11.4449 35.7771 11.4395C35.7688 11.4341 35.7623 11.4264 35.7583 11.4173C35.7544 11.4083 35.7532 11.3984 35.7549 11.3887C35.7566 11.3791 35.7611 11.3701 35.7679 11.3629C35.7949 11.3346 36.4221 10.6902 35.5816 9.62631C35.5776 9.62099 35.5746 9.61494 35.5729 9.60849C35.5712 9.60205 35.5708 9.59534 35.5718 9.58875C35.5728 9.58217 35.575 9.57583 35.5785 9.57011C35.582 9.56438 35.5865 9.55938 35.592 9.55539C35.5966 9.55054 35.6022 9.54668 35.6085 9.54404C35.6147 9.5414 35.6214 9.54004 35.6282 9.54004C35.635 9.54004 35.6417 9.5414 35.648 9.54404C35.6542 9.54668 35.6598 9.55054 35.6644 9.55539C36.5608 10.6922 35.8487 11.4177 35.8404 11.4258C35.8367 11.4319 35.8315 11.437 35.8254 11.4409C35.8193 11.4448 35.8124 11.4472 35.8052 11.448Z" fill="white"/>
<path d="M21.3079 36.5048L24.3184 36.2521L25.6221 37.4896C25.6221 37.4896 25.3135 37.9216 24.3499 37.6754C23.5975 37.5064 22.8328 37.4016 22.0636 37.3622C22.0636 37.3622 20.7326 37.9799 20.7158 36.8244L21.3079 36.5048Z" fill="url(#paint25_linear)"/>
<path d="M44.604 31.8357C44.8613 32.044 45.7431 31.617 46.2825 31.3254C46.4099 31.2565 46.5095 31.1452 46.564 31.0106C46.6185 30.876 46.6246 30.7266 46.5813 30.588C46.4526 30.1713 46.2348 29.6464 45.9692 29.5797C45.5273 29.4693 43.5355 31.0046 44.604 31.8357Z" fill="url(#paint26_linear)"/>
<path d="M20.8364 38.569C20.8119 38.5693 20.788 38.5629 20.7679 38.5507C20.7478 38.5385 20.7326 38.5212 20.7245 38.501C20.7186 38.4881 20.7156 38.4742 20.7158 38.4603C20.716 38.4463 20.7194 38.4325 20.7257 38.4197C20.7321 38.4069 20.7412 38.3953 20.7527 38.3855C20.7642 38.3758 20.7777 38.3682 20.7926 38.363L21.3668 38.1677C21.3816 38.1625 21.3975 38.16 21.4135 38.1602C21.4295 38.1604 21.4453 38.1633 21.46 38.1688C21.4746 38.1743 21.4879 38.1823 21.4991 38.1923C21.5102 38.2023 21.519 38.2142 21.5249 38.2271C21.5308 38.2401 21.5338 38.2539 21.5335 38.2679C21.5333 38.2819 21.5299 38.2956 21.5236 38.3084C21.5173 38.3213 21.5081 38.3329 21.4967 38.3426C21.4852 38.3523 21.4717 38.36 21.4568 38.3651L20.8802 38.5605C20.8666 38.5665 20.8516 38.5694 20.8364 38.569Z" fill="white"/>
<defs>
<linearGradient id="paint0_linear" x1="49.8913" y1="50.5036" x2="52.7308" y2="38.7331" gradientUnits="userSpaceOnUse">
<stop stop-color="#A737D5"/>
<stop offset="1" stop-color="#EF497A"/>
</linearGradient>
<linearGradient id="paint1_linear" x1="63.7731" y1="49.3792" x2="52.7765" y2="62.3438" gradientUnits="userSpaceOnUse">
<stop stop-color="#E40045"/>
<stop offset="1" stop-color="#5C0E16"/>
</linearGradient>
<linearGradient id="paint2_linear" x1="19281.1" y1="7903.22" x2="17823.7" y2="10933.3" gradientUnits="userSpaceOnUse">
<stop stop-color="#CB236D"/>
<stop offset="1" stop-color="#4C246D"/>
</linearGradient>
<linearGradient id="paint3_linear" x1="32.9733" y1="34.3875" x2="47.719" y2="42.8728" gradientUnits="userSpaceOnUse">
<stop stop-color="#F9B776"/>
<stop offset="1" stop-color="#F47960"/>
</linearGradient>
<linearGradient id="paint4_linear" x1="246987" y1="10393.5" x2="250976" y2="8675.62" gradientUnits="userSpaceOnUse">
<stop stop-color="#F9B776"/>
<stop offset="1" stop-color="#F47960"/>
</linearGradient>
<linearGradient id="paint5_linear" x1="889.252" y1="1088.57" x2="870.439" y2="1064.85" gradientUnits="userSpaceOnUse">
<stop stop-color="#FDF53F"/>
<stop offset="1" stop-color="#D93C65"/>
</linearGradient>
<linearGradient id="paint6_linear" x1="-226440" y1="5156.01" x2="-224403" y2="7267.56" gradientUnits="userSpaceOnUse">
<stop stop-color="#FDF53F"/>
<stop offset="1" stop-color="#D93C65"/>
</linearGradient>
<linearGradient id="paint7_linear" x1="-35620.9" y1="1710.27" x2="-35642.3" y2="1590.96" gradientUnits="userSpaceOnUse">
<stop stop-color="#F9B776"/>
<stop offset="1" stop-color="#F47960"/>
</linearGradient>
<linearGradient id="paint8_linear" x1="-55402.6" y1="-17607.4" x2="-55236.9" y2="-17656" gradientUnits="userSpaceOnUse">
<stop stop-color="#F9B776"/>
<stop offset="1" stop-color="#F47960"/>
</linearGradient>
<linearGradient id="paint9_linear" x1="6166.87" y1="1607.48" x2="5942.02" y2="2336.06" gradientUnits="userSpaceOnUse">
<stop stop-color="#CB236D"/>
<stop offset="1" stop-color="#4C246D"/>
</linearGradient>
<linearGradient id="paint10_linear" x1="-16204.5" y1="-6539.49" x2="-16162.2" y2="-6561.36" gradientUnits="userSpaceOnUse">
<stop stop-color="#F9B776"/>
<stop offset="1" stop-color="#F47960"/>
</linearGradient>
<linearGradient id="paint11_linear" x1="-156059" y1="1569.43" x2="-155070" y2="1569.43" gradientUnits="userSpaceOnUse">
<stop stop-color="#F9B776"/>
<stop offset="1" stop-color="#F47960"/>
</linearGradient>
<linearGradient id="paint12_linear" x1="-109359" y1="6057.86" x2="-109392" y2="6178.32" gradientUnits="userSpaceOnUse">
<stop stop-color="#A70D34"/>
<stop offset="1" stop-color="#150E42"/>
</linearGradient>
<linearGradient id="paint13_linear" x1="-145007" y1="3706.54" x2="-145196" y2="4023.09" gradientUnits="userSpaceOnUse">
<stop stop-color="#DC1C4D"/>
<stop offset="1" stop-color="#150E42"/>
</linearGradient>
<linearGradient id="paint14_linear" x1="2371.37" y1="1793.12" x2="2389.11" y2="1793.12" gradientUnits="userSpaceOnUse">
<stop stop-color="#F9B776"/>
<stop offset="1" stop-color="#F47960"/>
</linearGradient>
<linearGradient id="paint15_linear" x1="2771.18" y1="1962.19" x2="2796.95" y2="1962.19" gradientUnits="userSpaceOnUse">
<stop stop-color="#F9B776"/>
<stop offset="1" stop-color="#F47960"/>
</linearGradient>
<linearGradient id="paint16_linear" x1="21073.1" y1="10339" x2="16105.2" y2="13228.3" gradientUnits="userSpaceOnUse">
<stop stop-color="#FDF53F"/>
<stop offset="1" stop-color="#D93C65"/>
</linearGradient>
<linearGradient id="paint17_linear" x1="4364.08" y1="3818.91" x2="4160.45" y2="3905.6" gradientUnits="userSpaceOnUse">
<stop stop-color="#F9B776"/>
<stop offset="1" stop-color="#F47960"/>
</linearGradient>
<linearGradient id="paint18_linear" x1="9209.28" y1="5608.87" x2="6750.41" y2="6735.65" gradientUnits="userSpaceOnUse">
<stop stop-color="#FDF53F"/>
<stop offset="1" stop-color="#D93C65"/>
</linearGradient>
<linearGradient id="paint19_linear" x1="6923.44" y1="5265.34" x2="5034.31" y2="6014.07" gradientUnits="userSpaceOnUse">
<stop stop-color="#FDF53F"/>
<stop offset="1" stop-color="#D93C65"/>
</linearGradient>
<linearGradient id="paint20_linear" x1="9078.73" y1="2302.16" x2="9282.57" y2="2302.16" gradientUnits="userSpaceOnUse">
<stop stop-color="#F9B776"/>
<stop offset="1" stop-color="#F47960"/>
</linearGradient>
<linearGradient id="paint21_linear" x1="6416.07" y1="2926.54" x2="6413.15" y2="3299.26" gradientUnits="userSpaceOnUse">
<stop stop-color="#F9B776"/>
<stop offset="1" stop-color="#F47960"/>
</linearGradient>
<linearGradient id="paint22_linear" x1="6836.78" y1="11641" x2="6783.96" y2="11897.9" gradientUnits="userSpaceOnUse">
<stop stop-color="#F9B776"/>
<stop offset="1" stop-color="#F47960"/>
</linearGradient>
<linearGradient id="paint23_linear" x1="-3005.92" y1="7369.15" x2="-2372.49" y2="7147.43" gradientUnits="userSpaceOnUse">
<stop stop-color="#CB236D"/>
<stop offset="1" stop-color="#4C246D"/>
</linearGradient>
<linearGradient id="paint24_linear" x1="1961.52" y1="3741.72" x2="1979.66" y2="3681.8" gradientUnits="userSpaceOnUse">
<stop stop-color="#F9B776"/>
<stop offset="1" stop-color="#F47960"/>
</linearGradient>
<linearGradient id="paint25_linear" x1="6453.82" y1="864.187" x2="6416.97" y2="970.991" gradientUnits="userSpaceOnUse">
<stop stop-color="#F9B776"/>
<stop offset="1" stop-color="#F47960"/>
</linearGradient>
<linearGradient id="paint26_linear" x1="3158.77" y1="1267.43" x2="3184.6" y2="1267.43" gradientUnits="userSpaceOnUse">
<stop stop-color="#F9B776"/>
<stop offset="1" stop-color="#F47960"/>
</linearGradient>
</defs>
</svg>
