<svg width="80" height="80" viewBox="0 0 80 80" fill="none" xmlns="http://www.w3.org/2000/svg">
<path d="M52.4062 42.9534C51.9948 42.9187 51.611 42.7321 51.3295 42.43C48.9939 40.1776 46.0388 38.674 42.8431 38.1119C42.4453 38.0362 42.0884 37.8192 41.838 37.501C41.5876 37.1828 41.4606 36.7849 41.4806 36.3805L41.9555 25.3142C41.963 25.0857 42.0176 24.8613 42.116 24.655C42.2144 24.4487 42.3544 24.2649 42.5272 24.1153C42.8428 23.8436 43.2502 23.7026 43.6661 23.7211C43.7084 23.7188 43.7507 23.7188 43.7929 23.7211C50.86 24.5945 57.4033 27.8987 62.3013 33.0675C62.4593 33.2343 62.581 33.432 62.6587 33.6482C62.7364 33.8643 62.7685 34.0943 62.7529 34.3235C62.7373 34.5527 62.6744 34.7761 62.5681 34.9798C62.4618 35.1834 62.3144 35.3628 62.1353 35.5067L53.522 42.5153C53.2091 42.7804 52.816 42.9323 52.4062 42.9465V42.9534Z" fill="url(#paint0_linear)"/>
<path d="M62.2131 34.294C62.2229 34.1391 62.2007 33.9839 62.148 33.8379C62.0952 33.692 62.013 33.5584 61.9065 33.4456C57.1006 28.3594 50.6691 25.1115 43.7232 24.2629C43.5693 24.2443 43.4131 24.2577 43.2646 24.3022C43.1161 24.3468 42.9783 24.4215 42.8599 24.5216C42.7416 24.6218 42.6452 24.7453 42.5767 24.8845C42.5083 25.0236 42.4692 25.1754 42.4621 25.3303L42.001 36.3966C41.9895 36.6677 42.0765 36.9339 42.246 37.1458C42.4156 37.3577 42.6561 37.5011 42.9232 37.5493C46.2251 38.1211 49.2829 39.66 51.7094 41.9712C51.9057 42.1559 52.162 42.2636 52.4313 42.2746C52.7006 42.2857 52.9649 42.1992 53.1757 42.0312L61.7889 35.0894C61.9108 34.9934 62.0115 34.8731 62.0845 34.7362C62.1576 34.5993 62.2013 34.4487 62.2131 34.294Z" fill="url(#paint1_linear)"/>
<path d="M28.6873 41.8006C28.2885 41.57 27.9012 41.6208 27.6084 41.3395L19.6268 33.6876C19.4613 33.5286 19.3304 33.3371 19.2424 33.1251C19.1544 32.9131 19.1112 32.6851 19.1155 32.4556C19.1199 32.2261 19.1716 32 19.2675 31.7914C19.3635 31.5829 19.5015 31.3965 19.6729 31.2438C24.9978 26.5135 31.8015 23.7816 38.919 23.5159H39.0505C39.4929 23.5343 39.9145 23.7091 40.2401 24.0092C40.4139 24.168 40.5536 24.3604 40.6507 24.5748C40.7478 24.7892 40.8002 25.0212 40.8049 25.2565L40.33 36.3228C40.2922 36.7349 40.1092 37.1203 39.8136 37.41C39.518 37.6997 39.129 37.8749 38.7162 37.9043C35.473 38.1695 32.3837 39.4006 29.847 41.4386C29.5133 41.6836 29.1081 41.8116 28.6943 41.8029L28.6873 41.8006Z" fill="url(#paint2_linear)"/>
<path d="M38.9374 24.0485C31.9437 24.2993 25.2572 26.9845 20.0325 31.6404C19.9163 31.7435 19.8228 31.8695 19.7577 32.0105C19.6927 32.1516 19.6575 32.3045 19.6545 32.4598C19.6515 32.6151 19.6806 32.7693 19.7401 32.9128C19.7996 33.0563 19.8882 33.1859 20.0002 33.2934L27.9818 40.9453C28.1793 41.1337 28.4385 41.2439 28.7113 41.2554C28.984 41.2669 29.2516 41.1788 29.4642 41.0075C32.0728 38.8963 35.2581 37.6218 38.6031 37.351C38.8765 37.3299 39.1328 37.2094 39.3235 37.0124C39.5142 36.8153 39.6261 36.5553 39.6383 36.2813L40.1132 25.215C40.1187 25.0593 40.092 24.9042 40.0348 24.7593C39.9776 24.6144 39.8911 24.4829 39.7808 24.3729C39.6704 24.263 39.5385 24.177 39.3934 24.1204C39.2483 24.0638 39.0931 24.0377 38.9374 24.0438V24.0485Z" fill="url(#paint3_linear)"/>
<path d="M57.9738 55.2415C57.0977 55.2047 56.3945 54.5937 56.3784 53.7176C56.3202 50.8358 55.4924 48.022 53.9807 45.5678C53.7711 45.2276 53.6931 44.8225 53.7615 44.4289C53.8298 44.0352 54.0398 43.6801 54.3519 43.4306L62.9674 36.498C63.282 36.2458 63.6783 36.1178 64.081 36.1384C64.1389 36.1411 64.1967 36.1472 64.2539 36.1568C64.4807 36.1907 64.6982 36.2711 64.8926 36.3929C65.0869 36.5146 65.2541 36.6752 65.3836 36.8646C68.8955 41.9862 70.7585 48.0587 70.723 54.2686C70.7215 54.4769 70.675 54.6824 70.5866 54.871C70.4983 55.0596 70.3702 55.2269 70.2112 55.3614C70.0442 55.5013 69.85 55.6051 69.6409 55.6662C69.4318 55.7273 69.2123 55.7444 68.9962 55.7165L57.9738 55.2415Z" fill="url(#paint4_linear)"/>
<path d="M64.9338 37.1689C64.8462 37.0411 64.7333 36.9327 64.6019 36.8506C64.4706 36.7685 64.3237 36.7143 64.1705 36.6916C64.0172 36.6689 63.8609 36.6781 63.7114 36.7185C63.5619 36.759 63.4223 36.8299 63.3015 36.9269L54.6905 43.8756C54.4779 44.0463 54.335 44.2889 54.2887 44.5577C54.2424 44.8265 54.2959 45.1029 54.4392 45.3349C55.9999 47.8901 56.8537 50.8141 56.913 53.8076C56.9186 54.0931 57.0328 54.3658 57.2324 54.5701C57.432 54.7744 57.702 54.895 57.9874 54.9073L69.0098 55.3799C69.1611 55.3871 69.3122 55.3635 69.4541 55.3105C69.5959 55.2575 69.7255 55.1763 69.835 55.0717C69.9445 54.9672 70.0317 54.8415 70.0911 54.7022C70.1506 54.563 70.1812 54.4131 70.181 54.2617C70.2127 48.1628 68.382 42.1996 64.9338 37.1689Z" fill="url(#paint5_linear)"/>
<path d="M11.048 53.2311C10.8305 53.2388 10.6138 53.2018 10.4112 53.1225C10.2086 53.0432 10.0243 52.9232 9.86986 52.77C9.72247 52.612 9.60964 52.4251 9.53859 52.221C9.46753 52.017 9.43981 51.8004 9.45718 51.585C9.9524 45.4064 12.3274 39.5276 16.263 34.7389C16.4082 34.5646 16.5877 34.422 16.7904 34.3201C16.993 34.2181 17.2145 34.159 17.441 34.1464C17.4994 34.1429 17.5579 34.1429 17.6163 34.1464C18.0196 34.1627 18.4028 34.3268 18.6929 34.6075L26.686 42.2617C26.9776 42.5412 27.1578 42.9172 27.193 43.3196C27.2282 43.7221 27.116 44.1236 26.8774 44.4496C25.1618 46.7499 24.0963 49.4692 23.7926 52.3228C23.7004 53.1942 22.9465 53.7452 22.0727 53.706L11.048 53.2311Z" fill="url(#paint6_linear)"/>
<path d="M26.3146 42.649L18.3261 35.0063C18.2142 34.8992 18.0813 34.8165 17.9358 34.7632C17.7904 34.71 17.6355 34.6874 17.4808 34.697C17.3262 34.7065 17.1753 34.7479 17.0374 34.8186C16.8996 34.8893 16.7779 34.9878 16.68 35.1078C12.8157 39.8237 10.4832 45.6069 9.99411 51.6841C9.98154 51.8349 9.99962 51.9866 10.0472 52.1301C10.0949 52.2736 10.1711 52.4061 10.2712 52.5194C10.3714 52.6327 10.4935 52.7245 10.6301 52.7894C10.7667 52.8543 10.915 52.8908 11.0662 52.8968L22.0886 53.3694C22.374 53.3822 22.6534 53.2854 22.8698 53.099C23.0862 52.9126 23.2232 52.6506 23.2529 52.3666C23.5654 49.3865 24.6624 46.5425 26.4321 44.1245C26.5958 43.9065 26.6741 43.6362 26.6525 43.3645C26.6308 43.0928 26.5106 42.8383 26.3146 42.649Z" fill="url(#paint7_linear)"/>
<path d="M39.468 56.6064C38.7185 56.5757 37.9919 56.3397 37.3674 55.9242C36.7429 55.5087 36.2446 54.9296 35.9267 54.2502C35.4149 53.1574 35.136 51.4698 36.7106 49.6392C38.9285 47.0663 43.9244 39.8732 45.9671 36.9015C46.0528 36.7753 46.1695 36.6733 46.3059 36.6051C46.4423 36.5368 46.594 36.5047 46.7463 36.5118C46.8609 36.5171 46.9735 36.5437 47.0783 36.5902C47.2699 36.6768 47.4251 36.8277 47.5169 37.0169C47.6087 37.206 47.6314 37.4213 47.5809 37.6254L43.929 52.3481C43.8311 52.962 43.6577 53.5613 43.4126 54.1326C43.0992 54.8592 42.5827 55.4798 41.925 55.9199C41.2674 56.3599 40.4966 56.6007 39.7054 56.6133C39.627 56.611 39.5463 56.6087 39.468 56.6064ZM39.8783 51.3291C39.7015 51.3203 39.5271 51.3735 39.3853 51.4794C39.2434 51.5853 39.1429 51.7374 39.1012 51.9094C39.0594 52.0815 39.0789 52.2627 39.1564 52.4219C39.2339 52.5811 39.3644 52.7083 39.5256 52.7816C39.6156 52.8226 39.7126 52.8461 39.8115 52.8507C40.0132 52.8596 40.2103 52.7879 40.3592 52.6515C40.5082 52.5151 40.5968 52.3251 40.6057 52.1234C40.6146 51.9216 40.5429 51.7245 40.4065 51.5756C40.2701 51.4266 40.0801 51.338 39.8783 51.3291Z" fill="url(#paint8_linear)"/>
<path d="M43.3959 52.2421L47.057 37.4871C47.0774 37.4053 47.0684 37.3189 47.0316 37.243C46.9948 37.1672 46.9325 37.1067 46.8557 37.0721C46.7788 37.0375 46.6922 37.031 46.611 37.0538C46.5298 37.0765 46.4592 37.1271 46.4115 37.1966C44.2075 40.4173 39.3429 47.4214 37.1181 49.9874C35.804 51.5136 35.9078 52.9245 36.415 54.0127C36.7053 54.6358 37.1698 55.1615 37.7523 55.5265C38.3348 55.8914 39.0105 56.08 39.6978 56.0696C40.3851 56.0591 41.0547 55.85 41.6258 55.4674C42.1969 55.0848 42.6452 54.5452 42.9164 53.9136C43.1459 53.3788 43.307 52.8172 43.3959 52.2421ZM39.2991 53.2704C39.0658 53.1623 38.8698 52.9874 38.7358 52.7679C38.6019 52.5485 38.536 52.2942 38.5465 52.0373C38.5571 51.7803 38.6435 51.5323 38.795 51.3245C38.9465 51.1168 39.1562 50.9586 39.3976 50.8699C39.639 50.7813 39.9012 50.7662 40.1511 50.8266C40.4011 50.887 40.6275 51.0202 40.8018 51.2092C40.9761 51.3983 41.0904 51.6348 41.1303 51.8888C41.1702 52.1428 41.1338 52.403 41.0259 52.6364C40.9542 52.7914 40.8526 52.9308 40.727 53.0466C40.6014 53.1624 40.4543 53.2523 40.2939 53.3112C40.1335 53.37 39.9631 53.3967 39.7924 53.3897C39.6218 53.3827 39.4541 53.3422 39.2991 53.2704Z" fill="url(#paint9_linear)"/>
<defs>
<linearGradient id="paint0_linear" x1="33.7768" y1="48.8834" x2="30.9503" y2="51.79" gradientUnits="userSpaceOnUse">
<stop stop-color="#41A362"/>
<stop offset="1" stop-color="#204F2E"/>
</linearGradient>
<linearGradient id="paint1_linear" x1="9397.41" y1="6328.5" x2="11159.6" y2="6403.9" gradientUnits="userSpaceOnUse">
<stop stop-color="#41A362"/>
<stop offset="1" stop-color="#204F2E"/>
</linearGradient>
<linearGradient id="paint2_linear" x1="23.0874" y1="42.9085" x2="17.2401" y2="50.458" gradientUnits="userSpaceOnUse">
<stop stop-color="#F9C200"/>
<stop offset="1" stop-color="#9B1E5F"/>
</linearGradient>
<linearGradient id="paint3_linear" x1="11837.7" y1="4152.51" x2="10221.3" y2="6566.99" gradientUnits="userSpaceOnUse">
<stop stop-color="#F9C200"/>
<stop offset="1" stop-color="#9B1E5F"/>
</linearGradient>
<linearGradient id="paint4_linear" x1="10396.3" y1="7360.04" x2="9174.15" y2="7474.43" gradientUnits="userSpaceOnUse">
<stop stop-color="#53D8FF"/>
<stop offset="1" stop-color="#3840F7"/>
</linearGradient>
<linearGradient id="paint5_linear" x1="8182.34" y1="7482.95" x2="9306.23" y2="7531.04" gradientUnits="userSpaceOnUse">
<stop stop-color="#53D8FF"/>
<stop offset="1" stop-color="#3840F7"/>
</linearGradient>
<linearGradient id="paint6_linear" x1="7079.9" y1="7757.19" x2="6895.21" y2="7835.39" gradientUnits="userSpaceOnUse">
<stop stop-color="#E40045"/>
<stop offset="1" stop-color="#5C0E16"/>
</linearGradient>
<linearGradient id="paint7_linear" x1="5366.06" y1="7350.8" x2="6543.42" y2="7401.17" gradientUnits="userSpaceOnUse">
<stop stop-color="#E40045"/>
<stop offset="1" stop-color="#5C0E16"/>
</linearGradient>
<linearGradient id="paint8_linear" x1="6663.86" y1="8202.02" x2="6486.91" y2="8856.95" gradientUnits="userSpaceOnUse">
<stop stop-color="#2B3582"/>
<stop offset="1" stop-color="#150E42"/>
</linearGradient>
<linearGradient id="paint9_linear" x1="15449.8" y1="4149.92" x2="15758.1" y2="4291.72" gradientUnits="userSpaceOnUse">
<stop stop-color="#2B3582"/>
<stop offset="1" stop-color="#150E42"/>
</linearGradient>
</defs>
</svg>
