<svg width="326" height="318" viewBox="0 0 326 318" fill="none" xmlns="http://www.w3.org/2000/svg">
<g opacity="0.66" filter="url(#filter0_f)">
<path fill-rule="evenodd" clip-rule="evenodd" d="M164.106 122.302C172.898 121.553 181.442 125.504 188.43 130.741C195.274 135.87 200.666 142.931 202.564 151.124C204.365 158.901 202.024 166.923 198.478 174.112C195.285 180.585 190.116 185.909 183.672 189.424C177.748 192.655 170.844 192.014 164.106 192.859C156.072 193.868 147.955 197.891 140.486 194.844C132.344 191.522 125.821 184.367 123.207 176.172C120.608 168.026 122.998 159.197 126.639 151.437C129.984 144.309 136.402 139.533 142.698 134.638C149.338 129.475 155.634 123.024 164.106 122.302Z" fill="#DFF0D8"/>
</g>
<g clip-path="url(#clip0)">
<ellipse cx="177.5" cy="176.5" rx="23" ry="23.5" transform="rotate(180 177.5 176.5)" fill="#3C763D"/>
<ellipse cx="135" cy="163.5" rx="12.5" ry="12.5" transform="rotate(180 135 163.5)" fill="#3C763D"/>
<ellipse cx="172.5" cy="127" rx="6" ry="6" transform="rotate(180 172.5 127)" fill="#3C763D"/>
<path d="M140.691 128.608C140.696 128.404 140.745 128.203 140.835 128.02C140.925 127.836 141.053 127.674 141.211 127.544C141.369 127.414 141.553 127.32 141.751 127.267C141.948 127.215 142.155 127.206 142.356 127.24C148.031 128.205 167.55 131.25 183.796 130.55C183.972 130.541 184.148 130.569 184.313 130.63C184.478 130.69 184.629 130.784 184.758 130.904C184.886 131.024 184.989 131.169 185.061 131.33C185.133 131.49 185.171 131.664 185.175 131.84L186.372 192.732C186.38 193.133 186.229 193.52 185.952 193.81C185.675 194.1 185.294 194.269 184.893 194.279C178.064 194.454 149.944 195.074 139.967 193.69C139.673 193.649 139.405 193.502 139.214 193.276C139.023 193.05 138.922 192.761 138.93 192.465L140.691 128.608Z" fill="#3C763D"/>
<path opacity="0.9" d="M141.312 130.157C141.317 129.961 141.365 129.768 141.451 129.592C141.538 129.415 141.661 129.259 141.813 129.135C141.964 129.01 142.141 128.919 142.331 128.869C142.521 128.818 142.719 128.809 142.913 128.841C148.374 129.769 167.159 132.701 182.794 132.025C182.963 132.018 183.132 132.044 183.291 132.103C183.45 132.162 183.595 132.251 183.719 132.367C183.843 132.483 183.942 132.622 184.011 132.777C184.08 132.932 184.117 133.099 184.12 133.268L185.273 191.865C185.281 192.251 185.136 192.625 184.869 192.904C184.602 193.183 184.236 193.346 183.85 193.355C177.278 193.525 150.216 194.124 140.615 192.789C140.332 192.751 140.074 192.609 139.889 192.391C139.705 192.173 139.609 191.894 139.618 191.609L141.312 130.157Z" fill="white"/>
<path d="M150.432 152.712H150.395L147.42 152.584C147.221 152.584 147.028 152.51 146.879 152.377C146.731 152.244 146.636 152.061 146.613 151.863L146.435 149.357C146.43 149.282 146.44 149.206 146.465 149.135C146.49 149.064 146.529 148.999 146.58 148.943C146.64 148.878 146.713 148.825 146.794 148.788C146.876 148.752 146.963 148.731 147.052 148.729C147.309 148.72 147.651 148.702 148.031 148.683C148.856 148.641 149.806 148.592 150.358 148.604C150.545 148.601 150.728 148.66 150.877 148.773C151.027 148.885 151.135 149.044 151.184 149.225C151.32 149.805 151.27 150.891 151.202 152.044C151.184 152.232 151.093 152.407 150.95 152.531C150.807 152.655 150.622 152.72 150.432 152.712ZM150.176 148.857C149.617 148.857 148.781 148.901 148.042 148.939C147.657 148.958 147.311 148.976 147.059 148.985C147.004 148.986 146.95 148.998 146.9 149.02C146.851 149.042 146.806 149.074 146.768 149.113C146.74 149.143 146.719 149.179 146.705 149.217C146.691 149.256 146.685 149.297 146.687 149.338L146.865 151.844C146.884 151.979 146.952 152.103 147.055 152.192C147.159 152.281 147.291 152.329 147.428 152.327L150.43 152.455C150.553 152.462 150.674 152.422 150.769 152.343C150.864 152.265 150.926 152.153 150.942 152.031C151.009 150.894 151.059 149.828 150.929 149.281C150.892 149.157 150.814 149.048 150.709 148.972C150.604 148.896 150.476 148.856 150.346 148.858L150.176 148.857Z" fill="#DFF0D8"/>
<path d="M150.432 159.678H150.395L147.42 159.55C147.221 159.549 147.028 159.475 146.879 159.342C146.731 159.209 146.636 159.027 146.613 158.828L146.435 156.322C146.43 156.247 146.44 156.172 146.465 156.1C146.49 156.029 146.529 155.964 146.58 155.908C146.64 155.843 146.713 155.79 146.794 155.754C146.876 155.717 146.963 155.697 147.052 155.694C147.309 155.685 147.651 155.668 148.031 155.648C148.856 155.606 149.806 155.557 150.358 155.569C150.545 155.566 150.728 155.626 150.877 155.738C151.027 155.851 151.135 156.01 151.184 156.19C151.32 156.771 151.27 157.856 151.202 159.009C151.184 159.198 151.093 159.372 150.95 159.496C150.807 159.621 150.622 159.686 150.432 159.678ZM150.176 155.823C149.617 155.823 148.781 155.866 148.042 155.905C147.657 155.924 147.311 155.942 147.059 155.951C147.004 155.952 146.95 155.963 146.9 155.985C146.851 156.007 146.806 156.039 146.768 156.079C146.74 156.109 146.719 156.144 146.705 156.183C146.691 156.221 146.685 156.262 146.687 156.303L146.865 158.809C146.884 158.944 146.952 159.068 147.055 159.157C147.159 159.246 147.291 159.294 147.428 159.292L150.43 159.42C150.553 159.427 150.674 159.387 150.769 159.309C150.864 159.23 150.926 159.118 150.942 158.996C151.009 157.86 151.059 156.794 150.929 156.247C150.892 156.122 150.814 156.014 150.709 155.937C150.604 155.861 150.476 155.821 150.346 155.824L150.176 155.823Z" fill="#DFF0D8"/>
<path d="M150.432 167.14H150.395L147.42 167.012C147.221 167.011 147.028 166.938 146.879 166.805C146.731 166.672 146.636 166.489 146.613 166.291L146.435 163.785C146.43 163.709 146.44 163.634 146.465 163.563C146.49 163.492 146.529 163.426 146.58 163.371C146.64 163.305 146.713 163.253 146.794 163.216C146.876 163.179 146.963 163.159 147.052 163.157C147.309 163.148 147.651 163.13 148.031 163.111C148.856 163.068 149.806 163.02 150.358 163.031C150.545 163.029 150.728 163.088 150.877 163.201C151.027 163.313 151.135 163.472 151.184 163.653C151.32 164.233 151.27 165.318 151.202 166.471C151.184 166.66 151.093 166.834 150.95 166.959C150.807 167.083 150.622 167.148 150.432 167.14ZM150.176 163.285C149.617 163.285 148.781 163.329 148.042 163.367C147.657 163.386 147.311 163.404 147.059 163.413C147.004 163.414 146.95 163.426 146.9 163.448C146.851 163.47 146.806 163.502 146.768 163.541C146.74 163.571 146.719 163.607 146.705 163.645C146.691 163.684 146.685 163.725 146.687 163.765L146.865 166.271C146.884 166.407 146.952 166.53 147.055 166.619C147.159 166.708 147.291 166.756 147.428 166.755L150.43 166.883C150.553 166.89 150.674 166.85 150.769 166.771C150.864 166.692 150.926 166.581 150.942 166.459C151.009 165.322 151.059 164.256 150.929 163.709C150.892 163.585 150.814 163.476 150.709 163.4C150.604 163.323 150.476 163.283 150.346 163.286L150.176 163.285Z" fill="#DFF0D8"/>
<path d="M150.432 174.602H150.395L147.42 174.474C147.221 174.474 147.028 174.4 146.879 174.267C146.731 174.134 146.636 173.951 146.613 173.753L146.435 171.247C146.43 171.172 146.44 171.096 146.465 171.025C146.49 170.954 146.529 170.889 146.58 170.833C146.64 170.768 146.713 170.715 146.794 170.678C146.876 170.641 146.963 170.621 147.052 170.619C147.309 170.61 147.651 170.592 148.031 170.573C148.856 170.531 149.806 170.482 150.358 170.493C150.545 170.491 150.728 170.55 150.877 170.663C151.027 170.775 151.135 170.934 151.184 171.115C151.32 171.695 151.27 172.78 151.202 173.934C151.184 174.122 151.093 174.297 150.95 174.421C150.807 174.545 150.622 174.61 150.432 174.602ZM150.176 170.747C149.617 170.747 148.781 170.791 148.042 170.829C147.657 170.848 147.311 170.866 147.059 170.875C147.004 170.876 146.95 170.888 146.9 170.91C146.851 170.932 146.806 170.964 146.768 171.003C146.74 171.033 146.719 171.069 146.705 171.107C146.691 171.146 146.685 171.187 146.687 171.228L146.865 173.734C146.884 173.869 146.952 173.993 147.055 174.082C147.159 174.171 147.291 174.219 147.428 174.217L150.43 174.345C150.553 174.352 150.674 174.312 150.769 174.233C150.864 174.155 150.926 174.043 150.942 173.921C151.009 172.784 151.059 171.718 150.929 171.171C150.892 171.047 150.814 170.938 150.709 170.862C150.604 170.785 150.476 170.746 150.346 170.748L150.176 170.747Z" fill="#DFF0D8"/>
<path d="M150.432 183.06H150.395L147.42 182.931C147.221 182.931 147.028 182.857 146.879 182.724C146.731 182.591 146.636 182.408 146.613 182.21L146.435 179.704C146.43 179.629 146.44 179.553 146.465 179.482C146.49 179.411 146.529 179.346 146.58 179.29C146.64 179.225 146.713 179.172 146.794 179.136C146.876 179.099 146.963 179.079 147.052 179.076C147.309 179.067 147.651 179.049 148.031 179.03C148.856 178.988 149.806 178.939 150.358 178.951C150.545 178.948 150.728 179.008 150.877 179.12C151.027 179.233 151.135 179.392 151.184 179.572C151.32 180.152 151.27 181.238 151.202 182.391C151.184 182.579 151.093 182.754 150.95 182.878C150.807 183.002 150.622 183.067 150.432 183.06ZM150.176 179.204C149.617 179.204 148.781 179.248 148.042 179.286C147.657 179.306 147.311 179.324 147.059 179.332C147.004 179.333 146.95 179.345 146.9 179.367C146.851 179.389 146.806 179.421 146.768 179.461C146.74 179.491 146.719 179.526 146.705 179.565C146.691 179.603 146.685 179.644 146.687 179.685L146.865 182.191C146.884 182.326 146.952 182.45 147.055 182.539C147.159 182.628 147.291 182.676 147.428 182.674L150.43 182.802C150.553 182.809 150.674 182.769 150.769 182.69C150.864 182.612 150.926 182.5 150.942 182.378C151.009 181.242 151.059 180.176 150.929 179.628C150.892 179.504 150.814 179.395 150.709 179.319C150.604 179.243 150.476 179.203 150.346 179.206L150.176 179.204Z" fill="#DFF0D8"/>
<path d="M153.156 150.207C153.095 150.2 153.033 150.209 152.976 150.232C152.919 150.256 152.868 150.293 152.829 150.34C152.789 150.388 152.762 150.444 152.75 150.505C152.737 150.565 152.74 150.628 152.758 150.687L152.873 151.189C152.911 151.329 152.992 151.454 153.104 151.546C153.216 151.638 153.355 151.693 153.5 151.702L180.457 152.322C180.591 152.322 180.719 152.27 180.815 152.176C180.911 152.082 180.966 151.955 180.969 151.821V151.734C180.97 151.596 180.917 151.463 180.821 151.364C180.725 151.265 180.595 151.207 180.457 151.203L153.156 150.207Z" fill="#9DABB9"/>
<path d="M153.156 157.171C153.095 157.165 153.033 157.174 152.976 157.197C152.919 157.221 152.868 157.258 152.829 157.305C152.789 157.353 152.762 157.409 152.75 157.47C152.737 157.53 152.74 157.593 152.758 157.652L152.873 158.154C152.911 158.294 152.992 158.419 153.104 158.511C153.216 158.603 153.355 158.657 153.5 158.667L180.457 159.287C180.591 159.287 180.719 159.234 180.815 159.141C180.911 159.047 180.966 158.92 180.969 158.786V158.699C180.97 158.561 180.917 158.428 180.821 158.329C180.725 158.23 180.595 158.172 180.457 158.168L153.156 157.171Z" fill="#9DABB9"/>
<path d="M153.156 164.634C153.095 164.627 153.033 164.636 152.976 164.659C152.919 164.683 152.868 164.72 152.829 164.767C152.789 164.815 152.762 164.871 152.75 164.932C152.737 164.992 152.74 165.055 152.758 165.114L152.873 165.616C152.911 165.756 152.992 165.881 153.104 165.973C153.216 166.065 153.355 166.12 153.5 166.129L180.457 166.749C180.591 166.749 180.719 166.697 180.815 166.603C180.911 166.509 180.966 166.382 180.969 166.248V166.161C180.97 166.023 180.917 165.89 180.821 165.791C180.725 165.692 180.595 165.634 180.457 165.63L153.156 164.634Z" fill="#9DABB9"/>
<path d="M153.156 172.096C153.095 172.09 153.033 172.099 152.976 172.122C152.919 172.145 152.868 172.182 152.829 172.23C152.789 172.277 152.762 172.334 152.75 172.394C152.737 172.455 152.74 172.517 152.758 172.576L152.873 173.079C152.911 173.219 152.992 173.344 153.104 173.436C153.216 173.528 153.355 173.582 153.5 173.591L180.457 174.211C180.591 174.211 180.719 174.159 180.815 174.065C180.911 173.972 180.966 173.844 180.969 173.71V173.623C180.97 173.485 180.917 173.353 180.821 173.254C180.725 173.155 180.595 173.097 180.457 173.093L153.156 172.096Z" fill="#9DABB9"/>
<path d="M153.156 180.554C153.095 180.547 153.033 180.556 152.976 180.58C152.919 180.603 152.868 180.64 152.829 180.688C152.789 180.735 152.762 180.792 152.75 180.852C152.737 180.912 152.74 180.975 152.758 181.034L152.873 181.536C152.911 181.677 152.992 181.801 153.104 181.893C153.216 181.985 153.355 182.04 153.5 182.049L180.457 182.669C180.591 182.669 180.719 182.617 180.815 182.523C180.911 182.429 180.966 182.302 180.969 182.168V182.081C180.97 181.943 180.917 181.811 180.821 181.711C180.725 181.612 180.595 181.555 180.457 181.551L153.156 180.554Z" fill="#9DABB9"/>
<path d="M147.27 149.637C147.324 149.608 147.382 149.589 147.443 149.583C147.503 149.577 147.565 149.583 147.623 149.601C147.681 149.619 147.735 149.649 147.781 149.688C147.828 149.727 147.866 149.775 147.894 149.829L148.446 150.901C148.459 150.925 148.478 150.946 148.501 150.96C148.524 150.974 148.551 150.982 148.578 150.982C148.605 150.982 148.632 150.974 148.655 150.96C148.678 150.946 148.697 150.925 148.709 150.901L150.273 147.708C150.29 147.675 150.317 147.648 150.352 147.632C150.386 147.616 150.424 147.613 150.46 147.622C150.497 147.631 150.529 147.653 150.551 147.683C150.573 147.713 150.584 147.75 150.582 147.788C150.511 149.458 149.789 151.034 148.571 152.18C148.571 152.18 147.708 151.812 147.058 150.244C147.011 150.134 147.007 150.011 147.046 149.899C147.086 149.787 147.166 149.693 147.27 149.637Z" fill="#3C763D"/>
<path d="M147.27 156.601C147.324 156.572 147.382 156.554 147.443 156.548C147.503 156.542 147.565 156.548 147.623 156.566C147.681 156.584 147.735 156.613 147.781 156.652C147.828 156.691 147.866 156.739 147.894 156.793L148.446 157.866C148.459 157.89 148.478 157.91 148.501 157.925C148.524 157.939 148.551 157.946 148.578 157.946C148.605 157.946 148.632 157.939 148.655 157.925C148.678 157.91 148.697 157.89 148.709 157.866L150.273 154.673C150.29 154.639 150.317 154.612 150.352 154.597C150.386 154.581 150.424 154.577 150.46 154.587C150.497 154.596 150.529 154.618 150.551 154.648C150.573 154.678 150.584 154.715 150.582 154.752C150.511 156.423 149.789 157.999 148.571 159.144C148.571 159.144 147.708 158.777 147.058 157.209C147.011 157.099 147.007 156.976 147.046 156.864C147.086 156.751 147.166 156.658 147.27 156.601Z" fill="#3C763D"/>
<path d="M147.27 164.063C147.324 164.034 147.382 164.016 147.443 164.01C147.503 164.004 147.565 164.01 147.623 164.028C147.681 164.046 147.735 164.075 147.781 164.114C147.828 164.153 147.866 164.201 147.894 164.256L148.446 165.328C148.459 165.352 148.478 165.373 148.501 165.387C148.524 165.401 148.551 165.408 148.578 165.408C148.605 165.408 148.632 165.401 148.655 165.387C148.678 165.373 148.697 165.352 148.709 165.328L150.273 162.135C150.29 162.101 150.317 162.074 150.352 162.059C150.386 162.043 150.424 162.039 150.46 162.049C150.497 162.058 150.529 162.08 150.551 162.11C150.573 162.14 150.584 162.177 150.582 162.215C150.511 163.885 149.789 165.461 148.571 166.607C148.571 166.607 147.708 166.239 147.058 164.671C147.011 164.561 147.007 164.438 147.046 164.326C147.086 164.214 147.166 164.12 147.27 164.063Z" fill="#3C763D"/>
<path d="M147.27 171.526C147.324 171.497 147.382 171.479 147.443 171.473C147.503 171.467 147.565 171.473 147.623 171.491C147.681 171.509 147.735 171.538 147.781 171.577C147.828 171.616 147.866 171.664 147.894 171.718L148.446 172.791C148.459 172.815 148.478 172.835 148.501 172.849C148.524 172.864 148.551 172.871 148.578 172.871C148.605 172.871 148.632 172.864 148.655 172.849C148.678 172.835 148.697 172.815 148.709 172.791L150.273 169.598C150.29 169.564 150.317 169.537 150.352 169.521C150.386 169.506 150.424 169.502 150.46 169.511C150.497 169.521 150.529 169.542 150.551 169.573C150.573 169.603 150.584 169.64 150.582 169.677C150.511 171.348 149.789 172.924 148.571 174.069C148.571 174.069 147.708 173.702 147.058 172.133C147.011 172.024 147.007 171.901 147.046 171.789C147.086 171.676 147.166 171.583 147.27 171.526Z" fill="#3C763D"/>
<path d="M147.27 179.983C147.324 179.954 147.382 179.936 147.443 179.93C147.503 179.924 147.565 179.93 147.623 179.948C147.681 179.966 147.735 179.995 147.781 180.034C147.828 180.073 147.866 180.121 147.894 180.175L148.446 181.248C148.459 181.272 148.478 181.292 148.501 181.307C148.524 181.321 148.551 181.328 148.578 181.328C148.605 181.328 148.632 181.321 148.655 181.307C148.678 181.292 148.697 181.272 148.709 181.248L150.273 178.055C150.29 178.021 150.317 177.994 150.352 177.979C150.386 177.963 150.424 177.959 150.46 177.969C150.497 177.978 150.529 178 150.551 178.03C150.573 178.06 150.584 178.097 150.582 178.134C150.511 179.805 149.789 181.381 148.571 182.527C148.571 182.527 147.708 182.159 147.058 180.591C147.011 180.481 147.007 180.358 147.046 180.246C147.086 180.133 147.166 180.04 147.27 179.983Z" fill="#3C763D"/>
<path d="M149.862 127.267L176.193 128.147C176.652 128.162 177.09 128.339 177.431 128.646C177.773 128.953 177.994 129.371 178.057 129.826L178.075 129.954C178.108 130.195 178.089 130.441 178.017 130.674C177.945 130.907 177.824 131.122 177.661 131.303C177.497 131.484 177.297 131.627 177.072 131.722C176.848 131.818 176.606 131.863 176.362 131.855L149.348 130.95C149.201 130.946 149.057 130.911 148.923 130.848C148.79 130.786 148.671 130.697 148.573 130.587C148.475 130.478 148.4 130.349 148.353 130.209C148.307 130.07 148.289 129.922 148.3 129.776L148.399 128.569C148.429 128.205 148.598 127.867 148.87 127.625C149.143 127.383 149.498 127.255 149.862 127.267Z" fill="#3C763D"/>
<path d="M160.912 143.557L160.184 143.23C160.156 143.217 160.125 143.211 160.095 143.213C160.064 143.215 160.034 143.225 160.008 143.241L159.327 143.656C159.296 143.674 159.262 143.684 159.226 143.684C159.191 143.683 159.156 143.673 159.126 143.654C159.096 143.635 159.073 143.608 159.057 143.576C159.042 143.544 159.036 143.508 159.04 143.473L159.127 142.68C159.13 142.65 159.126 142.619 159.114 142.591C159.103 142.562 159.085 142.537 159.062 142.516L158.457 141.996C158.43 141.973 158.41 141.943 158.399 141.91C158.389 141.876 158.388 141.84 158.396 141.806C158.405 141.772 158.423 141.741 158.449 141.717C158.474 141.692 158.506 141.675 158.54 141.668L159.314 141.504C159.344 141.498 159.372 141.484 159.396 141.465C159.42 141.445 159.438 141.421 159.45 141.392L159.76 140.656C159.774 140.623 159.796 140.595 159.825 140.575C159.854 140.555 159.888 140.543 159.923 140.541C159.958 140.539 159.993 140.547 160.024 140.563C160.054 140.58 160.08 140.605 160.098 140.635L160.494 141.327C160.51 141.355 160.532 141.378 160.559 141.395C160.586 141.411 160.617 141.421 160.649 141.422L161.444 141.487C161.478 141.491 161.511 141.504 161.538 141.524C161.565 141.545 161.587 141.573 161.599 141.605C161.612 141.636 161.616 141.671 161.61 141.705C161.605 141.739 161.59 141.77 161.568 141.797L161.033 142.388C161.012 142.411 160.998 142.438 160.99 142.468C160.983 142.497 160.982 142.528 160.989 142.558L161.173 143.332C161.184 143.367 161.184 143.404 161.174 143.439C161.163 143.474 161.143 143.505 161.115 143.529C161.088 143.553 161.054 143.568 161.018 143.573C160.982 143.578 160.945 143.572 160.912 143.557Z" fill="#3C763D"/>
<path d="M159.259 142.475C159.238 142.439 159.211 142.406 159.18 142.379L158.784 142.038C158.764 142.021 158.749 141.998 158.741 141.972C158.733 141.947 158.732 141.92 158.739 141.894C158.746 141.868 158.76 141.845 158.779 141.826C158.799 141.808 158.823 141.796 158.849 141.79L159.358 141.684C159.417 141.672 159.472 141.645 159.519 141.607C159.565 141.569 159.602 141.519 159.625 141.464L159.826 140.982C159.836 140.958 159.853 140.937 159.875 140.921C159.897 140.906 159.923 140.897 159.95 140.895C159.976 140.894 160.003 140.9 160.026 140.912C160.05 140.925 160.069 140.944 160.083 140.967L160.214 141.198L160.18 141.218L160.047 140.987C160.038 140.97 160.024 140.956 160.007 140.947C159.99 140.938 159.97 140.934 159.951 140.936C159.932 140.937 159.914 140.943 159.898 140.954C159.883 140.965 159.871 140.98 159.865 140.998L159.663 141.479C159.638 141.541 159.597 141.595 159.546 141.638C159.494 141.68 159.433 141.709 159.368 141.722L158.857 141.831C158.838 141.835 158.821 141.844 158.807 141.857C158.794 141.87 158.784 141.886 158.779 141.905C158.774 141.923 158.775 141.942 158.78 141.96C158.786 141.978 158.796 141.995 158.81 142.007L159.207 142.348C159.241 142.378 159.271 142.414 159.295 142.453L159.259 142.475Z" fill="white"/>
<path d="M159.39 143.377C159.364 143.377 159.338 143.368 159.316 143.354C159.293 143.34 159.275 143.32 159.264 143.295C159.252 143.271 159.248 143.244 159.251 143.218L159.293 142.822H159.333L159.291 143.218C159.289 143.237 159.292 143.256 159.3 143.273C159.308 143.291 159.321 143.305 159.338 143.315C159.354 143.326 159.373 143.331 159.392 143.331C159.411 143.331 159.43 143.326 159.446 143.315L159.89 143.044C159.947 143.01 160.012 142.99 160.079 142.986C160.145 142.981 160.212 142.993 160.273 143.02L160.75 143.233C160.767 143.241 160.786 143.244 160.805 143.242C160.824 143.239 160.842 143.232 160.856 143.219C160.871 143.207 160.882 143.191 160.888 143.173C160.895 143.155 160.895 143.136 160.89 143.117L160.771 142.609C160.756 142.545 160.757 142.477 160.773 142.412C160.79 142.348 160.821 142.288 160.866 142.238L161.217 141.852C161.23 141.838 161.239 141.821 161.242 141.802C161.245 141.783 161.243 141.763 161.236 141.746C161.229 141.728 161.217 141.712 161.202 141.7C161.187 141.689 161.168 141.682 161.149 141.681L160.629 141.639C160.575 141.634 160.522 141.619 160.474 141.594L160.493 141.558C160.536 141.58 160.582 141.594 160.63 141.599L161.15 141.64C161.177 141.643 161.202 141.653 161.223 141.669C161.244 141.685 161.261 141.706 161.271 141.731C161.28 141.755 161.283 141.782 161.279 141.808C161.274 141.835 161.262 141.859 161.245 141.879L160.895 142.266C160.855 142.31 160.826 142.364 160.81 142.422C160.795 142.481 160.795 142.542 160.808 142.6L160.929 143.108C160.935 143.134 160.934 143.161 160.925 143.186C160.917 143.211 160.902 143.233 160.881 143.25C160.86 143.269 160.834 143.28 160.807 143.284C160.779 143.287 160.751 143.283 160.726 143.27L160.251 143.057C160.196 143.033 160.136 143.022 160.076 143.026C160.016 143.03 159.957 143.048 159.906 143.079L159.466 143.351C159.444 143.366 159.418 143.375 159.39 143.377Z" fill="white"/>
<path d="M160.211 141.188L160.176 141.208L160.254 141.345L160.289 141.325L160.211 141.188Z" fill="white"/>
<path d="M165.154 143.617L164.426 143.289C164.398 143.277 164.367 143.272 164.337 143.274C164.306 143.276 164.276 143.285 164.25 143.301L163.569 143.715C163.539 143.733 163.504 143.743 163.469 143.742C163.434 143.742 163.399 143.732 163.369 143.713C163.339 143.694 163.316 143.668 163.3 143.636C163.285 143.604 163.279 143.569 163.282 143.534L163.369 142.739C163.372 142.709 163.368 142.679 163.356 142.65C163.345 142.622 163.327 142.597 163.304 142.577L162.699 142.057C162.672 142.034 162.652 142.004 162.642 141.97C162.631 141.937 162.63 141.901 162.639 141.867C162.647 141.833 162.665 141.802 162.691 141.777C162.716 141.753 162.748 141.736 162.782 141.729L163.556 141.564C163.586 141.558 163.615 141.545 163.638 141.526C163.662 141.506 163.681 141.481 163.693 141.453L164.002 140.716C164.016 140.684 164.039 140.656 164.067 140.636C164.096 140.616 164.13 140.604 164.165 140.602C164.2 140.6 164.235 140.607 164.266 140.624C164.297 140.641 164.322 140.666 164.34 140.696L164.738 141.388C164.753 141.416 164.775 141.439 164.802 141.456C164.83 141.472 164.861 141.482 164.892 141.482L165.688 141.547C165.722 141.551 165.755 141.564 165.782 141.584C165.81 141.605 165.831 141.633 165.844 141.664C165.857 141.696 165.861 141.731 165.856 141.765C165.85 141.799 165.836 141.831 165.813 141.857L165.276 142.45C165.256 142.473 165.241 142.5 165.233 142.53C165.226 142.559 165.226 142.59 165.233 142.62L165.417 143.394C165.427 143.429 165.426 143.466 165.415 143.501C165.404 143.535 165.384 143.566 165.356 143.589C165.329 143.613 165.295 143.628 165.259 143.633C165.223 143.638 165.187 143.632 165.154 143.617Z" fill="#3C763D"/>
<path d="M163.501 142.534C163.48 142.498 163.453 142.466 163.422 142.439L163.026 142.099C163.006 142.081 162.991 142.058 162.983 142.033C162.975 142.008 162.974 141.98 162.981 141.955C162.988 141.929 163.002 141.905 163.021 141.887C163.041 141.869 163.065 141.856 163.091 141.851L163.6 141.744C163.659 141.732 163.714 141.705 163.761 141.666C163.807 141.628 163.843 141.578 163.866 141.523L164.068 141.043C164.078 141.018 164.095 140.997 164.117 140.981C164.139 140.965 164.165 140.956 164.192 140.955C164.218 140.953 164.245 140.959 164.268 140.972C164.292 140.984 164.311 141.003 164.325 141.026L164.456 141.258L164.422 141.278L164.289 141.046C164.28 141.03 164.266 141.016 164.249 141.007C164.232 140.998 164.214 140.994 164.195 140.995C164.175 140.996 164.157 141.003 164.141 141.014C164.126 141.025 164.114 141.04 164.106 141.058L163.905 141.54C163.879 141.601 163.838 141.655 163.787 141.697C163.735 141.74 163.675 141.769 163.61 141.783L163.099 141.89C163.08 141.893 163.063 141.902 163.049 141.916C163.036 141.929 163.026 141.945 163.021 141.964C163.016 141.982 163.016 142.002 163.022 142.021C163.028 142.039 163.039 142.055 163.054 142.068L163.449 142.408C163.484 142.438 163.514 142.473 163.537 142.513L163.501 142.534Z" fill="white"/>
<path d="M163.632 143.436C163.613 143.436 163.593 143.432 163.575 143.424C163.557 143.416 163.541 143.404 163.528 143.389C163.515 143.375 163.505 143.358 163.499 143.339C163.493 143.32 163.491 143.301 163.493 143.281L163.535 142.885H163.575L163.533 143.281C163.531 143.3 163.534 143.319 163.542 143.337C163.55 143.354 163.563 143.369 163.58 143.379C163.596 143.389 163.615 143.395 163.634 143.395C163.653 143.395 163.672 143.389 163.688 143.379L164.134 143.108C164.191 143.074 164.256 143.054 164.322 143.05C164.389 143.046 164.455 143.058 164.516 143.085L164.991 143.298C165.009 143.306 165.028 143.309 165.047 143.307C165.066 143.304 165.084 143.297 165.098 143.284C165.113 143.272 165.124 143.256 165.13 143.237C165.136 143.219 165.137 143.199 165.132 143.181L165.013 142.674C164.998 142.609 164.998 142.542 165.015 142.477C165.032 142.412 165.064 142.352 165.109 142.303L165.459 141.916C165.472 141.902 165.481 141.885 165.484 141.866C165.487 141.847 165.485 141.828 165.477 141.811C165.471 141.793 165.459 141.777 165.444 141.765C165.428 141.754 165.41 141.747 165.391 141.746L164.871 141.702C164.817 141.699 164.764 141.684 164.716 141.659L164.734 141.623C164.778 141.645 164.825 141.659 164.874 141.662L165.392 141.705C165.419 141.707 165.445 141.717 165.466 141.733C165.488 141.748 165.504 141.77 165.514 141.795C165.524 141.82 165.527 141.847 165.522 141.873C165.517 141.9 165.505 141.924 165.487 141.944L165.137 142.331C165.096 142.375 165.067 142.429 165.052 142.487C165.037 142.545 165.036 142.607 165.05 142.665L165.171 143.171C165.177 143.197 165.176 143.225 165.167 143.25C165.159 143.275 165.143 143.298 165.123 143.315C165.101 143.332 165.075 143.343 165.048 143.346C165.021 143.35 164.993 143.346 164.968 143.335L164.493 143.122C164.438 143.097 164.378 143.086 164.318 143.09C164.258 143.094 164.199 143.112 164.148 143.143L163.71 143.416C163.686 143.43 163.659 143.437 163.632 143.436Z" fill="white"/>
<path d="M164.457 141.264L164.422 141.284L164.5 141.421L164.535 141.401L164.457 141.264Z" fill="white"/>
<path d="M169.439 143.678L168.712 143.351C168.684 143.338 168.653 143.332 168.622 143.334C168.591 143.336 168.561 143.346 168.535 143.362L167.854 143.775C167.824 143.793 167.789 143.803 167.754 143.803C167.719 143.803 167.684 143.792 167.654 143.774C167.625 143.755 167.601 143.728 167.585 143.696C167.57 143.664 167.564 143.629 167.568 143.594L167.654 142.8C167.657 142.769 167.653 142.739 167.641 142.711C167.63 142.682 167.612 142.657 167.589 142.637L166.984 142.112C166.957 142.09 166.937 142.06 166.927 142.026C166.916 141.992 166.915 141.957 166.924 141.922C166.933 141.888 166.951 141.857 166.976 141.833C167.001 141.808 167.033 141.792 167.068 141.784L167.849 141.62C167.879 141.614 167.908 141.601 167.931 141.581C167.955 141.562 167.974 141.537 167.986 141.509L168.295 140.772C168.309 140.74 168.331 140.712 168.36 140.691C168.389 140.671 168.423 140.659 168.458 140.657C168.493 140.655 168.528 140.663 168.559 140.68C168.589 140.696 168.615 140.721 168.633 140.752L169.029 141.444C169.045 141.471 169.067 141.494 169.094 141.511C169.121 141.527 169.152 141.537 169.184 141.538L169.979 141.603C170.014 141.607 170.046 141.619 170.074 141.64C170.101 141.661 170.123 141.688 170.135 141.72C170.148 141.752 170.152 141.787 170.147 141.821C170.142 141.855 170.127 141.886 170.105 141.913L169.568 142.506C169.547 142.528 169.533 142.556 169.525 142.585C169.517 142.615 169.517 142.646 169.524 142.676L169.709 143.45C169.721 143.486 169.722 143.525 169.712 143.562C169.702 143.599 169.681 143.632 169.652 143.656C169.623 143.681 169.587 143.696 169.549 143.7C169.511 143.704 169.473 143.696 169.439 143.678Z" fill="#3C763D"/>
<path d="M167.786 142.594C167.765 142.558 167.739 142.527 167.707 142.5L167.311 142.159C167.291 142.141 167.276 142.119 167.268 142.093C167.26 142.068 167.26 142.041 167.266 142.015C167.273 141.989 167.287 141.966 167.306 141.947C167.326 141.929 167.35 141.917 167.376 141.911L167.89 141.803C167.949 141.79 168.004 141.764 168.05 141.726C168.096 141.687 168.133 141.638 168.156 141.583L168.358 141.102C168.368 141.077 168.385 141.055 168.407 141.04C168.429 141.024 168.455 141.015 168.481 141.013C168.508 141.012 168.534 141.018 168.558 141.03C168.581 141.043 168.601 141.062 168.615 141.085L168.746 141.317L168.712 141.337L168.579 141.106C168.57 141.089 168.556 141.075 168.539 141.066C168.522 141.057 168.502 141.052 168.483 141.054C168.464 141.055 168.446 141.062 168.43 141.073C168.415 141.084 168.403 141.099 168.396 141.117L168.195 141.599C168.169 141.66 168.128 141.714 168.077 141.756C168.025 141.798 167.964 141.828 167.899 141.842L167.388 141.948C167.37 141.953 167.353 141.962 167.339 141.975C167.325 141.989 167.316 142.006 167.311 142.024C167.306 142.043 167.306 142.062 167.312 142.08C167.318 142.098 167.329 142.114 167.344 142.126L167.738 142.467C167.774 142.497 167.804 142.532 167.827 142.572L167.786 142.594Z" fill="white"/>
<path d="M167.921 143.496C167.902 143.496 167.882 143.492 167.864 143.484C167.847 143.476 167.831 143.464 167.817 143.45C167.804 143.435 167.794 143.418 167.788 143.399C167.782 143.381 167.78 143.361 167.782 143.341L167.824 142.945H167.864L167.822 143.341C167.82 143.36 167.823 143.38 167.831 143.397C167.839 143.414 167.852 143.429 167.869 143.439C167.885 143.45 167.904 143.455 167.923 143.455C167.942 143.455 167.961 143.45 167.977 143.439L168.423 143.17C168.48 143.135 168.544 143.115 168.611 143.111C168.678 143.107 168.744 143.118 168.805 143.145L169.28 143.359C169.298 143.366 169.317 143.369 169.336 143.366C169.354 143.364 169.372 143.356 169.387 143.344C169.401 143.332 169.412 143.316 169.418 143.298C169.424 143.28 169.425 143.261 169.421 143.242L169.302 142.732C169.287 142.666 169.287 142.599 169.304 142.534C169.321 142.469 169.353 142.41 169.398 142.36L169.748 141.973C169.761 141.959 169.77 141.942 169.773 141.923C169.776 141.904 169.774 141.885 169.767 141.868C169.76 141.85 169.748 141.834 169.733 141.822C169.717 141.811 169.699 141.804 169.68 141.803L169.16 141.759C169.106 141.756 169.053 141.741 169.005 141.716L169.023 141.68C169.066 141.702 169.113 141.716 169.161 141.719L169.681 141.762C169.708 141.765 169.733 141.774 169.755 141.79C169.776 141.806 169.792 141.828 169.802 141.852C169.814 141.878 169.818 141.906 169.813 141.934C169.808 141.961 169.795 141.987 169.776 142.007L169.426 142.394C169.386 142.439 169.356 142.492 169.341 142.551C169.326 142.609 169.326 142.67 169.339 142.728L169.46 143.235C169.466 143.261 169.465 143.288 169.456 143.313C169.448 143.339 169.432 143.361 169.412 143.379C169.39 143.395 169.365 143.406 169.337 143.41C169.31 143.413 169.282 143.409 169.257 143.399L168.782 143.185C168.727 143.161 168.667 143.15 168.607 143.154C168.547 143.157 168.488 143.176 168.437 143.207L167.991 143.478C167.97 143.49 167.946 143.497 167.921 143.496Z" fill="white"/>
<path d="M168.746 141.329L168.711 141.349L168.789 141.486L168.824 141.466L168.746 141.329Z" fill="white"/>
<path d="M173.793 143.738L173.065 143.411C173.037 143.399 173.007 143.393 172.977 143.395C172.946 143.397 172.917 143.406 172.89 143.422L172.208 143.837C172.178 143.855 172.143 143.865 172.108 143.865C172.072 143.865 172.038 143.854 172.008 143.836C171.978 143.817 171.954 143.79 171.939 143.758C171.924 143.726 171.918 143.691 171.921 143.656L172.008 142.862C172.01 142.833 172.005 142.803 171.994 142.777C171.983 142.75 171.965 142.726 171.943 142.707L171.338 142.185C171.311 142.162 171.292 142.132 171.282 142.099C171.271 142.065 171.271 142.03 171.28 141.996C171.288 141.962 171.306 141.931 171.332 141.907C171.357 141.883 171.389 141.866 171.423 141.859L172.197 141.695C172.227 141.688 172.254 141.675 172.278 141.655C172.301 141.636 172.32 141.611 172.332 141.583L172.641 140.846C172.655 140.814 172.677 140.786 172.706 140.765C172.734 140.745 172.768 140.733 172.803 140.731C172.838 140.729 172.873 140.736 172.904 140.753C172.935 140.769 172.961 140.794 172.979 140.825L173.376 141.518C173.393 141.545 173.415 141.568 173.442 141.585C173.469 141.601 173.5 141.611 173.531 141.612L174.327 141.678C174.361 141.681 174.394 141.694 174.421 141.714C174.449 141.735 174.47 141.763 174.483 141.795C174.496 141.826 174.5 141.861 174.494 141.895C174.489 141.929 174.475 141.961 174.452 141.987L173.915 142.577C173.895 142.6 173.88 142.627 173.872 142.657C173.864 142.686 173.864 142.717 173.87 142.747L174.055 143.521C174.063 143.556 174.061 143.592 174.05 143.625C174.039 143.659 174.019 143.689 173.992 143.711C173.964 143.734 173.931 143.749 173.896 143.753C173.861 143.758 173.825 143.753 173.793 143.738Z" fill="#3C763D"/>
<path d="M178.461 143.738L177.733 143.411C177.705 143.399 177.675 143.393 177.645 143.395C177.614 143.397 177.584 143.406 177.558 143.422L176.876 143.837C176.846 143.855 176.811 143.865 176.776 143.865C176.74 143.865 176.706 143.854 176.676 143.836C176.646 143.817 176.622 143.79 176.607 143.758C176.592 143.726 176.586 143.691 176.589 143.656L176.676 142.862C176.678 142.833 176.673 142.803 176.662 142.777C176.651 142.75 176.633 142.726 176.611 142.707L176.006 142.185C175.979 142.162 175.96 142.132 175.95 142.099C175.939 142.065 175.939 142.03 175.948 141.996C175.956 141.962 175.974 141.931 176 141.907C176.025 141.883 176.057 141.866 176.091 141.859L176.865 141.695C176.895 141.688 176.922 141.675 176.946 141.655C176.969 141.636 176.988 141.611 177 141.583L177.309 140.846C177.323 140.814 177.345 140.786 177.374 140.765C177.402 140.745 177.436 140.733 177.471 140.731C177.506 140.729 177.541 140.736 177.572 140.753C177.603 140.769 177.629 140.794 177.647 140.825L178.044 141.518C178.06 141.545 178.083 141.568 178.11 141.585C178.137 141.601 178.168 141.611 178.199 141.612L178.995 141.678C179.029 141.681 179.062 141.694 179.089 141.714C179.117 141.735 179.138 141.763 179.151 141.795C179.164 141.826 179.168 141.861 179.162 141.895C179.157 141.929 179.143 141.961 179.12 141.987L178.583 142.577C178.563 142.6 178.548 142.627 178.54 142.657C178.532 142.686 178.532 142.717 178.538 142.747L178.723 143.521C178.731 143.556 178.729 143.592 178.718 143.625C178.707 143.659 178.687 143.689 178.66 143.711C178.632 143.734 178.599 143.749 178.564 143.753C178.529 143.758 178.493 143.753 178.461 143.738Z" fill="#3C763D"/>
<path d="M172.144 142.656C172.124 142.619 172.097 142.587 172.065 142.56L171.671 142.221C171.65 142.203 171.636 142.18 171.628 142.155C171.62 142.129 171.619 142.102 171.626 142.076C171.632 142.051 171.646 142.027 171.665 142.009C171.684 141.99 171.708 141.977 171.734 141.971L172.245 141.865C172.304 141.852 172.359 141.826 172.405 141.787C172.452 141.749 172.488 141.7 172.511 141.645L172.712 141.163C172.723 141.139 172.739 141.118 172.761 141.102C172.783 141.087 172.808 141.078 172.835 141.077C172.861 141.075 172.888 141.081 172.911 141.094C172.935 141.106 172.954 141.125 172.968 141.148L173.101 141.38L173.065 141.4L172.932 141.168C172.923 141.152 172.909 141.138 172.892 141.129C172.876 141.12 172.857 141.116 172.838 141.117C172.819 141.118 172.8 141.125 172.785 141.136C172.769 141.147 172.757 141.163 172.75 141.18L172.548 141.66C172.523 141.722 172.482 141.776 172.431 141.819C172.379 141.862 172.318 141.891 172.253 141.905L171.742 142.012C171.723 142.016 171.706 142.025 171.692 142.038C171.678 142.051 171.668 142.068 171.664 142.087C171.659 142.105 171.66 142.125 171.666 142.143C171.671 142.161 171.682 142.177 171.697 142.19L172.092 142.53C172.127 142.56 172.157 142.595 172.18 142.636L172.144 142.656Z" fill="white"/>
<path d="M176.808 142.656C176.788 142.619 176.761 142.587 176.729 142.56L176.335 142.221C176.315 142.203 176.3 142.18 176.292 142.155C176.284 142.129 176.283 142.102 176.29 142.076C176.296 142.051 176.31 142.027 176.329 142.009C176.348 141.99 176.372 141.977 176.398 141.971L176.909 141.865C176.968 141.852 177.023 141.826 177.069 141.787C177.116 141.749 177.152 141.7 177.175 141.645L177.377 141.163C177.387 141.139 177.404 141.118 177.425 141.102C177.447 141.087 177.472 141.078 177.499 141.077C177.525 141.075 177.552 141.081 177.575 141.094C177.599 141.106 177.618 141.125 177.632 141.148L177.765 141.38L177.729 141.4L177.596 141.168C177.587 141.152 177.573 141.138 177.556 141.129C177.54 141.12 177.521 141.116 177.502 141.117C177.483 141.118 177.464 141.125 177.449 141.136C177.433 141.147 177.421 141.163 177.414 141.18L177.212 141.66C177.187 141.722 177.146 141.776 177.095 141.819C177.043 141.862 176.982 141.891 176.917 141.905L176.406 142.012C176.387 142.016 176.37 142.025 176.356 142.038C176.342 142.051 176.333 142.068 176.328 142.087C176.323 142.105 176.324 142.125 176.33 142.143C176.336 142.161 176.346 142.177 176.361 142.19L176.756 142.53C176.791 142.56 176.821 142.595 176.844 142.636L176.808 142.656Z" fill="white"/>
<path d="M172.273 143.558C172.247 143.557 172.221 143.55 172.199 143.537C172.176 143.522 172.158 143.502 172.147 143.478C172.135 143.454 172.131 143.427 172.134 143.4L172.177 143.004H172.217L172.174 143.402C172.171 143.421 172.174 143.44 172.183 143.457C172.191 143.474 172.204 143.488 172.221 143.498C172.237 143.508 172.255 143.514 172.275 143.514C172.294 143.514 172.313 143.508 172.329 143.498L172.775 143.227C172.832 143.193 172.896 143.172 172.963 143.168C173.03 143.164 173.096 143.177 173.157 143.204L173.632 143.417C173.65 143.425 173.669 143.428 173.688 143.426C173.707 143.423 173.725 143.415 173.739 143.402C173.754 143.39 173.765 143.374 173.772 143.356C173.778 143.338 173.779 143.318 173.775 143.3L173.654 142.792C173.639 142.727 173.64 142.66 173.656 142.595C173.673 142.531 173.705 142.471 173.75 142.422L174.1 142.035C174.113 142.021 174.121 142.003 174.125 141.984C174.128 141.965 174.126 141.946 174.118 141.928C174.112 141.91 174.1 141.895 174.085 141.883C174.069 141.872 174.051 141.866 174.032 141.865L173.513 141.821C173.459 141.817 173.407 141.803 173.358 141.778L173.375 141.742C173.419 141.765 173.466 141.778 173.515 141.781L174.033 141.824C174.06 141.826 174.086 141.836 174.107 141.852C174.129 141.868 174.145 141.889 174.155 141.914C174.165 141.939 174.168 141.966 174.163 141.992C174.158 142.019 174.146 142.043 174.128 142.063L173.778 142.448C173.737 142.493 173.709 142.547 173.694 142.605C173.679 142.663 173.679 142.724 173.693 142.783L173.812 143.29C173.819 143.316 173.818 143.344 173.81 143.369C173.802 143.395 173.787 143.418 173.767 143.435C173.746 143.453 173.722 143.464 173.695 143.469C173.669 143.473 173.642 143.47 173.617 143.459L173.142 143.246C173.087 143.221 173.026 143.21 172.966 143.214C172.906 143.218 172.848 143.236 172.796 143.267L172.352 143.538C172.328 143.552 172.301 143.559 172.273 143.558Z" fill="white"/>
<path d="M176.941 143.558C176.915 143.557 176.889 143.55 176.867 143.537C176.844 143.522 176.826 143.502 176.815 143.478C176.803 143.454 176.799 143.427 176.802 143.4L176.845 143.004H176.885L176.842 143.402C176.839 143.421 176.842 143.44 176.851 143.457C176.859 143.474 176.872 143.488 176.888 143.498C176.905 143.508 176.923 143.514 176.943 143.514C176.962 143.514 176.981 143.508 176.997 143.498L177.443 143.227C177.5 143.193 177.564 143.172 177.631 143.168C177.698 143.164 177.764 143.177 177.825 143.204L178.3 143.417C178.318 143.425 178.337 143.428 178.356 143.426C178.375 143.423 178.393 143.415 178.407 143.402C178.422 143.39 178.433 143.374 178.44 143.356C178.446 143.338 178.447 143.318 178.443 143.3L178.322 142.792C178.307 142.727 178.308 142.66 178.324 142.595C178.341 142.531 178.373 142.471 178.418 142.422L178.768 142.035C178.781 142.021 178.789 142.003 178.793 141.984C178.796 141.965 178.794 141.946 178.786 141.928C178.78 141.91 178.768 141.895 178.753 141.883C178.737 141.872 178.719 141.866 178.7 141.865L178.181 141.821C178.127 141.817 178.074 141.803 178.026 141.778L178.043 141.742C178.087 141.765 178.134 141.778 178.183 141.781L178.701 141.824C178.728 141.826 178.754 141.836 178.775 141.852C178.797 141.868 178.813 141.889 178.823 141.914C178.833 141.939 178.836 141.966 178.831 141.992C178.826 142.019 178.814 142.043 178.796 142.063L178.446 142.448C178.405 142.493 178.377 142.547 178.362 142.605C178.347 142.663 178.346 142.724 178.361 142.783L178.48 143.29C178.487 143.316 178.486 143.344 178.478 143.369C178.47 143.395 178.455 143.418 178.435 143.435C178.414 143.453 178.39 143.464 178.363 143.469C178.337 143.473 178.31 143.47 178.285 143.459L177.81 143.246C177.755 143.221 177.694 143.21 177.634 143.214C177.574 143.218 177.516 143.236 177.464 143.267L177.02 143.538C176.996 143.552 176.969 143.559 176.941 143.558Z" fill="white"/>
<path d="M173.555 141.127L173.52 141.147L173.598 141.285L173.634 141.265L173.555 141.127Z" fill="white"/>
<path d="M178.219 141.127L178.184 141.147L178.263 141.285L178.298 141.265L178.219 141.127Z" fill="white"/>
<path opacity="0.7" d="M178.572 137.468C178.571 137.556 178.552 137.643 178.517 137.724C178.483 137.805 178.432 137.878 178.369 137.94C178.306 138.001 178.232 138.049 178.15 138.082C178.068 138.114 177.98 138.13 177.892 138.129L159.841 137.868C159.663 137.865 159.494 137.792 159.37 137.664C159.246 137.537 159.178 137.366 159.18 137.188V137.159C159.181 137.071 159.199 136.984 159.234 136.903C159.269 136.822 159.32 136.749 159.383 136.687C159.446 136.626 159.52 136.578 159.602 136.545C159.684 136.513 159.771 136.496 159.859 136.498L177.908 136.753C177.996 136.754 178.083 136.773 178.164 136.808C178.245 136.842 178.318 136.893 178.379 136.956C178.441 137.019 178.489 137.094 178.522 137.175C178.554 137.257 178.57 137.345 178.569 137.433L178.572 137.468Z" fill="#CED4DA"/>
<path d="M156.672 141.085C157.073 138.707 155.471 136.455 153.094 136.054C150.716 135.652 148.464 137.254 148.062 139.632C147.661 142.009 149.263 144.262 151.641 144.663C154.018 145.064 156.27 143.462 156.672 141.085Z" fill="#3C763D"/>
<path d="M148.342 140.174C148.318 140.172 148.296 140.161 148.28 140.143C148.265 140.125 148.257 140.102 148.258 140.078C148.27 139.905 148.292 139.733 148.325 139.563C148.327 139.551 148.331 139.54 148.338 139.53C148.344 139.521 148.353 139.512 148.362 139.505C148.372 139.499 148.383 139.494 148.395 139.492C148.406 139.489 148.418 139.489 148.43 139.492C148.441 139.494 148.452 139.498 148.462 139.505C148.472 139.511 148.481 139.52 148.487 139.53C148.494 139.539 148.498 139.55 148.501 139.562C148.503 139.573 148.503 139.585 148.501 139.597C148.468 139.76 148.447 139.925 148.436 140.091C148.434 140.114 148.424 140.136 148.406 140.152C148.388 140.168 148.365 140.176 148.342 140.174Z" fill="white"/>
<path d="M148.787 138.58C148.773 138.58 148.76 138.577 148.748 138.571C148.727 138.56 148.711 138.541 148.704 138.518C148.696 138.496 148.698 138.471 148.709 138.45C149.061 137.772 149.595 137.205 150.252 136.814C150.908 136.423 151.66 136.223 152.424 136.236C152.673 136.24 152.922 136.266 153.166 136.314C153.189 136.318 153.209 136.332 153.222 136.352C153.235 136.372 153.24 136.396 153.236 136.419C153.233 136.43 153.229 136.441 153.222 136.451C153.216 136.461 153.207 136.469 153.198 136.476C153.188 136.482 153.177 136.487 153.165 136.489C153.154 136.491 153.142 136.491 153.13 136.489C152.897 136.443 152.659 136.419 152.421 136.416C151.691 136.403 150.972 136.595 150.344 136.968C149.717 137.342 149.206 137.884 148.87 138.532C148.863 138.547 148.851 138.56 148.836 138.569C148.821 138.577 148.804 138.581 148.787 138.58Z" fill="white"/>
<path opacity="0.78" d="M156.152 140.504C156.142 141.235 155.915 141.946 155.5 142.548C155.086 143.15 154.502 143.616 153.823 143.886C153.144 144.156 152.4 144.219 151.685 144.066C150.971 143.914 150.317 143.552 149.808 143.028C149.298 142.504 148.955 141.841 148.823 141.122C148.69 140.404 148.774 139.662 149.063 138.99C149.352 138.319 149.834 137.749 150.448 137.351C151.061 136.954 151.778 136.747 152.509 136.758C153.489 136.772 154.423 137.174 155.106 137.877C155.789 138.579 156.165 139.524 156.152 140.504Z" fill="#DFF0D8"/>
<path d="M153.609 139.072C153.599 139.691 153.082 140.365 152.457 140.357C151.832 140.349 151.335 139.665 151.344 139.04C151.353 138.414 151.866 137.978 152.491 137.987C153.116 137.996 153.618 138.447 153.609 139.072Z" fill="#3C763D"/>
<path d="M151.019 142.745L153.785 142.784C153.927 142.786 154.066 142.743 154.182 142.661C154.297 142.579 154.384 142.462 154.429 142.327L154.584 141.863C154.639 141.7 154.629 141.522 154.556 141.366C154.483 141.21 154.353 141.088 154.193 141.026C153.072 140.598 151.908 140.634 150.711 141.015C150.549 141.067 150.414 141.179 150.332 141.328C150.25 141.478 150.229 141.652 150.271 141.817L150.381 142.241C150.417 142.383 150.499 142.51 150.615 142.601C150.73 142.692 150.872 142.743 151.019 142.745Z" fill="#3C763D"/>
</g>
<defs>
<filter id="filter0_f" x="0.113281" y="0.210938" width="325.072" height="317.754" filterUnits="userSpaceOnUse" color-interpolation-filters="sRGB">
<feFlood flood-opacity="0" result="BackgroundImageFix"/>
<feBlend mode="normal" in="SourceGraphic" in2="BackgroundImageFix" result="shape"/>
<feGaussianBlur stdDeviation="61" result="effect1_foregroundBlur"/>
</filter>
<clipPath id="clip0">
<rect width="112" height="112" fill="white" transform="translate(106.5 105)"/>
</clipPath>
</defs>
</svg>
