<svg width="514" height="463" viewBox="0 0 514 463" fill="none" xmlns="http://www.w3.org/2000/svg">
<g opacity="0.66" filter="url(#filter0_f)">
<path fill-rule="evenodd" clip-rule="evenodd" d="M261.852 95.6232C291.131 93.128 319.587 106.285 342.858 123.726C365.653 140.809 383.607 164.325 389.929 191.61C395.929 217.508 388.131 244.227 376.323 268.167C365.689 289.726 348.472 307.457 327.014 319.161C307.285 329.922 284.292 327.787 261.852 330.603C235.095 333.962 208.063 347.362 183.189 337.213C156.071 326.149 134.347 302.32 125.642 275.029C116.987 247.899 124.946 218.495 137.074 192.651C148.213 168.914 169.588 153.008 190.553 136.705C212.667 119.51 233.635 98.0279 261.852 95.6232Z" fill="#DFF0D8"/>
</g>
<circle cx="318.856" cy="305.286" r="85.7143" transform="rotate(180 318.856 305.286)" fill="#3C763D"/>
<circle cx="161.715" cy="255.714" r="45.7143" transform="rotate(180 161.715 255.714)" fill="#3C763D"/>
<circle cx="300.858" cy="122.857" r="22.8571" transform="rotate(180 300.858 122.857)" fill="#3C763D"/>
<path d="M183.864 116.625C183.882 115.944 184.046 115.275 184.345 114.664C184.644 114.052 185.071 113.512 185.597 113.08C186.123 112.647 186.736 112.333 187.394 112.159C188.052 111.984 188.74 111.953 189.412 112.068C208.31 115.281 273.317 125.423 327.422 123.089C328.008 123.062 328.593 123.153 329.143 123.356C329.692 123.558 330.196 123.869 330.624 124.27C331.052 124.67 331.395 125.152 331.634 125.687C331.873 126.223 332.002 126.8 332.014 127.386L335.999 330.178C336.025 331.514 335.522 332.805 334.6 333.771C333.677 334.737 332.41 335.298 331.075 335.333C308.332 335.913 214.681 337.978 181.454 333.37C180.477 333.235 179.584 332.744 178.947 331.991C178.31 331.238 177.973 330.276 178.002 329.291L183.864 116.625Z" fill="#3C763D"/>
<path opacity="0.9" d="M185.928 121.783C185.946 121.129 186.105 120.487 186.393 119.899C186.681 119.311 187.091 118.792 187.597 118.377C188.102 117.962 188.691 117.66 189.323 117.491C189.956 117.323 190.617 117.292 191.262 117.401C209.448 120.49 272.01 130.253 324.08 128.004C324.643 127.979 325.206 128.067 325.735 128.263C326.264 128.458 326.749 128.758 327.16 129.143C327.572 129.529 327.902 129.993 328.131 130.508C328.361 131.024 328.485 131.579 328.496 132.143L332.336 327.293C332.363 328.579 331.879 329.823 330.99 330.753C330.102 331.683 328.882 332.223 327.596 332.256C305.711 332.819 215.584 334.816 183.607 330.37C182.665 330.241 181.805 329.769 181.192 329.043C180.579 328.317 180.256 327.39 180.287 326.44L185.928 121.783Z" fill="white"/>
<path d="M216.305 196.9H216.182L206.274 196.473C205.609 196.471 204.969 196.226 204.473 195.783C203.978 195.34 203.662 194.731 203.586 194.071L202.993 185.725C202.976 185.474 203.01 185.223 203.092 184.986C203.175 184.749 203.305 184.532 203.475 184.347C203.676 184.129 203.92 183.954 204.19 183.831C204.46 183.709 204.753 183.642 205.049 183.634C205.903 183.604 207.042 183.544 208.309 183.48C211.057 183.34 214.219 183.177 216.058 183.216C216.681 183.207 217.29 183.405 217.788 183.78C218.286 184.155 218.646 184.684 218.81 185.285C219.262 187.218 219.096 190.832 218.87 194.673C218.807 195.301 218.507 195.882 218.03 196.296C217.553 196.71 216.936 196.926 216.305 196.9ZM215.452 184.061C213.592 184.061 210.805 184.206 208.343 184.334C207.063 184.398 205.911 184.457 205.071 184.487C204.889 184.49 204.71 184.53 204.543 184.603C204.377 184.676 204.227 184.782 204.102 184.914C204.009 185.014 203.938 185.132 203.892 185.26C203.845 185.388 203.826 185.525 203.833 185.661L204.426 194.007C204.489 194.457 204.713 194.87 205.058 195.166C205.403 195.462 205.845 195.622 206.299 195.616L216.297 196.042C216.707 196.065 217.111 195.933 217.427 195.671C217.744 195.409 217.95 195.037 218.004 194.63C218.226 190.845 218.392 187.295 217.961 185.473C217.835 185.059 217.578 184.697 217.227 184.442C216.877 184.188 216.453 184.056 216.02 184.065L215.452 184.061Z" fill="#DFF0D8"/>
<path d="M216.305 220.096H216.182L206.274 219.67C205.609 219.668 204.969 219.422 204.473 218.979C203.978 218.537 203.662 217.927 203.586 217.267L202.993 208.921C202.976 208.671 203.01 208.419 203.092 208.183C203.175 207.946 203.305 207.728 203.475 207.543C203.676 207.325 203.92 207.15 204.19 207.028C204.46 206.905 204.753 206.838 205.049 206.83C205.903 206.8 207.042 206.741 208.309 206.677C211.057 206.536 214.219 206.374 216.058 206.412C216.681 206.403 217.29 206.602 217.788 206.976C218.286 207.351 218.646 207.88 218.81 208.482C219.262 210.415 219.096 214.029 218.87 217.869C218.807 218.497 218.507 219.078 218.03 219.492C217.553 219.906 216.936 220.122 216.305 220.096ZM215.452 207.257C213.592 207.257 210.805 207.402 208.343 207.53C207.063 207.594 205.911 207.654 205.071 207.684C204.889 207.687 204.71 207.726 204.543 207.799C204.377 207.873 204.227 207.978 204.102 208.11C204.009 208.21 203.938 208.328 203.892 208.456C203.845 208.585 203.826 208.721 203.833 208.857L204.426 217.203C204.489 217.654 204.713 218.066 205.058 218.362C205.403 218.658 205.845 218.818 206.299 218.812L216.297 219.239C216.707 219.262 217.111 219.129 217.427 218.867C217.744 218.605 217.95 218.233 218.004 217.826C218.226 214.041 218.392 210.491 217.961 208.669C217.835 208.255 217.578 207.893 217.227 207.639C216.877 207.385 216.453 207.252 216.02 207.261L215.452 207.257Z" fill="#DFF0D8"/>
<path d="M216.305 244.949H216.182L206.274 244.523C205.609 244.521 204.969 244.275 204.473 243.832C203.978 243.39 203.662 242.78 203.586 242.12L202.993 233.774C202.976 233.524 203.01 233.272 203.092 233.036C203.175 232.799 203.305 232.581 203.475 232.396C203.676 232.178 203.92 232.003 204.19 231.881C204.46 231.758 204.753 231.691 205.049 231.683C205.903 231.653 207.042 231.594 208.309 231.53C211.057 231.389 214.219 231.227 216.058 231.265C216.681 231.256 217.29 231.455 217.788 231.829C218.286 232.204 218.646 232.733 218.81 233.335C219.262 235.268 219.096 238.882 218.87 242.722C218.807 243.35 218.507 243.931 218.03 244.345C217.553 244.759 216.936 244.975 216.305 244.949ZM215.452 232.11C213.592 232.11 210.805 232.255 208.343 232.383C207.063 232.447 205.911 232.507 205.071 232.537C204.889 232.54 204.71 232.579 204.543 232.652C204.377 232.726 204.227 232.831 204.102 232.963C204.009 233.063 203.938 233.181 203.892 233.309C203.845 233.438 203.826 233.574 203.833 233.71L204.426 242.056C204.489 242.507 204.713 242.919 205.058 243.215C205.403 243.511 205.845 243.671 206.299 243.665L216.297 244.092C216.707 244.115 217.111 243.982 217.427 243.72C217.744 243.458 217.95 243.086 218.004 242.679C218.226 238.894 218.392 235.344 217.961 233.522C217.835 233.108 217.578 232.746 217.227 232.492C216.877 232.238 216.453 232.105 216.02 232.114L215.452 232.11Z" fill="#DFF0D8"/>
<path d="M216.305 269.801H216.182L206.274 269.374C205.609 269.372 204.969 269.127 204.473 268.684C203.978 268.241 203.662 267.632 203.586 266.972L202.993 258.626C202.976 258.375 203.01 258.124 203.092 257.887C203.175 257.65 203.305 257.433 203.475 257.248C203.676 257.03 203.92 256.855 204.19 256.732C204.46 256.61 204.753 256.543 205.049 256.535C205.903 256.505 207.042 256.445 208.309 256.381C211.057 256.241 214.219 256.078 216.058 256.117C216.681 256.108 217.29 256.306 217.788 256.681C218.286 257.056 218.646 257.585 218.81 258.186C219.262 260.119 219.096 263.733 218.87 267.574C218.807 268.202 218.507 268.783 218.03 269.197C217.553 269.611 216.936 269.827 216.305 269.801ZM215.452 256.962C213.592 256.962 210.805 257.107 208.343 257.235C207.063 257.299 205.911 257.358 205.071 257.388C204.889 257.391 204.71 257.431 204.543 257.504C204.377 257.577 204.227 257.683 204.102 257.815C204.009 257.915 203.938 258.033 203.892 258.161C203.845 258.289 203.826 258.426 203.833 258.562L204.426 266.908C204.489 267.358 204.713 267.771 205.058 268.067C205.403 268.363 205.845 268.523 206.299 268.517L216.297 268.943C216.707 268.966 217.111 268.834 217.427 268.572C217.744 268.31 217.95 267.938 218.004 267.531C218.226 263.746 218.392 260.196 217.961 258.374C217.835 257.96 217.578 257.598 217.227 257.343C216.877 257.089 216.453 256.957 216.02 256.966L215.452 256.962Z" fill="#DFF0D8"/>
<path d="M216.305 297.967H216.182L206.274 297.54C205.609 297.539 204.969 297.293 204.473 296.85C203.978 296.407 203.662 295.798 203.586 295.138L202.993 286.792C202.976 286.542 203.01 286.29 203.092 286.053C203.175 285.817 203.305 285.599 203.475 285.414C203.676 285.196 203.92 285.021 204.19 284.898C204.46 284.776 204.753 284.709 205.049 284.701C205.903 284.671 207.042 284.612 208.309 284.547C211.057 284.407 214.219 284.245 216.058 284.283C216.681 284.274 217.29 284.473 217.788 284.847C218.286 285.222 218.646 285.751 218.81 286.352C219.262 288.285 219.096 291.899 218.87 295.74C218.807 296.368 218.507 296.949 218.03 297.363C217.553 297.777 216.936 297.993 216.305 297.967ZM215.452 285.128C213.592 285.128 210.805 285.273 208.343 285.401C207.063 285.465 205.911 285.525 205.071 285.554C204.889 285.558 204.71 285.597 204.543 285.67C204.377 285.743 204.227 285.849 204.102 285.981C204.009 286.081 203.938 286.199 203.892 286.327C203.845 286.455 203.826 286.592 203.833 286.728L204.426 295.074C204.489 295.525 204.713 295.937 205.058 296.233C205.403 296.529 205.845 296.689 206.299 296.683L216.297 297.109C216.707 297.132 217.111 297 217.427 296.738C217.744 296.476 217.95 296.104 218.004 295.697C218.226 291.912 218.392 288.362 217.961 286.54C217.835 286.126 217.578 285.764 217.227 285.51C216.877 285.255 216.453 285.123 216.02 285.132L215.452 285.128Z" fill="#DFF0D8"/>
<path d="M225.383 188.554C225.178 188.533 224.972 188.562 224.782 188.64C224.591 188.718 224.423 188.841 224.292 188.999C224.161 189.158 224.07 189.346 224.029 189.547C223.988 189.749 223.997 189.957 224.056 190.154L224.44 191.827C224.566 192.294 224.834 192.709 225.209 193.015C225.583 193.322 226.044 193.503 226.526 193.533L316.303 195.599C316.75 195.599 317.178 195.424 317.497 195.112C317.816 194.801 318 194.376 318.01 193.93V193.64C318.013 193.181 317.835 192.739 317.517 192.409C317.198 192.079 316.762 191.887 316.303 191.874L225.383 188.554Z" fill="#9DABB9"/>
<path d="M225.383 211.75C225.178 211.729 224.972 211.758 224.782 211.836C224.591 211.914 224.423 212.037 224.292 212.196C224.161 212.354 224.07 212.542 224.029 212.743C223.988 212.945 223.997 213.153 224.056 213.35L224.44 215.023C224.566 215.49 224.834 215.905 225.209 216.212C225.583 216.518 226.044 216.699 226.526 216.73L316.303 218.795C316.75 218.795 317.178 218.62 317.497 218.309C317.816 217.997 318 217.572 318.01 217.126V216.836C318.013 216.377 317.835 215.936 317.517 215.605C317.198 215.275 316.762 215.083 316.303 215.07L225.383 211.75Z" fill="#9DABB9"/>
<path d="M225.383 236.601C225.178 236.58 224.972 236.61 224.782 236.687C224.591 236.765 224.423 236.888 224.292 237.047C224.161 237.205 224.07 237.393 224.029 237.594C223.988 237.796 223.997 238.004 224.056 238.201L224.44 239.874C224.566 240.341 224.834 240.757 225.209 241.063C225.583 241.369 226.044 241.55 226.526 241.581L316.303 243.646C316.75 243.646 317.178 243.471 317.497 243.16C317.816 242.848 318 242.423 318.01 241.977V241.687C318.013 241.228 317.835 240.787 317.517 240.457C317.198 240.126 316.762 239.934 316.303 239.921L225.383 236.601Z" fill="#9DABB9"/>
<path d="M225.383 261.454C225.178 261.433 224.972 261.463 224.782 261.54C224.591 261.618 224.423 261.742 224.292 261.9C224.161 262.058 224.07 262.246 224.029 262.448C223.988 262.649 223.997 262.857 224.056 263.054L224.44 264.727C224.566 265.194 224.834 265.61 225.209 265.916C225.583 266.222 226.044 266.403 226.526 266.434L316.303 268.499C316.75 268.499 317.178 268.325 317.497 268.013C317.816 267.701 318 267.277 318.01 266.831V266.54C318.013 266.082 317.835 265.64 317.517 265.31C317.198 264.98 316.762 264.787 316.303 264.774L225.383 261.454Z" fill="#9DABB9"/>
<path d="M225.383 289.621C225.178 289.6 224.972 289.629 224.782 289.707C224.591 289.785 224.423 289.908 224.292 290.066C224.161 290.225 224.07 290.413 224.029 290.614C223.988 290.816 223.997 291.024 224.056 291.221L224.44 292.894C224.566 293.361 224.834 293.776 225.209 294.082C225.583 294.389 226.044 294.57 226.526 294.6L316.303 296.666C316.75 296.666 317.178 296.491 317.497 296.179C317.816 295.868 318 295.443 318.01 294.997V294.707C318.013 294.248 317.835 293.806 317.517 293.476C317.198 293.146 316.762 292.954 316.303 292.941L225.383 289.621Z" fill="#9DABB9"/>
<path d="M205.784 186.656C205.962 186.559 206.158 186.499 206.359 186.479C206.561 186.458 206.764 186.479 206.958 186.538C207.152 186.598 207.331 186.696 207.487 186.826C207.642 186.956 207.77 187.116 207.862 187.296L209.701 190.868C209.742 190.948 209.805 191.016 209.882 191.063C209.959 191.111 210.048 191.136 210.139 191.136C210.229 191.136 210.318 191.111 210.395 191.063C210.472 191.016 210.535 190.948 210.576 190.868L215.786 180.234C215.841 180.122 215.933 180.032 216.046 179.98C216.159 179.928 216.287 179.916 216.408 179.947C216.529 179.978 216.636 180.05 216.71 180.151C216.784 180.251 216.821 180.374 216.814 180.499C216.576 186.062 214.171 191.311 210.115 195.126C210.115 195.126 207.244 193.901 205.076 188.679C204.921 188.314 204.908 187.904 205.039 187.53C205.17 187.156 205.436 186.845 205.784 186.656Z" fill="#3C763D"/>
<path d="M205.784 209.85C205.962 209.753 206.158 209.693 206.359 209.673C206.561 209.653 206.764 209.673 206.958 209.733C207.152 209.792 207.331 209.89 207.487 210.02C207.642 210.15 207.77 210.31 207.862 210.49L209.701 214.062C209.742 214.143 209.805 214.21 209.882 214.258C209.959 214.305 210.048 214.33 210.139 214.33C210.229 214.33 210.318 214.305 210.395 214.258C210.472 214.21 210.535 214.143 210.576 214.062L215.786 203.429C215.841 203.316 215.933 203.226 216.046 203.174C216.159 203.122 216.287 203.11 216.408 203.141C216.529 203.172 216.636 203.244 216.71 203.345C216.784 203.445 216.821 203.568 216.814 203.693C216.576 209.256 214.171 214.506 210.115 218.32C210.115 218.32 207.244 217.096 205.076 211.873C204.921 211.508 204.908 211.099 205.039 210.725C205.17 210.351 205.436 210.039 205.784 209.85Z" fill="#3C763D"/>
<path d="M205.784 234.703C205.962 234.606 206.158 234.545 206.359 234.525C206.561 234.505 206.764 234.525 206.958 234.585C207.152 234.645 207.331 234.742 207.487 234.872C207.642 235.003 207.77 235.162 207.862 235.343L209.701 238.914C209.742 238.995 209.805 239.063 209.882 239.11C209.959 239.157 210.048 239.182 210.139 239.182C210.229 239.182 210.318 239.157 210.395 239.11C210.472 239.063 210.535 238.995 210.576 238.914L215.786 228.281C215.841 228.169 215.933 228.079 216.046 228.026C216.159 227.974 216.287 227.962 216.408 227.994C216.529 228.025 216.636 228.097 216.71 228.197C216.784 228.298 216.821 228.421 216.814 228.545C216.576 234.109 214.171 239.358 210.115 243.173C210.115 243.173 207.244 241.948 205.076 236.725C204.921 236.36 204.908 235.951 205.039 235.577C205.17 235.203 205.436 234.891 205.784 234.703Z" fill="#3C763D"/>
<path d="M205.784 259.556C205.962 259.459 206.158 259.399 206.359 259.378C206.561 259.358 206.764 259.378 206.958 259.438C207.152 259.498 207.331 259.595 207.487 259.726C207.642 259.856 207.77 260.016 207.862 260.196L209.701 263.767C209.742 263.848 209.805 263.916 209.882 263.963C209.959 264.01 210.048 264.036 210.139 264.036C210.229 264.036 210.318 264.01 210.395 263.963C210.472 263.916 210.535 263.848 210.576 263.767L215.786 253.134C215.841 253.022 215.933 252.932 216.046 252.88C216.159 252.827 216.287 252.816 216.408 252.847C216.529 252.878 216.636 252.95 216.71 253.05C216.784 253.151 216.821 253.274 216.814 253.399C216.576 258.962 214.171 264.211 210.115 268.026C210.115 268.026 207.244 266.801 205.076 261.578C204.921 261.214 204.908 260.804 205.039 260.43C205.17 260.056 205.436 259.744 205.784 259.556Z" fill="#3C763D"/>
<path d="M205.784 287.721C205.962 287.624 206.158 287.564 206.359 287.544C206.561 287.523 206.764 287.544 206.958 287.603C207.152 287.663 207.331 287.761 207.487 287.891C207.642 288.021 207.77 288.181 207.862 288.361L209.701 291.933C209.742 292.013 209.805 292.081 209.882 292.128C209.959 292.176 210.048 292.201 210.139 292.201C210.229 292.201 210.318 292.176 210.395 292.128C210.472 292.081 210.535 292.013 210.576 291.933L215.786 281.299C215.841 281.187 215.933 281.097 216.046 281.045C216.159 280.992 216.287 280.981 216.408 281.012C216.529 281.043 216.636 281.115 216.71 281.216C216.784 281.316 216.821 281.439 216.814 281.564C216.576 287.127 214.171 292.376 210.115 296.191C210.115 296.191 207.244 294.966 205.076 289.744C204.921 289.379 204.908 288.969 205.039 288.595C205.17 288.221 205.436 287.91 205.784 287.721Z" fill="#3C763D"/>
<path d="M214.405 112.157L302.095 115.088C303.623 115.138 305.084 115.727 306.22 116.75C307.356 117.772 308.094 119.164 308.304 120.678L308.363 121.105C308.474 121.909 308.408 122.728 308.17 123.504C307.932 124.28 307.527 124.994 306.983 125.598C306.44 126.201 305.771 126.678 305.024 126.996C304.277 127.313 303.47 127.464 302.658 127.437L212.694 124.425C212.204 124.408 211.722 124.293 211.278 124.085C210.834 123.877 210.437 123.581 210.111 123.215C209.784 122.85 209.536 122.421 209.38 121.957C209.224 121.492 209.164 121 209.203 120.512L209.532 116.492C209.632 115.282 210.194 114.157 211.101 113.35C212.008 112.543 213.191 112.116 214.405 112.157Z" fill="#3C763D"/>
<path d="M214.945 115.573L265.296 117.493" stroke="white"/>
<path d="M236.496 119.413H249.937" stroke="white"/>
<path d="M251.209 166.408L248.786 165.32C248.693 165.277 248.59 165.258 248.488 165.264C248.385 165.271 248.286 165.302 248.198 165.356L245.93 166.738C245.829 166.799 245.713 166.832 245.595 166.831C245.477 166.829 245.362 166.795 245.263 166.732C245.163 166.668 245.083 166.578 245.033 166.472C244.982 166.365 244.962 166.247 244.976 166.129L245.265 163.49C245.275 163.388 245.26 163.285 245.222 163.19C245.185 163.095 245.125 163.011 245.048 162.943L243.032 161.211C242.943 161.135 242.877 161.035 242.842 160.923C242.806 160.811 242.803 160.692 242.832 160.578C242.861 160.464 242.921 160.361 243.006 160.28C243.09 160.198 243.196 160.142 243.311 160.118L245.889 159.571C245.988 159.551 246.082 159.506 246.161 159.441C246.24 159.377 246.302 159.294 246.342 159.2L247.373 156.746C247.419 156.639 247.494 156.546 247.59 156.479C247.685 156.411 247.798 156.372 247.915 156.365C248.031 156.358 248.148 156.384 248.251 156.439C248.353 156.495 248.439 156.578 248.497 156.679L249.817 158.984C249.869 159.076 249.944 159.153 250.034 159.208C250.124 159.263 250.227 159.294 250.333 159.298L252.983 159.515C253.096 159.527 253.204 159.57 253.295 159.639C253.386 159.708 253.456 159.8 253.498 159.906C253.541 160.012 253.554 160.128 253.535 160.24C253.517 160.353 253.469 160.459 253.395 160.546L251.611 162.515C251.543 162.591 251.495 162.682 251.47 162.781C251.445 162.88 251.444 162.983 251.467 163.082L252.08 165.66C252.115 165.777 252.115 165.9 252.081 166.017C252.046 166.133 251.979 166.237 251.887 166.316C251.795 166.395 251.682 166.446 251.561 166.462C251.441 166.478 251.319 166.459 251.209 166.408Z" fill="#3C763D"/>
<path d="M245.709 162.804C245.639 162.684 245.55 162.576 245.446 162.484L244.126 161.35C244.059 161.292 244.009 161.216 243.982 161.132C243.956 161.047 243.954 160.956 243.976 160.87C243.999 160.784 244.045 160.706 244.11 160.645C244.175 160.584 244.255 160.543 244.343 160.525L246.039 160.17C246.235 160.13 246.419 160.042 246.574 159.914C246.728 159.787 246.849 159.623 246.926 159.437L247.596 157.834C247.631 157.752 247.688 157.682 247.761 157.631C247.833 157.579 247.919 157.549 248.008 157.544C248.097 157.539 248.185 157.558 248.264 157.6C248.342 157.642 248.407 157.706 248.452 157.783L248.89 158.551L248.776 158.618L248.333 157.85C248.302 157.793 248.255 157.747 248.199 157.717C248.142 157.687 248.077 157.674 248.013 157.679C247.95 157.681 247.889 157.702 247.838 157.739C247.786 157.776 247.747 157.827 247.725 157.886L247.054 159.489C246.969 159.694 246.834 159.875 246.663 160.016C246.491 160.157 246.287 160.254 246.07 160.298L244.368 160.659C244.307 160.672 244.25 160.702 244.204 160.746C244.159 160.789 244.126 160.845 244.11 160.906C244.094 160.967 244.095 161.031 244.114 161.091C244.132 161.151 244.167 161.205 244.214 161.247L245.534 162.381C245.649 162.482 245.748 162.6 245.827 162.732L245.709 162.804Z" fill="white"/>
<path d="M246.147 165.81C246.059 165.807 245.973 165.781 245.9 165.733C245.824 165.685 245.764 165.618 245.725 165.537C245.687 165.457 245.672 165.367 245.683 165.279L245.822 163.959H245.956L245.817 165.279C245.809 165.342 245.819 165.407 245.846 165.464C245.874 165.522 245.917 165.57 245.972 165.604C246.026 165.638 246.088 165.656 246.152 165.656C246.216 165.656 246.279 165.638 246.333 165.604L247.812 164.701C248.003 164.587 248.217 164.52 248.439 164.506C248.661 164.491 248.882 164.53 249.086 164.619L250.674 165.33C250.731 165.357 250.795 165.367 250.858 165.359C250.921 165.351 250.981 165.325 251.029 165.284C251.079 165.244 251.116 165.191 251.136 165.131C251.156 165.07 251.159 165.005 251.143 164.944L250.746 163.253C250.695 163.036 250.697 162.811 250.752 162.596C250.807 162.38 250.913 162.181 251.06 162.015L252.231 160.732C252.274 160.685 252.303 160.626 252.314 160.563C252.325 160.5 252.317 160.435 252.292 160.376C252.271 160.316 252.232 160.263 252.18 160.225C252.129 160.186 252.068 160.164 252.004 160.159L250.272 160.02C250.092 160.004 249.916 159.954 249.756 159.871L249.818 159.752C249.961 159.825 250.117 159.87 250.277 159.886L252.009 160.025C252.097 160.034 252.181 160.066 252.251 160.119C252.322 160.172 252.377 160.244 252.409 160.326C252.442 160.408 252.451 160.498 252.436 160.585C252.421 160.672 252.382 160.753 252.323 160.819L251.158 162.108C251.024 162.257 250.927 162.435 250.877 162.629C250.826 162.823 250.824 163.027 250.87 163.222L251.272 164.913C251.292 164.999 251.288 165.089 251.259 165.173C251.231 165.257 251.18 165.331 251.112 165.387C251.042 165.448 250.956 165.487 250.864 165.499C250.772 165.511 250.679 165.495 250.596 165.454L249.014 164.743C248.83 164.662 248.63 164.627 248.43 164.64C248.23 164.652 248.036 164.712 247.864 164.815L246.4 165.722C246.325 165.773 246.238 165.803 246.147 165.81Z" fill="white"/>
<path d="M248.882 158.52L248.766 158.587L249.027 159.043L249.143 158.977L248.882 158.52Z" fill="white"/>
<path d="M265.342 166.609L262.919 165.516C262.825 165.475 262.722 165.458 262.62 165.465C262.518 165.472 262.418 165.504 262.331 165.557L260.063 166.934C259.962 166.995 259.847 167.027 259.73 167.026C259.612 167.025 259.497 166.992 259.398 166.929C259.299 166.866 259.219 166.777 259.168 166.671C259.117 166.565 259.096 166.447 259.109 166.33L259.398 163.686C259.407 163.585 259.392 163.483 259.355 163.389C259.317 163.295 259.257 163.211 259.181 163.144L257.165 161.412C257.076 161.336 257.01 161.236 256.975 161.124C256.939 161.012 256.936 160.893 256.965 160.779C256.994 160.665 257.054 160.562 257.139 160.481C257.223 160.4 257.329 160.343 257.444 160.319L260.021 159.773C260.121 159.752 260.215 159.708 260.294 159.643C260.373 159.578 260.435 159.495 260.475 159.401L261.506 156.947C261.552 156.84 261.627 156.747 261.723 156.68C261.818 156.612 261.931 156.573 262.047 156.566C262.164 156.559 262.28 156.585 262.383 156.64C262.486 156.696 262.572 156.779 262.63 156.88L263.955 159.185C264.006 159.278 264.081 159.355 264.171 159.411C264.261 159.466 264.365 159.496 264.471 159.499L267.121 159.716C267.234 159.727 267.343 159.77 267.434 159.838C267.526 159.907 267.597 160 267.64 160.106C267.683 160.212 267.696 160.327 267.678 160.44C267.66 160.554 267.612 160.66 267.538 160.747L265.749 162.722C265.681 162.797 265.631 162.888 265.606 162.987C265.581 163.086 265.581 163.19 265.605 163.289L266.218 165.866C266.25 165.983 266.248 166.106 266.212 166.221C266.176 166.336 266.108 166.438 266.016 166.516C265.924 166.594 265.812 166.644 265.692 166.661C265.573 166.677 265.451 166.659 265.342 166.609Z" fill="#3C763D"/>
<path d="M259.841 163C259.77 162.882 259.682 162.776 259.578 162.685L258.258 161.551C258.191 161.493 258.142 161.417 258.115 161.333C258.089 161.248 258.087 161.158 258.109 161.072C258.131 160.986 258.177 160.907 258.242 160.846C258.307 160.785 258.387 160.744 258.475 160.726L260.171 160.371C260.367 160.329 260.551 160.24 260.705 160.112C260.86 159.983 260.981 159.819 261.058 159.633L261.728 158.035C261.762 157.952 261.819 157.881 261.892 157.829C261.965 157.777 262.051 157.747 262.14 157.741C262.229 157.736 262.317 157.756 262.395 157.798C262.473 157.84 262.538 157.902 262.584 157.978L263.022 158.752L262.908 158.819L262.465 158.045C262.433 157.991 262.387 157.946 262.331 157.916C262.276 157.886 262.213 157.872 262.15 157.875C262.087 157.879 262.025 157.901 261.973 157.939C261.921 157.976 261.881 158.027 261.857 158.087L261.186 159.69C261.099 159.894 260.964 160.074 260.793 160.215C260.621 160.355 260.419 160.453 260.202 160.499L258.5 160.855C258.438 160.868 258.381 160.898 258.336 160.942C258.29 160.985 258.258 161.041 258.243 161.103C258.225 161.164 258.226 161.23 258.245 161.291C258.264 161.353 258.301 161.407 258.351 161.448L259.666 162.582C259.784 162.681 259.883 162.799 259.959 162.933L259.841 163Z" fill="white"/>
<path d="M260.279 166.006C260.214 166.005 260.149 165.991 260.09 165.965C260.03 165.938 259.977 165.899 259.933 165.85C259.889 165.802 259.856 165.745 259.836 165.683C259.816 165.621 259.808 165.555 259.815 165.49L259.954 164.17H260.088L259.949 165.49C259.941 165.553 259.952 165.618 259.979 165.675C260.006 165.733 260.05 165.781 260.104 165.815C260.157 165.85 260.22 165.869 260.284 165.869C260.348 165.869 260.411 165.85 260.464 165.815L261.949 164.913C262.14 164.801 262.355 164.735 262.577 164.722C262.798 164.708 263.019 164.747 263.223 164.835L264.805 165.547C264.863 165.574 264.927 165.584 264.99 165.575C265.053 165.567 265.112 165.541 265.161 165.501C265.211 165.46 265.248 165.405 265.268 165.344C265.288 165.283 265.29 165.218 265.275 165.155L264.878 163.469C264.826 163.253 264.829 163.027 264.884 162.811C264.94 162.595 265.047 162.397 265.197 162.232L266.362 160.943C266.406 160.897 266.435 160.839 266.446 160.777C266.457 160.715 266.449 160.651 266.424 160.592C266.402 160.532 266.363 160.48 266.312 160.441C266.261 160.403 266.199 160.38 266.135 160.376L264.403 160.232C264.223 160.22 264.048 160.171 263.888 160.087L263.95 159.969C264.094 160.042 264.252 160.086 264.414 160.098L266.141 160.242C266.23 160.248 266.315 160.28 266.387 160.333C266.459 160.385 266.514 160.457 266.547 160.54C266.58 160.623 266.589 160.714 266.572 160.801C266.556 160.889 266.515 160.97 266.455 161.036L265.29 162.325C265.155 162.473 265.059 162.652 265.008 162.846C264.958 163.04 264.956 163.243 265.001 163.438L265.403 165.124C265.423 165.211 265.419 165.302 265.391 165.386C265.363 165.471 265.312 165.546 265.244 165.604C265.171 165.659 265.085 165.695 264.995 165.707C264.904 165.719 264.812 165.706 264.728 165.671L263.145 164.959C262.962 164.878 262.762 164.841 262.562 164.854C262.361 164.867 262.167 164.927 261.996 165.031L260.537 165.939C260.46 165.987 260.37 166.01 260.279 166.006Z" fill="white"/>
<path d="M263.023 158.771L262.906 158.838L263.168 159.294L263.284 159.227L263.023 158.771Z" fill="white"/>
<path d="M279.611 166.81L277.188 165.722C277.095 165.679 276.992 165.66 276.89 165.666C276.787 165.673 276.688 165.704 276.601 165.758L274.332 167.135C274.232 167.196 274.117 167.228 273.999 167.227C273.882 167.226 273.767 167.193 273.668 167.13C273.568 167.067 273.489 166.978 273.437 166.872C273.386 166.766 273.366 166.648 273.378 166.531L273.667 163.887C273.676 163.786 273.662 163.684 273.624 163.59C273.586 163.496 273.527 163.412 273.451 163.345L271.435 161.598C271.346 161.521 271.28 161.422 271.244 161.31C271.209 161.198 271.205 161.078 271.234 160.965C271.263 160.851 271.323 160.748 271.408 160.666C271.493 160.585 271.598 160.529 271.713 160.505L274.317 159.958C274.417 159.938 274.51 159.893 274.589 159.829C274.668 159.764 274.731 159.681 274.77 159.587L275.801 157.133C275.847 157.025 275.922 156.933 276.018 156.865C276.113 156.798 276.226 156.759 276.343 156.752C276.459 156.745 276.576 156.77 276.679 156.826C276.782 156.881 276.867 156.965 276.925 157.066L278.245 159.37C278.297 159.462 278.372 159.539 278.462 159.594C278.553 159.649 278.655 159.68 278.761 159.685L281.411 159.901C281.525 159.913 281.633 159.955 281.725 160.024C281.816 160.093 281.887 160.185 281.93 160.291C281.973 160.397 281.986 160.513 281.968 160.626C281.95 160.739 281.902 160.845 281.828 160.933L280.039 162.907C279.971 162.983 279.922 163.074 279.897 163.173C279.872 163.272 279.871 163.375 279.895 163.474L280.508 166.052C280.55 166.172 280.555 166.302 280.521 166.425C280.487 166.547 280.417 166.657 280.32 166.739C280.223 166.821 280.103 166.872 279.977 166.885C279.85 166.897 279.723 166.871 279.611 166.81Z" fill="#3C763D"/>
<path d="M274.11 163.201C274.04 163.083 273.951 162.977 273.847 162.887L272.528 161.752C272.461 161.694 272.411 161.619 272.385 161.534C272.359 161.449 272.356 161.359 272.378 161.273C272.401 161.187 272.447 161.109 272.512 161.048C272.576 160.987 272.657 160.945 272.744 160.928L274.456 160.567C274.652 160.525 274.835 160.437 274.989 160.309C275.143 160.182 275.265 160.019 275.342 159.835L276.013 158.231C276.047 158.149 276.104 158.077 276.177 158.025C276.25 157.973 276.336 157.943 276.425 157.937C276.514 157.933 276.602 157.952 276.68 157.994C276.758 158.036 276.823 158.098 276.869 158.175L277.307 158.948L277.193 159.015L276.75 158.247C276.719 158.19 276.672 158.144 276.616 158.113C276.559 158.082 276.495 158.067 276.43 158.071C276.367 158.076 276.307 158.098 276.255 158.135C276.204 158.173 276.165 158.224 276.142 158.283L275.471 159.886C275.384 160.09 275.249 160.27 275.078 160.411C274.906 160.552 274.704 160.649 274.487 160.696L272.785 161.051C272.723 161.065 272.666 161.096 272.62 161.141C272.575 161.185 272.543 161.242 272.528 161.304C272.51 161.365 272.512 161.43 272.531 161.49C272.55 161.551 272.587 161.604 272.636 161.644L273.951 162.778C274.069 162.877 274.168 162.995 274.244 163.129L274.11 163.201Z" fill="white"/>
<path d="M274.548 166.207C274.483 166.206 274.419 166.192 274.359 166.165C274.299 166.139 274.246 166.1 274.202 166.051C274.159 166.003 274.126 165.946 274.105 165.884C274.085 165.822 274.078 165.756 274.084 165.691L274.224 164.371H274.358L274.218 165.691C274.211 165.754 274.221 165.818 274.248 165.876C274.276 165.934 274.319 165.982 274.373 166.016C274.427 166.051 274.489 166.07 274.553 166.07C274.618 166.07 274.68 166.051 274.734 166.016L276.219 165.119C276.409 165.005 276.624 164.937 276.845 164.923C277.067 164.909 277.289 164.948 277.492 165.036L279.075 165.748C279.133 165.773 279.196 165.782 279.259 165.774C279.321 165.765 279.38 165.739 279.429 165.699C279.477 165.659 279.514 165.606 279.534 165.546C279.555 165.487 279.558 165.423 279.544 165.361L279.147 163.66C279.096 163.443 279.098 163.217 279.154 163.002C279.21 162.786 279.317 162.587 279.467 162.422L280.632 161.134C280.675 161.088 280.704 161.03 280.715 160.968C280.726 160.905 280.719 160.841 280.694 160.783C280.672 160.723 280.633 160.67 280.582 160.632C280.53 160.593 280.469 160.571 280.405 160.566L278.673 160.422C278.493 160.411 278.317 160.361 278.157 160.278L278.219 160.159C278.362 160.232 278.518 160.276 278.678 160.288L280.41 160.432C280.498 160.44 280.583 160.472 280.654 160.524C280.725 160.577 280.78 160.649 280.812 160.731C280.852 160.816 280.865 160.911 280.849 161.003C280.833 161.095 280.79 161.18 280.725 161.247L279.56 162.536C279.425 162.684 279.328 162.863 279.278 163.057C279.228 163.251 279.225 163.454 279.271 163.649L279.673 165.335C279.693 165.422 279.689 165.513 279.66 165.598C279.632 165.682 279.581 165.757 279.513 165.815C279.441 165.871 279.355 165.906 279.264 165.918C279.174 165.93 279.082 165.917 278.998 165.882L277.415 165.17C277.232 165.089 277.031 165.053 276.831 165.065C276.631 165.078 276.437 165.139 276.265 165.243L274.78 166.145C274.71 166.186 274.63 166.208 274.548 166.207Z" fill="white"/>
<path d="M277.3 158.989L277.184 159.055L277.445 159.512L277.561 159.445L277.3 158.989Z" fill="white"/>
<path d="M294.121 167.011L291.698 165.923C291.605 165.882 291.504 165.863 291.402 165.87C291.301 165.876 291.202 165.907 291.116 165.959L288.842 167.341C288.742 167.402 288.626 167.434 288.509 167.434C288.392 167.433 288.277 167.399 288.177 167.336C288.078 167.273 287.998 167.184 287.947 167.078C287.896 166.973 287.876 166.855 287.888 166.738L288.177 164.093C288.184 163.996 288.168 163.899 288.13 163.809C288.093 163.72 288.034 163.64 287.96 163.578L285.945 161.84C285.857 161.763 285.792 161.663 285.758 161.552C285.724 161.44 285.721 161.322 285.751 161.209C285.78 161.096 285.84 160.993 285.925 160.913C286.009 160.832 286.114 160.777 286.228 160.752L288.806 160.206C288.905 160.185 288.998 160.14 289.076 160.075C289.154 160.011 289.215 159.928 289.254 159.835L290.285 157.381C290.331 157.273 290.405 157.18 290.501 157.112C290.596 157.044 290.708 157.004 290.825 156.996C290.942 156.989 291.058 157.014 291.162 157.069C291.265 157.124 291.351 157.207 291.409 157.308L292.734 159.618C292.788 159.709 292.863 159.785 292.953 159.84C293.043 159.895 293.145 159.927 293.25 159.933L295.9 160.149C296.014 160.161 296.122 160.203 296.214 160.272C296.305 160.34 296.377 160.433 296.419 160.539C296.462 160.645 296.476 160.761 296.458 160.874C296.44 160.987 296.391 161.093 296.317 161.18L294.528 163.144C294.46 163.22 294.41 163.311 294.384 163.41C294.358 163.508 294.356 163.612 294.379 163.712L294.993 166.289C295.02 166.404 295.016 166.524 294.979 166.636C294.941 166.748 294.874 166.848 294.783 166.923C294.692 166.998 294.582 167.046 294.465 167.062C294.348 167.078 294.229 167.06 294.121 167.011Z" fill="#3C763D"/>
<path d="M309.656 167.011L307.233 165.923C307.14 165.882 307.039 165.863 306.938 165.87C306.836 165.876 306.738 165.907 306.651 165.959L304.377 167.341C304.277 167.402 304.162 167.434 304.044 167.434C303.927 167.433 303.812 167.399 303.713 167.336C303.613 167.273 303.534 167.184 303.482 167.078C303.431 166.973 303.411 166.855 303.423 166.738L303.712 164.093C303.719 163.996 303.703 163.899 303.665 163.809C303.628 163.72 303.57 163.64 303.496 163.578L301.48 161.84C301.392 161.763 301.328 161.663 301.293 161.552C301.259 161.44 301.257 161.322 301.286 161.209C301.315 161.096 301.376 160.993 301.46 160.913C301.544 160.832 301.649 160.777 301.763 160.752L304.341 160.206C304.44 160.185 304.533 160.14 304.611 160.075C304.689 160.011 304.75 159.928 304.79 159.835L305.821 157.381C305.866 157.273 305.94 157.18 306.036 157.112C306.131 157.044 306.243 157.004 306.36 156.996C306.477 156.989 306.594 157.014 306.697 157.069C306.8 157.124 306.886 157.207 306.945 157.308L308.27 159.618C308.323 159.709 308.398 159.785 308.488 159.84C308.578 159.895 308.68 159.927 308.785 159.933L311.435 160.149C311.549 160.161 311.657 160.203 311.749 160.272C311.841 160.34 311.912 160.433 311.955 160.539C311.998 160.645 312.011 160.761 311.993 160.874C311.975 160.987 311.926 161.093 311.853 161.18L310.064 163.144C309.995 163.22 309.945 163.311 309.919 163.41C309.893 163.508 309.892 163.612 309.914 163.712L310.528 166.289C310.556 166.404 310.551 166.524 310.514 166.636C310.477 166.748 310.409 166.848 310.318 166.923C310.227 166.998 310.117 167.046 310 167.062C309.883 167.078 309.764 167.06 309.656 167.011Z" fill="#3C763D"/>
<path d="M288.617 163.407C288.549 163.286 288.46 163.178 288.355 163.088L287.04 161.958C286.973 161.9 286.923 161.824 286.897 161.74C286.87 161.655 286.868 161.564 286.89 161.478C286.912 161.392 286.957 161.314 287.021 161.252C287.085 161.19 287.165 161.148 287.251 161.128L288.953 160.773C289.149 160.732 289.332 160.643 289.486 160.516C289.641 160.388 289.762 160.225 289.839 160.041L290.51 158.437C290.543 158.356 290.6 158.285 290.672 158.234C290.744 158.183 290.829 158.153 290.917 158.149C291.005 158.144 291.094 158.163 291.172 158.205C291.25 158.247 291.315 158.309 291.36 158.386L291.804 159.159L291.685 159.226L291.242 158.453C291.21 158.398 291.164 158.354 291.108 158.324C291.053 158.294 290.99 158.28 290.927 158.283C290.863 158.287 290.802 158.309 290.75 158.346C290.698 158.383 290.657 158.435 290.633 158.494L289.963 160.092C289.877 160.298 289.743 160.479 289.571 160.621C289.4 160.763 289.196 160.861 288.978 160.907L287.277 161.262C287.215 161.276 287.157 161.306 287.111 161.35C287.065 161.394 287.033 161.45 287.017 161.512C287.002 161.574 287.004 161.639 287.023 161.7C287.043 161.76 287.079 161.814 287.128 161.855L288.442 162.99C288.56 163.088 288.66 163.207 288.736 163.34L288.617 163.407Z" fill="white"/>
<path d="M304.157 163.407C304.088 163.286 303.999 163.178 303.894 163.088L302.579 161.958C302.512 161.9 302.462 161.824 302.436 161.74C302.409 161.655 302.407 161.564 302.429 161.478C302.451 161.392 302.496 161.314 302.56 161.252C302.624 161.19 302.704 161.148 302.79 161.128L304.492 160.773C304.688 160.732 304.871 160.643 305.025 160.516C305.18 160.388 305.301 160.225 305.378 160.041L306.049 158.437C306.082 158.356 306.139 158.285 306.211 158.234C306.283 158.183 306.368 158.153 306.456 158.149C306.544 158.144 306.633 158.163 306.711 158.205C306.789 158.247 306.854 158.309 306.899 158.386L307.343 159.159L307.224 159.226L306.781 158.453C306.749 158.398 306.703 158.354 306.647 158.324C306.592 158.294 306.529 158.28 306.466 158.283C306.402 158.287 306.341 158.309 306.289 158.346C306.237 158.383 306.196 158.435 306.172 158.494L305.502 160.092C305.416 160.298 305.282 160.479 305.11 160.621C304.939 160.763 304.735 160.861 304.517 160.907L302.816 161.262C302.754 161.276 302.696 161.306 302.65 161.35C302.604 161.394 302.572 161.45 302.556 161.512C302.541 161.574 302.543 161.639 302.562 161.7C302.582 161.76 302.618 161.814 302.667 161.855L303.981 162.99C304.099 163.088 304.199 163.207 304.275 163.34L304.157 163.407Z" fill="white"/>
<path d="M289.057 166.413C288.97 166.41 288.885 166.386 288.81 166.341C288.734 166.294 288.674 166.226 288.636 166.145C288.597 166.065 288.583 165.976 288.593 165.887L288.738 164.567H288.872L288.727 165.892C288.719 165.955 288.729 166.019 288.756 166.076C288.784 166.133 288.827 166.18 288.882 166.212C288.936 166.247 288.998 166.266 289.062 166.266C289.126 166.266 289.189 166.247 289.243 166.212L290.728 165.31C290.918 165.195 291.133 165.128 291.355 165.115C291.577 165.101 291.798 165.142 292.001 165.232L293.584 165.944C293.642 165.971 293.706 165.98 293.769 165.971C293.832 165.962 293.892 165.934 293.94 165.892C293.989 165.852 294.027 165.799 294.048 165.739C294.068 165.679 294.072 165.614 294.058 165.552L293.656 163.861C293.605 163.645 293.608 163.42 293.664 163.205C293.719 162.991 293.826 162.793 293.976 162.629L295.141 161.34C295.184 161.293 295.213 161.234 295.224 161.171C295.235 161.108 295.227 161.043 295.203 160.984C295.18 160.925 295.141 160.873 295.09 160.835C295.039 160.798 294.977 160.776 294.914 160.773L293.187 160.629C293.007 160.615 292.832 160.566 292.671 160.484L292.728 160.366C292.872 160.439 293.03 160.483 293.192 160.494L294.919 160.639C295.008 160.645 295.093 160.677 295.165 160.73C295.237 160.782 295.292 160.854 295.325 160.937C295.358 161.02 295.367 161.111 295.351 161.198C295.334 161.286 295.294 161.367 295.234 161.433L294.068 162.717C293.934 162.865 293.838 163.044 293.788 163.238C293.739 163.432 293.738 163.635 293.785 163.83L294.182 165.521C294.204 165.608 294.202 165.699 294.175 165.784C294.149 165.869 294.099 165.945 294.031 166.004C293.964 166.062 293.881 166.1 293.793 166.114C293.705 166.128 293.615 166.118 293.532 166.083L291.949 165.372C291.766 165.29 291.566 165.254 291.366 165.266C291.166 165.279 290.971 165.34 290.8 165.444L289.32 166.346C289.24 166.391 289.149 166.415 289.057 166.413Z" fill="white"/>
<path d="M304.592 166.413C304.505 166.41 304.42 166.386 304.345 166.341C304.27 166.294 304.209 166.226 304.171 166.145C304.132 166.065 304.118 165.976 304.128 165.887L304.273 164.567H304.407L304.262 165.892C304.254 165.955 304.264 166.019 304.291 166.076C304.319 166.133 304.363 166.18 304.417 166.212C304.471 166.247 304.533 166.266 304.598 166.266C304.662 166.266 304.724 166.247 304.778 166.212L306.263 165.31C306.453 165.195 306.668 165.128 306.89 165.115C307.112 165.101 307.333 165.142 307.536 165.232L309.119 165.944C309.177 165.971 309.241 165.98 309.304 165.971C309.368 165.962 309.427 165.934 309.475 165.892C309.524 165.852 309.562 165.799 309.583 165.739C309.604 165.679 309.607 165.614 309.593 165.552L309.191 163.861C309.14 163.645 309.143 163.42 309.199 163.205C309.254 162.991 309.361 162.793 309.511 162.629L310.676 161.34C310.719 161.293 310.748 161.234 310.759 161.171C310.77 161.108 310.763 161.043 310.738 160.984C310.716 160.925 310.676 160.873 310.625 160.835C310.574 160.798 310.513 160.776 310.449 160.773L308.722 160.629C308.542 160.615 308.367 160.566 308.206 160.484L308.263 160.366C308.408 160.439 308.565 160.483 308.727 160.494L310.454 160.639C310.543 160.645 310.628 160.677 310.7 160.73C310.772 160.782 310.828 160.854 310.86 160.937C310.893 161.02 310.902 161.111 310.886 161.198C310.87 161.286 310.829 161.367 310.769 161.433L309.604 162.717C309.469 162.865 309.373 163.044 309.323 163.238C309.274 163.432 309.273 163.635 309.32 163.83L309.717 165.521C309.739 165.608 309.737 165.699 309.71 165.784C309.684 165.869 309.634 165.945 309.566 166.004C309.499 166.062 309.416 166.1 309.328 166.114C309.24 166.128 309.15 166.118 309.067 166.083L307.485 165.372C307.301 165.29 307.101 165.254 306.901 165.266C306.701 165.279 306.507 165.34 306.335 165.444L304.855 166.346C304.775 166.391 304.684 166.415 304.592 166.413Z" fill="white"/>
<path d="M293.316 158.317L293.199 158.384L293.462 158.841L293.579 158.774L293.316 158.317Z" fill="white"/>
<path d="M308.851 158.317L308.734 158.384L308.997 158.841L309.114 158.774L308.851 158.317Z" fill="white"/>
<path opacity="0.7" d="M310.029 146.131C310.025 146.424 309.963 146.714 309.847 146.983C309.731 147.252 309.563 147.496 309.353 147.7C309.143 147.905 308.895 148.066 308.622 148.174C308.35 148.283 308.059 148.336 307.766 148.332L247.647 147.461C247.055 147.452 246.491 147.208 246.079 146.784C245.666 146.36 245.439 145.789 245.445 145.198V145.1C245.449 144.807 245.511 144.517 245.627 144.248C245.743 143.979 245.911 143.735 246.121 143.53C246.331 143.326 246.58 143.165 246.852 143.056C247.125 142.948 247.416 142.894 247.709 142.898L307.817 143.749C308.11 143.753 308.4 143.815 308.669 143.931C308.938 144.047 309.182 144.215 309.387 144.425C309.591 144.635 309.752 144.883 309.861 145.156C309.969 145.428 310.023 145.719 310.019 146.012L310.029 146.131Z" fill="#CED4DA"/>
<path d="M237.091 158.175C238.428 150.258 233.092 142.756 225.175 141.42C217.258 140.083 209.756 145.418 208.42 153.336C207.083 161.253 212.418 168.755 220.336 170.091C228.253 171.428 235.755 166.093 237.091 158.175Z" fill="#3C763D"/>
<path d="M209.345 155.143C209.266 155.136 209.193 155.099 209.141 155.04C209.089 154.98 209.063 154.902 209.067 154.823C209.107 154.247 209.181 153.674 209.289 153.106C209.296 153.068 209.311 153.031 209.333 152.998C209.354 152.966 209.382 152.937 209.415 152.915C209.447 152.893 209.484 152.878 209.522 152.87C209.561 152.862 209.601 152.862 209.639 152.869C209.678 152.877 209.714 152.892 209.747 152.913C209.78 152.935 209.808 152.963 209.83 152.995C209.852 153.028 209.868 153.065 209.876 153.103C209.884 153.142 209.884 153.181 209.876 153.22C209.768 153.763 209.695 154.312 209.66 154.865C209.654 154.943 209.618 155.016 209.56 155.068C209.501 155.12 209.424 155.147 209.345 155.143Z" fill="white"/>
<path d="M210.834 149.833C210.789 149.832 210.745 149.822 210.705 149.802C210.634 149.765 210.581 149.703 210.557 149.627C210.533 149.552 210.54 149.47 210.576 149.4C211.748 147.141 213.527 145.254 215.713 143.952C217.899 142.65 220.405 141.983 222.949 142.027C223.778 142.041 224.605 142.127 225.419 142.285C225.496 142.301 225.563 142.347 225.607 142.413C225.65 142.478 225.666 142.558 225.651 142.636C225.643 142.674 225.628 142.711 225.607 142.743C225.585 142.776 225.557 142.804 225.524 142.825C225.492 142.847 225.455 142.862 225.416 142.869C225.378 142.876 225.338 142.876 225.3 142.868C224.522 142.717 223.732 142.636 222.939 142.625C220.507 142.583 218.112 143.22 216.022 144.466C213.933 145.711 212.232 147.514 211.112 149.673C211.087 149.725 211.047 149.767 210.998 149.796C210.948 149.825 210.891 149.837 210.834 149.833Z" fill="white"/>
<path opacity="0.78" d="M235.357 156.241C235.324 158.675 234.569 161.044 233.188 163.049C231.808 165.054 229.864 166.604 227.602 167.504C225.341 168.404 222.863 168.613 220.483 168.105C218.102 167.596 215.926 166.394 214.229 164.649C212.532 162.903 211.391 160.694 210.95 158.301C210.509 155.907 210.787 153.436 211.75 151.201C212.713 148.965 214.318 147.065 216.361 145.742C218.403 144.418 220.793 143.73 223.226 143.765C226.489 143.811 229.601 145.151 231.875 147.491C234.15 149.831 235.403 152.978 235.357 156.241Z" fill="#DFF0D8"/>
<path d="M226.887 151.472C226.856 153.534 225.134 155.777 223.051 155.751C220.968 155.725 219.313 153.447 219.344 151.364C219.375 149.281 221.082 147.827 223.164 147.858C225.247 147.889 226.918 149.389 226.887 151.472Z" fill="#3C763D"/>
<path d="M218.26 163.706L227.473 163.835C227.946 163.841 228.408 163.697 228.793 163.424C229.179 163.151 229.467 162.762 229.618 162.314L230.134 160.768C230.316 160.224 230.282 159.631 230.039 159.112C229.796 158.593 229.363 158.187 228.829 157.979C225.097 156.556 221.22 156.674 217.234 157.942C216.696 158.117 216.245 158.491 215.973 158.987C215.701 159.484 215.628 160.065 215.77 160.613L216.136 162.026C216.256 162.5 216.53 162.922 216.913 163.226C217.297 163.53 217.771 163.699 218.26 163.706Z" fill="#3C763D"/>
<defs>
<filter id="filter0_f" x="0" y="-26.6812" width="514" height="489.627" filterUnits="userSpaceOnUse" color-interpolation-filters="sRGB">
<feFlood flood-opacity="0" result="BackgroundImageFix"/>
<feBlend mode="normal" in="SourceGraphic" in2="BackgroundImageFix" result="shape"/>
<feGaussianBlur stdDeviation="61" result="effect1_foregroundBlur"/>
</filter>
</defs>
</svg>
