<svg width="514" height="475" viewBox="0 0 514 475" fill="none" xmlns="http://www.w3.org/2000/svg">
<g opacity="0.66" filter="url(#filter0_f)">
<path fill-rule="evenodd" clip-rule="evenodd" d="M261.852 107.623C291.131 105.128 319.587 118.285 342.858 135.726C365.653 152.809 383.607 176.325 389.929 203.61C395.929 229.508 388.131 256.227 376.323 280.167C365.689 301.726 348.472 319.457 327.014 331.161C307.285 341.922 284.292 339.787 261.852 342.603C235.095 345.962 208.063 359.362 183.189 349.213C156.071 338.149 134.347 314.32 125.642 287.029C116.987 259.899 124.946 230.495 137.074 204.651C148.213 180.914 169.588 165.008 190.553 148.705C212.667 131.51 233.635 110.028 261.852 107.623Z" fill="#DFF0D8"/>
</g>
<g clip-path="url(#clip0)">
<path d="M200.553 164.48L196.111 162.377L199.706 159.624L195.972 157.883L199.438 155.436L195.599 152.98" stroke="#3A89FF"/>
<rect width="2.571" height="4.10705" transform="matrix(0.977573 -0.210597 0.170391 0.985376 265.576 138.24)" fill="#DC1C4D"/>
<path d="M304.629 141.052L293.317 153.555L289.492 148.478L304.629 141.052Z" fill="#FCF8E3"/>
<path d="M322.486 131.509L325.607 134.976L329.868 133.078L327.536 137.118L330.657 140.584L326.095 139.615L323.763 143.654L323.275 139.015L318.712 138.045L322.974 136.148L322.486 131.509Z" fill="#3C763D"/>
<path d="M166.088 193.111C166.088 193.111 165.693 186.89 167.587 186.362C168.627 186.072 169.76 186.007 170.257 186.903C170.641 187.594 170.435 188.254 169.973 188.928C168.994 190.355 166.735 189.321 165.607 188.071C164.05 186.345 167.232 182.28 167.232 182.28" stroke="#3C763D" stroke-width="1.2"/>
<path d="M214.536 180.247C216.826 180.488 219.069 177.012 218.801 179.567C218.532 182.122 216.458 183.997 214.167 183.757C211.876 183.516 210.237 181.25 210.506 178.695C210.774 176.14 212.245 180.007 214.536 180.247Z" fill="#3A89FF"/>
<path d="M249.477 168.746L250.882 164.665L247.435 162.068L251.75 162.144L253.155 158.063L254.417 162.19L258.732 162.265L255.197 164.741L256.459 168.868L253.012 166.271L249.477 168.746Z" fill="#3C763D"/>
<path d="M292.298 204.907L287.201 200.878L292.651 198.399L288.358 195.046L293.552 192.924L289.336 188.618" stroke="#3A89FF"/>
<path d="M338.549 199.456L339.839 196.691L337.607 194.61L340.636 194.982L341.926 192.216L342.508 195.211L345.537 195.583L342.868 197.063L343.45 200.058L341.218 197.977L338.549 199.456Z" fill="#3C763D"/>
<path d="M174.163 229.569L170.289 229.411L172.051 226.304L168.802 226.191L170.565 223.345L167.02 222.745" stroke="#3A89FF"/>
<path d="M200.259 228.902L200.118 232.394L197.316 230.806L197.214 233.734L194.649 232.145L194.108 235.341" stroke="#3A89FF"/>
<path d="M239.228 220.24L236.92 217.176L233.293 218.425L235.493 215.282L233.184 212.219L236.853 213.34L239.053 210.198L239.12 214.033L242.789 215.155L239.161 216.404L239.228 220.24Z" fill="#3C763D"/>
<path d="M280.637 240.59C280.637 240.59 279.261 233.907 281.234 233.046C282.317 232.573 283.535 232.331 284.211 233.226C284.732 233.917 284.609 234.663 284.211 235.464C283.367 237.16 280.761 236.383 279.348 235.2C277.397 233.567 280.227 228.676 280.227 228.676" stroke="#3C763D" stroke-width="1.2"/>
<rect width="3.79894" height="6.06862" transform="matrix(0.00274655 0.999996 -0.99927 -0.0382036 312.477 216.751)" fill="#DC1C4D"/>
<path d="M161.01 278.678L157.562 274.979L152.979 277.117L155.43 272.694L151.982 268.996L156.946 269.96L159.397 265.538L160.013 270.557L164.977 271.522L160.394 273.659L161.01 278.678Z" fill="#3C763D"/>
<path d="M224.6 269.158L212.759 267.381L214.233 262.937L224.6 269.158Z" fill="#DC1C4D"/>
<path d="M271.91 239.813L258.62 224.234L265.508 220.152L271.91 239.813Z" fill="#DC1C4D"/>
<path d="M305.893 282.349L306.93 303.075L299.183 301.986L305.893 282.349Z" fill="#FCF8E3"/>
<path d="M329.667 263.662L319.033 279.953L313.757 274.858L329.667 263.662Z" fill="#FCF8E3"/>
<ellipse cx="203.933" cy="292.024" rx="3.285" ry="2.92" transform="rotate(-159 203.933 292.024)" fill="#8A6D3B"/>
<path d="M193.704 312.739C193.704 312.739 199.515 320.278 197.569 322.563C196.5 323.819 195.121 324.868 193.726 324.158C192.651 323.611 192.348 322.601 192.358 321.353C192.379 318.71 196.121 318.09 198.616 318.709C202.061 319.565 201.503 327.428 201.503 327.428" stroke="#3C763D" stroke-width="1.2"/>
<path d="M259.406 310.019L258.375 305.437L262.564 306.524L261.678 302.688L265.56 303.859L265.15 299.523" stroke="#3A89FF"/>
<path d="M253.751 263.066L253.071 267.901L257.46 270.042L252.651 270.889L251.972 275.724L249.68 271.413L244.872 272.261L248.263 268.749L245.971 264.438L250.359 266.579L253.751 263.066Z" fill="#3C763D"/>
<path d="M309.86 320.156C311.061 320.198 312.102 318.308 312.055 319.647C312.008 320.986 310.996 322.038 309.796 321.996C308.595 321.954 307.659 320.835 307.706 319.495C307.753 318.156 308.659 320.115 309.86 320.156Z" fill="#3A89FF"/>
<rect width="4.10286" height="6.55411" transform="matrix(-0.377152 -0.926151 0.940818 -0.338911 114.24 96.1125)" fill="#DC1C4D"/>
<path d="M194.893 105.142L191.91 93.0536L196.597 92.808L194.893 105.142Z" fill="#FCF8E3"/>
<path d="M267.546 91.218L272.422 73.1893L278.75 76.2758L267.546 91.218Z" fill="#FCF8E3"/>
<path d="M337.626 64.3202L341.045 63.8397L341.644 60.4396L343.158 63.5427L346.577 63.0622L344.093 65.4606L345.607 68.5637L342.558 66.9428L340.075 69.3411L340.674 65.9411L337.626 64.3202Z" fill="#3C763D"/>
<rect width="2.8281" height="4.51775" transform="matrix(-0.717429 0.696631 -0.66667 -0.745353 405.648 55.6123)" fill="#DC1C4D"/>
<path d="M81.064 172.349C80.4102 170.553 77.001 170.144 79.0045 169.415C81.0081 168.686 83.1623 169.551 83.8162 171.347C84.47 173.144 83.3758 175.191 81.3722 175.92C79.3687 176.65 81.7179 174.145 81.064 172.349Z" fill="#3A89FF"/>
<path d="M183.415 133.765L186.247 133.468L186.84 130.681L187.998 133.284L190.831 132.986L188.714 134.892L189.873 137.494L187.406 136.07L185.289 137.976L185.881 135.189L183.415 133.765Z" fill="#3C763D"/>
<path d="M236.647 128.247C236.647 128.247 241.539 132.405 240.575 134.186C240.046 135.165 239.283 136.05 238.263 135.778C237.477 135.567 237.135 134.943 236.967 134.119C236.61 132.372 238.993 131.438 240.726 131.497C243.118 131.578 243.853 136.844 243.853 136.844" stroke="#3C763D" stroke-width="1.2"/>
<path d="M295.025 162.701C292.322 162.127 289.209 165.994 289.85 162.979C290.491 159.963 293.202 157.985 295.906 158.56C298.609 159.134 300.281 162.044 299.64 165.06C298.999 168.075 297.729 163.276 295.025 162.701Z" fill="#3A89FF"/>
<path d="M364.925 192.325L367.402 193.773L365.171 195.192L367.254 196.394L365.114 197.641L367.221 199.264" stroke="#3A89FF"/>
<path d="M83.9221 275.006L78.9776 275.789L78.1944 280.733L75.9217 276.273L70.9771 277.056L74.517 273.516L72.2443 269.055L76.7048 271.328L80.2447 267.788L79.4616 272.733L83.9221 275.006Z" fill="#3C763D"/>
<path d="M179.39 264.67L182.024 262.126L180.419 258.835L183.652 260.554L186.286 258.011L185.65 261.617L188.884 263.336L185.257 263.846L184.622 267.452L183.016 264.16L179.39 264.67Z" fill="#3C763D"/>
<ellipse cx="235.24" cy="241.381" rx="2.79225" ry="2.482" transform="rotate(80 235.24 241.381)" fill="#8A6D3B"/>
<path d="M315.404 193.522C317.466 192.131 316.908 187.698 318.46 189.998C320.011 192.298 319.597 195.291 317.535 196.681C315.473 198.072 312.543 197.335 310.992 195.035C309.44 192.735 313.341 194.913 315.404 193.522Z" fill="#3A89FF"/>
<path d="M408.307 275.865L412.586 272.561L413.489 277.46L417.06 274.669L417.728 279.289L422.052 276.752" stroke="#3A89FF"/>
<path d="M73.887 286.22L76.5118 290.014L72.2964 290.566L74.5153 293.734L70.5485 294.096L72.5172 297.895" stroke="#3A89FF"/>
<path d="M206.362 283.777C206.362 283.777 198.74 284.934 197.885 282.658C197.415 281.407 197.213 280.019 198.264 279.309C199.074 278.762 199.908 278.944 200.789 279.441C202.653 280.494 201.622 283.389 200.204 284.913C198.245 287.018 192.893 283.535 192.893 283.535" stroke="#3C763D" stroke-width="1.2"/>
<path d="M236.797 295.819L236.137 293.467L238.342 293.918L237.778 291.95L239.826 292.452L239.495 290.211" stroke="#3A89FF"/>
<path d="M328.395 343.791C327.772 344.916 329.069 346.827 327.814 346.131C326.56 345.436 326.049 343.961 326.672 342.836C327.295 341.712 328.818 341.364 330.072 342.059C331.326 342.754 329.018 342.667 328.395 343.791Z" fill="#3A89FF"/>
<path d="M419.877 313.704L418.704 309.865L414.691 309.795L417.978 307.493L416.805 303.655L420.01 306.07L423.298 303.768L421.991 307.563L425.197 309.979L421.184 309.909L419.877 313.704Z" fill="#3C763D"/>
<rect width="3.0852" height="4.92846" transform="matrix(-0.512682 0.858579 -0.836865 -0.547409 103.662 383.311)" fill="#DC1C4D"/>
<path d="M175.373 385.615L174.322 382.503L177.315 382.953L176.418 380.349L179.204 380.88L178.602 377.893" stroke="#3A89FF"/>
<path d="M274.531 416.576L271.754 413.148L267.636 414.729L270.038 411.029L267.262 407.6L271.523 408.742L273.926 405.042L274.157 409.448L278.418 410.59L274.3 412.17L274.531 416.576Z" fill="#3C763D"/>
<path d="M351.094 397.911L348.268 399.817L349.207 403.095L346.521 400.996L343.694 402.902L344.86 399.698L342.174 397.599L345.581 397.718L346.747 394.515L347.687 397.792L351.094 397.911Z" fill="#3C763D"/>
<path d="M183.864 128.625C183.882 127.944 184.046 127.275 184.345 126.664C184.644 126.052 185.071 125.512 185.597 125.08C186.123 124.647 186.736 124.333 187.394 124.159C188.052 123.984 188.74 123.953 189.412 124.068C208.31 127.281 273.317 137.423 327.422 135.089C328.008 135.062 328.593 135.153 329.143 135.356C329.692 135.558 330.196 135.869 330.624 136.27C331.052 136.67 331.395 137.152 331.634 137.687C331.873 138.223 332.002 138.8 332.014 139.386L335.999 342.178C336.025 343.514 335.522 344.805 334.6 345.771C333.677 346.737 332.41 347.298 331.075 347.333C308.332 347.913 214.681 349.978 181.454 345.37C180.477 345.235 179.584 344.744 178.947 343.991C178.31 343.238 177.973 342.276 178.002 341.291L183.864 128.625Z" fill="#3C763D"/>
<path opacity="0.9" d="M185.93 133.783C185.948 133.129 186.107 132.487 186.395 131.899C186.683 131.311 187.093 130.792 187.599 130.377C188.104 129.962 188.693 129.66 189.325 129.491C189.958 129.323 190.619 129.292 191.264 129.401C209.45 132.49 272.012 142.253 324.082 140.004C324.645 139.979 325.208 140.067 325.737 140.263C326.266 140.458 326.75 140.758 327.162 141.143C327.573 141.529 327.904 141.993 328.133 142.508C328.363 143.023 328.487 143.579 328.498 144.143L332.338 339.293C332.365 340.579 331.881 341.823 330.992 342.753C330.104 343.683 328.883 344.223 327.598 344.256C305.712 344.819 215.586 346.816 183.609 342.37C182.667 342.241 181.807 341.769 181.194 341.043C180.581 340.317 180.258 339.389 180.289 338.44L185.93 133.783Z" fill="white"/>
<path d="M216.307 208.9H216.184L206.276 208.473C205.611 208.471 204.971 208.226 204.475 207.783C203.98 207.34 203.664 206.731 203.588 206.071L202.994 197.725C202.978 197.474 203.011 197.223 203.094 196.986C203.177 196.749 203.307 196.532 203.477 196.347C203.678 196.129 203.922 195.954 204.192 195.831C204.462 195.709 204.754 195.642 205.051 195.634C205.905 195.604 207.044 195.544 208.311 195.48C211.059 195.34 214.221 195.177 216.06 195.216C216.683 195.207 217.292 195.405 217.79 195.78C218.288 196.155 218.648 196.684 218.812 197.285C219.264 199.218 219.098 202.832 218.872 206.673C218.809 207.301 218.509 207.882 218.032 208.296C217.555 208.71 216.938 208.926 216.307 208.9ZM215.454 196.061C213.594 196.061 210.807 196.206 208.345 196.334C207.065 196.398 205.913 196.458 205.073 196.487C204.891 196.491 204.712 196.53 204.545 196.603C204.379 196.676 204.229 196.782 204.104 196.914C204.011 197.014 203.94 197.132 203.894 197.26C203.847 197.388 203.827 197.525 203.835 197.661L204.428 206.007C204.491 206.457 204.715 206.87 205.06 207.166C205.405 207.462 205.847 207.622 206.301 207.616L216.299 208.042C216.709 208.065 217.113 207.933 217.429 207.671C217.746 207.409 217.952 207.037 218.006 206.63C218.228 202.845 218.394 199.295 217.963 197.473C217.837 197.059 217.58 196.697 217.229 196.443C216.879 196.188 216.454 196.056 216.022 196.065L215.454 196.061Z" fill="#DFF0D8"/>
<path d="M216.307 232.096H216.184L206.276 231.67C205.611 231.668 204.971 231.422 204.475 230.979C203.98 230.537 203.664 229.927 203.588 229.267L202.994 220.921C202.978 220.671 203.011 220.419 203.094 220.183C203.177 219.946 203.307 219.728 203.477 219.543C203.678 219.325 203.922 219.15 204.192 219.028C204.462 218.905 204.754 218.838 205.051 218.83C205.905 218.8 207.044 218.741 208.311 218.677C211.059 218.536 214.221 218.374 216.06 218.412C216.683 218.403 217.292 218.602 217.79 218.976C218.288 219.351 218.648 219.88 218.812 220.482C219.264 222.415 219.098 226.029 218.872 229.869C218.809 230.497 218.509 231.078 218.032 231.492C217.555 231.906 216.938 232.122 216.307 232.096ZM215.454 219.257C213.594 219.257 210.807 219.402 208.345 219.53C207.065 219.594 205.913 219.654 205.073 219.684C204.891 219.687 204.712 219.726 204.545 219.799C204.379 219.873 204.229 219.978 204.104 220.11C204.011 220.21 203.94 220.328 203.894 220.456C203.847 220.585 203.827 220.721 203.835 220.857L204.428 229.203C204.491 229.654 204.715 230.066 205.06 230.362C205.405 230.658 205.847 230.818 206.301 230.812L216.299 231.239C216.709 231.262 217.113 231.129 217.429 230.867C217.746 230.605 217.952 230.233 218.006 229.826C218.228 226.041 218.394 222.491 217.963 220.669C217.837 220.255 217.58 219.893 217.229 219.639C216.879 219.385 216.454 219.252 216.022 219.261L215.454 219.257Z" fill="#DFF0D8"/>
<path d="M216.307 256.949H216.184L206.276 256.523C205.611 256.521 204.971 256.275 204.475 255.832C203.98 255.39 203.664 254.78 203.588 254.12L202.994 245.774C202.978 245.524 203.011 245.273 203.094 245.036C203.177 244.799 203.307 244.581 203.477 244.396C203.678 244.178 203.922 244.003 204.192 243.881C204.462 243.758 204.754 243.691 205.051 243.683C205.905 243.653 207.044 243.594 208.311 243.53C211.059 243.389 214.221 243.227 216.06 243.265C216.683 243.256 217.292 243.455 217.79 243.829C218.288 244.204 218.648 244.733 218.812 245.335C219.264 247.268 219.098 250.882 218.872 254.722C218.809 255.35 218.509 255.931 218.032 256.345C217.555 256.759 216.938 256.975 216.307 256.949ZM215.454 244.11C213.594 244.11 210.807 244.255 208.345 244.383C207.065 244.447 205.913 244.507 205.073 244.537C204.891 244.54 204.712 244.579 204.545 244.652C204.379 244.726 204.229 244.831 204.104 244.963C204.011 245.063 203.94 245.181 203.894 245.309C203.847 245.438 203.827 245.574 203.835 245.71L204.428 254.056C204.491 254.507 204.715 254.919 205.06 255.215C205.405 255.511 205.847 255.671 206.301 255.665L216.299 256.092C216.709 256.115 217.113 255.982 217.429 255.72C217.746 255.458 217.952 255.086 218.006 254.679C218.228 250.894 218.394 247.344 217.963 245.522C217.837 245.108 217.58 244.746 217.229 244.492C216.879 244.238 216.454 244.105 216.022 244.114L215.454 244.11Z" fill="#DFF0D8"/>
<path d="M216.307 281.801H216.184L206.276 281.374C205.611 281.372 204.971 281.127 204.475 280.684C203.98 280.241 203.664 279.632 203.588 278.972L202.994 270.626C202.978 270.375 203.011 270.124 203.094 269.887C203.177 269.65 203.307 269.433 203.477 269.248C203.678 269.03 203.922 268.855 204.192 268.732C204.462 268.61 204.754 268.543 205.051 268.535C205.905 268.505 207.044 268.445 208.311 268.381C211.059 268.241 214.221 268.078 216.06 268.117C216.683 268.108 217.292 268.306 217.79 268.681C218.288 269.056 218.648 269.585 218.812 270.186C219.264 272.119 219.098 275.733 218.872 279.574C218.809 280.202 218.509 280.783 218.032 281.197C217.555 281.611 216.938 281.827 216.307 281.801ZM215.454 268.962C213.594 268.962 210.807 269.107 208.345 269.235C207.065 269.299 205.913 269.359 205.073 269.388C204.891 269.392 204.712 269.431 204.545 269.504C204.379 269.577 204.229 269.683 204.104 269.815C204.011 269.915 203.94 270.033 203.894 270.161C203.847 270.289 203.827 270.426 203.835 270.562L204.428 278.908C204.491 279.358 204.715 279.771 205.06 280.067C205.405 280.363 205.847 280.523 206.301 280.517L216.299 280.943C216.709 280.966 217.113 280.834 217.429 280.572C217.746 280.31 217.952 279.938 218.006 279.531C218.228 275.746 218.394 272.196 217.963 270.374C217.837 269.96 217.58 269.598 217.229 269.344C216.879 269.089 216.454 268.957 216.022 268.966L215.454 268.962Z" fill="#DFF0D8"/>
<path d="M216.307 309.967H216.184L206.276 309.54C205.611 309.539 204.971 309.293 204.475 308.85C203.98 308.407 203.664 307.798 203.588 307.138L202.994 298.792C202.978 298.542 203.011 298.29 203.094 298.053C203.177 297.816 203.307 297.599 203.477 297.414C203.678 297.196 203.922 297.021 204.192 296.898C204.462 296.776 204.754 296.709 205.051 296.701C205.905 296.671 207.044 296.611 208.311 296.547C211.059 296.407 214.221 296.245 216.06 296.283C216.683 296.274 217.292 296.473 217.79 296.847C218.288 297.222 218.648 297.751 218.812 298.352C219.264 300.285 219.098 303.899 218.872 307.74C218.809 308.368 218.509 308.949 218.032 309.363C217.555 309.777 216.938 309.993 216.307 309.967ZM215.454 297.128C213.594 297.128 210.807 297.273 208.345 297.401C207.065 297.465 205.913 297.525 205.073 297.554C204.891 297.558 204.712 297.597 204.545 297.67C204.379 297.743 204.229 297.849 204.104 297.981C204.011 298.081 203.94 298.199 203.894 298.327C203.847 298.455 203.827 298.592 203.835 298.728L204.428 307.074C204.491 307.525 204.715 307.937 205.06 308.233C205.405 308.529 205.847 308.689 206.301 308.683L216.299 309.109C216.709 309.132 217.113 309 217.429 308.738C217.746 308.476 217.952 308.104 218.006 307.697C218.228 303.912 218.394 300.362 217.963 298.54C217.837 298.126 217.58 297.764 217.229 297.51C216.879 297.255 216.454 297.123 216.022 297.132L215.454 297.128Z" fill="#DFF0D8"/>
<path d="M225.383 200.554C225.178 200.533 224.972 200.562 224.782 200.64C224.591 200.718 224.423 200.841 224.292 200.999C224.161 201.158 224.07 201.346 224.029 201.547C223.988 201.749 223.997 201.957 224.056 202.154L224.44 203.827C224.566 204.294 224.834 204.709 225.209 205.015C225.583 205.322 226.044 205.503 226.526 205.533L316.303 207.599C316.75 207.599 317.178 207.424 317.497 207.112C317.816 206.801 318 206.376 318.01 205.93V205.64C318.013 205.181 317.835 204.739 317.517 204.409C317.198 204.079 316.762 203.887 316.303 203.874L225.383 200.554Z" fill="#9DABB9"/>
<path d="M225.383 223.75C225.178 223.729 224.972 223.759 224.782 223.836C224.591 223.914 224.423 224.037 224.292 224.196C224.161 224.354 224.07 224.542 224.029 224.743C223.988 224.945 223.997 225.153 224.056 225.35L224.44 227.023C224.566 227.49 224.834 227.906 225.209 228.212C225.583 228.518 226.044 228.699 226.526 228.73L316.303 230.795C316.75 230.795 317.178 230.62 317.497 230.309C317.816 229.997 318 229.572 318.01 229.126V228.836C318.013 228.377 317.835 227.936 317.517 227.606C317.198 227.275 316.762 227.083 316.303 227.07L225.383 223.75Z" fill="#9DABB9"/>
<path d="M225.383 248.601C225.178 248.58 224.972 248.61 224.782 248.687C224.591 248.765 224.423 248.888 224.292 249.047C224.161 249.205 224.07 249.393 224.029 249.594C223.988 249.796 223.997 250.004 224.056 250.201L224.44 251.874C224.566 252.341 224.834 252.757 225.209 253.063C225.583 253.369 226.044 253.55 226.526 253.581L316.303 255.646C316.75 255.646 317.178 255.471 317.497 255.16C317.816 254.848 318 254.424 318.01 253.978V253.687C318.013 253.228 317.835 252.787 317.517 252.457C317.198 252.126 316.762 251.934 316.303 251.921L225.383 248.601Z" fill="#9DABB9"/>
<path d="M225.383 273.454C225.178 273.433 224.972 273.463 224.782 273.54C224.591 273.618 224.423 273.741 224.292 273.9C224.161 274.058 224.07 274.246 224.029 274.447C223.988 274.649 223.997 274.857 224.056 275.054L224.44 276.727C224.566 277.194 224.834 277.61 225.209 277.916C225.583 278.222 226.044 278.403 226.526 278.434L316.303 280.499C316.75 280.499 317.178 280.325 317.497 280.013C317.816 279.701 318 279.277 318.01 278.831V278.54C318.013 278.081 317.835 277.64 317.517 277.31C317.198 276.98 316.762 276.787 316.303 276.774L225.383 273.454Z" fill="#9DABB9"/>
<path d="M225.383 301.621C225.178 301.6 224.972 301.629 224.782 301.707C224.591 301.785 224.423 301.908 224.292 302.066C224.161 302.225 224.07 302.413 224.029 302.614C223.988 302.816 223.997 303.024 224.056 303.221L224.44 304.894C224.566 305.361 224.834 305.776 225.209 306.083C225.583 306.389 226.044 306.57 226.526 306.6L316.303 308.666C316.75 308.666 317.178 308.491 317.497 308.179C317.816 307.868 318 307.443 318.01 306.997V306.707C318.013 306.248 317.835 305.806 317.517 305.476C317.198 305.146 316.762 304.954 316.303 304.941L225.383 301.621Z" fill="#9DABB9"/>
<path d="M205.784 198.656C205.962 198.559 206.158 198.499 206.359 198.479C206.561 198.458 206.764 198.479 206.958 198.538C207.152 198.598 207.331 198.696 207.487 198.826C207.642 198.956 207.77 199.116 207.862 199.296L209.701 202.868C209.742 202.948 209.805 203.016 209.882 203.063C209.959 203.111 210.048 203.136 210.139 203.136C210.229 203.136 210.318 203.111 210.395 203.063C210.472 203.016 210.535 202.948 210.576 202.868L215.786 192.234C215.841 192.122 215.933 192.032 216.046 191.98C216.159 191.927 216.287 191.916 216.408 191.947C216.529 191.978 216.636 192.05 216.71 192.151C216.784 192.251 216.821 192.374 216.814 192.499C216.576 198.062 214.171 203.311 210.115 207.126C210.115 207.126 207.244 205.901 205.076 200.679C204.921 200.314 204.908 199.904 205.039 199.53C205.17 199.156 205.436 198.845 205.784 198.656Z" fill="#3C763D"/>
<path d="M205.784 221.85C205.962 221.753 206.158 221.693 206.359 221.673C206.561 221.653 206.764 221.673 206.958 221.733C207.152 221.792 207.331 221.89 207.487 222.02C207.642 222.15 207.77 222.31 207.862 222.49L209.701 226.062C209.742 226.143 209.805 226.21 209.882 226.258C209.959 226.305 210.048 226.33 210.139 226.33C210.229 226.33 210.318 226.305 210.395 226.258C210.472 226.21 210.535 226.143 210.576 226.062L215.786 215.429C215.841 215.316 215.933 215.226 216.046 215.174C216.159 215.122 216.287 215.11 216.408 215.141C216.529 215.172 216.636 215.244 216.71 215.345C216.784 215.445 216.821 215.568 216.814 215.693C216.576 221.256 214.171 226.506 210.115 230.32C210.115 230.32 207.244 229.096 205.076 223.873C204.921 223.508 204.908 223.099 205.039 222.725C205.17 222.35 205.436 222.039 205.784 221.85Z" fill="#3C763D"/>
<path d="M205.784 246.703C205.962 246.606 206.158 246.545 206.359 246.525C206.561 246.505 206.764 246.525 206.958 246.585C207.152 246.645 207.331 246.742 207.487 246.872C207.642 247.003 207.77 247.163 207.862 247.343L209.701 250.914C209.742 250.995 209.805 251.063 209.882 251.11C209.959 251.157 210.048 251.182 210.139 251.182C210.229 251.182 210.318 251.157 210.395 251.11C210.472 251.063 210.535 250.995 210.576 250.914L215.786 240.281C215.841 240.169 215.933 240.079 216.046 240.026C216.159 239.974 216.287 239.962 216.408 239.994C216.529 240.025 216.636 240.097 216.71 240.197C216.784 240.298 216.821 240.421 216.814 240.546C216.576 246.109 214.171 251.358 210.115 255.173C210.115 255.173 207.244 253.948 205.076 248.725C204.921 248.36 204.908 247.951 205.039 247.577C205.17 247.203 205.436 246.891 205.784 246.703Z" fill="#3C763D"/>
<path d="M205.784 271.556C205.962 271.459 206.158 271.398 206.359 271.378C206.561 271.358 206.764 271.378 206.958 271.438C207.152 271.498 207.331 271.595 207.487 271.726C207.642 271.856 207.77 272.016 207.862 272.196L209.701 275.767C209.742 275.848 209.805 275.916 209.882 275.963C209.959 276.01 210.048 276.035 210.139 276.035C210.229 276.035 210.318 276.01 210.395 275.963C210.472 275.916 210.535 275.848 210.576 275.767L215.786 265.134C215.841 265.022 215.933 264.932 216.046 264.879C216.159 264.827 216.287 264.816 216.408 264.847C216.529 264.878 216.636 264.95 216.71 265.05C216.784 265.151 216.821 265.274 216.814 265.399C216.576 270.962 214.171 276.211 210.115 280.026C210.115 280.026 207.244 278.801 205.076 273.578C204.921 273.214 204.908 272.804 205.039 272.43C205.17 272.056 205.436 271.744 205.784 271.556Z" fill="#3C763D"/>
<path d="M205.784 299.721C205.962 299.624 206.158 299.564 206.359 299.544C206.561 299.523 206.764 299.544 206.958 299.603C207.152 299.663 207.331 299.761 207.487 299.891C207.642 300.021 207.77 300.181 207.862 300.361L209.701 303.933C209.742 304.013 209.805 304.081 209.882 304.128C209.959 304.176 210.048 304.201 210.139 304.201C210.229 304.201 210.318 304.176 210.395 304.128C210.472 304.081 210.535 304.013 210.576 303.933L215.786 293.299C215.841 293.187 215.933 293.097 216.046 293.045C216.159 292.993 216.287 292.981 216.408 293.012C216.529 293.043 216.636 293.115 216.71 293.216C216.784 293.316 216.821 293.439 216.814 293.564C216.576 299.127 214.171 304.376 210.115 308.191C210.115 308.191 207.244 306.966 205.076 301.744C204.921 301.379 204.908 300.969 205.039 300.595C205.17 300.221 205.436 299.91 205.784 299.721Z" fill="#3C763D"/>
<path d="M214.405 124.157L302.095 127.088C303.623 127.138 305.084 127.727 306.22 128.75C307.356 129.772 308.094 131.164 308.304 132.678L308.363 133.105C308.474 133.909 308.408 134.728 308.17 135.504C307.932 136.28 307.527 136.994 306.983 137.598C306.44 138.201 305.771 138.678 305.024 138.996C304.277 139.313 303.47 139.464 302.658 139.437L212.694 136.425C212.204 136.408 211.722 136.293 211.278 136.085C210.834 135.877 210.437 135.581 210.111 135.215C209.784 134.85 209.536 134.421 209.38 133.957C209.224 133.492 209.164 133 209.203 132.512L209.532 128.492C209.632 127.282 210.194 126.157 211.101 125.35C212.008 124.543 213.191 124.116 214.405 124.157Z" fill="#3C763D"/>
<path d="M214.947 127.573L265.298 129.493" stroke="white"/>
<path d="M236.496 131.413H249.937" stroke="white"/>
<path d="M251.209 178.408L248.786 177.32C248.693 177.277 248.59 177.258 248.488 177.264C248.385 177.271 248.286 177.302 248.198 177.356L245.93 178.738C245.829 178.799 245.713 178.832 245.595 178.831C245.477 178.829 245.362 178.795 245.263 178.732C245.163 178.668 245.083 178.578 245.033 178.472C244.982 178.365 244.962 178.247 244.976 178.129L245.265 175.49C245.275 175.388 245.26 175.285 245.222 175.19C245.185 175.095 245.125 175.011 245.048 174.943L243.032 173.211C242.943 173.135 242.877 173.035 242.842 172.923C242.806 172.811 242.803 172.692 242.832 172.578C242.861 172.464 242.921 172.361 243.006 172.28C243.09 172.198 243.196 172.142 243.311 172.118L245.889 171.571C245.988 171.551 246.082 171.506 246.161 171.441C246.24 171.377 246.302 171.294 246.342 171.2L247.373 168.746C247.419 168.639 247.494 168.546 247.59 168.479C247.685 168.411 247.798 168.372 247.915 168.365C248.031 168.358 248.148 168.384 248.251 168.439C248.353 168.495 248.439 168.578 248.497 168.679L249.817 170.984C249.869 171.076 249.944 171.153 250.034 171.208C250.124 171.263 250.227 171.294 250.333 171.298L252.983 171.515C253.096 171.527 253.204 171.57 253.295 171.639C253.386 171.708 253.456 171.8 253.498 171.906C253.541 172.012 253.554 172.128 253.535 172.24C253.517 172.353 253.469 172.459 253.395 172.546L251.611 174.515C251.543 174.591 251.495 174.682 251.47 174.781C251.445 174.88 251.444 174.983 251.467 175.082L252.08 177.66C252.115 177.777 252.115 177.9 252.081 178.017C252.046 178.133 251.979 178.237 251.887 178.316C251.795 178.395 251.682 178.446 251.561 178.462C251.441 178.478 251.319 178.459 251.209 178.408Z" fill="#3C763D"/>
<path d="M245.709 174.804C245.639 174.684 245.55 174.576 245.446 174.484L244.126 173.35C244.059 173.292 244.009 173.216 243.982 173.132C243.956 173.047 243.954 172.956 243.976 172.87C243.999 172.784 244.045 172.706 244.11 172.645C244.175 172.584 244.255 172.543 244.343 172.525L246.039 172.17C246.235 172.13 246.419 172.042 246.574 171.914C246.728 171.787 246.849 171.623 246.926 171.437L247.596 169.834C247.631 169.752 247.688 169.682 247.761 169.631C247.833 169.579 247.919 169.549 248.008 169.544C248.097 169.539 248.185 169.558 248.264 169.6C248.342 169.642 248.407 169.705 248.452 169.782L248.89 170.551L248.776 170.618L248.333 169.85C248.302 169.793 248.255 169.747 248.199 169.717C248.142 169.686 248.077 169.673 248.013 169.679C247.95 169.681 247.889 169.702 247.838 169.739C247.786 169.775 247.747 169.827 247.725 169.886L247.054 171.489C246.969 171.694 246.834 171.875 246.663 172.016C246.491 172.157 246.287 172.254 246.07 172.298L244.368 172.659C244.307 172.672 244.25 172.702 244.204 172.746C244.159 172.789 244.126 172.845 244.11 172.906C244.094 172.966 244.095 173.031 244.114 173.091C244.132 173.151 244.167 173.205 244.214 173.247L245.534 174.381C245.649 174.482 245.748 174.6 245.827 174.732L245.709 174.804Z" fill="white"/>
<path d="M246.147 177.81C246.059 177.807 245.973 177.781 245.9 177.733C245.824 177.685 245.764 177.617 245.725 177.537C245.687 177.457 245.672 177.367 245.683 177.279L245.822 175.959H245.956L245.817 177.279C245.809 177.342 245.819 177.407 245.846 177.464C245.874 177.522 245.917 177.57 245.972 177.604C246.026 177.637 246.088 177.655 246.152 177.655C246.216 177.655 246.279 177.637 246.333 177.604L247.812 176.701C248.003 176.587 248.217 176.52 248.439 176.506C248.661 176.491 248.882 176.53 249.086 176.619L250.674 177.33C250.731 177.357 250.795 177.367 250.858 177.359C250.921 177.351 250.981 177.325 251.029 177.284C251.079 177.244 251.116 177.191 251.136 177.131C251.156 177.07 251.159 177.005 251.143 176.944L250.746 175.253C250.695 175.036 250.697 174.811 250.752 174.596C250.807 174.38 250.913 174.181 251.06 174.015L252.231 172.732C252.274 172.684 252.303 172.626 252.314 172.563C252.325 172.5 252.317 172.435 252.292 172.376C252.271 172.316 252.232 172.263 252.18 172.225C252.129 172.186 252.068 172.164 252.004 172.159L250.272 172.02C250.092 172.004 249.916 171.954 249.756 171.871L249.818 171.752C249.961 171.825 250.117 171.87 250.277 171.886L252.009 172.025C252.097 172.034 252.181 172.066 252.251 172.119C252.322 172.172 252.377 172.244 252.409 172.326C252.442 172.408 252.451 172.498 252.436 172.585C252.421 172.672 252.382 172.753 252.323 172.819L251.158 174.108C251.024 174.257 250.927 174.435 250.877 174.629C250.826 174.823 250.824 175.027 250.87 175.222L251.272 176.913C251.292 176.999 251.288 177.089 251.259 177.173C251.231 177.257 251.18 177.331 251.112 177.387C251.042 177.448 250.956 177.487 250.864 177.499C250.772 177.511 250.679 177.495 250.596 177.454L249.014 176.743C248.83 176.662 248.63 176.627 248.43 176.639C248.23 176.652 248.036 176.712 247.864 176.815L246.4 177.722C246.325 177.773 246.238 177.803 246.147 177.81Z" fill="white"/>
<path d="M248.882 170.52L248.766 170.587L249.027 171.043L249.143 170.977L248.882 170.52Z" fill="white"/>
<path d="M265.342 178.609L262.919 177.516C262.825 177.475 262.722 177.458 262.62 177.465C262.518 177.472 262.418 177.504 262.331 177.557L260.063 178.934C259.962 178.995 259.847 179.027 259.73 179.026C259.612 179.025 259.497 178.992 259.398 178.929C259.299 178.866 259.219 178.777 259.168 178.671C259.117 178.565 259.096 178.447 259.109 178.33L259.398 175.686C259.407 175.585 259.392 175.483 259.355 175.389C259.317 175.295 259.257 175.211 259.181 175.144L257.165 173.412C257.076 173.336 257.01 173.236 256.975 173.124C256.939 173.012 256.936 172.893 256.965 172.779C256.994 172.665 257.054 172.562 257.139 172.481C257.223 172.399 257.329 172.343 257.444 172.319L260.021 171.773C260.121 171.752 260.215 171.708 260.294 171.643C260.373 171.578 260.435 171.495 260.475 171.401L261.506 168.947C261.552 168.84 261.627 168.747 261.723 168.68C261.818 168.612 261.931 168.573 262.047 168.566C262.164 168.559 262.28 168.585 262.383 168.64C262.486 168.696 262.572 168.779 262.63 168.88L263.955 171.185C264.006 171.278 264.081 171.355 264.171 171.411C264.261 171.466 264.365 171.496 264.471 171.499L267.121 171.716C267.234 171.727 267.343 171.77 267.434 171.838C267.526 171.907 267.597 171.999 267.64 172.106C267.683 172.212 267.696 172.327 267.678 172.44C267.66 172.553 267.612 172.659 267.538 172.747L265.749 174.722C265.681 174.797 265.631 174.888 265.606 174.987C265.581 175.086 265.581 175.19 265.605 175.289L266.218 177.866C266.25 177.983 266.248 178.106 266.212 178.221C266.176 178.336 266.108 178.438 266.016 178.516C265.924 178.594 265.812 178.644 265.692 178.661C265.573 178.677 265.451 178.659 265.342 178.609Z" fill="#3C763D"/>
<path d="M259.841 175C259.77 174.882 259.682 174.776 259.578 174.685L258.258 173.551C258.191 173.493 258.142 173.417 258.115 173.333C258.089 173.248 258.087 173.158 258.109 173.072C258.131 172.986 258.177 172.908 258.242 172.846C258.307 172.785 258.387 172.744 258.475 172.726L260.171 172.371C260.367 172.329 260.551 172.24 260.705 172.112C260.86 171.983 260.981 171.819 261.058 171.633L261.728 170.035C261.762 169.952 261.819 169.881 261.892 169.829C261.965 169.777 262.051 169.747 262.14 169.741C262.229 169.736 262.317 169.756 262.395 169.798C262.473 169.84 262.538 169.902 262.584 169.978L263.022 170.752L262.908 170.819L262.465 170.045C262.433 169.991 262.387 169.946 262.331 169.916C262.276 169.886 262.213 169.872 262.15 169.875C262.087 169.879 262.025 169.901 261.973 169.939C261.921 169.976 261.881 170.027 261.857 170.087L261.186 171.69C261.099 171.894 260.964 172.074 260.793 172.215C260.621 172.355 260.419 172.453 260.202 172.499L258.5 172.855C258.438 172.868 258.381 172.898 258.336 172.942C258.29 172.985 258.258 173.041 258.243 173.103C258.225 173.165 258.226 173.23 258.245 173.292C258.264 173.353 258.301 173.407 258.351 173.448L259.666 174.582C259.784 174.681 259.883 174.799 259.959 174.933L259.841 175Z" fill="white"/>
<path d="M260.279 178.006C260.214 178.005 260.149 177.991 260.09 177.965C260.03 177.938 259.977 177.899 259.933 177.85C259.889 177.802 259.856 177.745 259.836 177.683C259.816 177.621 259.808 177.555 259.815 177.49L259.954 176.17H260.088L259.949 177.49C259.941 177.553 259.952 177.618 259.979 177.675C260.006 177.733 260.05 177.781 260.104 177.815C260.157 177.85 260.22 177.869 260.284 177.869C260.348 177.869 260.411 177.85 260.464 177.815L261.949 176.913C262.14 176.801 262.355 176.735 262.577 176.722C262.798 176.708 263.019 176.747 263.223 176.835L264.805 177.547C264.863 177.574 264.927 177.584 264.99 177.575C265.053 177.567 265.112 177.541 265.161 177.501C265.211 177.46 265.248 177.405 265.268 177.344C265.288 177.283 265.29 177.218 265.275 177.155L264.878 175.469C264.826 175.253 264.829 175.027 264.884 174.811C264.94 174.595 265.047 174.397 265.197 174.232L266.362 172.943C266.406 172.897 266.435 172.839 266.446 172.777C266.457 172.715 266.449 172.651 266.424 172.592C266.402 172.532 266.363 172.48 266.312 172.441C266.261 172.403 266.199 172.38 266.135 172.376L264.403 172.232C264.223 172.22 264.048 172.171 263.888 172.087L263.95 171.969C264.094 172.042 264.252 172.086 264.414 172.098L266.141 172.242C266.23 172.248 266.315 172.28 266.387 172.333C266.459 172.385 266.514 172.457 266.547 172.54C266.58 172.623 266.589 172.714 266.572 172.801C266.556 172.889 266.515 172.97 266.455 173.036L265.29 174.325C265.155 174.473 265.059 174.652 265.008 174.846C264.958 175.04 264.956 175.243 265.001 175.438L265.403 177.124C265.423 177.211 265.419 177.302 265.391 177.386C265.363 177.471 265.312 177.546 265.244 177.604C265.171 177.659 265.085 177.695 264.995 177.707C264.904 177.719 264.812 177.706 264.728 177.671L263.145 176.959C262.962 176.878 262.762 176.841 262.562 176.854C262.361 176.867 262.167 176.927 261.996 177.031L260.537 177.939C260.46 177.987 260.37 178.01 260.279 178.006Z" fill="white"/>
<path d="M263.023 170.771L262.906 170.838L263.168 171.294L263.284 171.227L263.023 170.771Z" fill="white"/>
<path d="M279.611 178.81L277.188 177.722C277.095 177.679 276.992 177.66 276.89 177.666C276.787 177.673 276.688 177.704 276.601 177.758L274.332 179.135C274.232 179.196 274.117 179.228 273.999 179.227C273.882 179.226 273.767 179.193 273.668 179.13C273.568 179.067 273.489 178.978 273.437 178.872C273.386 178.766 273.366 178.648 273.378 178.531L273.667 175.887C273.676 175.786 273.662 175.684 273.624 175.59C273.586 175.496 273.527 175.412 273.451 175.345L271.435 173.598C271.346 173.521 271.28 173.422 271.244 173.31C271.209 173.198 271.205 173.078 271.234 172.965C271.263 172.851 271.323 172.748 271.408 172.666C271.493 172.585 271.598 172.529 271.713 172.505L274.317 171.958C274.417 171.938 274.51 171.893 274.589 171.829C274.668 171.764 274.731 171.681 274.77 171.587L275.801 169.133C275.847 169.025 275.922 168.933 276.018 168.865C276.113 168.798 276.226 168.759 276.343 168.752C276.459 168.745 276.576 168.77 276.679 168.826C276.782 168.881 276.867 168.965 276.925 169.066L278.245 171.37C278.297 171.462 278.372 171.539 278.462 171.594C278.553 171.649 278.655 171.68 278.761 171.685L281.411 171.901C281.525 171.913 281.633 171.955 281.725 172.024C281.816 172.093 281.887 172.185 281.93 172.291C281.973 172.397 281.986 172.513 281.968 172.626C281.95 172.739 281.902 172.845 281.828 172.933L280.039 174.907C279.971 174.983 279.922 175.074 279.897 175.173C279.872 175.272 279.871 175.375 279.895 175.474L280.508 178.052C280.55 178.172 280.555 178.302 280.521 178.425C280.487 178.547 280.417 178.657 280.32 178.739C280.223 178.821 280.103 178.872 279.977 178.885C279.85 178.897 279.723 178.871 279.611 178.81Z" fill="#3C763D"/>
<path d="M274.11 175.201C274.04 175.083 273.951 174.977 273.847 174.887L272.528 173.752C272.461 173.694 272.411 173.618 272.385 173.534C272.359 173.449 272.356 173.359 272.378 173.273C272.401 173.187 272.447 173.109 272.512 173.048C272.576 172.987 272.657 172.945 272.744 172.928L274.456 172.567C274.652 172.525 274.835 172.437 274.989 172.309C275.143 172.182 275.265 172.019 275.342 171.835L276.013 170.231C276.047 170.149 276.104 170.077 276.177 170.025C276.25 169.973 276.336 169.943 276.425 169.937C276.514 169.933 276.602 169.952 276.68 169.994C276.758 170.036 276.823 170.098 276.869 170.174L277.307 170.948L277.193 171.015L276.75 170.247C276.719 170.19 276.672 170.144 276.616 170.113C276.559 170.082 276.495 170.067 276.43 170.071C276.367 170.076 276.307 170.098 276.255 170.135C276.204 170.173 276.165 170.224 276.142 170.283L275.471 171.886C275.384 172.09 275.249 172.27 275.078 172.411C274.906 172.552 274.704 172.649 274.487 172.696L272.785 173.051C272.723 173.065 272.666 173.096 272.62 173.141C272.575 173.185 272.543 173.242 272.528 173.304C272.51 173.365 272.512 173.43 272.531 173.49C272.55 173.551 272.587 173.604 272.636 173.644L273.951 174.778C274.069 174.877 274.168 174.995 274.244 175.129L274.11 175.201Z" fill="white"/>
<path d="M274.548 178.207C274.483 178.206 274.419 178.192 274.359 178.165C274.299 178.139 274.246 178.1 274.202 178.051C274.159 178.003 274.126 177.946 274.105 177.884C274.085 177.822 274.078 177.756 274.084 177.691L274.224 176.371H274.358L274.218 177.691C274.211 177.754 274.221 177.818 274.248 177.876C274.276 177.934 274.319 177.982 274.373 178.016C274.427 178.051 274.489 178.07 274.553 178.07C274.618 178.07 274.68 178.051 274.734 178.016L276.219 177.119C276.409 177.005 276.624 176.937 276.845 176.923C277.067 176.909 277.289 176.948 277.492 177.036L279.075 177.748C279.133 177.773 279.196 177.782 279.259 177.774C279.321 177.765 279.38 177.739 279.429 177.699C279.477 177.659 279.514 177.606 279.534 177.546C279.555 177.487 279.558 177.423 279.544 177.361L279.147 175.66C279.096 175.443 279.098 175.217 279.154 175.002C279.21 174.786 279.317 174.587 279.467 174.422L280.632 173.134C280.675 173.088 280.704 173.03 280.715 172.968C280.726 172.905 280.719 172.841 280.694 172.783C280.672 172.723 280.633 172.67 280.582 172.632C280.53 172.593 280.469 172.571 280.405 172.566L278.673 172.422C278.493 172.411 278.317 172.361 278.157 172.278L278.219 172.159C278.362 172.232 278.518 172.276 278.678 172.288L280.41 172.432C280.498 172.44 280.583 172.472 280.654 172.524C280.725 172.577 280.78 172.649 280.812 172.731C280.852 172.816 280.865 172.911 280.849 173.003C280.833 173.095 280.79 173.18 280.725 173.247L279.56 174.536C279.425 174.684 279.328 174.863 279.278 175.057C279.228 175.251 279.225 175.454 279.271 175.649L279.673 177.335C279.693 177.422 279.689 177.513 279.66 177.598C279.632 177.682 279.581 177.757 279.513 177.815C279.441 177.871 279.355 177.906 279.264 177.918C279.174 177.93 279.082 177.917 278.998 177.882L277.415 177.17C277.232 177.089 277.031 177.053 276.831 177.065C276.631 177.078 276.437 177.139 276.265 177.243L274.78 178.145C274.71 178.186 274.63 178.208 274.548 178.207Z" fill="white"/>
<path d="M277.3 170.989L277.184 171.055L277.445 171.512L277.561 171.445L277.3 170.989Z" fill="white"/>
<path d="M294.119 179.011L291.696 177.923C291.603 177.882 291.502 177.863 291.4 177.87C291.299 177.876 291.201 177.907 291.114 177.959L288.84 179.341C288.74 179.402 288.624 179.434 288.507 179.434C288.39 179.433 288.275 179.399 288.175 179.336C288.076 179.273 287.996 179.184 287.945 179.078C287.894 178.973 287.874 178.855 287.886 178.738L288.175 176.093C288.182 175.996 288.166 175.899 288.128 175.809C288.091 175.72 288.032 175.64 287.958 175.578L285.943 173.84C285.855 173.763 285.79 173.663 285.756 173.552C285.722 173.44 285.719 173.322 285.749 173.209C285.778 173.096 285.838 172.993 285.923 172.913C286.007 172.832 286.112 172.777 286.226 172.752L288.804 172.206C288.903 172.185 288.996 172.14 289.074 172.075C289.152 172.011 289.213 171.928 289.252 171.835L290.284 169.381C290.329 169.273 290.403 169.18 290.499 169.112C290.594 169.044 290.706 169.004 290.823 168.996C290.94 168.989 291.056 169.014 291.16 169.069C291.263 169.124 291.349 169.207 291.407 169.308L292.732 171.618C292.786 171.709 292.861 171.785 292.951 171.84C293.041 171.895 293.143 171.927 293.248 171.933L295.898 172.149C296.012 172.161 296.12 172.203 296.212 172.272C296.303 172.34 296.375 172.433 296.418 172.539C296.461 172.645 296.474 172.761 296.456 172.874C296.438 172.987 296.389 173.093 296.316 173.18L294.527 175.144C294.458 175.22 294.408 175.311 294.382 175.41C294.356 175.508 294.354 175.612 294.377 175.712L294.991 178.289C295.019 178.404 295.014 178.524 294.977 178.636C294.94 178.748 294.872 178.848 294.781 178.923C294.69 178.998 294.58 179.046 294.463 179.062C294.346 179.078 294.227 179.06 294.119 179.011Z" fill="#3C763D"/>
<path d="M309.656 179.011L307.233 177.923C307.14 177.882 307.039 177.863 306.938 177.87C306.836 177.876 306.738 177.907 306.651 177.959L304.377 179.341C304.277 179.402 304.162 179.434 304.044 179.434C303.927 179.433 303.812 179.399 303.713 179.336C303.613 179.273 303.534 179.184 303.482 179.078C303.431 178.973 303.411 178.855 303.423 178.738L303.712 176.093C303.719 175.996 303.703 175.899 303.665 175.809C303.628 175.72 303.57 175.64 303.496 175.578L301.48 173.84C301.392 173.763 301.328 173.663 301.293 173.552C301.259 173.44 301.257 173.322 301.286 173.209C301.315 173.096 301.376 172.993 301.46 172.913C301.544 172.832 301.649 172.777 301.763 172.752L304.341 172.206C304.44 172.185 304.533 172.14 304.611 172.075C304.689 172.011 304.75 171.928 304.79 171.835L305.821 169.381C305.866 169.273 305.94 169.18 306.036 169.112C306.131 169.044 306.243 169.004 306.36 168.996C306.477 168.989 306.594 169.014 306.697 169.069C306.8 169.124 306.886 169.207 306.945 169.308L308.27 171.618C308.323 171.709 308.398 171.785 308.488 171.84C308.578 171.895 308.68 171.927 308.785 171.933L311.435 172.149C311.549 172.161 311.657 172.203 311.749 172.272C311.841 172.34 311.912 172.433 311.955 172.539C311.998 172.645 312.011 172.761 311.993 172.874C311.975 172.987 311.926 173.093 311.853 173.18L310.064 175.144C309.995 175.22 309.945 175.311 309.919 175.41C309.893 175.508 309.892 175.612 309.914 175.712L310.528 178.289C310.556 178.404 310.551 178.524 310.514 178.636C310.477 178.748 310.409 178.848 310.318 178.923C310.227 178.998 310.117 179.046 310 179.062C309.883 179.078 309.764 179.06 309.656 179.011Z" fill="#3C763D"/>
<path d="M288.617 175.407C288.549 175.286 288.46 175.178 288.355 175.088L287.04 173.958C286.973 173.9 286.923 173.824 286.897 173.74C286.87 173.655 286.868 173.564 286.89 173.478C286.912 173.392 286.957 173.314 287.021 173.252C287.085 173.19 287.165 173.148 287.251 173.128L288.953 172.773C289.149 172.732 289.332 172.643 289.486 172.516C289.641 172.388 289.762 172.225 289.839 172.041L290.51 170.437C290.543 170.356 290.6 170.285 290.672 170.234C290.744 170.183 290.829 170.153 290.917 170.149C291.005 170.144 291.094 170.163 291.172 170.205C291.25 170.247 291.315 170.309 291.36 170.386L291.804 171.159L291.685 171.226L291.242 170.453C291.21 170.398 291.164 170.354 291.108 170.324C291.053 170.294 290.99 170.28 290.927 170.283C290.863 170.287 290.802 170.309 290.75 170.346C290.698 170.383 290.657 170.435 290.633 170.494L289.963 172.092C289.877 172.298 289.743 172.479 289.571 172.621C289.4 172.763 289.196 172.861 288.978 172.907L287.277 173.262C287.215 173.276 287.157 173.306 287.111 173.35C287.065 173.394 287.033 173.45 287.017 173.512C287.002 173.574 287.004 173.639 287.023 173.7C287.043 173.76 287.079 173.814 287.128 173.855L288.442 174.99C288.56 175.088 288.66 175.207 288.736 175.34L288.617 175.407Z" fill="white"/>
<path d="M304.155 175.407C304.086 175.286 303.997 175.178 303.892 175.088L302.577 173.958C302.51 173.9 302.46 173.824 302.434 173.74C302.407 173.655 302.405 173.564 302.427 173.478C302.449 173.392 302.494 173.314 302.558 173.252C302.622 173.19 302.702 173.148 302.788 173.128L304.49 172.773C304.686 172.732 304.869 172.643 305.023 172.516C305.178 172.388 305.299 172.225 305.376 172.041L306.047 170.437C306.08 170.356 306.137 170.285 306.209 170.234C306.281 170.183 306.366 170.153 306.454 170.149C306.542 170.144 306.631 170.163 306.709 170.205C306.787 170.247 306.852 170.309 306.897 170.386L307.341 171.159L307.222 171.226L306.779 170.453C306.747 170.398 306.701 170.354 306.645 170.324C306.59 170.294 306.527 170.28 306.464 170.283C306.4 170.287 306.339 170.309 306.287 170.346C306.235 170.383 306.195 170.435 306.17 170.494L305.5 172.092C305.414 172.298 305.28 172.479 305.109 172.621C304.937 172.763 304.733 172.861 304.515 172.907L302.814 173.262C302.752 173.276 302.694 173.306 302.648 173.35C302.602 173.394 302.57 173.45 302.554 173.512C302.539 173.574 302.541 173.639 302.56 173.7C302.58 173.76 302.616 173.814 302.665 173.855L303.979 174.99C304.097 175.088 304.197 175.207 304.273 175.34L304.155 175.407Z" fill="white"/>
<path d="M289.057 178.413C288.97 178.41 288.885 178.386 288.81 178.341C288.734 178.294 288.674 178.226 288.636 178.145C288.597 178.065 288.583 177.976 288.593 177.887L288.738 176.567H288.872L288.727 177.892C288.719 177.955 288.729 178.019 288.756 178.076C288.784 178.133 288.827 178.18 288.882 178.212C288.936 178.247 288.998 178.266 289.062 178.266C289.126 178.266 289.189 178.247 289.243 178.212L290.728 177.31C290.918 177.195 291.133 177.128 291.355 177.115C291.577 177.101 291.798 177.142 292.001 177.232L293.584 177.944C293.642 177.971 293.706 177.98 293.769 177.971C293.832 177.962 293.892 177.934 293.94 177.892C293.989 177.852 294.027 177.799 294.048 177.739C294.068 177.679 294.072 177.614 294.058 177.552L293.656 175.861C293.605 175.645 293.608 175.42 293.664 175.205C293.719 174.991 293.826 174.793 293.976 174.629L295.141 173.34C295.184 173.293 295.213 173.234 295.224 173.171C295.235 173.108 295.227 173.043 295.203 172.984C295.18 172.925 295.141 172.873 295.09 172.835C295.039 172.798 294.977 172.776 294.914 172.773L293.187 172.629C293.007 172.615 292.832 172.566 292.671 172.484L292.728 172.366C292.872 172.439 293.03 172.483 293.192 172.494L294.919 172.639C295.008 172.645 295.093 172.677 295.165 172.73C295.237 172.782 295.292 172.854 295.325 172.937C295.358 173.02 295.367 173.111 295.351 173.198C295.334 173.286 295.294 173.367 295.234 173.433L294.068 174.717C293.934 174.865 293.838 175.044 293.788 175.238C293.739 175.432 293.738 175.635 293.785 175.83L294.182 177.521C294.204 177.608 294.202 177.699 294.175 177.784C294.149 177.869 294.099 177.945 294.031 178.004C293.964 178.062 293.881 178.1 293.793 178.114C293.705 178.128 293.615 178.118 293.532 178.083L291.949 177.372C291.766 177.29 291.566 177.254 291.366 177.266C291.166 177.279 290.971 177.34 290.8 177.444L289.32 178.346C289.24 178.391 289.149 178.415 289.057 178.413Z" fill="white"/>
<path d="M304.592 178.413C304.505 178.41 304.42 178.386 304.345 178.341C304.27 178.294 304.209 178.226 304.171 178.145C304.132 178.065 304.118 177.976 304.128 177.887L304.273 176.567H304.407L304.262 177.892C304.254 177.955 304.264 178.019 304.291 178.076C304.319 178.133 304.363 178.18 304.417 178.212C304.471 178.247 304.533 178.266 304.598 178.266C304.662 178.266 304.724 178.247 304.778 178.212L306.263 177.31C306.453 177.195 306.668 177.128 306.89 177.115C307.112 177.101 307.333 177.142 307.536 177.232L309.119 177.944C309.177 177.971 309.241 177.98 309.304 177.971C309.368 177.962 309.427 177.934 309.475 177.892C309.524 177.852 309.562 177.799 309.583 177.739C309.604 177.679 309.607 177.614 309.593 177.552L309.191 175.861C309.14 175.645 309.143 175.42 309.199 175.205C309.254 174.991 309.361 174.793 309.511 174.629L310.676 173.34C310.719 173.293 310.748 173.234 310.759 173.171C310.77 173.108 310.763 173.043 310.738 172.984C310.716 172.925 310.676 172.873 310.625 172.835C310.574 172.798 310.513 172.776 310.449 172.773L308.722 172.629C308.542 172.615 308.367 172.566 308.206 172.484L308.263 172.366C308.408 172.439 308.565 172.483 308.727 172.494L310.454 172.639C310.543 172.645 310.628 172.677 310.7 172.73C310.772 172.782 310.828 172.854 310.86 172.937C310.893 173.02 310.902 173.111 310.886 173.198C310.87 173.286 310.829 173.367 310.769 173.433L309.604 174.717C309.469 174.865 309.373 175.044 309.323 175.238C309.274 175.432 309.273 175.635 309.32 175.83L309.717 177.521C309.739 177.608 309.737 177.699 309.71 177.784C309.684 177.869 309.634 177.945 309.566 178.004C309.499 178.062 309.416 178.1 309.328 178.114C309.24 178.128 309.15 178.118 309.067 178.083L307.485 177.372C307.301 177.29 307.101 177.254 306.901 177.266C306.701 177.279 306.507 177.34 306.335 177.444L304.855 178.346C304.775 178.391 304.684 178.415 304.592 178.413Z" fill="white"/>
<path d="M293.316 170.317L293.199 170.384L293.462 170.841L293.579 170.774L293.316 170.317Z" fill="white"/>
<path d="M308.851 170.317L308.734 170.384L308.997 170.841L309.114 170.774L308.851 170.317Z" fill="white"/>
<path opacity="0.7" d="M310.029 158.131C310.025 158.424 309.963 158.714 309.847 158.983C309.731 159.252 309.563 159.496 309.353 159.7C309.143 159.905 308.895 160.066 308.622 160.174C308.35 160.283 308.059 160.336 307.766 160.332L247.647 159.461C247.055 159.452 246.491 159.208 246.079 158.784C245.666 158.36 245.439 157.789 245.445 157.198V157.1C245.449 156.807 245.511 156.517 245.627 156.248C245.743 155.979 245.911 155.735 246.121 155.53C246.331 155.326 246.58 155.165 246.852 155.056C247.125 154.948 247.416 154.894 247.709 154.898L307.817 155.749C308.11 155.753 308.4 155.815 308.669 155.931C308.938 156.047 309.182 156.215 309.387 156.425C309.591 156.635 309.752 156.883 309.861 157.156C309.969 157.428 310.023 157.719 310.019 158.012L310.029 158.131Z" fill="#CED4DA"/>
<path d="M237.091 170.175C238.428 162.258 233.092 154.756 225.175 153.42C217.258 152.083 209.756 157.418 208.42 165.336C207.083 173.253 212.418 180.755 220.336 182.091C228.253 183.428 235.755 178.092 237.091 170.175Z" fill="#3C763D"/>
<path d="M209.347 167.143C209.268 167.136 209.195 167.099 209.143 167.04C209.091 166.98 209.065 166.902 209.069 166.823C209.109 166.247 209.183 165.674 209.29 165.106C209.298 165.068 209.313 165.031 209.335 164.998C209.356 164.966 209.384 164.937 209.417 164.915C209.449 164.893 209.486 164.878 209.524 164.87C209.563 164.862 209.603 164.862 209.641 164.869C209.68 164.877 209.716 164.892 209.749 164.913C209.782 164.935 209.81 164.963 209.832 164.996C209.854 165.028 209.87 165.065 209.878 165.103C209.885 165.142 209.886 165.181 209.878 165.22C209.77 165.763 209.697 166.312 209.662 166.865C209.656 166.943 209.62 167.016 209.562 167.068C209.503 167.12 209.426 167.147 209.347 167.143Z" fill="white"/>
<path d="M210.832 161.833C210.787 161.832 210.743 161.822 210.703 161.802C210.633 161.766 210.579 161.703 210.555 161.627C210.531 161.552 210.538 161.47 210.574 161.4C211.746 159.141 213.525 157.255 215.711 155.952C217.897 154.65 220.403 153.983 222.947 154.027C223.776 154.041 224.603 154.127 225.417 154.285C225.494 154.301 225.561 154.347 225.605 154.413C225.648 154.478 225.664 154.558 225.649 154.636C225.641 154.674 225.626 154.711 225.605 154.743C225.583 154.776 225.555 154.804 225.522 154.825C225.49 154.847 225.453 154.862 225.414 154.869C225.376 154.876 225.336 154.876 225.298 154.868C224.52 154.717 223.73 154.636 222.937 154.625C220.505 154.583 218.11 155.221 216.02 156.466C213.931 157.711 212.23 159.514 211.11 161.673C211.085 161.725 211.045 161.768 210.996 161.796C210.946 161.825 210.889 161.837 210.832 161.833Z" fill="white"/>
<path opacity="0.78" d="M235.357 168.241C235.324 170.675 234.569 173.044 233.188 175.049C231.808 177.054 229.864 178.604 227.602 179.504C225.341 180.404 222.863 180.613 220.483 180.105C218.102 179.596 215.926 178.394 214.229 176.649C212.532 174.903 211.391 172.694 210.95 170.301C210.509 167.907 210.787 165.436 211.75 163.201C212.713 160.965 214.318 159.065 216.361 157.742C218.403 156.418 220.793 155.73 223.226 155.765C226.489 155.811 229.601 157.151 231.875 159.491C234.15 161.831 235.403 164.978 235.357 168.241Z" fill="#DFF0D8"/>
<path d="M226.887 163.472C226.856 165.534 225.134 167.777 223.051 167.751C220.968 167.725 219.313 165.447 219.344 163.364C219.375 161.281 221.082 159.827 223.164 159.858C225.247 159.889 226.918 161.389 226.887 163.472Z" fill="#3C763D"/>
<path d="M218.26 175.706L227.473 175.835C227.946 175.841 228.408 175.697 228.793 175.424C229.179 175.151 229.467 174.762 229.618 174.314L230.134 172.768C230.316 172.224 230.282 171.631 230.039 171.112C229.796 170.593 229.363 170.187 228.829 169.979C225.097 168.556 221.22 168.674 217.234 169.942C216.696 170.117 216.245 170.491 215.973 170.987C215.701 171.484 215.628 172.065 215.77 172.613L216.136 174.026C216.256 174.5 216.53 174.922 216.913 175.226C217.297 175.53 217.771 175.699 218.26 175.706Z" fill="#3C763D"/>
</g>
<defs>
<filter id="filter0_f" x="0" y="-14.6812" width="514" height="489.627" filterUnits="userSpaceOnUse" color-interpolation-filters="sRGB">
<feFlood flood-opacity="0" result="BackgroundImageFix"/>
<feBlend mode="normal" in="SourceGraphic" in2="BackgroundImageFix" result="shape"/>
<feGaussianBlur stdDeviation="61" result="effect1_foregroundBlur"/>
</filter>
<clipPath id="clip0">
<rect width="373" height="373" fill="white" transform="translate(70 50)"/>
</clipPath>
</defs>
</svg>
