<svg height="390" viewBox="0 0 562 554" fill="none" xmlns="http://www.w3.org/2000/svg">
<g filter="url(#filter0_f)">
<path fill-rule="evenodd" clip-rule="evenodd" d="M285.647 153.499C309.814 154.774 335.735 141.558 356.78 153.501C377.961 165.521 383.569 192.665 393.683 214.81C403.794 236.949 414.216 258.543 415.844 282.824C417.768 311.512 423.905 345.861 403.853 366.478C383.677 387.221 348.017 373.74 320.074 381.29C292.993 388.607 270.046 416.611 242.785 409.998C215.584 403.399 204.068 371.657 187.481 349.124C172.24 328.418 156.101 308.555 149.774 283.64C142.962 256.815 139.192 227.694 150.195 202.298C161.279 176.715 183.278 155.191 209.52 145.737C234.012 136.913 259.648 152.129 285.647 153.499Z" fill="#FCF8E3"/>
</g>
<circle cx="281.246" cy="277" r="92" fill="#FCF8E3"/>
<path d="M313.246 310H309.246V299.5C309.246 293.7 303.446 288.8 297.846 284C295.946 282.4 293.246 280 292.246 278.8V269.1C293.246 268 295.946 265.5 297.846 263.9C303.446 259.2 309.246 254.3 309.246 248.5V238H313.246C315.446 238 317.246 236.2 317.246 234C317.246 231.8 315.446 230 313.246 230H249.246C247.046 230 245.246 231.8 245.246 234C245.246 236.2 247.046 238 249.246 238H253.246V248.5C253.246 254.3 259.046 259.2 264.646 264C266.546 265.6 269.246 268.1 270.246 269.2V278.9C269.246 280 266.546 282.5 264.646 284.1C259.046 288.8 253.246 293.7 253.246 299.5V310H249.246C247.046 310 245.246 311.8 245.246 314C245.246 316.2 247.046 318 249.246 318H313.246C315.446 318 317.246 316.2 317.246 314C317.246 311.8 315.446 310 313.246 310ZM261.246 299.5C261.246 297.4 266.846 292.6 269.846 290.1C274.646 286 278.246 283 278.246 279.3V268.7C278.246 264.9 274.646 261.9 269.846 257.8C266.846 255.3 261.246 250.6 261.246 248.4V238H301.246V248.5C301.246 250.6 295.646 255.4 292.646 257.9C287.846 262 284.246 265 284.246 268.7V279.2C284.246 283 287.846 286 292.646 290.1C295.646 292.6 301.246 297.3 301.246 299.5V310H261.246V299.5ZM290.246 247V245C290.246 243.1 291.846 241.5 293.746 241.5C295.646 241.5 297.246 243 297.246 245V247C297.246 248.9 295.646 250.5 293.746 250.5C291.846 250.5 290.246 248.9 290.246 247Z" fill="#8A6D3B"/>
<g opacity="0.5">
<path opacity="0.5" d="M254.562 337.897C244.112 340.747 239.232 321.947 222.052 322.307C221.281 322.354 220.511 322.206 219.812 321.878C219.113 321.55 218.507 321.051 218.052 320.427C214.462 314.547 203.052 298.917 187.582 307.537C179.582 311.987 177.932 319.057 176.882 326.037C175.612 334.397 170.232 339.897 158.302 335.757C147.442 331.977 139.072 333.647 128.742 337.517C102.652 347.297 102.612 336.897 86.9516 347.267C86.6547 347.422 86.4282 347.684 86.3185 348C86.2088 348.316 86.2242 348.662 86.3616 348.967C86.563 349.288 86.8459 349.55 87.1814 349.725C87.517 349.901 87.8932 349.985 88.2716 349.967C120.162 350.687 293.122 354.387 291.912 349.847C290.562 344.887 265.562 334.897 254.562 337.897Z" fill="#8A6D3B"/>
<path opacity="0.3" d="M438.023 280.065C431.023 276.845 413.853 265.065 399.883 272.005C393.223 275.345 389.493 272.805 386.943 269.175C385.828 267.611 384.308 266.382 382.546 265.619C380.783 264.856 378.846 264.588 376.943 264.845C374.293 265.215 371.943 266.845 369.183 265.915C366.693 265.065 364.653 262.835 362.183 261.805C356.513 259.556 350.226 259.404 344.453 261.375C335.673 264.305 331.123 274.575 321.543 275.755C316.863 276.335 312.073 276.375 307.543 277.925C305.753 278.545 304.543 282.465 305.323 284.105C305.461 284.386 305.647 284.639 305.873 284.855C308.873 287.785 319.473 286.315 322.713 286.425C335.033 286.845 347.373 286.975 359.713 287.225C374.38 287.518 389.063 287.662 403.763 287.655C416.453 287.655 429.143 287.655 441.823 287.295C447.823 287.125 455.743 287.885 461.533 285.725C461.769 285.669 461.993 285.571 462.193 285.435C466.493 281.145 445.013 283.295 438.023 280.065Z" fill="#8A6D3B"/>
<path opacity="0.8" d="M227.905 256.785C223.066 254.573 211.197 246.48 201.539 251.248C196.935 253.542 194.357 251.797 192.594 249.304C191.823 248.229 190.772 247.385 189.554 246.86C188.336 246.336 186.997 246.152 185.681 246.329C183.849 246.583 182.225 247.703 180.317 247.064C178.595 246.48 177.185 244.948 175.478 244.24C171.558 242.695 167.212 242.59 163.221 243.945C157.151 245.958 154.006 253.013 147.383 253.824C144.148 254.223 140.837 254.25 137.705 255.315C136.468 255.741 135.631 258.434 136.171 259.561C136.266 259.754 136.394 259.928 136.551 260.076C138.625 262.089 145.952 261.079 148.192 261.155C156.709 261.443 165.24 261.533 173.77 261.704C183.909 261.906 194.06 262.004 204.222 262C212.994 262 221.767 262 230.532 261.753C234.68 261.636 240.155 262.158 244.158 260.674C244.321 260.635 244.475 260.568 244.614 260.475C247.587 257.527 232.738 259.004 227.905 256.785Z" fill="#8A6D3B"/>
</g>
<defs>
<filter id="filter0_f" x="0.246094" y="0" width="561" height="554" filterUnits="userSpaceOnUse" color-interpolation-filters="sRGB">
<feFlood flood-opacity="0" result="BackgroundImageFix"/>
<feBlend mode="normal" in="SourceGraphic" in2="BackgroundImageFix" result="shape"/>
<feGaussianBlur stdDeviation="71.5" result="effect1_foregroundBlur"/>
</filter>
</defs>
</svg>
